G04*
G04 #@! TF.GenerationSoftware,Altium Limited,Altium Designer,25.2.1 (25)*
G04*
G04 Layer_Color=65535*
%FSLAX44Y44*%
%MOMM*%
G71*
G04*
G04 #@! TF.SameCoordinates,62041A71-F918-47F9-96D0-25FA0287C397*
G04*
G04*
G04 #@! TF.FilePolarity,Positive*
G04*
G01*
G75*
%ADD10C,0.2500*%
D10*
X1543799Y37500D02*
Y52495D01*
X1551297D01*
X1553796Y49996D01*
Y44998D01*
X1551297Y42498D01*
X1543799D01*
X1566292Y52495D02*
X1561294D01*
X1558795Y49996D01*
Y39999D01*
X1561294Y37500D01*
X1566292D01*
X1568791Y39999D01*
Y49996D01*
X1566292Y52495D01*
X1573790D02*
Y37500D01*
X1578788Y42498D01*
X1583786Y37500D01*
Y52495D01*
X1598782D02*
X1588785D01*
Y37500D01*
X1598782D01*
X1588785Y44998D02*
X1593783D01*
X1603780Y37500D02*
Y52495D01*
X1611277D01*
X1613777Y49996D01*
Y44998D01*
X1611277Y42498D01*
X1603780D01*
X1608778D02*
X1613777Y37500D01*
X1269796Y49996D02*
X1267297Y52495D01*
X1262299D01*
X1259799Y49996D01*
Y47497D01*
X1262299Y44998D01*
X1267297D01*
X1269796Y42498D01*
Y39999D01*
X1267297Y37500D01*
X1262299D01*
X1259799Y39999D01*
X1274795Y52495D02*
X1279793D01*
X1277294D01*
Y37500D01*
X1274795D01*
X1279793D01*
X1287290D02*
Y52495D01*
X1292289Y47497D01*
X1297287Y52495D01*
Y37500D01*
X1062799D02*
Y52495D01*
X1070297D01*
X1072796Y49996D01*
Y44998D01*
X1070297Y42498D01*
X1062799D01*
X1067798D02*
X1072796Y37500D01*
X1087791Y49996D02*
X1085292Y52495D01*
X1080294D01*
X1077795Y49996D01*
Y47497D01*
X1080294Y44998D01*
X1085292D01*
X1087791Y42498D01*
Y39999D01*
X1085292Y37500D01*
X1080294D01*
X1077795Y39999D01*
X1092790Y44998D02*
X1102786D01*
X1115282Y37500D02*
Y52495D01*
X1107785Y44998D01*
X1117782D01*
X1122780Y49996D02*
X1125279Y52495D01*
X1130278D01*
X1132777Y49996D01*
Y47497D01*
X1130278Y44998D01*
X1132777Y42498D01*
Y39999D01*
X1130278Y37500D01*
X1125279D01*
X1122780Y39999D01*
Y42498D01*
X1125279Y44998D01*
X1122780Y47497D01*
Y49996D01*
X1125279Y44998D02*
X1130278D01*
X1147772Y52495D02*
X1137775D01*
Y44998D01*
X1142774Y47497D01*
X1145273D01*
X1147772Y44998D01*
Y39999D01*
X1145273Y37500D01*
X1140274D01*
X1137775Y39999D01*
X1177762Y37500D02*
X1167765D01*
X1177762Y47497D01*
Y49996D01*
X1175263Y52495D01*
X1170265D01*
X1167765Y49996D01*
X915799Y37500D02*
Y52495D01*
X923297D01*
X925796Y49996D01*
Y44998D01*
X923297Y42498D01*
X915799D01*
X920798D02*
X925796Y37500D01*
X940791Y49996D02*
X938292Y52495D01*
X933294D01*
X930795Y49996D01*
Y47497D01*
X933294Y44998D01*
X938292D01*
X940791Y42498D01*
Y39999D01*
X938292Y37500D01*
X933294D01*
X930795Y39999D01*
X945790Y44998D02*
X955787D01*
X968282Y37500D02*
Y52495D01*
X960785Y44998D01*
X970782D01*
X975780Y49996D02*
X978279Y52495D01*
X983278D01*
X985777Y49996D01*
Y47497D01*
X983278Y44998D01*
X985777Y42498D01*
Y39999D01*
X983278Y37500D01*
X978279D01*
X975780Y39999D01*
Y42498D01*
X978279Y44998D01*
X975780Y47497D01*
Y49996D01*
X978279Y44998D02*
X983278D01*
X1000772Y52495D02*
X990775D01*
Y44998D01*
X995773Y47497D01*
X998273D01*
X1000772Y44998D01*
Y39999D01*
X998273Y37500D01*
X993274D01*
X990775Y39999D01*
X1020765Y37500D02*
X1025764D01*
X1023265D01*
Y52495D01*
X1020765Y49996D01*
X350144Y52495D02*
Y37500D01*
X355142Y42498D01*
X360141Y37500D01*
Y52495D01*
X365139Y37500D02*
Y47497D01*
X370137Y52495D01*
X375136Y47497D01*
Y37500D01*
Y44998D01*
X365139D01*
X380134Y37500D02*
Y52495D01*
X390131Y37500D01*
Y52495D01*
X727144D02*
Y37500D01*
X737141D01*
X742139D02*
Y47497D01*
X747137Y52495D01*
X752136Y47497D01*
Y37500D01*
Y44998D01*
X742139D01*
X757134Y37500D02*
Y52495D01*
X767131Y37500D01*
Y52495D01*
X797121Y37500D02*
X787124D01*
X797121Y47497D01*
Y49996D01*
X794622Y52495D01*
X789624D01*
X787124Y49996D01*
X565144Y52495D02*
Y37500D01*
X575141D01*
X580139D02*
Y47497D01*
X585137Y52495D01*
X590136Y47497D01*
Y37500D01*
Y44998D01*
X580139D01*
X595134Y37500D02*
Y52495D01*
X605131Y37500D01*
Y52495D01*
X625124Y37500D02*
X630123D01*
X627624D01*
Y52495D01*
X625124Y49996D01*
M02*
