G04*
G04 #@! TF.GenerationSoftware,Altium Limited,Altium Designer,25.5.2 (35)*
G04*
G04 Layer_Color=16711935*
%FSLAX44Y44*%
%MOMM*%
G71*
G04*
G04 #@! TF.SameCoordinates,7FE83EBB-F424-4E48-BF24-F714E467DA33*
G04*
G04*
G04 #@! TF.FilePolarity,Negative*
G04*
G01*
G75*
%ADD72R,0.9508X1.0508*%
%ADD77R,1.0508X1.0508*%
%ADD78R,1.0508X0.9508*%
%ADD79R,1.0508X1.0508*%
%ADD90R,0.8509X0.8509*%
%ADD94P,1.4861X4X90.0*%
G04:AMPARAMS|DCode=98|XSize=1.0508mm|YSize=0.9508mm|CornerRadius=0mm|HoleSize=0mm|Usage=FLASHONLY|Rotation=45.000|XOffset=0mm|YOffset=0mm|HoleType=Round|Shape=Rectangle|*
%AMROTATEDRECTD98*
4,1,4,-0.0354,-0.7077,-0.7077,-0.0354,0.0354,0.7077,0.7077,0.0354,-0.0354,-0.7077,0.0*
%
%ADD98ROTATEDRECTD98*%

G04:AMPARAMS|DCode=110|XSize=1.0508mm|YSize=0.9508mm|CornerRadius=0mm|HoleSize=0mm|Usage=FLASHONLY|Rotation=315.000|XOffset=0mm|YOffset=0mm|HoleType=Round|Shape=Rectangle|*
%AMROTATEDRECTD110*
4,1,4,-0.7077,0.0354,-0.0354,0.7077,0.7077,-0.0354,0.0354,-0.7077,-0.7077,0.0354,0.0*
%
%ADD110ROTATEDRECTD110*%

G04:AMPARAMS|DCode=114|XSize=0.7508mm|YSize=0.7008mm|CornerRadius=0mm|HoleSize=0mm|Usage=FLASHONLY|Rotation=315.000|XOffset=0mm|YOffset=0mm|HoleType=Round|Shape=Rectangle|*
%AMROTATEDRECTD114*
4,1,4,-0.5132,0.0177,-0.0177,0.5132,0.5132,-0.0177,0.0177,-0.5132,-0.5132,0.0177,0.0*
%
%ADD114ROTATEDRECTD114*%

G04:AMPARAMS|DCode=115|XSize=0.7508mm|YSize=0.7008mm|CornerRadius=0mm|HoleSize=0mm|Usage=FLASHONLY|Rotation=45.000|XOffset=0mm|YOffset=0mm|HoleType=Round|Shape=Rectangle|*
%AMROTATEDRECTD115*
4,1,4,-0.0177,-0.5132,-0.5132,-0.0177,0.0177,0.5132,0.5132,0.0177,-0.0177,-0.5132,0.0*
%
%ADD115ROTATEDRECTD115*%

%ADD118C,1.2000*%
%ADD129C,2.6008*%
%ADD130C,1.2108*%
%ADD131C,1.5658*%
%ADD132C,2.0008*%
%ADD133C,1.7008*%
%ADD134C,2.0308*%
%ADD135C,2.4508*%
%ADD136C,1.4508*%
%ADD137C,1.5708*%
%ADD138R,1.4508X1.4508*%
%ADD139C,2.0758*%
%ADD140R,2.0758X2.0758*%
%ADD141C,2.3008*%
%ADD142R,2.0008X2.0008*%
%ADD143C,3.3008*%
%ADD144C,0.4258*%
%ADD145R,1.2108X1.2108*%
%ADD146C,6.1000*%
%ADD147R,1.7008X1.7008*%
%ADD148C,0.2540*%
G04:AMPARAMS|DCode=187|XSize=0.54mm|YSize=0.705mm|CornerRadius=0.17mm|HoleSize=0mm|Usage=FLASHONLY|Rotation=90.000|XOffset=0mm|YOffset=0mm|HoleType=Round|Shape=RoundedRectangle|*
%AMROUNDEDRECTD187*
21,1,0.5400,0.3650,0,0,90.0*
21,1,0.2000,0.7050,0,0,90.0*
1,1,0.3400,0.1825,0.1000*
1,1,0.3400,0.1825,-0.1000*
1,1,0.3400,-0.1825,-0.1000*
1,1,0.3400,-0.1825,0.1000*
%
%ADD187ROUNDEDRECTD187*%
G04:AMPARAMS|DCode=188|XSize=0.54mm|YSize=0.705mm|CornerRadius=0.17mm|HoleSize=0mm|Usage=FLASHONLY|Rotation=0.000|XOffset=0mm|YOffset=0mm|HoleType=Round|Shape=RoundedRectangle|*
%AMROUNDEDRECTD188*
21,1,0.5400,0.3650,0,0,0.0*
21,1,0.2000,0.7050,0,0,0.0*
1,1,0.3400,0.1000,-0.1825*
1,1,0.3400,-0.1000,-0.1825*
1,1,0.3400,-0.1000,0.1825*
1,1,0.3400,0.1000,0.1825*
%
%ADD188ROUNDEDRECTD188*%
G04:AMPARAMS|DCode=189|XSize=0.34mm|YSize=0.705mm|CornerRadius=0.12mm|HoleSize=0mm|Usage=FLASHONLY|Rotation=90.000|XOffset=0mm|YOffset=0mm|HoleType=Round|Shape=RoundedRectangle|*
%AMROUNDEDRECTD189*
21,1,0.3400,0.4650,0,0,90.0*
21,1,0.1000,0.7050,0,0,90.0*
1,1,0.2400,0.2325,0.0500*
1,1,0.2400,0.2325,-0.0500*
1,1,0.2400,-0.2325,-0.0500*
1,1,0.2400,-0.2325,0.0500*
%
%ADD189ROUNDEDRECTD189*%
G04:AMPARAMS|DCode=190|XSize=0.34mm|YSize=0.705mm|CornerRadius=0.12mm|HoleSize=0mm|Usage=FLASHONLY|Rotation=0.000|XOffset=0mm|YOffset=0mm|HoleType=Round|Shape=RoundedRectangle|*
%AMROUNDEDRECTD190*
21,1,0.3400,0.4650,0,0,0.0*
21,1,0.1000,0.7050,0,0,0.0*
1,1,0.2400,0.0500,-0.2325*
1,1,0.2400,-0.0500,-0.2325*
1,1,0.2400,-0.0500,0.2325*
1,1,0.2400,0.0500,0.2325*
%
%ADD190ROUNDEDRECTD190*%
D72*
X960500Y867250D02*
D03*
X546000Y96500D02*
D03*
X649000Y24250D02*
D03*
X128250Y51250D02*
D03*
X563000Y96500D02*
D03*
X666000Y24250D02*
D03*
X145250Y51250D02*
D03*
X977500Y867250D02*
D03*
X105000Y812750D02*
D03*
X88000D02*
D03*
X88500Y831500D02*
D03*
X105500D02*
D03*
D77*
X961000Y849750D02*
D03*
Y832250D02*
D03*
X961250Y813750D02*
D03*
X128500Y1017500D02*
D03*
X128750Y998750D02*
D03*
Y980000D02*
D03*
X242250Y587000D02*
D03*
X977000Y849750D02*
D03*
X977250Y813750D02*
D03*
X112750Y998750D02*
D03*
X112500Y1017500D02*
D03*
X112750Y980000D02*
D03*
X258250Y587000D02*
D03*
X977000Y832250D02*
D03*
D78*
X1001750Y901500D02*
D03*
X501750Y33250D02*
D03*
X394750Y34000D02*
D03*
X269750Y33000D02*
D03*
X501750Y50250D02*
D03*
X394750Y51000D02*
D03*
X269750Y50000D02*
D03*
X1001750Y884500D02*
D03*
X349250Y1197750D02*
D03*
Y1214750D02*
D03*
D79*
X1153694Y1113500D02*
D03*
X984000Y1119000D02*
D03*
X1029500Y844000D02*
D03*
X815250Y1119000D02*
D03*
X389806Y1109500D02*
D03*
X370623Y1109542D02*
D03*
X350306Y1109750D02*
D03*
X331306D02*
D03*
X1029500Y828000D02*
D03*
X389806Y1125500D02*
D03*
X370623Y1125542D02*
D03*
X984000Y1103000D02*
D03*
X1153694Y1097500D02*
D03*
X815250Y1103000D02*
D03*
X350306Y1125750D02*
D03*
X331306D02*
D03*
D90*
X1187500Y94249D02*
D03*
X1161750Y94499D02*
D03*
X1136000D02*
D03*
X1109250D02*
D03*
Y116501D02*
D03*
X1187500Y116251D02*
D03*
X1136000Y116501D02*
D03*
X1161750D02*
D03*
D94*
X664296Y411157D02*
D03*
X769657Y392149D02*
D03*
X652343Y398907D02*
D03*
X640186Y385814D02*
D03*
X776064Y284686D02*
D03*
X470906Y339093D02*
D03*
X411030Y396720D02*
D03*
X398936Y383814D02*
D03*
X384936Y370564D02*
D03*
X763767Y272029D02*
D03*
X519500Y279500D02*
D03*
X507000Y267056D02*
D03*
X459593Y350407D02*
D03*
X508186Y290814D02*
D03*
X495686Y278370D02*
D03*
X410250Y372500D02*
D03*
X422343Y385407D02*
D03*
X396250Y359250D02*
D03*
X758343Y403463D02*
D03*
X675610Y399843D02*
D03*
X663657Y387593D02*
D03*
X764750Y296000D02*
D03*
X752454Y283343D02*
D03*
X651500Y374500D02*
D03*
D98*
X676989Y424261D02*
D03*
X383354Y345896D02*
D03*
X371333Y357917D02*
D03*
X969055Y636012D02*
D03*
X957045Y622523D02*
D03*
X944805Y608762D02*
D03*
X626490Y372510D02*
D03*
X689010Y412240D02*
D03*
X638511Y360489D02*
D03*
X969065Y610502D02*
D03*
X981076Y623992D02*
D03*
X956826Y596741D02*
D03*
D110*
X1080760Y510260D02*
D03*
X477853Y427417D02*
D03*
X795011Y390511D02*
D03*
X512104Y388917D02*
D03*
X500083Y376896D02*
D03*
X465833Y415396D02*
D03*
X1068740Y498240D02*
D03*
X782990Y378490D02*
D03*
D114*
X447593Y362157D02*
D03*
X438049Y352613D02*
D03*
D115*
X770478Y415272D02*
D03*
X780022Y405728D02*
D03*
D118*
X1063343Y523657D02*
D03*
X337000Y1178250D02*
D03*
X326804Y1214331D02*
D03*
X124000Y831750D02*
D03*
X87750Y794500D02*
D03*
X372250Y1196250D02*
D03*
X488500Y1125750D02*
D03*
X484250Y1162500D02*
D03*
X480250Y1201000D02*
D03*
D129*
X1528906Y880670D02*
D03*
X1579706D02*
D03*
Y829870D02*
D03*
X1528906D02*
D03*
D130*
X1382750Y212000D02*
D03*
X1433750Y129500D02*
D03*
X1382750D02*
D03*
D131*
X1351878Y39319D02*
D03*
X1306878D02*
D03*
D132*
X52500Y1047100D02*
D03*
Y1072500D02*
D03*
D133*
X82600Y757500D02*
D03*
X57200D02*
D03*
X108000D02*
D03*
X133400D02*
D03*
X158800D02*
D03*
D134*
X290000Y560250D02*
D03*
Y585650D02*
D03*
Y611050D02*
D03*
Y636450D02*
D03*
X1294328Y64219D02*
D03*
X1364428D02*
D03*
D135*
X557540Y193928D02*
D03*
X712190Y121528D02*
D03*
X402890D02*
D03*
X330765Y121427D02*
D03*
X175865D02*
D03*
D136*
X532140Y179928D02*
D03*
X671840D02*
D03*
X310465Y154427D02*
D03*
X468640Y154528D02*
D03*
X481340Y179928D02*
D03*
X494040Y154528D02*
D03*
X455940Y179928D02*
D03*
X506740D02*
D03*
X297765Y179827D02*
D03*
X285065Y154427D02*
D03*
X259665D02*
D03*
X234265D02*
D03*
X208865D02*
D03*
X272365Y179827D02*
D03*
X246965D02*
D03*
X221565D02*
D03*
X646440Y179928D02*
D03*
X621040D02*
D03*
X595640D02*
D03*
X519440Y154528D02*
D03*
X659140D02*
D03*
X633740D02*
D03*
X608340D02*
D03*
D137*
X552440Y50427D02*
D03*
X448240D02*
D03*
X187015Y50127D02*
D03*
X294215D02*
D03*
X319615D02*
D03*
X212415D02*
D03*
X666840Y50427D02*
D03*
X692240D02*
D03*
X422840D02*
D03*
X527040D02*
D03*
X588040Y68128D02*
D03*
X562640D02*
D03*
D138*
X443240Y154528D02*
D03*
X196165Y179827D02*
D03*
X582940Y154528D02*
D03*
D139*
X852126Y62143D02*
D03*
X814026D02*
D03*
X1001986D02*
D03*
X963886D02*
D03*
D140*
X890227D02*
D03*
X1040087D02*
D03*
D141*
X1554306Y855270D02*
D03*
X1434558Y79556D02*
D03*
X1484557D02*
D03*
D142*
X52500Y1097900D02*
D03*
D143*
X310465Y90927D02*
D03*
X196165D02*
D03*
X684540Y91028D02*
D03*
X430540D02*
D03*
D144*
X1114547Y26160D02*
D03*
X1199547D02*
D03*
D145*
X1433750Y212000D02*
D03*
D146*
X1499957Y154320D02*
D03*
Y1154320D02*
D03*
X683193Y1157458D02*
D03*
X203193Y827459D02*
D03*
X683193D02*
D03*
X203193Y1157458D02*
D03*
X99956Y154320D02*
D03*
Y1154320D02*
D03*
D147*
X31800Y757500D02*
D03*
D148*
X1268687Y1222722D02*
D03*
X1319487Y1171922D02*
D03*
X1357587Y1146522D02*
D03*
X1294086Y1222722D02*
D03*
X1344886Y1171922D02*
D03*
X1382986Y1146522D02*
D03*
X862287Y3522D02*
D03*
X887686D02*
D03*
X582887D02*
D03*
X214587Y282910D02*
D03*
X201887Y308322D02*
D03*
X214587Y232122D02*
D03*
X138386Y333722D02*
D03*
X189186Y282922D02*
D03*
X74886Y511522D02*
D03*
X125687Y460722D02*
D03*
X74886Y968722D02*
D03*
X36786Y943322D02*
D03*
X49486Y917922D02*
D03*
X62186Y892522D02*
D03*
X36786D02*
D03*
X49486Y867122D02*
D03*
X62186Y841722D02*
D03*
X328886Y1222722D02*
D03*
X1464286Y552496D02*
D03*
X1240500Y609000D02*
D03*
X786087Y257522D02*
D03*
X316187Y333722D02*
D03*
X467595Y379365D02*
D03*
X472165Y383792D02*
D03*
X465915Y386042D02*
D03*
X349250Y1240000D02*
D03*
X386250Y1253250D02*
D03*
X1573486Y1222722D02*
D03*
Y1171922D02*
D03*
X1586187Y1146522D02*
D03*
X1573486Y1121122D02*
D03*
Y1070322D02*
D03*
X1586187Y1044922D02*
D03*
X1573486Y1019522D02*
D03*
X1586187Y994122D02*
D03*
X1573486Y968722D02*
D03*
Y917922D02*
D03*
X1586187Y790922D02*
D03*
X1573486Y765522D02*
D03*
X1586187Y740122D02*
D03*
X1573486Y714722D02*
D03*
X1586187Y689322D02*
D03*
Y638522D02*
D03*
X1573486Y613122D02*
D03*
X1586187Y587722D02*
D03*
X1573486Y511522D02*
D03*
X1586187Y486122D02*
D03*
Y435322D02*
D03*
Y384522D02*
D03*
Y333722D02*
D03*
X1573486Y308322D02*
D03*
X1586187Y282922D02*
D03*
X1573486Y257522D02*
D03*
X1586187Y232122D02*
D03*
X1573486Y105122D02*
D03*
X1586187Y79722D02*
D03*
X1573486Y54322D02*
D03*
Y3522D02*
D03*
X1548087Y1171922D02*
D03*
Y1121122D02*
D03*
X1560786Y1095722D02*
D03*
X1548087Y1019522D02*
D03*
Y968722D02*
D03*
Y917922D02*
D03*
X1560786Y841722D02*
D03*
Y740122D02*
D03*
X1548087Y714722D02*
D03*
Y663922D02*
D03*
Y613122D02*
D03*
X1560786Y587722D02*
D03*
X1548087Y562322D02*
D03*
X1560786Y536922D02*
D03*
X1548087Y511522D02*
D03*
Y460722D02*
D03*
Y409922D02*
D03*
X1560786Y384522D02*
D03*
X1548087Y359122D02*
D03*
X1560786Y333722D02*
D03*
X1548087Y308322D02*
D03*
X1560786Y282922D02*
D03*
Y232122D02*
D03*
X1548087Y206722D02*
D03*
Y155922D02*
D03*
Y105122D02*
D03*
X1560786Y79722D02*
D03*
X1548087Y54322D02*
D03*
Y3522D02*
D03*
X1522686Y1222722D02*
D03*
X1535387Y1197322D02*
D03*
X1522686Y1171922D02*
D03*
X1535387Y1146522D02*
D03*
X1522686Y1121122D02*
D03*
X1535387Y1044922D02*
D03*
X1522686Y1019522D02*
D03*
X1535387Y994122D02*
D03*
X1522686Y968722D02*
D03*
X1535387Y943322D02*
D03*
X1522686Y917922D02*
D03*
Y765522D02*
D03*
X1535387Y740122D02*
D03*
X1522686Y714722D02*
D03*
X1535387Y689322D02*
D03*
Y638522D02*
D03*
Y587722D02*
D03*
X1522686Y562322D02*
D03*
X1535387Y536922D02*
D03*
X1522686Y460722D02*
D03*
Y409922D02*
D03*
X1535387Y384522D02*
D03*
Y333722D02*
D03*
X1522686Y308322D02*
D03*
X1535387Y232122D02*
D03*
X1522686Y206722D02*
D03*
X1535387Y181322D02*
D03*
X1522686Y155922D02*
D03*
Y105122D02*
D03*
X1535387Y79722D02*
D03*
X1522686Y54322D02*
D03*
X1535387Y28922D02*
D03*
X1522686Y3522D02*
D03*
X1509987Y1197322D02*
D03*
X1497287Y1171922D02*
D03*
X1509987Y1044922D02*
D03*
X1497287Y968722D02*
D03*
X1509987Y892522D02*
D03*
Y790922D02*
D03*
Y740122D02*
D03*
X1497287Y562322D02*
D03*
Y460722D02*
D03*
Y409922D02*
D03*
Y308322D02*
D03*
X1509987Y232122D02*
D03*
Y181322D02*
D03*
Y130522D02*
D03*
X1497287Y54322D02*
D03*
Y3522D02*
D03*
X1484586Y1146522D02*
D03*
Y1044922D02*
D03*
Y994122D02*
D03*
X1471886Y968722D02*
D03*
Y867122D02*
D03*
Y663922D02*
D03*
X1484586Y536922D02*
D03*
X1471886Y460722D02*
D03*
Y409922D02*
D03*
Y308322D02*
D03*
Y206722D02*
D03*
X1484586Y181322D02*
D03*
Y130522D02*
D03*
X1471886Y54322D02*
D03*
Y3522D02*
D03*
X1446487Y1222722D02*
D03*
X1459187Y1197322D02*
D03*
X1446487Y1121122D02*
D03*
X1459187Y1095722D02*
D03*
X1446487Y1070322D02*
D03*
X1459187Y1044922D02*
D03*
X1446487Y917922D02*
D03*
X1459187Y790922D02*
D03*
X1446487Y765522D02*
D03*
X1459187Y740122D02*
D03*
Y536922D02*
D03*
Y384522D02*
D03*
X1446487Y308322D02*
D03*
Y257522D02*
D03*
X1459187Y232122D02*
D03*
X1446487Y206722D02*
D03*
Y155922D02*
D03*
X1459187Y79722D02*
D03*
X1446487Y54322D02*
D03*
X1459187Y28922D02*
D03*
X1421086Y1222722D02*
D03*
Y1171922D02*
D03*
X1433786Y1095722D02*
D03*
X1421086Y1070322D02*
D03*
Y1019522D02*
D03*
Y968722D02*
D03*
Y867122D02*
D03*
X1433786Y740122D02*
D03*
X1421086Y714722D02*
D03*
Y663922D02*
D03*
X1433786Y638522D02*
D03*
X1421086Y562322D02*
D03*
X1433786Y536922D02*
D03*
Y486122D02*
D03*
X1421086Y460722D02*
D03*
X1433786Y435322D02*
D03*
X1421086Y409922D02*
D03*
X1433786Y384522D02*
D03*
X1421086Y308322D02*
D03*
X1433786Y282922D02*
D03*
Y232122D02*
D03*
Y181322D02*
D03*
X1421086Y105122D02*
D03*
Y54322D02*
D03*
X1433786Y28922D02*
D03*
X1421086Y3522D02*
D03*
X1395686Y1222722D02*
D03*
Y1171922D02*
D03*
X1408387Y1146522D02*
D03*
X1395686Y1070322D02*
D03*
X1408387Y1044922D02*
D03*
X1395686Y1019522D02*
D03*
Y968722D02*
D03*
X1408387Y943322D02*
D03*
Y892522D02*
D03*
X1395686Y867122D02*
D03*
X1408387Y841722D02*
D03*
X1395686Y765522D02*
D03*
X1408387Y740122D02*
D03*
X1395686Y714722D02*
D03*
X1408387Y689322D02*
D03*
Y638522D02*
D03*
X1395686Y562322D02*
D03*
Y460722D02*
D03*
X1408387Y435322D02*
D03*
X1395686Y409922D02*
D03*
Y206722D02*
D03*
X1408387Y130522D02*
D03*
X1395686Y54322D02*
D03*
X1382986Y1197322D02*
D03*
X1370287Y1171922D02*
D03*
Y1070322D02*
D03*
X1382986Y943322D02*
D03*
X1370287Y917922D02*
D03*
X1382986Y892522D02*
D03*
X1370287Y867122D02*
D03*
X1382986Y841722D02*
D03*
Y740122D02*
D03*
Y689322D02*
D03*
Y638522D02*
D03*
Y587722D02*
D03*
X1370287Y562322D02*
D03*
Y409922D02*
D03*
X1382986Y282922D02*
D03*
X1370287Y257522D02*
D03*
X1382986Y232122D02*
D03*
X1370287Y206722D02*
D03*
X1382986Y181322D02*
D03*
X1370287Y155922D02*
D03*
Y105122D02*
D03*
X1382986Y79722D02*
D03*
X1370287Y54322D02*
D03*
X1382986Y28922D02*
D03*
X1370287Y3522D02*
D03*
X1344886Y1222722D02*
D03*
X1357587Y1197322D02*
D03*
X1344886Y1121122D02*
D03*
X1357587Y1095722D02*
D03*
X1344886Y1019522D02*
D03*
Y968722D02*
D03*
X1357587Y943322D02*
D03*
Y892522D02*
D03*
X1344886Y867122D02*
D03*
Y765522D02*
D03*
X1357587Y740122D02*
D03*
X1344886Y714722D02*
D03*
X1357587Y689322D02*
D03*
X1344886Y663922D02*
D03*
X1357587Y638522D02*
D03*
Y587722D02*
D03*
X1344886Y409922D02*
D03*
X1357587Y384522D02*
D03*
X1344886Y206722D02*
D03*
X1357587Y181322D02*
D03*
Y130522D02*
D03*
X1344886Y105122D02*
D03*
X1357587Y28922D02*
D03*
X1344886Y3522D02*
D03*
X1319487Y1222722D02*
D03*
X1332186Y1197322D02*
D03*
X1319487Y1121122D02*
D03*
Y1070322D02*
D03*
X1332186Y1044922D02*
D03*
X1319487Y1019522D02*
D03*
X1332186Y994122D02*
D03*
Y943322D02*
D03*
X1319487Y917922D02*
D03*
X1332186Y892522D02*
D03*
Y841722D02*
D03*
Y740122D02*
D03*
X1319487Y714722D02*
D03*
X1332186Y689322D02*
D03*
X1319487Y663922D02*
D03*
X1332186Y587722D02*
D03*
X1319487Y409922D02*
D03*
X1332186Y384522D02*
D03*
Y282922D02*
D03*
X1319487Y206722D02*
D03*
X1332186Y79722D02*
D03*
X1319487Y54322D02*
D03*
X1332186Y28922D02*
D03*
X1294086Y1171922D02*
D03*
Y1121122D02*
D03*
Y917922D02*
D03*
Y714722D02*
D03*
Y663922D02*
D03*
X1306786Y638522D02*
D03*
Y587722D02*
D03*
Y384522D02*
D03*
X1294086Y308322D02*
D03*
X1306786Y282922D02*
D03*
Y232122D02*
D03*
Y28922D02*
D03*
X1281387Y1197322D02*
D03*
X1268687Y1171922D02*
D03*
Y1121122D02*
D03*
Y1070322D02*
D03*
X1281387Y994122D02*
D03*
X1268687Y867122D02*
D03*
X1281387Y790922D02*
D03*
X1268687Y765522D02*
D03*
X1281387Y740122D02*
D03*
X1268687Y663922D02*
D03*
Y562322D02*
D03*
X1281387Y536922D02*
D03*
X1268687Y409922D02*
D03*
X1281387Y282922D02*
D03*
X1268687Y3522D02*
D03*
X1255986Y1197322D02*
D03*
X1243287Y1171922D02*
D03*
X1255986Y1146522D02*
D03*
X1243287Y1121122D02*
D03*
X1255986Y1095722D02*
D03*
X1243287Y1070322D02*
D03*
X1255986Y1044922D02*
D03*
X1243287Y1019522D02*
D03*
X1255986Y994122D02*
D03*
X1243287Y816322D02*
D03*
X1255986Y790922D02*
D03*
X1243287Y714722D02*
D03*
X1255986Y689322D02*
D03*
X1243287Y663922D02*
D03*
X1255986Y638522D02*
D03*
X1243287Y613122D02*
D03*
Y511522D02*
D03*
X1255986Y486122D02*
D03*
Y435322D02*
D03*
Y28922D02*
D03*
X1243287Y3522D02*
D03*
X1217887Y1171922D02*
D03*
X1230586Y1095722D02*
D03*
Y892522D02*
D03*
X1217887Y867122D02*
D03*
X1230586Y790922D02*
D03*
Y740122D02*
D03*
Y689322D02*
D03*
X1217887Y663922D02*
D03*
Y613122D02*
D03*
X1230586Y486122D02*
D03*
Y435322D02*
D03*
X1217887Y155922D02*
D03*
Y105122D02*
D03*
X1230586Y79722D02*
D03*
Y28922D02*
D03*
X1205186Y1146522D02*
D03*
Y1095722D02*
D03*
Y1044922D02*
D03*
Y994122D02*
D03*
X1192486Y968722D02*
D03*
X1205186Y943322D02*
D03*
Y841722D02*
D03*
Y740122D02*
D03*
Y689322D02*
D03*
X1192486Y663922D02*
D03*
Y613122D02*
D03*
X1205186Y587722D02*
D03*
X1192486Y105122D02*
D03*
X1205186Y79722D02*
D03*
X1192486Y54322D02*
D03*
X1205186Y28922D02*
D03*
X1179787Y1044922D02*
D03*
Y994122D02*
D03*
Y790922D02*
D03*
X1167086Y765522D02*
D03*
X1179787Y740122D02*
D03*
X1167086Y714722D02*
D03*
X1179787Y689322D02*
D03*
Y638522D02*
D03*
Y181322D02*
D03*
X1167086Y105122D02*
D03*
Y54322D02*
D03*
X1154387Y1044922D02*
D03*
X1141686Y765522D02*
D03*
X1154387Y740122D02*
D03*
Y689322D02*
D03*
X1141686Y663922D02*
D03*
X1116286Y1121122D02*
D03*
Y1019522D02*
D03*
X1128987Y994122D02*
D03*
Y740122D02*
D03*
X1116286Y714722D02*
D03*
X1128987Y689322D02*
D03*
X1103587Y994122D02*
D03*
X1090887Y968722D02*
D03*
X1103587Y232122D02*
D03*
X1090887Y206722D02*
D03*
X1103587Y181322D02*
D03*
X1090887Y155922D02*
D03*
Y54322D02*
D03*
X1103587Y28922D02*
D03*
X1065487Y1070322D02*
D03*
Y1019522D02*
D03*
X1078186Y994122D02*
D03*
X1065487Y968722D02*
D03*
X1040087Y1121122D02*
D03*
X1052786Y1095722D02*
D03*
X1040087Y1019522D02*
D03*
X1052786Y994122D02*
D03*
X1040087Y968722D02*
D03*
Y3522D02*
D03*
X1027386Y994122D02*
D03*
X1014687Y968722D02*
D03*
X1027386Y28922D02*
D03*
X1001986Y994122D02*
D03*
X963886Y1121122D02*
D03*
Y1019522D02*
D03*
X938486D02*
D03*
Y54322D02*
D03*
X925787Y1095722D02*
D03*
X913086Y1019522D02*
D03*
X925787Y994122D02*
D03*
X913086Y54322D02*
D03*
X874986Y1095722D02*
D03*
X862287Y1070322D02*
D03*
Y257522D02*
D03*
Y206722D02*
D03*
X874986Y130522D02*
D03*
Y28922D02*
D03*
X836887Y257522D02*
D03*
X849586Y181322D02*
D03*
Y130522D02*
D03*
Y28922D02*
D03*
X811487Y257522D02*
D03*
X824186Y232122D02*
D03*
Y181322D02*
D03*
X811487Y155922D02*
D03*
X824186Y28922D02*
D03*
X786087Y206722D02*
D03*
X798786Y181322D02*
D03*
X786087Y105122D02*
D03*
X798786Y79722D02*
D03*
X786087Y54322D02*
D03*
X798786Y28922D02*
D03*
X786087Y3522D02*
D03*
X760686Y1222722D02*
D03*
Y1171922D02*
D03*
Y1121122D02*
D03*
Y1070322D02*
D03*
Y1019522D02*
D03*
Y968722D02*
D03*
X773387Y943322D02*
D03*
X760686Y917922D02*
D03*
Y54322D02*
D03*
X773387Y28922D02*
D03*
X760686Y3522D02*
D03*
X735286Y1222722D02*
D03*
Y1171922D02*
D03*
X747987Y1095722D02*
D03*
Y232122D02*
D03*
X735286Y155922D02*
D03*
X747987Y130522D02*
D03*
X735286Y105122D02*
D03*
X747987Y79722D02*
D03*
X735286Y54322D02*
D03*
X747987Y28922D02*
D03*
X735286Y3522D02*
D03*
X709886Y1171922D02*
D03*
Y155922D02*
D03*
X722587Y79722D02*
D03*
X709886Y54322D02*
D03*
X722587Y28922D02*
D03*
X684486Y1222722D02*
D03*
X697187Y1197322D02*
D03*
Y1146522D02*
D03*
Y181322D02*
D03*
Y130522D02*
D03*
X671786Y1197322D02*
D03*
X659087Y1019522D02*
D03*
X671786Y994122D02*
D03*
Y943322D02*
D03*
X659087Y917922D02*
D03*
X671786Y892522D02*
D03*
X659087Y867122D02*
D03*
X671786Y841722D02*
D03*
X646386Y1197322D02*
D03*
X633686Y1019522D02*
D03*
X646386Y994122D02*
D03*
Y943322D02*
D03*
Y892522D02*
D03*
X633686Y867122D02*
D03*
X646386Y841722D02*
D03*
X633686Y3522D02*
D03*
X620987Y1044922D02*
D03*
Y994122D02*
D03*
Y943322D02*
D03*
X608287Y917922D02*
D03*
X620987Y841722D02*
D03*
X608287Y816322D02*
D03*
Y3522D02*
D03*
X595587Y1044922D02*
D03*
Y994122D02*
D03*
Y943322D02*
D03*
Y841722D02*
D03*
X570187Y1095722D02*
D03*
Y1044922D02*
D03*
Y994122D02*
D03*
Y943322D02*
D03*
Y841722D02*
D03*
X557486Y3522D02*
D03*
X544786Y1095722D02*
D03*
X532086Y1070322D02*
D03*
X544786Y994122D02*
D03*
Y943322D02*
D03*
Y841722D02*
D03*
X532086Y3522D02*
D03*
X519386Y1044922D02*
D03*
Y994122D02*
D03*
Y943322D02*
D03*
X506687Y3522D02*
D03*
X481287Y1222722D02*
D03*
X493987Y1095722D02*
D03*
X481287Y1070322D02*
D03*
X493987Y1044922D02*
D03*
X481287Y1019522D02*
D03*
X493987Y994122D02*
D03*
Y943322D02*
D03*
X481287Y917922D02*
D03*
Y816322D02*
D03*
Y3522D02*
D03*
X455886Y1222722D02*
D03*
Y1070322D02*
D03*
Y1019522D02*
D03*
X468587Y994122D02*
D03*
X455886Y968722D02*
D03*
X468587Y943322D02*
D03*
X455886Y917922D02*
D03*
X468587Y892522D02*
D03*
X455886Y816322D02*
D03*
Y3522D02*
D03*
X443186Y1044922D02*
D03*
Y994122D02*
D03*
Y943322D02*
D03*
X430486Y3522D02*
D03*
X405087D02*
D03*
X379687D02*
D03*
X354286D02*
D03*
X341586Y1095722D02*
D03*
X328886Y917922D02*
D03*
Y816322D02*
D03*
Y460722D02*
D03*
Y409922D02*
D03*
Y3522D02*
D03*
X316187Y1197322D02*
D03*
X303486Y1171922D02*
D03*
X316187Y1146522D02*
D03*
X303486Y1121122D02*
D03*
X316187Y1095722D02*
D03*
X303486Y1070322D02*
D03*
X316187Y1044922D02*
D03*
X303486Y1019522D02*
D03*
X316187Y994122D02*
D03*
X303486Y968722D02*
D03*
Y917922D02*
D03*
X316187Y841722D02*
D03*
X303486Y816322D02*
D03*
X316187Y790922D02*
D03*
X303486Y765522D02*
D03*
X316187Y486122D02*
D03*
Y435322D02*
D03*
X303486Y409922D02*
D03*
X316187Y384522D02*
D03*
X303486Y3522D02*
D03*
X278086Y1222722D02*
D03*
X290786Y1197322D02*
D03*
X278086Y1171922D02*
D03*
X290786Y1095722D02*
D03*
X278086Y1070322D02*
D03*
X290786Y1044922D02*
D03*
Y994122D02*
D03*
Y943322D02*
D03*
Y892522D02*
D03*
X278086Y867122D02*
D03*
X290786Y841722D02*
D03*
Y790922D02*
D03*
X278086Y511522D02*
D03*
X290786Y486122D02*
D03*
Y384522D02*
D03*
Y333722D02*
D03*
Y282922D02*
D03*
X278086Y3522D02*
D03*
X252687Y1222722D02*
D03*
Y1171922D02*
D03*
X265387Y1146522D02*
D03*
X252687Y1070322D02*
D03*
X265387Y1044922D02*
D03*
Y994122D02*
D03*
X252687Y968722D02*
D03*
X265387Y943322D02*
D03*
X252687Y917922D02*
D03*
X265387Y892522D02*
D03*
X252687Y867122D02*
D03*
Y816322D02*
D03*
X265387Y790922D02*
D03*
X252687Y765522D02*
D03*
X265387Y740122D02*
D03*
X252687Y714722D02*
D03*
X265387Y536922D02*
D03*
Y486122D02*
D03*
X252687Y460722D02*
D03*
X265387Y435322D02*
D03*
X252687Y359122D02*
D03*
X265387Y333722D02*
D03*
X252687Y308322D02*
D03*
X265387Y282922D02*
D03*
X252687Y257522D02*
D03*
Y3522D02*
D03*
X227286Y1222722D02*
D03*
X239986Y1197322D02*
D03*
X227286Y1171922D02*
D03*
X239986Y1095722D02*
D03*
X227286Y1070322D02*
D03*
Y1019522D02*
D03*
X239986Y994122D02*
D03*
Y943322D02*
D03*
X227286Y917922D02*
D03*
X239986Y892522D02*
D03*
Y790922D02*
D03*
X227286Y714722D02*
D03*
Y562322D02*
D03*
X239986Y536922D02*
D03*
Y486122D02*
D03*
X227286Y460722D02*
D03*
X239986Y333722D02*
D03*
Y282922D02*
D03*
X227286Y3522D02*
D03*
X201887Y1222722D02*
D03*
Y1121122D02*
D03*
Y1070322D02*
D03*
X214587Y1044922D02*
D03*
Y994122D02*
D03*
X201887Y917922D02*
D03*
X214587Y790922D02*
D03*
X201887Y765522D02*
D03*
Y714722D02*
D03*
X214587Y638522D02*
D03*
X201887Y613122D02*
D03*
Y562322D02*
D03*
Y511522D02*
D03*
Y460722D02*
D03*
Y409922D02*
D03*
X214587Y384522D02*
D03*
X201887Y359122D02*
D03*
X214587Y333722D02*
D03*
X201887Y257522D02*
D03*
Y206722D02*
D03*
Y3522D02*
D03*
X176486Y1171922D02*
D03*
X189186Y1146522D02*
D03*
Y1095722D02*
D03*
Y1044922D02*
D03*
Y994122D02*
D03*
X176486Y917922D02*
D03*
X189186Y892522D02*
D03*
X176486Y816322D02*
D03*
X189186Y790922D02*
D03*
Y740122D02*
D03*
Y638522D02*
D03*
X176486Y613122D02*
D03*
X189186Y587722D02*
D03*
X176486Y511522D02*
D03*
X189186Y435322D02*
D03*
X176486Y409922D02*
D03*
X189186Y384522D02*
D03*
X176486Y359122D02*
D03*
Y155922D02*
D03*
X151087Y1222722D02*
D03*
X163787Y1197322D02*
D03*
X151087Y1171922D02*
D03*
X163787Y1146522D02*
D03*
X151087Y1070322D02*
D03*
X163787Y1044922D02*
D03*
Y994122D02*
D03*
X151087Y968722D02*
D03*
Y917922D02*
D03*
Y867122D02*
D03*
Y816322D02*
D03*
Y765522D02*
D03*
Y714722D02*
D03*
Y613122D02*
D03*
X163787Y587722D02*
D03*
X151087Y562322D02*
D03*
X163787Y486122D02*
D03*
X151087Y460722D02*
D03*
X163787Y435322D02*
D03*
X151087Y409922D02*
D03*
X163787Y384522D02*
D03*
X151087Y308322D02*
D03*
X163787Y282922D02*
D03*
X151087Y257522D02*
D03*
X163787Y181322D02*
D03*
X151087Y155922D02*
D03*
Y3522D02*
D03*
X125687Y1222722D02*
D03*
Y1171922D02*
D03*
Y1121122D02*
D03*
Y1070322D02*
D03*
X138386Y1044922D02*
D03*
X125687Y917922D02*
D03*
X138386Y892522D02*
D03*
Y790922D02*
D03*
Y740122D02*
D03*
Y638522D02*
D03*
X125687Y613122D02*
D03*
X138386Y587722D02*
D03*
X125687Y511522D02*
D03*
X138386Y435322D02*
D03*
Y384522D02*
D03*
X125687Y308322D02*
D03*
X138386Y282922D02*
D03*
X125687Y206722D02*
D03*
X138386Y181322D02*
D03*
X125687Y155922D02*
D03*
X138386Y130522D02*
D03*
X125687Y105122D02*
D03*
Y3522D02*
D03*
X100287Y1222722D02*
D03*
X112986Y1197322D02*
D03*
X100287Y1171922D02*
D03*
Y765522D02*
D03*
X112986Y638522D02*
D03*
X100287Y613122D02*
D03*
Y562322D02*
D03*
X112986Y536922D02*
D03*
X100287Y511522D02*
D03*
Y460722D02*
D03*
X112986Y435322D02*
D03*
Y384522D02*
D03*
Y333722D02*
D03*
Y232122D02*
D03*
Y181322D02*
D03*
X100287Y105122D02*
D03*
Y3522D02*
D03*
X74886Y1222722D02*
D03*
X87586Y1197322D02*
D03*
X74886Y1171922D02*
D03*
Y1070322D02*
D03*
X87586Y1044922D02*
D03*
X74886Y1019522D02*
D03*
X87586Y994122D02*
D03*
X74886Y613122D02*
D03*
X87586Y587722D02*
D03*
Y486122D02*
D03*
X74886Y460722D02*
D03*
X87586Y384522D02*
D03*
X74886Y359122D02*
D03*
X87586Y333722D02*
D03*
Y282922D02*
D03*
X74886Y257522D02*
D03*
X87586Y181322D02*
D03*
Y130522D02*
D03*
Y79722D02*
D03*
Y28922D02*
D03*
X49486Y1222722D02*
D03*
Y1171922D02*
D03*
X62186Y1146522D02*
D03*
X49486Y1121122D02*
D03*
X62186Y994122D02*
D03*
Y689322D02*
D03*
X49486Y663922D02*
D03*
X62186Y638522D02*
D03*
X49486Y613122D02*
D03*
X62186Y587722D02*
D03*
X49486Y562322D02*
D03*
Y511522D02*
D03*
X62186Y486122D02*
D03*
X49486Y460722D02*
D03*
X62186Y435322D02*
D03*
Y384522D02*
D03*
X49486Y359122D02*
D03*
X62186Y333722D02*
D03*
X49486Y308322D02*
D03*
X62186Y282922D02*
D03*
X49486Y257522D02*
D03*
Y206722D02*
D03*
X62186Y181322D02*
D03*
X49486Y105122D02*
D03*
X62186Y79722D02*
D03*
X49486Y3522D02*
D03*
X24086Y1171922D02*
D03*
X36786Y1146522D02*
D03*
X24086Y1121122D02*
D03*
Y1070322D02*
D03*
X36786Y1044922D02*
D03*
Y994122D02*
D03*
X24086Y917922D02*
D03*
Y867122D02*
D03*
Y816322D02*
D03*
X36786Y790922D02*
D03*
X24086Y714722D02*
D03*
Y663922D02*
D03*
X36786Y638522D02*
D03*
X24086Y613122D02*
D03*
Y562322D02*
D03*
Y511522D02*
D03*
Y460722D02*
D03*
X36786Y435322D02*
D03*
X24086Y359122D02*
D03*
Y308322D02*
D03*
X36786Y282922D02*
D03*
X24086Y257522D02*
D03*
Y206722D02*
D03*
Y155922D02*
D03*
Y105122D02*
D03*
Y54322D02*
D03*
Y3522D02*
D03*
X1419000Y1138654D02*
D03*
X440250Y1187750D02*
D03*
X1269250Y1189250D02*
D03*
X449500Y1187750D02*
D03*
D187*
X483650Y121250D02*
D03*
X628015Y119675D02*
D03*
X492000Y121250D02*
D03*
X636365Y119675D02*
D03*
D188*
X271000Y122850D02*
D03*
X221500Y122350D02*
D03*
Y114000D02*
D03*
X271000Y114500D02*
D03*
D189*
X483650Y111250D02*
D03*
Y131250D02*
D03*
Y126250D02*
D03*
Y116250D02*
D03*
X492000Y131250D02*
D03*
Y126250D02*
D03*
Y116250D02*
D03*
Y111250D02*
D03*
X636365Y109675D02*
D03*
Y114675D02*
D03*
Y124675D02*
D03*
Y129675D02*
D03*
X628015D02*
D03*
Y124675D02*
D03*
Y114675D02*
D03*
Y109675D02*
D03*
D190*
X211500Y122350D02*
D03*
X216500D02*
D03*
X226500D02*
D03*
X231500D02*
D03*
Y114000D02*
D03*
X226500D02*
D03*
X216500D02*
D03*
X211500D02*
D03*
X261000Y122850D02*
D03*
X266000D02*
D03*
X276000D02*
D03*
X281000D02*
D03*
Y114500D02*
D03*
X276000D02*
D03*
X266000D02*
D03*
X261000D02*
D03*
M02*
