G04*
G04 #@! TF.GenerationSoftware,Altium Limited,Altium Designer,25.5.2 (35)*
G04*
G04 Layer_Color=65535*
%FSLAX44Y44*%
%MOMM*%
G71*
G04*
G04 #@! TF.SameCoordinates,7FE83EBB-F424-4E48-BF24-F714E467DA33*
G04*
G04*
G04 #@! TF.FilePolarity,Positive*
G04*
G01*
G75*
%ADD10C,0.2500*%
%ADD11C,0.0382*%
%ADD12C,0.1270*%
%ADD13C,0.2000*%
%ADD14C,0.3000*%
%ADD15C,0.1000*%
%ADD16C,0.2540*%
%ADD17C,0.2032*%
D10*
X512990Y328485D02*
G03*
X512990Y328485I-1250J0D01*
G01*
X777647Y344828D02*
G03*
X777647Y344828I-1250J0D01*
G01*
D11*
X371344Y374770D02*
G03*
X371612Y375039I134J134D01*
G01*
D02*
G03*
X371344Y374770I-134J-134D01*
G01*
X644019Y402632D02*
G03*
X643751Y402363I-134J-134D01*
G01*
D02*
G03*
X644019Y402632I134J134D01*
G01*
D12*
X187250Y690750D02*
G03*
X187250Y690750I-7500J0D01*
G01*
X187500Y669000D02*
G03*
X187500Y669000I-7500J0D01*
G01*
Y643750D02*
G03*
X187500Y643750I-7500J0D01*
G01*
X1453000Y1034750D02*
G03*
X1453000Y1034750I-7500J0D01*
G01*
X1223750Y1224000D02*
G03*
X1223750Y1224000I-7500J0D01*
G01*
X806750Y243500D02*
G03*
X806750Y243500I-7500J0D01*
G01*
X514773Y626558D02*
G03*
X514773Y626558I-7500J0D01*
G01*
X492024Y653808D02*
G03*
X492024Y653808I-7500J0D01*
G01*
X1473157Y571815D02*
G03*
X1473157Y571815I-7500J0D01*
G01*
X1506000Y210750D02*
G03*
X1506000Y210750I-7500J0D01*
G01*
X1237250Y325000D02*
G03*
X1237250Y325000I-7500J0D01*
G01*
X1175750Y226500D02*
G03*
X1175750Y226500I-7500J0D01*
G01*
X1175250Y246500D02*
G03*
X1175250Y246500I-7500J0D01*
G01*
X879500Y1215500D02*
G03*
X879500Y1215500I-7500J0D01*
G01*
X1032250Y1219000D02*
G03*
X1032250Y1219000I-7500J0D01*
G01*
X954500Y1177500D02*
G03*
X954500Y1177500I-7500J0D01*
G01*
X841750Y269250D02*
G03*
X841750Y269250I-7500J0D01*
G01*
X992343Y517157D02*
G03*
X992343Y517157I-7500J0D01*
G01*
X819750Y197250D02*
G03*
X819750Y197250I-7500J0D01*
G01*
X1002000Y281500D02*
G03*
X1002000Y281500I-7500J0D01*
G01*
X977000Y194000D02*
G03*
X977000Y194000I-7500J0D01*
G01*
X972000Y238250D02*
G03*
X972000Y238250I-7500J0D01*
G01*
X384000Y640000D02*
G03*
X384000Y640000I-7500J0D01*
G01*
X405000Y610500D02*
G03*
X405000Y610500I-7500J0D01*
G01*
X1364000Y1054500D02*
G03*
X1364000Y1054500I-7500J0D01*
G01*
X1376250Y1033000D02*
G03*
X1376250Y1033000I-7500J0D01*
G01*
X1396500Y1053500D02*
G03*
X1396500Y1053500I-7500J0D01*
G01*
X1415250Y1032750D02*
G03*
X1415250Y1032750I-7500J0D01*
G01*
X1367000Y750500D02*
G03*
X1367000Y750500I-7500J0D01*
G01*
X1493250Y1033750D02*
G03*
X1493250Y1033750I-7500J0D01*
G01*
X1223750Y901750D02*
G03*
X1223750Y901750I-7500J0D01*
G01*
X1513750Y1056250D02*
G03*
X1513750Y1056250I-7500J0D01*
G01*
X1223500Y921000D02*
G03*
X1223500Y921000I-7500J0D01*
G01*
Y942000D02*
G03*
X1223500Y942000I-7500J0D01*
G01*
X1272750Y1034000D02*
G03*
X1272750Y1034000I-7500J0D01*
G01*
X1333750Y1033250D02*
G03*
X1333750Y1033250I-7500J0D01*
G01*
X1436750Y1054000D02*
G03*
X1436750Y1054000I-7500J0D01*
G01*
X1474250Y1055250D02*
G03*
X1474250Y1055250I-7500J0D01*
G01*
X1446250Y1119750D02*
G03*
X1446250Y1119750I-7500J0D01*
G01*
X1371750Y1098000D02*
G03*
X1371750Y1098000I-7500J0D01*
G01*
X1294250Y1165000D02*
G03*
X1294250Y1165000I-7500J0D01*
G01*
X1320000Y1083250D02*
G03*
X1320000Y1083250I-7500J0D01*
G01*
X201863Y1098459D02*
G03*
X201863Y1098459I-8000J0D01*
G01*
X203193Y1192459D02*
G03*
X168193Y1157459I0J-35000D01*
G01*
Y827459D02*
G03*
X203193Y792459I35000J0D01*
G01*
X683193D02*
G03*
X718193Y827459I0J35000D01*
G01*
Y1157459D02*
G03*
X683193Y1192459I-35000J0D01*
G01*
X145250Y998000D02*
G03*
X145250Y998000I-7500J0D01*
G01*
X124000Y997500D02*
G03*
X124000Y997500I-7500J0D01*
G01*
X403747Y753748D02*
G03*
X403747Y753748I-7500J0D01*
G01*
X421747Y712998D02*
G03*
X421747Y712998I-7500J0D01*
G01*
X264750Y726750D02*
G03*
X264750Y726750I-7500J0D01*
G01*
X611000Y618000D02*
G03*
X611000Y618000I-7500J0D01*
G01*
X591000Y646000D02*
G03*
X591000Y646000I-7500J0D01*
G01*
X829000Y790185D02*
X833980D01*
X792457Y790189D02*
X797438D01*
X792453Y826702D02*
Y831683D01*
X828973Y831705D02*
X833954D01*
X833980Y790185D02*
Y795165D01*
X833954Y826725D02*
Y831705D01*
X792453Y831683D02*
X797434D01*
X792457Y790189D02*
Y795170D01*
X912000Y1055000D02*
Y1108000D01*
Y1014500D02*
Y1025000D01*
Y1014500D02*
X1058000D01*
Y1025000D01*
Y1055000D02*
Y1108000D01*
Y1140000D02*
Y1159500D01*
X912000D02*
X1058000D01*
X912000Y1140000D02*
Y1159500D01*
X1080950Y1140000D02*
Y1159500D01*
X1226950D01*
Y1140000D02*
Y1159500D01*
Y1055000D02*
Y1108000D01*
Y1014500D02*
Y1025000D01*
X1080950Y1014500D02*
X1226950D01*
X1080950D02*
Y1025000D01*
Y1055000D02*
Y1108000D01*
X999202Y808493D02*
X1004183D01*
X999202D02*
Y813475D01*
X999257Y863851D02*
Y868831D01*
X1004237D01*
X1054283Y868861D02*
X1059264D01*
Y863880D02*
Y868861D01*
X1059250Y808565D02*
Y813546D01*
X1054269Y808565D02*
X1059250D01*
X1121380Y1190673D02*
Y1212089D01*
Y1190673D02*
X1127212D01*
Y1212089D01*
X1121380D02*
X1127212D01*
X742950Y1139500D02*
Y1159000D01*
X888950D01*
Y1139500D02*
Y1159000D01*
Y1054500D02*
Y1107500D01*
Y1014000D02*
Y1024500D01*
X742950Y1014000D02*
X888950D01*
X742950D02*
Y1024500D01*
Y1054500D02*
Y1107500D01*
X1010490Y514511D02*
X1020387Y524409D01*
X1010490Y514511D02*
X1020390Y504612D01*
X1085439Y439563D02*
X1095335Y429666D01*
X1095378Y429708D02*
X1105278Y439608D01*
X1170299Y504614D02*
X1180196Y514511D01*
X1170296Y524411D02*
X1180196Y514511D01*
X1095343Y599364D02*
X1105240Y589467D01*
X1085444Y589465D02*
X1095343Y599364D01*
X603222Y490651D02*
X619956D01*
X603222D02*
Y509165D01*
X619956D01*
X523222Y490651D02*
X539956D01*
X523222D02*
Y509165D01*
X539956D01*
X443222Y490651D02*
X459956D01*
X443222D02*
Y509165D01*
X459956D01*
X363222Y490651D02*
X379956D01*
X363222D02*
Y509165D01*
X379956D01*
X1308633Y351463D02*
X1355660D01*
X1308633Y304509D02*
Y351463D01*
Y304509D02*
X1355660D01*
Y351463D01*
X243000Y537669D02*
Y542250D01*
Y655250D02*
Y659868D01*
X335000D01*
Y537669D02*
Y659868D01*
X243000Y537669D02*
X335000D01*
X675955Y539921D02*
Y659921D01*
X1305156Y464605D02*
X1352110D01*
X1305156D02*
Y511632D01*
X1352110D01*
Y464605D02*
Y511632D01*
X168193Y973459D02*
X233193D01*
Y1083459D01*
X168193D02*
X233193D01*
X304193Y1143159D02*
X314193D01*
X304193Y1180959D02*
X314193D01*
X304193Y803959D02*
X314193D01*
X304193Y841759D02*
X314193D01*
X522193D02*
X532193D01*
X522193Y803959D02*
X532193D01*
Y841759D01*
X304193Y803959D02*
Y841759D01*
Y1143159D02*
Y1180959D01*
X532193Y1143159D02*
Y1180959D01*
X718193Y827459D02*
Y1157458D01*
X203193Y792458D02*
X683193D01*
X168193Y827459D02*
Y1157458D01*
X203193Y1192459D02*
X683193D01*
D13*
X1507914Y975250D02*
G03*
X1507914Y975250I-1414J0D01*
G01*
X159031Y53222D02*
G03*
X155016Y60141I-7969J0D01*
G01*
X159619Y22227D02*
G03*
X160619Y17288I12697J0D01*
G01*
D02*
G03*
X163199Y10178I24697J4939D01*
G01*
X169863Y-5410D02*
G03*
X173915Y-15773I63453J18838D01*
G01*
X351615Y60141D02*
G03*
X347600Y53222I3954J-6920D01*
G01*
X346012Y17288D02*
G03*
X347012Y22227I-11697J4939D01*
G01*
X343432Y10178D02*
G03*
X346012Y17288I-22116J12050D01*
G01*
X332716Y-15773D02*
G03*
X336768Y-5410I-59401J29201D01*
G01*
X390142Y37604D02*
G03*
X390852Y8885I246642J-8275D01*
G01*
D02*
G03*
X400540Y-17972I84188J15193D01*
G01*
X390408Y42309D02*
G03*
X390142Y37604I36151J-4403D01*
G01*
X390481Y56427D02*
G03*
X388920Y63116I-12668J569D01*
G01*
X724229Y8885D02*
G03*
X724938Y37604I-245933J20444D01*
G01*
X714540Y-17972D02*
G03*
X724229Y8885I-74500J42050D01*
G01*
X724938Y37604D02*
G03*
X724672Y42309I-36417J303D01*
G01*
X726161Y63116D02*
G03*
X724599Y56427I11106J-6120D01*
G01*
X1288878Y39319D02*
G03*
X1289878Y39319I500J0D01*
G01*
D02*
G03*
X1288878Y39319I-500J0D01*
G01*
D02*
G03*
X1289878Y39319I500J0D01*
G01*
X101000Y681500D02*
X115000D01*
X118500Y651000D02*
Y681000D01*
Y651000D02*
X141500D01*
Y681000D01*
X118500D02*
X141500D01*
X1500250Y768000D02*
Y1008000D01*
X1240250Y768000D02*
X1500250D01*
X1240250D02*
Y1008000D01*
X1500250D01*
X1468750Y642500D02*
Y665500D01*
X1301432Y1097249D02*
Y1109249D01*
X1377250Y1108500D02*
X1389250D01*
X369500Y744750D02*
X381500D01*
X310500Y739500D02*
X322500D01*
X1125000Y890750D02*
X1162000D01*
X1125000D02*
Y920750D01*
X1162000D01*
Y890750D02*
Y920750D01*
X1165500Y890250D02*
X1180250D01*
X1151750Y1207500D02*
X1163750D01*
X805000Y1199250D02*
X817000D01*
X986500Y255300D02*
X1001500D01*
X1005000Y205000D02*
Y254000D01*
Y205000D02*
X1037000D01*
Y254000D01*
X1005000D02*
X1037000D01*
X826750Y256050D02*
X841750D01*
X845250Y205750D02*
Y254750D01*
Y205750D02*
X877250D01*
Y254750D01*
X845250D02*
X877250D01*
X947388Y598125D02*
X957995Y587518D01*
X945833Y601519D02*
X980481Y636167D01*
X957853Y658795D02*
X980481Y636167D01*
X923205Y624146D02*
X957853Y658795D01*
X923205Y624146D02*
X945833Y601519D01*
X21500Y1110600D02*
X52500D01*
X21500Y1031400D02*
Y1110600D01*
Y1031400D02*
X81000D01*
Y1097900D01*
X458250Y1221250D02*
X481250D01*
X391250Y645500D02*
X403250D01*
X597250Y652250D02*
X609250D01*
X501500Y660000D02*
X513500D01*
X1293750Y211500D02*
X1321750D01*
X1293750Y278500D02*
X1321750D01*
Y211500D02*
Y278500D01*
X1293750Y211500D02*
Y278500D01*
X1437527Y491165D02*
X1452777D01*
X17250Y597250D02*
X91850D01*
X17250Y277250D02*
Y597250D01*
Y277250D02*
X91850D01*
X142650D02*
X217250D01*
Y597250D01*
X142650D02*
X217250D01*
X159032Y53222D02*
X159619Y22227D01*
X163199Y10178D02*
X169863Y-5409D01*
X347012Y22227D02*
X347600Y53222D01*
X336768Y-5409D02*
X343432Y10178D01*
X173916Y200427D02*
X332715D01*
X173916Y-17973D02*
X332715D01*
X173916D02*
Y91228D01*
Y154427D02*
Y200427D01*
X332715Y154427D02*
Y200427D01*
Y-17973D02*
Y91228D01*
X572040Y197027D02*
X714539D01*
X400540D02*
X543040D01*
X714541Y-17972D02*
Y106527D01*
Y136528D02*
Y197028D01*
X400540Y136528D02*
Y197027D01*
Y-17973D02*
Y106527D01*
X390408Y42309D02*
X390481Y56427D01*
X724599D02*
X724672Y42309D01*
X400540Y-17973D02*
X714540D01*
X915227Y-17858D02*
Y62143D01*
X789026Y-17858D02*
X915227D01*
X789026D02*
Y74142D01*
X1065087Y-17858D02*
Y62143D01*
X938886Y-17858D02*
X1065087D01*
X938886D02*
Y74142D01*
X1103096Y28660D02*
Y120660D01*
X1107047Y6160D02*
X1222047D01*
X1225997Y28660D02*
Y118660D01*
X1197046Y143360D02*
X1222047D01*
X1260500Y374750D02*
X1283500D01*
X1443620Y324400D02*
X1458870D01*
X1365750Y138250D02*
Y203250D01*
X1450750Y138250D02*
Y217800D01*
X961000Y1202000D02*
X973000D01*
X17600Y744050D02*
Y757500D01*
Y744050D02*
X173000D01*
Y770950D01*
X31800D02*
X173000D01*
X51250Y893500D02*
Y939500D01*
X153250D01*
Y893500D02*
Y939500D01*
X51250Y893500D02*
X153250D01*
X51250Y872500D02*
Y890500D01*
X794250Y784250D02*
X792980D01*
Y785520D01*
X794250D01*
Y784250D01*
X990500Y804250D02*
X989230D01*
Y805520D01*
X990500D01*
Y804250D01*
X1005593Y495485D02*
X1004695Y496383D01*
X1005593Y497281D01*
X1006491Y496383D01*
X1005593Y495485D01*
X1285000Y288250D02*
Y289520D01*
X1286270D01*
Y288250D01*
X1285000D01*
X194315Y210227D02*
Y211497D01*
X195585D01*
Y210227D01*
X194315D01*
X275000Y525250D02*
X273730D01*
Y526520D01*
X275000D01*
Y525250D01*
X517193Y1201459D02*
X515923D01*
Y1202728D01*
X517193D01*
Y1201459D01*
D14*
X989830Y481749D02*
G03*
X990537Y482456I353J353D01*
G01*
D02*
G03*
X989830Y481749I-353J-353D01*
G01*
D15*
X117250Y602250D02*
G03*
X117250Y603250I0J500D01*
G01*
D02*
G03*
X117250Y602250I0J-500D01*
G01*
X1167047Y159660D02*
G03*
X1167047Y158660I0J-500D01*
G01*
D02*
G03*
X1167047Y159660I0J500D01*
G01*
X379426Y372896D02*
X385083Y367240D01*
X397104Y390574D02*
X402760Y384917D01*
X378365Y388806D02*
X381194Y391635D01*
X400993Y366179D02*
X403821Y369007D01*
X673399Y393772D02*
X676228Y396600D01*
X650772Y416399D02*
X653601Y419228D01*
X669510Y418167D02*
X675167Y412511D01*
X651833Y400490D02*
X657489Y394833D01*
X1544306Y895270D02*
X1564306D01*
X1544306Y815270D02*
X1564306D01*
X1514306Y845270D02*
Y865270D01*
X1594306Y847270D02*
Y865270D01*
X1399557Y99556D02*
X1519558D01*
Y-20444D02*
Y99556D01*
X1399557Y-20444D02*
X1519558D01*
X1399557D02*
Y99556D01*
D16*
X598321Y847999D02*
X588324D01*
Y852997D01*
X589990Y854663D01*
X593322D01*
X594988Y852997D01*
Y847999D01*
Y851331D02*
X598321Y854663D01*
X591656Y859662D02*
Y862994D01*
X593322Y864660D01*
X598321D01*
Y859662D01*
X596655Y857995D01*
X594988Y859662D01*
Y864660D01*
X598321Y867992D02*
Y872991D01*
X596655Y874657D01*
X594988Y872991D01*
Y869658D01*
X593322Y867992D01*
X591656Y869658D01*
Y874657D01*
X601653Y877989D02*
X591656D01*
Y882987D01*
X593322Y884653D01*
X596655D01*
X598321Y882987D01*
Y877989D01*
X588324Y887986D02*
X598321D01*
Y892984D01*
X596655Y894650D01*
X594988D01*
X593322D01*
X591656Y892984D01*
Y887986D01*
X598321Y902981D02*
Y899649D01*
X596655Y897982D01*
X593322D01*
X591656Y899649D01*
Y902981D01*
X593322Y904647D01*
X594988D01*
Y897982D01*
X591656Y907979D02*
X598321D01*
X594988D01*
X593322Y909645D01*
X591656Y911312D01*
Y912978D01*
Y917976D02*
X598321D01*
X594988D01*
X593322Y919642D01*
X591656Y921308D01*
Y922974D01*
Y927973D02*
X596655D01*
X598321Y929639D01*
Y934637D01*
X599987D01*
X601653Y932971D01*
Y931305D01*
X598321Y934637D02*
X591656D01*
X598321Y947966D02*
X588324D01*
Y952965D01*
X589990Y954631D01*
X593322D01*
X594988Y952965D01*
Y947966D01*
X598321Y957963D02*
Y961295D01*
Y959629D01*
X591656D01*
Y957963D01*
X589990Y982955D02*
X588324Y981289D01*
Y977957D01*
X589990Y976291D01*
X596655D01*
X598321Y977957D01*
Y981289D01*
X596655Y982955D01*
X598321Y987953D02*
Y991286D01*
X596655Y992952D01*
X593322D01*
X591656Y991286D01*
Y987953D01*
X593322Y986287D01*
X596655D01*
X598321Y987953D01*
Y996284D02*
X591656D01*
Y997950D01*
X593322Y999616D01*
X598321D01*
X593322D01*
X591656Y1001283D01*
X593322Y1002949D01*
X598321D01*
X601653Y1006281D02*
X591656D01*
Y1011279D01*
X593322Y1012945D01*
X596655D01*
X598321Y1011279D01*
Y1006281D01*
X591656Y1016278D02*
X596655D01*
X598321Y1017944D01*
Y1022942D01*
X591656D01*
X589990Y1027941D02*
X591656D01*
Y1026274D01*
Y1029607D01*
Y1027941D01*
X596655D01*
X598321Y1029607D01*
Y1039604D02*
Y1036271D01*
X596655Y1034605D01*
X593322D01*
X591656Y1036271D01*
Y1039604D01*
X593322Y1041270D01*
X594988D01*
Y1034605D01*
X598321Y1054599D02*
X588324D01*
X591656Y1057931D01*
X588324Y1061263D01*
X598321D01*
Y1066262D02*
Y1069594D01*
X596655Y1071260D01*
X593322D01*
X591656Y1069594D01*
Y1066262D01*
X593322Y1064595D01*
X596655D01*
X598321Y1066262D01*
X588324Y1081257D02*
X598321D01*
Y1076258D01*
X596655Y1074592D01*
X593322D01*
X591656Y1076258D01*
Y1081257D01*
Y1084589D02*
X596655D01*
X598321Y1086255D01*
Y1091254D01*
X591656D01*
X598321Y1094586D02*
Y1097918D01*
Y1096252D01*
X588324D01*
Y1094586D01*
X598321Y1107915D02*
Y1104583D01*
X596655Y1102916D01*
X593322D01*
X591656Y1104583D01*
Y1107915D01*
X593322Y1109581D01*
X594988D01*
Y1102916D01*
X598321Y1127908D02*
X588324D01*
X593322Y1122910D01*
Y1129575D01*
D17*
X157075Y221078D02*
X153690D01*
X155382D01*
Y212614D01*
X153690Y210922D01*
X151997D01*
X150304Y212614D01*
X160461Y210922D02*
X163846D01*
X162154D01*
Y221078D01*
X160461Y219386D01*
X174003Y210922D02*
Y221078D01*
X168925Y216000D01*
X175696D01*
X1534500Y92078D02*
X1531114D01*
X1532807D01*
Y83614D01*
X1531114Y81922D01*
X1529422D01*
X1527729Y83614D01*
X1537886Y81922D02*
X1541271D01*
X1539578D01*
Y92078D01*
X1537886Y90386D01*
X371705Y716576D02*
Y708112D01*
X373397Y706419D01*
X376783D01*
X378476Y708112D01*
Y716576D01*
X388633Y706419D02*
X381861D01*
X388633Y713190D01*
Y714883D01*
X386940Y716576D01*
X383554D01*
X381861Y714883D01*
X392018D02*
X393711Y716576D01*
X397096D01*
X398789Y714883D01*
Y708112D01*
X397096Y706419D01*
X393711D01*
X392018Y708112D01*
Y714883D01*
X367286Y623578D02*
Y615114D01*
X368979Y613422D01*
X372364D01*
X374057Y615114D01*
Y623578D01*
X377443D02*
X384214D01*
Y621886D01*
X377443Y615114D01*
Y613422D01*
X609536Y668578D02*
Y660114D01*
X611229Y658422D01*
X614614D01*
X616307Y660114D01*
Y668578D01*
X626464D02*
X623078Y666886D01*
X619693Y663500D01*
Y660114D01*
X621385Y658422D01*
X624771D01*
X626464Y660114D01*
Y661807D01*
X624771Y663500D01*
X619693D01*
X513310Y676386D02*
Y667922D01*
X515002Y666229D01*
X518388D01*
X520081Y667922D01*
Y676386D01*
X530237D02*
X523466D01*
Y671308D01*
X526852Y673000D01*
X528545D01*
X530237Y671308D01*
Y667922D01*
X528545Y666229D01*
X525159D01*
X523466Y667922D01*
X246758Y682207D02*
X243372D01*
X245065D01*
Y673743D01*
X243372Y672050D01*
X241679D01*
X239986Y673743D01*
X250143Y672050D02*
X253529D01*
X251836D01*
Y682207D01*
X250143Y680514D01*
X265378Y672050D02*
X258607D01*
X265378Y678821D01*
Y680514D01*
X263685Y682207D01*
X260300D01*
X258607Y680514D01*
X603828Y565976D02*
X593672D01*
Y571054D01*
X595364Y572747D01*
X598750D01*
X600443Y571054D01*
Y565976D01*
Y569361D02*
X603828Y572747D01*
Y576133D02*
Y579518D01*
Y577825D01*
X593672D01*
X595364Y576133D01*
Y584596D02*
X593672Y586289D01*
Y589675D01*
X595364Y591367D01*
X602136D01*
X603828Y589675D01*
Y586289D01*
X602136Y584596D01*
X595364D01*
Y594753D02*
X593672Y596446D01*
Y599832D01*
X595364Y601524D01*
X602136D01*
X603828Y599832D01*
Y596446D01*
X602136Y594753D01*
X595364D01*
X565828Y567458D02*
X555672D01*
Y572536D01*
X557364Y574229D01*
X560750D01*
X562443Y572536D01*
Y567458D01*
Y570843D02*
X565828Y574229D01*
X564136Y577615D02*
X565828Y579307D01*
Y582693D01*
X564136Y584386D01*
X557364D01*
X555672Y582693D01*
Y579307D01*
X557364Y577615D01*
X559057D01*
X560750Y579307D01*
Y584386D01*
X564136Y587771D02*
X565828Y589464D01*
Y592850D01*
X564136Y594542D01*
X557364D01*
X555672Y592850D01*
Y589464D01*
X557364Y587771D01*
X559057D01*
X560750Y589464D01*
Y594542D01*
X527578Y569708D02*
X517422D01*
Y574786D01*
X519114Y576479D01*
X522500D01*
X524193Y574786D01*
Y569708D01*
Y573093D02*
X527578Y576479D01*
X525886Y579864D02*
X527578Y581557D01*
Y584943D01*
X525886Y586636D01*
X519114D01*
X517422Y584943D01*
Y581557D01*
X519114Y579864D01*
X520807D01*
X522500Y581557D01*
Y586636D01*
X519114Y590021D02*
X517422Y591714D01*
Y595099D01*
X519114Y596792D01*
X520807D01*
X522500Y595099D01*
X524193Y596792D01*
X525886D01*
X527578Y595099D01*
Y591714D01*
X525886Y590021D01*
X524193D01*
X522500Y591714D01*
X520807Y590021D01*
X519114D01*
X522500Y591714D02*
Y595099D01*
X1271958Y112922D02*
Y123078D01*
X1277036D01*
X1278729Y121386D01*
Y118000D01*
X1277036Y116307D01*
X1271958D01*
X1275343D02*
X1278729Y112922D01*
X1282114Y114614D02*
X1283807Y112922D01*
X1287193D01*
X1288886Y114614D01*
Y121386D01*
X1287193Y123078D01*
X1283807D01*
X1282114Y121386D01*
Y119693D01*
X1283807Y118000D01*
X1288886D01*
X1292271Y123078D02*
X1299042D01*
Y121386D01*
X1292271Y114614D01*
Y112922D01*
X492078Y568958D02*
X481922D01*
Y574036D01*
X483614Y575729D01*
X487000D01*
X488693Y574036D01*
Y568958D01*
Y572343D02*
X492078Y575729D01*
X490386Y579114D02*
X492078Y580807D01*
Y584193D01*
X490386Y585886D01*
X483614D01*
X481922Y584193D01*
Y580807D01*
X483614Y579114D01*
X485307D01*
X487000Y580807D01*
Y585886D01*
X481922Y596042D02*
X483614Y592657D01*
X487000Y589271D01*
X490386D01*
X492078Y590964D01*
Y594350D01*
X490386Y596042D01*
X488693D01*
X487000Y594350D01*
Y589271D01*
X608476Y479013D02*
Y468856D01*
X613555D01*
X615248Y470549D01*
Y477320D01*
X613555Y479013D01*
X608476D01*
X618633Y468856D02*
X622019D01*
X620326D01*
Y479013D01*
X618633Y477320D01*
X627097D02*
X628790Y479013D01*
X632175D01*
X633868Y477320D01*
Y470549D01*
X632175Y468856D01*
X628790D01*
X627097Y470549D01*
Y477320D01*
X528721Y479013D02*
Y468856D01*
X533799D01*
X535492Y470549D01*
Y477320D01*
X533799Y479013D01*
X528721D01*
X538877Y470549D02*
X540570Y468856D01*
X543956D01*
X545648Y470549D01*
Y477320D01*
X543956Y479013D01*
X540570D01*
X538877Y477320D01*
Y475627D01*
X540570Y473935D01*
X545648D01*
X448711Y479013D02*
Y468856D01*
X453789D01*
X455482Y470549D01*
Y477320D01*
X453789Y479013D01*
X448711D01*
X458867Y477320D02*
X460560Y479013D01*
X463946D01*
X465638Y477320D01*
Y475627D01*
X463946Y473935D01*
X465638Y472242D01*
Y470549D01*
X463946Y468856D01*
X460560D01*
X458867Y470549D01*
Y472242D01*
X460560Y473935D01*
X458867Y475627D01*
Y477320D01*
X460560Y473935D02*
X463946D01*
X368700Y479013D02*
Y468856D01*
X373779D01*
X375472Y470549D01*
Y477320D01*
X373779Y479013D01*
X368700D01*
X378857D02*
X385628D01*
Y477320D01*
X378857Y470549D01*
Y468856D01*
X1278979Y103636D02*
X1277286Y105328D01*
X1273901D01*
X1272208Y103636D01*
Y96864D01*
X1273901Y95172D01*
X1277286D01*
X1278979Y96864D01*
X1282364Y105328D02*
X1289136D01*
Y103636D01*
X1282364Y96864D01*
Y95172D01*
X1292521Y103636D02*
X1294214Y105328D01*
X1297599D01*
X1299292Y103636D01*
Y101943D01*
X1297599Y100250D01*
X1299292Y98557D01*
Y96864D01*
X1297599Y95172D01*
X1294214D01*
X1292521Y96864D01*
Y98557D01*
X1294214Y100250D01*
X1292521Y101943D01*
Y103636D01*
X1294214Y100250D02*
X1297599D01*
X776583Y332765D02*
X782568Y326780D01*
X784962D01*
X787356Y329174D01*
Y331568D01*
X781371Y337553D01*
X795735D02*
X790947Y332765D01*
Y342341D01*
X789750Y343538D01*
X787356D01*
X784962Y341144D01*
Y338750D01*
X792144Y345932D02*
Y348326D01*
X794538Y350720D01*
X796932D01*
X798129Y349523D01*
Y347129D01*
X800523D01*
X801720Y345932D01*
Y343538D01*
X799326Y341144D01*
X796932D01*
X795735Y342341D01*
Y344735D01*
X793341D01*
X792144Y345932D01*
X795735Y344735D02*
X798129Y347129D01*
X428765Y275167D02*
X422780Y269182D01*
Y266788D01*
X425174Y264394D01*
X427568D01*
X433553Y270379D01*
Y256015D02*
X428765Y260803D01*
X438341D01*
X439538Y262000D01*
Y264394D01*
X437144Y266788D01*
X434750D01*
X441932Y259606D02*
X444326D01*
X446720Y257212D01*
Y254818D01*
X445523Y253621D01*
X443129D01*
X441932Y254818D01*
X443129Y253621D01*
Y251227D01*
X441932Y250030D01*
X439538D01*
X437144Y252424D01*
Y254818D01*
X672924Y385606D02*
X674121Y384409D01*
X678909D01*
X678909Y389197D01*
X677712Y390394D01*
X678909Y384409D02*
X682500Y380818D01*
X684894Y397576D02*
X680106Y392788D01*
X683697Y389197D01*
X684894Y392788D01*
X686091Y393985D01*
X688485D01*
X690879Y391591D01*
Y389197D01*
X688485Y386803D01*
X686091D01*
X401017Y360013D02*
X402214Y358816D01*
X407002D01*
X407002Y363604D01*
X405805Y364801D01*
X407002Y358816D02*
X410593Y355225D01*
X418972Y363604D02*
X411790Y370786D01*
X411790Y363604D01*
X416578Y368392D01*
X49078Y676464D02*
X47386D01*
X44000Y673078D01*
X47386Y669693D01*
X49078D01*
X44000Y673078D02*
X38922D01*
X47386Y666307D02*
X49078Y664614D01*
Y661229D01*
X47386Y659536D01*
X45693D01*
X44000Y661229D01*
Y662922D01*
Y661229D01*
X42307Y659536D01*
X40614D01*
X38922Y661229D01*
Y664614D01*
X40614Y666307D01*
X946285Y918829D02*
Y917136D01*
X949671Y913750D01*
X953056Y917136D01*
Y918829D01*
X949671Y913750D02*
Y908672D01*
X963213D02*
X956442D01*
X963213Y915443D01*
Y917136D01*
X961520Y918829D01*
X958135D01*
X956442Y917136D01*
X1011641Y431842D02*
X1012838Y433039D01*
Y437827D01*
X1008050Y437826D01*
X1006853Y436630D01*
X1012838Y437827D02*
X1016429Y441418D01*
X1011641Y446205D02*
X1009247Y448599D01*
X1010444Y447402D01*
X1003262Y440220D01*
X1005656D01*
X116458Y642828D02*
Y634364D01*
X118151Y632672D01*
X121536D01*
X123229Y634364D01*
Y642828D01*
X133386Y632672D02*
X126615D01*
X133386Y639443D01*
Y641136D01*
X131693Y642828D01*
X128307D01*
X126615Y641136D01*
X143542Y632672D02*
X136771D01*
X143542Y639443D01*
Y641136D01*
X141849Y642828D01*
X138464D01*
X136771Y641136D01*
X1509651Y1007328D02*
Y998864D01*
X1511343Y997172D01*
X1514729D01*
X1516422Y998864D01*
Y1007328D01*
X1526578Y997172D02*
X1519807D01*
X1526578Y1003943D01*
Y1005636D01*
X1524886Y1007328D01*
X1521500D01*
X1519807Y1005636D01*
X1529964Y997172D02*
X1533349D01*
X1531657D01*
Y1007328D01*
X1529964Y1005636D01*
X1148304Y937828D02*
Y929364D01*
X1149997Y927672D01*
X1153382D01*
X1155075Y929364D01*
Y937828D01*
X1158461Y927672D02*
X1161846D01*
X1160154D01*
Y937828D01*
X1158461Y936136D01*
X1166925D02*
X1168617Y937828D01*
X1172003D01*
X1173696Y936136D01*
Y934443D01*
X1172003Y932750D01*
X1173696Y931057D01*
Y929364D01*
X1172003Y927672D01*
X1168617D01*
X1166925Y929364D01*
Y931057D01*
X1168617Y932750D01*
X1166925Y934443D01*
Y936136D01*
X1168617Y932750D02*
X1172003D01*
X1018054Y797078D02*
Y788614D01*
X1019747Y786922D01*
X1023132D01*
X1024825Y788614D01*
Y797078D01*
X1028211Y786922D02*
X1031596D01*
X1029904D01*
Y797078D01*
X1028211Y795386D01*
X1036675Y797078D02*
X1043446D01*
Y795386D01*
X1036675Y788614D01*
Y786922D01*
X960331Y1220687D02*
Y1212223D01*
X962023Y1210530D01*
X965409D01*
X967102Y1212223D01*
Y1220687D01*
X970487Y1210530D02*
X973873D01*
X972180D01*
Y1220687D01*
X970487Y1218994D01*
X985722Y1220687D02*
X982337Y1218994D01*
X978951Y1215609D01*
Y1212223D01*
X980644Y1210530D01*
X984029D01*
X985722Y1212223D01*
Y1213916D01*
X984029Y1215609D01*
X978951D01*
X1091672Y1187804D02*
X1100136D01*
X1101828Y1189497D01*
Y1192883D01*
X1100136Y1194575D01*
X1091672D01*
X1101828Y1197961D02*
Y1201346D01*
Y1199654D01*
X1091672D01*
X1093364Y1197961D01*
X1091672Y1213196D02*
Y1206425D01*
X1096750D01*
X1095057Y1209810D01*
Y1211503D01*
X1096750Y1213196D01*
X1100136D01*
X1101828Y1211503D01*
Y1208118D01*
X1100136Y1206425D01*
X1153554Y1181328D02*
Y1172864D01*
X1155247Y1171172D01*
X1158633D01*
X1160325Y1172864D01*
Y1181328D01*
X1163711Y1171172D02*
X1167096D01*
X1165404D01*
Y1181328D01*
X1163711Y1179636D01*
X1177253Y1171172D02*
Y1181328D01*
X1172175Y1176250D01*
X1178946D01*
X807304Y1215078D02*
Y1206614D01*
X808997Y1204922D01*
X812382D01*
X814075Y1206614D01*
Y1215078D01*
X817461Y1204922D02*
X820846D01*
X819154D01*
Y1215078D01*
X817461Y1213386D01*
X825925D02*
X827617Y1215078D01*
X831003D01*
X832696Y1213386D01*
Y1211693D01*
X831003Y1210000D01*
X829310D01*
X831003D01*
X832696Y1208307D01*
Y1206614D01*
X831003Y1204922D01*
X827617D01*
X825925Y1206614D01*
X776172Y797304D02*
X784636D01*
X786328Y798997D01*
Y802382D01*
X784636Y804075D01*
X776172D01*
X786328Y807461D02*
Y810846D01*
Y809154D01*
X776172D01*
X777864Y807461D01*
X786328Y822696D02*
Y815925D01*
X779557Y822696D01*
X777864D01*
X776172Y821003D01*
Y817617D01*
X777864Y815925D01*
X1008747Y272078D02*
Y263614D01*
X1010440Y261922D01*
X1013825D01*
X1015518Y263614D01*
Y272078D01*
X1018904Y261922D02*
X1022289D01*
X1020596D01*
Y272078D01*
X1018904Y270386D01*
X1027367Y261922D02*
X1030753D01*
X1029060D01*
Y272078D01*
X1027367Y270386D01*
X850304Y269828D02*
Y261364D01*
X851997Y259672D01*
X855383D01*
X857075Y261364D01*
Y269828D01*
X860461Y259672D02*
X863846D01*
X862154D01*
Y269828D01*
X860461Y268136D01*
X868925D02*
X870618Y269828D01*
X874003D01*
X875696Y268136D01*
Y261364D01*
X874003Y259672D01*
X870618D01*
X868925Y261364D01*
Y268136D01*
X1100017Y412013D02*
X1106002Y406028D01*
X1108396D01*
X1110790Y408422D01*
Y410816D01*
X1104805Y416801D01*
X1113184Y413210D02*
X1115578D01*
X1117972Y415604D01*
Y417998D01*
X1113184Y422786D01*
X1110790D01*
X1108396Y420392D01*
Y417998D01*
X1109593Y416801D01*
X1111987D01*
X1115578Y420392D01*
X927709Y594176D02*
X933694Y600161D01*
Y602555D01*
X931300Y604949D01*
X928906D01*
X922922Y598964D01*
X921724Y602555D02*
X919331D01*
X916937Y604949D01*
Y607343D01*
X918133Y608540D01*
X920527D01*
Y610934D01*
X921724Y612131D01*
X924118D01*
X926512Y609737D01*
Y607343D01*
X925315Y606146D01*
X922922D01*
Y603752D01*
X921724Y602555D01*
X922922Y606146D02*
X920527Y608540D01*
X1409786Y388828D02*
Y380364D01*
X1411479Y378672D01*
X1414864D01*
X1416557Y380364D01*
Y388828D01*
X1426714Y378672D02*
X1419943D01*
X1426714Y385443D01*
Y387136D01*
X1425021Y388828D01*
X1421636D01*
X1419943Y387136D01*
X1409376Y488343D02*
Y479879D01*
X1411069Y478186D01*
X1414454D01*
X1416147Y479879D01*
Y488343D01*
X1419533Y478186D02*
X1422918D01*
X1421225D01*
Y488343D01*
X1419533Y486650D01*
X621023Y423341D02*
X613841Y430523D01*
X617432Y434114D01*
X619826D01*
X622220Y431720D01*
Y429326D01*
X618629Y425735D01*
X621023Y428129D02*
X625811D01*
X628204Y430523D02*
X630598Y432917D01*
X629402Y431720D01*
X622220Y438901D01*
Y436508D01*
X638977Y441296D02*
X634189Y436508D01*
Y446083D01*
X632992Y447280D01*
X630598D01*
X628204Y444886D01*
Y442492D01*
X640174Y444886D02*
X642568D01*
X644962Y447280D01*
Y449674D01*
X640174Y454462D01*
X637780D01*
X635386Y452068D01*
Y449674D01*
X636583Y448477D01*
X638977D01*
X642568Y452068D01*
X624773Y307091D02*
X617591Y314273D01*
X621182Y317864D01*
X623576D01*
X625970Y315470D01*
Y313076D01*
X622379Y309485D01*
X624773Y311879D02*
X629561D01*
X631954Y314273D02*
X634348Y316667D01*
X633152Y315470D01*
X625970Y322651D01*
Y320258D01*
X642727Y325046D02*
X637939Y320258D01*
Y329833D01*
X636742Y331030D01*
X634348D01*
X631954Y328636D01*
Y326242D01*
X639136Y333424D02*
Y335818D01*
X641530Y338212D01*
X643924D01*
X645121Y337015D01*
Y334621D01*
X647515D01*
X648712Y333424D01*
Y331030D01*
X646318Y328636D01*
X643924D01*
X642727Y329833D01*
Y332227D01*
X640333D01*
X639136Y333424D01*
X642727Y332227D02*
X645121Y334621D01*
X327726Y229672D02*
Y239828D01*
X332804D01*
X334497Y238136D01*
Y234750D01*
X332804Y233057D01*
X327726D01*
X331111D02*
X334497Y229672D01*
X337882D02*
X341268D01*
X339575D01*
Y239828D01*
X337882Y238136D01*
X353117Y229672D02*
X346346D01*
X353117Y236443D01*
Y238136D01*
X351425Y239828D01*
X348039D01*
X346346Y238136D01*
X356503Y239828D02*
X363274D01*
Y238136D01*
X356503Y231364D01*
Y229672D01*
X835023Y369841D02*
X827841Y377023D01*
X831432Y380614D01*
X833826D01*
X836220Y378220D01*
Y375826D01*
X832629Y372235D01*
X835023Y374629D02*
X839810D01*
X842205Y377023D02*
X844598Y379417D01*
X843401Y378220D01*
X836220Y385401D01*
Y383008D01*
X852977Y387795D02*
X848189Y383008D01*
Y392583D01*
X846992Y393780D01*
X844598D01*
X842205Y391386D01*
Y388993D01*
X852977Y402159D02*
X848189Y397371D01*
X851780Y393780D01*
X852977Y397371D01*
X854174Y398568D01*
X856568D01*
X858962Y396174D01*
Y393780D01*
X856568Y391386D01*
X854174D01*
X822773Y383591D02*
X815591Y390773D01*
X819182Y394364D01*
X821576D01*
X823970Y391970D01*
Y389576D01*
X820379Y385985D01*
X822773Y388379D02*
X827561D01*
X829955Y390773D02*
X832348Y393167D01*
X831152Y391970D01*
X823970Y399151D01*
Y396758D01*
X840727Y401545D02*
X835939Y396758D01*
Y406333D01*
X834742Y407530D01*
X832348D01*
X829955Y405136D01*
Y402743D01*
X846712Y407530D02*
X839530Y414712D01*
X839530Y407530D01*
X844318Y412318D01*
X848023Y357841D02*
X840841Y365023D01*
X844432Y368614D01*
X846826D01*
X849220Y366220D01*
Y363826D01*
X845629Y360235D01*
X848023Y362629D02*
X852811D01*
X855204Y365023D02*
X857598Y367417D01*
X856402Y366220D01*
X849220Y373401D01*
Y371008D01*
X865977Y375796D02*
X861189Y371008D01*
Y380583D01*
X859992Y381780D01*
X857598D01*
X855204Y379386D01*
Y376992D01*
X862386Y384174D02*
Y386568D01*
X864780Y388962D01*
X867174D01*
X868371Y387765D01*
Y385371D01*
X867174Y384174D01*
X868371Y385371D01*
X870765D01*
X871962Y384174D01*
Y381780D01*
X869568Y379386D01*
X867174D01*
X860023Y346341D02*
X852841Y353523D01*
X856432Y357114D01*
X858826D01*
X861220Y354720D01*
Y352326D01*
X857629Y348735D01*
X860023Y351129D02*
X864810D01*
X867205Y353523D02*
X869598Y355917D01*
X868401Y354720D01*
X861220Y361902D01*
Y359508D01*
X877977Y364296D02*
X873189Y359508D01*
Y369083D01*
X871992Y370280D01*
X869598D01*
X867205Y367886D01*
Y365493D01*
X885159Y371477D02*
X880371Y366689D01*
Y376265D01*
X879174Y377462D01*
X876780D01*
X874386Y375068D01*
Y372674D01*
X887470Y292288D02*
X880288Y299470D01*
X883879Y303061D01*
X886273D01*
X888667Y300667D01*
Y298273D01*
X885076Y294682D01*
X887470Y297076D02*
X892258D01*
X894651Y299470D02*
X897046Y301864D01*
X895848Y300667D01*
X888667Y307848D01*
Y305455D01*
X905424Y310242D02*
X900636Y305455D01*
Y315030D01*
X899439Y316227D01*
X897046D01*
X894651Y313833D01*
Y311439D01*
X907818Y312636D02*
X910212Y315030D01*
X909015Y313833D01*
X901833Y321015D01*
Y318621D01*
X346121Y397939D02*
X338939Y405121D01*
X342530Y408712D01*
X344924D01*
X347318Y406318D01*
Y403924D01*
X343727Y400333D01*
X346121Y402727D02*
X350909D01*
X353303Y405121D02*
X355697Y407515D01*
X354500Y406318D01*
X347318Y413500D01*
Y411106D01*
X359288D02*
X361682Y413500D01*
X360485Y412303D01*
X353303Y419485D01*
Y417091D01*
X359288Y423076D02*
Y425470D01*
X361682Y427864D01*
X364076D01*
X365273Y426667D01*
Y424273D01*
X367667D01*
X368864Y423076D01*
Y420682D01*
X366470Y418288D01*
X364076D01*
X362879Y419485D01*
Y421879D01*
X360485D01*
X359288Y423076D01*
X362879Y421879D02*
X365273Y424273D01*
X336621Y287189D02*
X329439Y294371D01*
X333030Y297962D01*
X335424D01*
X337818Y295568D01*
Y293174D01*
X334227Y289583D01*
X336621Y291977D02*
X341409D01*
X343803Y294371D02*
X346197Y296765D01*
X345000Y295568D01*
X337818Y302750D01*
Y300356D01*
X349788D02*
X352182Y302750D01*
X350985Y301553D01*
X343803Y308735D01*
Y306341D01*
X348591Y313523D02*
X353379Y318311D01*
X354576Y317114D01*
X354576Y307538D01*
X355773Y306341D01*
X566411Y354293D02*
X559229Y361475D01*
X562820Y365066D01*
X565214D01*
X567608Y362672D01*
Y360278D01*
X564017Y356687D01*
X566411Y359081D02*
X571199D01*
X573593Y361475D02*
X575987Y363869D01*
X574790Y362672D01*
X567608Y369854D01*
Y367460D01*
X579578D02*
X581972Y369854D01*
X580775Y368657D01*
X573593Y375839D01*
Y373445D01*
X585563D02*
X587957Y375839D01*
X586760Y374642D01*
X579578Y381824D01*
Y379430D01*
X554371Y367939D02*
X547189Y375121D01*
X550780Y378712D01*
X553174D01*
X555568Y376318D01*
Y373924D01*
X551977Y370333D01*
X554371Y372727D02*
X559159D01*
X561553Y375121D02*
X563947Y377515D01*
X562750Y376318D01*
X555568Y383500D01*
Y381106D01*
X567538D02*
X569932Y383500D01*
X568735Y382303D01*
X561553Y389485D01*
Y387091D01*
X567538Y393076D02*
Y395470D01*
X569932Y397864D01*
X572326D01*
X577114Y393076D01*
Y390682D01*
X574720Y388288D01*
X572326D01*
X567538Y393076D01*
X577866Y342248D02*
X570684Y349430D01*
X574275Y353020D01*
X576669D01*
X579063Y350626D01*
Y348232D01*
X575472Y344642D01*
X577866Y347035D02*
X582654D01*
X585048Y349430D02*
X587442Y351824D01*
X586245Y350626D01*
X579063Y357808D01*
Y355414D01*
X585048Y361399D02*
Y363793D01*
X587442Y366187D01*
X589836D01*
X594623Y361399D01*
Y359005D01*
X592230Y356611D01*
X589836D01*
X585048Y361399D01*
X597018Y363793D02*
X599412D01*
X601805Y366187D01*
Y368581D01*
X597018Y373369D01*
X594623D01*
X592230Y370975D01*
Y368581D01*
X593427Y367384D01*
X595821D01*
X599412Y370975D01*
X591626Y328258D02*
X584444Y335440D01*
X588035Y339031D01*
X590429D01*
X592823Y336637D01*
Y334243D01*
X589232Y330652D01*
X591626Y333046D02*
X596414D01*
X598808Y335440D02*
X601202Y337834D01*
X600005Y336637D01*
X592823Y343819D01*
Y341425D01*
X598808Y347410D02*
Y349804D01*
X601202Y352198D01*
X603596D01*
X608384Y347410D01*
Y345016D01*
X605990Y342622D01*
X603596D01*
X598808Y347410D01*
X605990Y354592D02*
Y356986D01*
X608384Y359380D01*
X610778D01*
X611975Y358182D01*
Y355789D01*
X614369D01*
X615566Y354592D01*
Y352198D01*
X613172Y349804D01*
X610778D01*
X609581Y351001D01*
Y353395D01*
X607187D01*
X605990Y354592D01*
X609581Y353395D02*
X611975Y355789D01*
X572184Y297384D02*
X579366Y304566D01*
X582957Y300975D01*
Y298581D01*
X580563Y296187D01*
X578169D01*
X574578Y299778D01*
X576972Y297384D02*
Y292596D01*
X579366Y290202D02*
X581760Y287808D01*
X580563Y289005D01*
X587745Y296187D01*
X585351D01*
X591336Y290202D02*
X593730D01*
X596124Y287808D01*
Y285414D01*
X591336Y280627D01*
X588942D01*
X586548Y283020D01*
Y285414D01*
X591336Y290202D01*
X599715Y284217D02*
X604502Y279429D01*
X603305Y278232D01*
X593730D01*
X592533Y277036D01*
X1316672Y1153274D02*
X1326828D01*
Y1148196D01*
X1325136Y1146503D01*
X1321750D01*
X1320057Y1148196D01*
Y1153274D01*
Y1149889D02*
X1316672Y1146503D01*
Y1143118D02*
Y1139732D01*
Y1141425D01*
X1326828D01*
X1325136Y1143118D01*
Y1134654D02*
X1326828Y1132961D01*
Y1129575D01*
X1325136Y1127883D01*
X1318364D01*
X1316672Y1129575D01*
Y1132961D01*
X1318364Y1134654D01*
X1325136D01*
X1326828Y1117726D02*
X1325136Y1121111D01*
X1321750Y1124497D01*
X1318364D01*
X1316672Y1122804D01*
Y1119418D01*
X1318364Y1117726D01*
X1320057D01*
X1321750Y1119418D01*
Y1124497D01*
X1265422Y1154524D02*
X1275578D01*
Y1149446D01*
X1273886Y1147753D01*
X1270500D01*
X1268807Y1149446D01*
Y1154524D01*
Y1151139D02*
X1265422Y1147753D01*
Y1144368D02*
Y1140982D01*
Y1142675D01*
X1275578D01*
X1273886Y1144368D01*
Y1135904D02*
X1275578Y1134211D01*
Y1130825D01*
X1273886Y1129133D01*
X1267114D01*
X1265422Y1130825D01*
Y1134211D01*
X1267114Y1135904D01*
X1273886D01*
X1275578Y1118976D02*
Y1125747D01*
X1270500D01*
X1272193Y1122361D01*
Y1120668D01*
X1270500Y1118976D01*
X1267114D01*
X1265422Y1120668D01*
Y1124054D01*
X1267114Y1125747D01*
X1429774Y1089828D02*
Y1079672D01*
X1424696D01*
X1423003Y1081364D01*
Y1084750D01*
X1424696Y1086443D01*
X1429774D01*
X1426389D02*
X1423003Y1089828D01*
X1419617D02*
X1416232D01*
X1417925D01*
Y1079672D01*
X1419617Y1081364D01*
X1411154D02*
X1409461Y1079672D01*
X1406075D01*
X1404382Y1081364D01*
Y1088136D01*
X1406075Y1089828D01*
X1409461D01*
X1411154Y1088136D01*
Y1081364D01*
X1395918Y1089828D02*
Y1079672D01*
X1400997Y1084750D01*
X1394226D01*
X1429274Y1143328D02*
Y1133172D01*
X1424196D01*
X1422503Y1134864D01*
Y1138250D01*
X1424196Y1139943D01*
X1429274D01*
X1425889D02*
X1422503Y1143328D01*
X1419117D02*
X1415732D01*
X1417425D01*
Y1133172D01*
X1419117Y1134864D01*
X1410654D02*
X1408961Y1133172D01*
X1405575D01*
X1403882Y1134864D01*
Y1141636D01*
X1405575Y1143328D01*
X1408961D01*
X1410654Y1141636D01*
Y1134864D01*
X1400497D02*
X1398804Y1133172D01*
X1395419D01*
X1393726Y1134864D01*
Y1136557D01*
X1395419Y1138250D01*
X1397111D01*
X1395419D01*
X1393726Y1139943D01*
Y1141636D01*
X1395419Y1143328D01*
X1398804D01*
X1400497Y1141636D01*
X1245578Y724476D02*
X1235422D01*
Y729554D01*
X1237114Y731247D01*
X1240500D01*
X1242193Y729554D01*
Y724476D01*
Y727861D02*
X1245578Y731247D01*
Y734632D02*
Y738018D01*
Y736325D01*
X1235422D01*
X1237114Y734632D01*
Y743096D02*
X1235422Y744789D01*
Y748175D01*
X1237114Y749867D01*
X1243885D01*
X1245578Y748175D01*
Y744789D01*
X1243885Y743096D01*
X1237114D01*
X1245578Y760024D02*
Y753253D01*
X1238807Y760024D01*
X1237114D01*
X1235422Y758332D01*
Y754946D01*
X1237114Y753253D01*
X1291828Y1018168D02*
X1281672D01*
Y1023247D01*
X1283364Y1024940D01*
X1286750D01*
X1288443Y1023247D01*
Y1018168D01*
Y1021554D02*
X1291828Y1024940D01*
Y1028325D02*
Y1031711D01*
Y1030018D01*
X1281672D01*
X1283364Y1028325D01*
Y1036789D02*
X1281672Y1038482D01*
Y1041868D01*
X1283364Y1043560D01*
X1290135D01*
X1291828Y1041868D01*
Y1038482D01*
X1290135Y1036789D01*
X1283364D01*
X1291828Y1046946D02*
Y1050331D01*
Y1048639D01*
X1281672D01*
X1283364Y1046946D01*
X1069708Y926422D02*
Y936578D01*
X1074786D01*
X1076479Y934886D01*
Y931500D01*
X1074786Y929807D01*
X1069708D01*
X1073093D02*
X1076479Y926422D01*
X1079864Y928114D02*
X1081557Y926422D01*
X1084943D01*
X1086636Y928114D01*
Y934886D01*
X1084943Y936578D01*
X1081557D01*
X1079864Y934886D01*
Y933193D01*
X1081557Y931500D01*
X1086636D01*
X1090021Y934886D02*
X1091714Y936578D01*
X1095099D01*
X1096792Y934886D01*
Y928114D01*
X1095099Y926422D01*
X1091714D01*
X1090021Y928114D01*
Y934886D01*
X1068208Y907922D02*
Y918078D01*
X1073286D01*
X1074979Y916386D01*
Y913000D01*
X1073286Y911307D01*
X1068208D01*
X1071593D02*
X1074979Y907922D01*
X1078364Y916386D02*
X1080057Y918078D01*
X1083443D01*
X1085135Y916386D01*
Y914693D01*
X1083443Y913000D01*
X1085135Y911307D01*
Y909614D01*
X1083443Y907922D01*
X1080057D01*
X1078364Y909614D01*
Y911307D01*
X1080057Y913000D01*
X1078364Y914693D01*
Y916386D01*
X1080057Y913000D02*
X1083443D01*
X1088521Y909614D02*
X1090214Y907922D01*
X1093599D01*
X1095292Y909614D01*
Y916386D01*
X1093599Y918078D01*
X1090214D01*
X1088521Y916386D01*
Y914693D01*
X1090214Y913000D01*
X1095292D01*
X1081328Y706208D02*
X1071172D01*
Y711286D01*
X1072864Y712979D01*
X1076250D01*
X1077943Y711286D01*
Y706208D01*
Y709593D02*
X1081328Y712979D01*
X1072864Y716364D02*
X1071172Y718057D01*
Y721443D01*
X1072864Y723136D01*
X1074557D01*
X1076250Y721443D01*
X1077943Y723136D01*
X1079635D01*
X1081328Y721443D01*
Y718057D01*
X1079635Y716364D01*
X1077943D01*
X1076250Y718057D01*
X1074557Y716364D01*
X1072864D01*
X1076250Y718057D02*
Y721443D01*
X1071172Y726521D02*
Y733292D01*
X1072864D01*
X1079635Y726521D01*
X1081328D01*
X1098578Y706458D02*
X1088422D01*
Y711536D01*
X1090114Y713229D01*
X1093500D01*
X1095193Y711536D01*
Y706458D01*
Y709843D02*
X1098578Y713229D01*
X1090114Y716614D02*
X1088422Y718307D01*
Y721693D01*
X1090114Y723386D01*
X1091807D01*
X1093500Y721693D01*
X1095193Y723386D01*
X1096886D01*
X1098578Y721693D01*
Y718307D01*
X1096886Y716614D01*
X1095193D01*
X1093500Y718307D01*
X1091807Y716614D01*
X1090114D01*
X1093500Y718307D02*
Y721693D01*
X1088422Y733542D02*
X1090114Y730157D01*
X1093500Y726771D01*
X1096886D01*
X1098578Y728464D01*
Y731850D01*
X1096886Y733542D01*
X1095193D01*
X1093500Y731850D01*
Y726771D01*
X891577Y862958D02*
X881421D01*
Y868036D01*
X883113Y869729D01*
X886499D01*
X888192Y868036D01*
Y862958D01*
Y866344D02*
X891577Y869729D01*
X883113Y873115D02*
X881421Y874808D01*
Y878193D01*
X883113Y879886D01*
X884806D01*
X886499Y878193D01*
X888192Y879886D01*
X889884D01*
X891577Y878193D01*
Y874808D01*
X889884Y873115D01*
X888192D01*
X886499Y874808D01*
X884806Y873115D01*
X883113D01*
X886499Y874808D02*
Y878193D01*
X881421Y890043D02*
Y883271D01*
X886499D01*
X884806Y886657D01*
Y888350D01*
X886499Y890043D01*
X889884D01*
X891577Y888350D01*
Y884964D01*
X889884Y883271D01*
X1045078Y706708D02*
X1034922D01*
Y711786D01*
X1036614Y713479D01*
X1040000D01*
X1041693Y711786D01*
Y706708D01*
Y710093D02*
X1045078Y713479D01*
X1036614Y716864D02*
X1034922Y718557D01*
Y721943D01*
X1036614Y723636D01*
X1038307D01*
X1040000Y721943D01*
X1041693Y723636D01*
X1043386D01*
X1045078Y721943D01*
Y718557D01*
X1043386Y716864D01*
X1041693D01*
X1040000Y718557D01*
X1038307Y716864D01*
X1036614D01*
X1040000Y718557D02*
Y721943D01*
X1045078Y732100D02*
X1034922D01*
X1040000Y727021D01*
Y733792D01*
X993078Y925208D02*
X982922D01*
Y930286D01*
X984614Y931979D01*
X988000D01*
X989693Y930286D01*
Y925208D01*
Y928593D02*
X993078Y931979D01*
X984614Y935364D02*
X982922Y937057D01*
Y940443D01*
X984614Y942136D01*
X986307D01*
X988000Y940443D01*
X989693Y942136D01*
X991385D01*
X993078Y940443D01*
Y937057D01*
X991385Y935364D01*
X989693D01*
X988000Y937057D01*
X986307Y935364D01*
X984614D01*
X988000Y937057D02*
Y940443D01*
X984614Y945521D02*
X982922Y947214D01*
Y950600D01*
X984614Y952292D01*
X986307D01*
X988000Y950600D01*
Y948907D01*
Y950600D01*
X989693Y952292D01*
X991385D01*
X993078Y950600D01*
Y947214D01*
X991385Y945521D01*
X1061828Y706708D02*
X1051672D01*
Y711786D01*
X1053364Y713479D01*
X1056750D01*
X1058443Y711786D01*
Y706708D01*
Y710093D02*
X1061828Y713479D01*
X1053364Y716864D02*
X1051672Y718557D01*
Y721943D01*
X1053364Y723636D01*
X1055057D01*
X1056750Y721943D01*
X1058443Y723636D01*
X1060136D01*
X1061828Y721943D01*
Y718557D01*
X1060136Y716864D01*
X1058443D01*
X1056750Y718557D01*
X1055057Y716864D01*
X1053364D01*
X1056750Y718557D02*
Y721943D01*
X1061828Y733792D02*
Y727021D01*
X1055057Y733792D01*
X1053364D01*
X1051672Y732100D01*
Y728714D01*
X1053364Y727021D01*
X1008828Y706208D02*
X998672D01*
Y711286D01*
X1000364Y712979D01*
X1003750D01*
X1005443Y711286D01*
Y706208D01*
Y709593D02*
X1008828Y712979D01*
X1000364Y716364D02*
X998672Y718057D01*
Y721443D01*
X1000364Y723136D01*
X1002057D01*
X1003750Y721443D01*
X1005443Y723136D01*
X1007136D01*
X1008828Y721443D01*
Y718057D01*
X1007136Y716364D01*
X1005443D01*
X1003750Y718057D01*
X1002057Y716364D01*
X1000364D01*
X1003750Y718057D02*
Y721443D01*
X1000364Y726521D02*
X998672Y728214D01*
Y731600D01*
X1000364Y733292D01*
X1007136D01*
X1008828Y731600D01*
Y728214D01*
X1007136Y726521D01*
X1000364D01*
X1120208Y814422D02*
Y824578D01*
X1125286D01*
X1126979Y822886D01*
Y819500D01*
X1125286Y817807D01*
X1120208D01*
X1123593D02*
X1126979Y814422D01*
X1130364Y824578D02*
X1137135D01*
Y822886D01*
X1130364Y816114D01*
Y814422D01*
X1140521Y816114D02*
X1142214Y814422D01*
X1145600D01*
X1147292Y816114D01*
Y822886D01*
X1145600Y824578D01*
X1142214D01*
X1140521Y822886D01*
Y821193D01*
X1142214Y819500D01*
X1147292D01*
X1027828Y706458D02*
X1017672D01*
Y711536D01*
X1019364Y713229D01*
X1022750D01*
X1024443Y711536D01*
Y706458D01*
Y709843D02*
X1027828Y713229D01*
X1017672Y716614D02*
Y723385D01*
X1019364D01*
X1026136Y716614D01*
X1027828D01*
X1019364Y726771D02*
X1017672Y728464D01*
Y731850D01*
X1019364Y733542D01*
X1021057D01*
X1022750Y731850D01*
X1024443Y733542D01*
X1026136D01*
X1027828Y731850D01*
Y728464D01*
X1026136Y726771D01*
X1024443D01*
X1022750Y728464D01*
X1021057Y726771D01*
X1019364D01*
X1022750Y728464D02*
Y731850D01*
X887708Y794922D02*
Y805078D01*
X892786D01*
X894479Y803386D01*
Y800000D01*
X892786Y798307D01*
X887708D01*
X891093D02*
X894479Y794922D01*
X897864Y805078D02*
X904635D01*
Y803386D01*
X897864Y796614D01*
Y794922D01*
X908021Y805078D02*
X914792D01*
Y803386D01*
X908021Y796614D01*
Y794922D01*
X887708Y814672D02*
Y824828D01*
X892786D01*
X894479Y823136D01*
Y819750D01*
X892786Y818057D01*
X887708D01*
X891093D02*
X894479Y814672D01*
X897864Y824828D02*
X904635D01*
Y823136D01*
X897864Y816364D01*
Y814672D01*
X914792Y824828D02*
X911407Y823136D01*
X908021Y819750D01*
Y816364D01*
X909714Y814672D01*
X913100D01*
X914792Y816364D01*
Y818057D01*
X913100Y819750D01*
X908021D01*
X972507Y706685D02*
X962350D01*
Y711764D01*
X964043Y713456D01*
X967429D01*
X969121Y711764D01*
Y706685D01*
Y710071D02*
X972507Y713456D01*
X962350Y716842D02*
Y723613D01*
X964043D01*
X970814Y716842D01*
X972507D01*
X962350Y733770D02*
Y726999D01*
X967429D01*
X965736Y730384D01*
Y732077D01*
X967429Y733770D01*
X970814D01*
X972507Y732077D01*
Y728692D01*
X970814Y726999D01*
X991578Y706458D02*
X981422D01*
Y711536D01*
X983114Y713229D01*
X986500D01*
X988193Y711536D01*
Y706458D01*
Y709843D02*
X991578Y713229D01*
X981422Y716614D02*
Y723385D01*
X983114D01*
X989886Y716614D01*
X991578D01*
Y731850D02*
X981422D01*
X986500Y726771D01*
Y733542D01*
X1055078Y924958D02*
X1044922D01*
Y930036D01*
X1046614Y931729D01*
X1050000D01*
X1051693Y930036D01*
Y924958D01*
Y928343D02*
X1055078Y931729D01*
X1044922Y935114D02*
Y941886D01*
X1046614D01*
X1053385Y935114D01*
X1055078D01*
X1046614Y945271D02*
X1044922Y946964D01*
Y950350D01*
X1046614Y952042D01*
X1053385D01*
X1055078Y950350D01*
Y946964D01*
X1053385Y945271D01*
X1046614D01*
X1000422Y1239542D02*
X1010578D01*
Y1234464D01*
X1008886Y1232771D01*
X1005500D01*
X1003807Y1234464D01*
Y1239542D01*
Y1236157D02*
X1000422Y1232771D01*
X1010578Y1222614D02*
X1008886Y1226000D01*
X1005500Y1229386D01*
X1002114D01*
X1000422Y1227693D01*
Y1224307D01*
X1002114Y1222614D01*
X1003807D01*
X1005500Y1224307D01*
Y1229386D01*
X1002114Y1219229D02*
X1000422Y1217536D01*
Y1214150D01*
X1002114Y1212458D01*
X1008886D01*
X1010578Y1214150D01*
Y1217536D01*
X1008886Y1219229D01*
X1007193D01*
X1005500Y1217536D01*
Y1212458D01*
X1074708Y1171922D02*
Y1182078D01*
X1079786D01*
X1081479Y1180386D01*
Y1177000D01*
X1079786Y1175307D01*
X1074708D01*
X1078093D02*
X1081479Y1171922D01*
X1091636Y1182078D02*
X1088250Y1180386D01*
X1084865Y1177000D01*
Y1173614D01*
X1086557Y1171922D01*
X1089943D01*
X1091636Y1173614D01*
Y1175307D01*
X1089943Y1177000D01*
X1084865D01*
X1095021Y1180386D02*
X1096714Y1182078D01*
X1100099D01*
X1101792Y1180386D01*
Y1178693D01*
X1100099Y1177000D01*
X1101792Y1175307D01*
Y1173614D01*
X1100099Y1171922D01*
X1096714D01*
X1095021Y1173614D01*
Y1175307D01*
X1096714Y1177000D01*
X1095021Y1178693D01*
Y1180386D01*
X1096714Y1177000D02*
X1100099D01*
X1192172Y1245292D02*
X1202328D01*
Y1240214D01*
X1200636Y1238521D01*
X1197250D01*
X1195557Y1240214D01*
Y1245292D01*
Y1241907D02*
X1192172Y1238521D01*
X1202328Y1228364D02*
X1200636Y1231750D01*
X1197250Y1235135D01*
X1193864D01*
X1192172Y1233443D01*
Y1230057D01*
X1193864Y1228364D01*
X1195557D01*
X1197250Y1230057D01*
Y1235135D01*
X1202328Y1224979D02*
Y1218208D01*
X1200636D01*
X1193864Y1224979D01*
X1192172D01*
X809828Y929958D02*
X799672D01*
Y935036D01*
X801364Y936729D01*
X804750D01*
X806443Y935036D01*
Y929958D01*
Y933343D02*
X809828Y936729D01*
X799672Y946886D02*
X801364Y943500D01*
X804750Y940115D01*
X808136D01*
X809828Y941807D01*
Y945193D01*
X808136Y946886D01*
X806443D01*
X804750Y945193D01*
Y940115D01*
X799672Y957042D02*
X801364Y953657D01*
X804750Y950271D01*
X808136D01*
X809828Y951964D01*
Y955350D01*
X808136Y957042D01*
X806443D01*
X804750Y955350D01*
Y950271D01*
X828828Y930208D02*
X818672D01*
Y935286D01*
X820364Y936979D01*
X823750D01*
X825443Y935286D01*
Y930208D01*
Y933593D02*
X828828Y936979D01*
X818672Y947136D02*
X820364Y943750D01*
X823750Y940364D01*
X827135D01*
X828828Y942057D01*
Y945443D01*
X827135Y947136D01*
X825443D01*
X823750Y945443D01*
Y940364D01*
X818672Y957292D02*
Y950521D01*
X823750D01*
X822057Y953907D01*
Y955600D01*
X823750Y957292D01*
X827135D01*
X828828Y955600D01*
Y952214D01*
X827135Y950521D01*
X847328Y929708D02*
X837172D01*
Y934786D01*
X838864Y936479D01*
X842250D01*
X843943Y934786D01*
Y929708D01*
Y933093D02*
X847328Y936479D01*
X837172Y946636D02*
X838864Y943250D01*
X842250Y939864D01*
X845636D01*
X847328Y941557D01*
Y944943D01*
X845636Y946636D01*
X843943D01*
X842250Y944943D01*
Y939864D01*
X847328Y955099D02*
X837172D01*
X842250Y950021D01*
Y956792D01*
X865829Y929585D02*
X855673D01*
Y934664D01*
X857365Y936357D01*
X860751D01*
X862444Y934664D01*
Y929585D01*
Y932971D02*
X865829Y936357D01*
X855673Y946513D02*
X857365Y943128D01*
X860751Y939742D01*
X864137D01*
X865829Y941435D01*
Y944820D01*
X864137Y946513D01*
X862444D01*
X860751Y944820D01*
Y939742D01*
X857365Y949899D02*
X855673Y951592D01*
Y954977D01*
X857365Y956670D01*
X859058D01*
X860751Y954977D01*
Y953284D01*
Y954977D01*
X862444Y956670D01*
X864137D01*
X865829Y954977D01*
Y951592D01*
X864137Y949899D01*
X772328Y930208D02*
X762172D01*
Y935286D01*
X763864Y936979D01*
X767250D01*
X768943Y935286D01*
Y930208D01*
Y933593D02*
X772328Y936979D01*
X762172Y947135D02*
X763864Y943750D01*
X767250Y940364D01*
X770636D01*
X772328Y942057D01*
Y945443D01*
X770636Y947135D01*
X768943D01*
X767250Y945443D01*
Y940364D01*
X772328Y957292D02*
Y950521D01*
X765557Y957292D01*
X763864D01*
X762172Y955600D01*
Y952214D01*
X763864Y950521D01*
X791078Y930400D02*
X780922D01*
Y935479D01*
X782614Y937172D01*
X786000D01*
X787693Y935479D01*
Y930400D01*
Y933786D02*
X791078Y937172D01*
X780922Y947328D02*
X782614Y943943D01*
X786000Y940557D01*
X789386D01*
X791078Y942250D01*
Y945636D01*
X789386Y947328D01*
X787693D01*
X786000Y945636D01*
Y940557D01*
X791078Y950714D02*
Y954100D01*
Y952407D01*
X780922D01*
X782614Y950714D01*
X733708Y1173422D02*
Y1183578D01*
X738786D01*
X740479Y1181886D01*
Y1178500D01*
X738786Y1176807D01*
X733708D01*
X737093D02*
X740479Y1173422D01*
X750636Y1183578D02*
X747250Y1181886D01*
X743864Y1178500D01*
Y1175114D01*
X745557Y1173422D01*
X748943D01*
X750636Y1175114D01*
Y1176807D01*
X748943Y1178500D01*
X743864D01*
X754021Y1181886D02*
X755714Y1183578D01*
X759100D01*
X760792Y1181886D01*
Y1175114D01*
X759100Y1173422D01*
X755714D01*
X754021Y1175114D01*
Y1181886D01*
X848922Y1235792D02*
X859078D01*
Y1230714D01*
X857386Y1229021D01*
X854000D01*
X852307Y1230714D01*
Y1235792D01*
Y1232407D02*
X848922Y1229021D01*
X859078Y1218864D02*
Y1225636D01*
X854000D01*
X855693Y1222250D01*
Y1220557D01*
X854000Y1218864D01*
X850614D01*
X848922Y1220557D01*
Y1223943D01*
X850614Y1225636D01*
Y1215479D02*
X848922Y1213786D01*
Y1210400D01*
X850614Y1208708D01*
X857386D01*
X859078Y1210400D01*
Y1213786D01*
X857386Y1215479D01*
X855693D01*
X854000Y1213786D01*
Y1208708D01*
X836328Y886708D02*
X826172D01*
Y891786D01*
X827864Y893479D01*
X831250D01*
X832943Y891786D01*
Y886708D01*
Y890093D02*
X836328Y893479D01*
X826172Y903636D02*
Y896864D01*
X831250D01*
X829557Y900250D01*
Y901943D01*
X831250Y903636D01*
X834636D01*
X836328Y901943D01*
Y898557D01*
X834636Y896864D01*
X827864Y907021D02*
X826172Y908714D01*
Y912100D01*
X827864Y913792D01*
X829557D01*
X831250Y912100D01*
X832943Y913792D01*
X834636D01*
X836328Y912100D01*
Y908714D01*
X834636Y907021D01*
X832943D01*
X831250Y908714D01*
X829557Y907021D01*
X827864D01*
X831250Y908714D02*
Y912100D01*
X849578Y708958D02*
X839422D01*
Y714036D01*
X841114Y715729D01*
X844500D01*
X846193Y714036D01*
Y708958D01*
Y712343D02*
X849578Y715729D01*
X839422Y725886D02*
Y719114D01*
X844500D01*
X842807Y722500D01*
Y724193D01*
X844500Y725886D01*
X847886D01*
X849578Y724193D01*
Y720807D01*
X847886Y719114D01*
X839422Y729271D02*
Y736042D01*
X841114D01*
X847886Y729271D01*
X849578D01*
X831078Y708958D02*
X820922D01*
Y714036D01*
X822614Y715729D01*
X826000D01*
X827693Y714036D01*
Y708958D01*
Y712343D02*
X831078Y715729D01*
X820922Y725885D02*
Y719114D01*
X826000D01*
X824307Y722500D01*
Y724193D01*
X826000Y725885D01*
X829386D01*
X831078Y724193D01*
Y720807D01*
X829386Y719114D01*
X820922Y736042D02*
X822614Y732657D01*
X826000Y729271D01*
X829386D01*
X831078Y730964D01*
Y734350D01*
X829386Y736042D01*
X827693D01*
X826000Y734350D01*
Y729271D01*
X812328Y707708D02*
X802172D01*
Y712786D01*
X803865Y714479D01*
X807250D01*
X808943Y712786D01*
Y707708D01*
Y711093D02*
X812328Y714479D01*
X802172Y724636D02*
Y717864D01*
X807250D01*
X805557Y721250D01*
Y722943D01*
X807250Y724636D01*
X810636D01*
X812328Y722943D01*
Y719557D01*
X810636Y717864D01*
X802172Y734792D02*
Y728021D01*
X807250D01*
X805557Y731407D01*
Y733100D01*
X807250Y734792D01*
X810636D01*
X812328Y733100D01*
Y729714D01*
X810636Y728021D01*
X819328Y886708D02*
X809172D01*
Y891786D01*
X810864Y893479D01*
X814250D01*
X815943Y891786D01*
Y886708D01*
Y890093D02*
X819328Y893479D01*
X809172Y903636D02*
Y896864D01*
X814250D01*
X812557Y900250D01*
Y901943D01*
X814250Y903636D01*
X817636D01*
X819328Y901943D01*
Y898557D01*
X817636Y896864D01*
X819328Y912100D02*
X809172D01*
X814250Y907021D01*
Y913792D01*
X801578Y886708D02*
X791422D01*
Y891786D01*
X793114Y893479D01*
X796500D01*
X798193Y891786D01*
Y886708D01*
Y890093D02*
X801578Y893479D01*
X791422Y903636D02*
Y896864D01*
X796500D01*
X794807Y900250D01*
Y901943D01*
X796500Y903636D01*
X799886D01*
X801578Y901943D01*
Y898557D01*
X799886Y896864D01*
X793114Y907021D02*
X791422Y908714D01*
Y912100D01*
X793114Y913792D01*
X794807D01*
X796500Y912100D01*
Y910407D01*
Y912100D01*
X798193Y913792D01*
X799886D01*
X801578Y912100D01*
Y908714D01*
X799886Y907021D01*
X794828Y709708D02*
X784672D01*
Y714786D01*
X786364Y716479D01*
X789750D01*
X791443Y714786D01*
Y709708D01*
Y713093D02*
X794828Y716479D01*
X784672Y726636D02*
Y719864D01*
X789750D01*
X788057Y723250D01*
Y724943D01*
X789750Y726636D01*
X793136D01*
X794828Y724943D01*
Y721557D01*
X793136Y719864D01*
X794828Y736792D02*
Y730021D01*
X788057Y736792D01*
X786364D01*
X784672Y735099D01*
Y731714D01*
X786364Y730021D01*
X785328Y887150D02*
X775172D01*
Y892229D01*
X776864Y893922D01*
X780250D01*
X781943Y892229D01*
Y887150D01*
Y890536D02*
X785328Y893922D01*
X775172Y904078D02*
Y897307D01*
X780250D01*
X778557Y900693D01*
Y902386D01*
X780250Y904078D01*
X783636D01*
X785328Y902386D01*
Y899000D01*
X783636Y897307D01*
X785328Y907464D02*
Y910850D01*
Y909157D01*
X775172D01*
X776864Y907464D01*
X946958Y133422D02*
Y143578D01*
X952036D01*
X953729Y141886D01*
Y138500D01*
X952036Y136807D01*
X946958D01*
X950343D02*
X953729Y133422D01*
X963886Y143578D02*
X957114D01*
Y138500D01*
X960500Y140193D01*
X962193D01*
X963886Y138500D01*
Y135114D01*
X962193Y133422D01*
X958807D01*
X957114Y135114D01*
X967271Y141886D02*
X968964Y143578D01*
X972349D01*
X974042Y141886D01*
Y135114D01*
X972349Y133422D01*
X968964D01*
X967271Y135114D01*
Y141886D01*
X928458Y194672D02*
Y204828D01*
X933536D01*
X935229Y203136D01*
Y199750D01*
X933536Y198057D01*
X928458D01*
X931843D02*
X935229Y194672D01*
X943693D02*
Y204828D01*
X938614Y199750D01*
X945386D01*
X948771Y196364D02*
X950464Y194672D01*
X953849D01*
X955542Y196364D01*
Y203136D01*
X953849Y204828D01*
X950464D01*
X948771Y203136D01*
Y201443D01*
X950464Y199750D01*
X955542D01*
X994328Y169958D02*
X984172D01*
Y175036D01*
X985864Y176729D01*
X989250D01*
X990943Y175036D01*
Y169958D01*
Y173343D02*
X994328Y176729D01*
Y185193D02*
X984172D01*
X989250Y180114D01*
Y186886D01*
X985864Y190271D02*
X984172Y191964D01*
Y195350D01*
X985864Y197042D01*
X987557D01*
X989250Y195350D01*
X990943Y197042D01*
X992635D01*
X994328Y195350D01*
Y191964D01*
X992635Y190271D01*
X990943D01*
X989250Y191964D01*
X987557Y190271D01*
X985864D01*
X989250Y191964D02*
Y195350D01*
X968958Y151172D02*
Y161328D01*
X974036D01*
X975729Y159636D01*
Y156250D01*
X974036Y154557D01*
X968958D01*
X972343D02*
X975729Y151172D01*
X984193D02*
Y161328D01*
X979114Y156250D01*
X985886D01*
X989271Y161328D02*
X996042D01*
Y159636D01*
X989271Y152864D01*
Y151172D01*
X1054578Y168958D02*
X1044422D01*
Y174036D01*
X1046114Y175729D01*
X1049500D01*
X1051193Y174036D01*
Y168958D01*
Y172343D02*
X1054578Y175729D01*
Y184193D02*
X1044422D01*
X1049500Y179114D01*
Y185886D01*
X1044422Y196042D02*
X1046114Y192657D01*
X1049500Y189271D01*
X1052886D01*
X1054578Y190964D01*
Y194349D01*
X1052886Y196042D01*
X1051193D01*
X1049500Y194349D01*
Y189271D01*
X1048708Y149672D02*
Y159828D01*
X1053786D01*
X1055479Y158136D01*
Y154750D01*
X1053786Y153057D01*
X1048708D01*
X1052093D02*
X1055479Y149672D01*
X1063943D02*
Y159828D01*
X1058864Y154750D01*
X1065636D01*
X1075792Y159828D02*
X1069021D01*
Y154750D01*
X1072407Y156443D01*
X1074100D01*
X1075792Y154750D01*
Y151364D01*
X1074100Y149672D01*
X1070714D01*
X1069021Y151364D01*
X1118358Y366907D02*
X1111176Y359725D01*
X1107585Y363316D01*
Y365710D01*
X1109979Y368104D01*
X1112373D01*
X1115964Y364513D01*
X1113570Y366907D02*
Y371695D01*
X1107585Y377680D02*
X1100403Y370498D01*
X1107585Y370498D01*
X1102797Y375286D01*
X1100403Y384862D02*
X1093221Y377680D01*
X1100403Y377680D01*
X1095615Y382468D01*
X1103010Y351172D02*
X1095828Y343990D01*
X1092237Y347581D01*
Y349975D01*
X1094631Y352369D01*
X1097025D01*
X1100616Y348778D01*
X1098222Y351172D02*
Y355960D01*
X1092237Y361945D02*
X1085055Y354763D01*
X1092237Y354763D01*
X1087449Y359551D01*
X1082661D02*
X1080267D01*
X1077873Y361945D01*
Y364339D01*
X1079070Y365536D01*
X1081464D01*
X1082661Y364339D01*
X1081464Y365536D01*
Y367930D01*
X1082661Y369127D01*
X1085055D01*
X1087449Y366733D01*
Y364339D01*
X793901Y132422D02*
Y142578D01*
X798979D01*
X800672Y140886D01*
Y137500D01*
X798979Y135807D01*
X793901D01*
X797286D02*
X800672Y132422D01*
X809136D02*
Y142578D01*
X804057Y137500D01*
X810828D01*
X814214Y132422D02*
X817599D01*
X815907D01*
Y142578D01*
X814214Y140886D01*
X756958Y219422D02*
Y229578D01*
X762036D01*
X763729Y227886D01*
Y224500D01*
X762036Y222807D01*
X756958D01*
X760343D02*
X763729Y219422D01*
X772193D02*
Y229578D01*
X767114Y224500D01*
X773885D01*
X777271Y227886D02*
X778964Y229578D01*
X782349D01*
X784042Y227886D01*
Y221114D01*
X782349Y219422D01*
X778964D01*
X777271Y221114D01*
Y227886D01*
X838828Y170708D02*
X828672D01*
Y175786D01*
X830364Y177479D01*
X833750D01*
X835443Y175786D01*
Y170708D01*
Y174093D02*
X838828Y177479D01*
X830364Y180865D02*
X828672Y182557D01*
Y185943D01*
X830364Y187636D01*
X832057D01*
X833750Y185943D01*
Y184250D01*
Y185943D01*
X835443Y187636D01*
X837135D01*
X838828Y185943D01*
Y182557D01*
X837135Y180865D01*
Y191021D02*
X838828Y192714D01*
Y196099D01*
X837135Y197792D01*
X830364D01*
X828672Y196099D01*
Y192714D01*
X830364Y191021D01*
X832057D01*
X833750Y192714D01*
Y197792D01*
X810958Y152172D02*
Y162328D01*
X816036D01*
X817729Y160636D01*
Y157250D01*
X816036Y155557D01*
X810958D01*
X814343D02*
X817729Y152172D01*
X821114Y160636D02*
X822807Y162328D01*
X826193D01*
X827886Y160636D01*
Y158943D01*
X826193Y157250D01*
X824500D01*
X826193D01*
X827886Y155557D01*
Y153864D01*
X826193Y152172D01*
X822807D01*
X821114Y153864D01*
X831271Y160636D02*
X832964Y162328D01*
X836349D01*
X838042Y160636D01*
Y158943D01*
X836349Y157250D01*
X838042Y155557D01*
Y153864D01*
X836349Y152172D01*
X832964D01*
X831271Y153864D01*
Y155557D01*
X832964Y157250D01*
X831271Y158943D01*
Y160636D01*
X832964Y157250D02*
X836349D01*
X893578Y169708D02*
X883422D01*
Y174786D01*
X885114Y176479D01*
X888500D01*
X890193Y174786D01*
Y169708D01*
Y173093D02*
X893578Y176479D01*
X885114Y179864D02*
X883422Y181557D01*
Y184943D01*
X885114Y186636D01*
X886807D01*
X888500Y184943D01*
Y183250D01*
Y184943D01*
X890193Y186636D01*
X891886D01*
X893578Y184943D01*
Y181557D01*
X891886Y179864D01*
X883422Y190021D02*
Y196792D01*
X885114D01*
X891886Y190021D01*
X893578D01*
X901208Y133422D02*
Y143578D01*
X906286D01*
X907979Y141886D01*
Y138500D01*
X906286Y136807D01*
X901208D01*
X904593D02*
X907979Y133422D01*
X911364Y141886D02*
X913057Y143578D01*
X916443D01*
X918136Y141886D01*
Y140193D01*
X916443Y138500D01*
X914750D01*
X916443D01*
X918136Y136807D01*
Y135114D01*
X916443Y133422D01*
X913057D01*
X911364Y135114D01*
X928292Y143578D02*
X924907Y141886D01*
X921521Y138500D01*
Y135114D01*
X923214Y133422D01*
X926600D01*
X928292Y135114D01*
Y136807D01*
X926600Y138500D01*
X921521D01*
X969331Y565585D02*
X962149Y572767D01*
X965740Y576358D01*
X968133D01*
X970527Y573964D01*
Y571570D01*
X966937Y567979D01*
X969331Y570373D02*
X974118D01*
X970527Y578752D02*
Y581146D01*
X972921Y583540D01*
X975315D01*
X976512Y582343D01*
Y579949D01*
X975315Y578752D01*
X976512Y579949D01*
X978906D01*
X980103Y578752D01*
Y576358D01*
X977709Y573964D01*
X975315D01*
X981300Y591919D02*
X976512Y587131D01*
X980103Y583540D01*
X981300Y587131D01*
X982497Y588328D01*
X984891D01*
X987285Y585934D01*
Y583540D01*
X984891Y581146D01*
X982497D01*
X380328Y1050208D02*
X370172D01*
Y1055286D01*
X371864Y1056979D01*
X375250D01*
X376943Y1055286D01*
Y1050208D01*
Y1053593D02*
X380328Y1056979D01*
X371864Y1060365D02*
X370172Y1062057D01*
Y1065443D01*
X371864Y1067136D01*
X373557D01*
X375250Y1065443D01*
Y1063750D01*
Y1065443D01*
X376943Y1067136D01*
X378635D01*
X380328Y1065443D01*
Y1062057D01*
X378635Y1060365D01*
X371864Y1070521D02*
X370172Y1072214D01*
Y1075600D01*
X371864Y1077292D01*
X378635D01*
X380328Y1075600D01*
Y1072214D01*
X378635Y1070521D01*
X371864D01*
X355828Y1049458D02*
X345672D01*
Y1054536D01*
X347364Y1056229D01*
X350750D01*
X352443Y1054536D01*
Y1049458D01*
Y1052843D02*
X355828Y1056229D01*
Y1066385D02*
Y1059614D01*
X349057Y1066385D01*
X347364D01*
X345672Y1064693D01*
Y1061307D01*
X347364Y1059614D01*
X354136Y1069771D02*
X355828Y1071464D01*
Y1074849D01*
X354136Y1076542D01*
X347364D01*
X345672Y1074849D01*
Y1071464D01*
X347364Y1069771D01*
X349057D01*
X350750Y1071464D01*
Y1076542D01*
X468578Y1050458D02*
X458422D01*
Y1055536D01*
X460114Y1057229D01*
X463500D01*
X465193Y1055536D01*
Y1050458D01*
Y1053843D02*
X468578Y1057229D01*
Y1067386D02*
Y1060614D01*
X461807Y1067386D01*
X460114D01*
X458422Y1065693D01*
Y1062307D01*
X460114Y1060614D01*
Y1070771D02*
X458422Y1072464D01*
Y1075850D01*
X460114Y1077542D01*
X461807D01*
X463500Y1075850D01*
X465193Y1077542D01*
X466886D01*
X468578Y1075850D01*
Y1072464D01*
X466886Y1070771D01*
X465193D01*
X463500Y1072464D01*
X461807Y1070771D01*
X460114D01*
X463500Y1072464D02*
Y1075850D01*
X459328Y586958D02*
X449172D01*
Y592036D01*
X450864Y593729D01*
X454250D01*
X455943Y592036D01*
Y586958D01*
Y590343D02*
X459328Y593729D01*
Y603886D02*
Y597114D01*
X452557Y603886D01*
X450864D01*
X449172Y602193D01*
Y598807D01*
X450864Y597114D01*
X449172Y614042D02*
X450864Y610657D01*
X454250Y607271D01*
X457635D01*
X459328Y608964D01*
Y612350D01*
X457635Y614042D01*
X455943D01*
X454250Y612350D01*
Y607271D01*
X400828Y655208D02*
X390672D01*
Y660286D01*
X392364Y661979D01*
X395750D01*
X397443Y660286D01*
Y655208D01*
Y658593D02*
X400828Y661979D01*
Y672136D02*
Y665365D01*
X394057Y672136D01*
X392364D01*
X390672Y670443D01*
Y667057D01*
X392364Y665365D01*
X390672Y682292D02*
Y675521D01*
X395750D01*
X394057Y678907D01*
Y680600D01*
X395750Y682292D01*
X399136D01*
X400828Y680600D01*
Y677214D01*
X399136Y675521D01*
X520828Y909150D02*
X510672D01*
Y914229D01*
X512364Y915922D01*
X515750D01*
X517443Y914229D01*
Y909150D01*
Y912536D02*
X520828Y915922D01*
Y926078D02*
Y919307D01*
X514057Y926078D01*
X512364D01*
X510672Y924386D01*
Y921000D01*
X512364Y919307D01*
X520828Y929464D02*
Y932850D01*
Y931157D01*
X510672D01*
X512364Y929464D01*
X129208Y1067672D02*
Y1077828D01*
X134286D01*
X135979Y1076136D01*
Y1072750D01*
X134286Y1071057D01*
X129208D01*
X132593D02*
X135979Y1067672D01*
X146136D02*
X139364D01*
X146136Y1074443D01*
Y1076136D01*
X144443Y1077828D01*
X141057D01*
X139364Y1076136D01*
X149521D02*
X151214Y1077828D01*
X154600D01*
X156292Y1076136D01*
Y1069364D01*
X154600Y1067672D01*
X151214D01*
X149521Y1069364D01*
Y1076136D01*
X127054Y1092422D02*
Y1102578D01*
X132133D01*
X133825Y1100886D01*
Y1097500D01*
X132133Y1095807D01*
X127054D01*
X130440D02*
X133825Y1092422D01*
X137211D02*
X140596D01*
X138904D01*
Y1102578D01*
X137211Y1100886D01*
X145675Y1094114D02*
X147367Y1092422D01*
X150753D01*
X152446Y1094114D01*
Y1100886D01*
X150753Y1102578D01*
X147367D01*
X145675Y1100886D01*
Y1099193D01*
X147367Y1097500D01*
X152446D01*
X1195078Y255804D02*
X1184922D01*
Y260882D01*
X1186614Y262575D01*
X1190000D01*
X1191693Y260882D01*
Y255804D01*
Y259190D02*
X1195078Y262575D01*
Y265961D02*
Y269346D01*
Y267654D01*
X1184922D01*
X1186614Y265961D01*
Y274425D02*
X1184922Y276118D01*
Y279503D01*
X1186614Y281196D01*
X1188307D01*
X1190000Y279503D01*
X1191693Y281196D01*
X1193386D01*
X1195078Y279503D01*
Y276118D01*
X1193386Y274425D01*
X1191693D01*
X1190000Y276118D01*
X1188307Y274425D01*
X1186614D01*
X1190000Y276118D02*
Y279503D01*
X1215328Y257804D02*
X1205172D01*
Y262882D01*
X1206864Y264575D01*
X1210250D01*
X1211943Y262882D01*
Y257804D01*
Y261190D02*
X1215328Y264575D01*
Y267961D02*
Y271346D01*
Y269654D01*
X1205172D01*
X1206864Y267961D01*
X1205172Y276425D02*
Y283196D01*
X1206864D01*
X1213635Y276425D01*
X1215328D01*
X1325328Y391054D02*
X1315172D01*
Y396133D01*
X1316864Y397825D01*
X1320250D01*
X1321943Y396133D01*
Y391054D01*
Y394440D02*
X1325328Y397825D01*
Y401211D02*
Y404596D01*
Y402904D01*
X1315172D01*
X1316864Y401211D01*
X1315172Y416446D02*
X1316864Y413060D01*
X1320250Y409675D01*
X1323636D01*
X1325328Y411368D01*
Y414753D01*
X1323636Y416446D01*
X1321943D01*
X1320250Y414753D01*
Y409675D01*
X1478328Y384054D02*
X1468172D01*
Y389132D01*
X1469864Y390825D01*
X1473250D01*
X1474943Y389132D01*
Y384054D01*
Y387440D02*
X1478328Y390825D01*
Y394211D02*
Y397596D01*
Y395904D01*
X1468172D01*
X1469864Y394211D01*
X1468172Y409446D02*
Y402675D01*
X1473250D01*
X1471557Y406060D01*
Y407753D01*
X1473250Y409446D01*
X1476636D01*
X1478328Y407753D01*
Y404367D01*
X1476636Y402675D01*
X1266614Y1095943D02*
X1273386D01*
X1275078Y1097635D01*
Y1101021D01*
X1273386Y1102714D01*
X1266614D01*
X1264922Y1101021D01*
Y1097635D01*
X1268307Y1099328D02*
X1264922Y1095943D01*
Y1097635D02*
X1266614Y1095943D01*
X1273386Y1092557D02*
X1275078Y1090864D01*
Y1087479D01*
X1273386Y1085786D01*
X1271693D01*
X1270000Y1087479D01*
Y1089172D01*
Y1087479D01*
X1268307Y1085786D01*
X1266614D01*
X1264922Y1087479D01*
Y1090864D01*
X1266614Y1092557D01*
X1376693Y1143636D02*
Y1136864D01*
X1378386Y1135172D01*
X1381771D01*
X1383464Y1136864D01*
Y1143636D01*
X1381771Y1145328D01*
X1378386D01*
X1380078Y1141943D02*
X1376693Y1145328D01*
X1378386D02*
X1376693Y1143636D01*
X1366536Y1145328D02*
X1373307D01*
X1366536Y1138557D01*
Y1136864D01*
X1368229Y1135172D01*
X1371614D01*
X1373307Y1136864D01*
X923172Y24536D02*
X933328D01*
Y31307D01*
X924864Y34693D02*
X923172Y36386D01*
Y39771D01*
X924864Y41464D01*
X926557D01*
X928250Y39771D01*
X929943Y41464D01*
X931636D01*
X933328Y39771D01*
Y36386D01*
X931636Y34693D01*
X929943D01*
X928250Y36386D01*
X926557Y34693D01*
X924864D01*
X928250Y36386D02*
Y39771D01*
X984672Y85286D02*
X994828D01*
Y92057D01*
X984672Y95443D02*
Y102214D01*
X986364D01*
X993136Y95443D01*
X994828D01*
X1050922Y85286D02*
X1061078D01*
Y92057D01*
X1050922Y102214D02*
X1052614Y98828D01*
X1056000Y95443D01*
X1059386D01*
X1061078Y97136D01*
Y100521D01*
X1059386Y102214D01*
X1057693D01*
X1056000Y100521D01*
Y95443D01*
X763536Y52328D02*
Y42172D01*
X770307D01*
X780464Y52328D02*
X773693D01*
Y47250D01*
X777078Y48943D01*
X778771D01*
X780464Y47250D01*
Y43864D01*
X778771Y42172D01*
X775386D01*
X773693Y43864D01*
X860672Y83536D02*
X870828D01*
Y90307D01*
Y98771D02*
X860672D01*
X865750Y93693D01*
Y100464D01*
X898672Y83786D02*
X908828D01*
Y90557D01*
X900364Y93943D02*
X898672Y95636D01*
Y99021D01*
X900364Y100714D01*
X902057D01*
X903750Y99021D01*
Y97328D01*
Y99021D01*
X905443Y100714D01*
X907135D01*
X908828Y99021D01*
Y95636D01*
X907135Y93943D01*
X1288922Y318536D02*
X1299078D01*
Y325307D01*
Y335464D02*
Y328693D01*
X1292307Y335464D01*
X1290614D01*
X1288922Y333771D01*
Y330386D01*
X1290614Y328693D01*
X1306532Y529553D02*
Y519396D01*
X1313304D01*
X1316689D02*
X1320075D01*
X1318382D01*
Y529553D01*
X1316689Y527860D01*
X387075Y218078D02*
X383690D01*
X385382D01*
Y209614D01*
X383690Y207922D01*
X381997D01*
X380304Y209614D01*
X390461Y207922D02*
X393846D01*
X392154D01*
Y218078D01*
X390461Y216386D01*
X398925D02*
X400618Y218078D01*
X404003D01*
X405696Y216386D01*
Y214693D01*
X404003Y213000D01*
X402310D01*
X404003D01*
X405696Y211307D01*
Y209614D01*
X404003Y207922D01*
X400618D01*
X398925Y209614D01*
X160768Y264078D02*
X157382D01*
X159075D01*
Y255614D01*
X157382Y253922D01*
X155690D01*
X153997Y255614D01*
X164154Y253922D02*
X167539D01*
X165846D01*
Y264078D01*
X164154Y262386D01*
X172618Y253922D02*
X176003D01*
X174310D01*
Y264078D01*
X172618Y262386D01*
X1242575Y86078D02*
X1239190D01*
X1240882D01*
Y77614D01*
X1239190Y75922D01*
X1237497D01*
X1235804Y77614D01*
X1245961Y75922D02*
X1249346D01*
X1247654D01*
Y86078D01*
X1245961Y84386D01*
X1254425D02*
X1256118Y86078D01*
X1259503D01*
X1261196Y84386D01*
Y77614D01*
X1259503Y75922D01*
X1256118D01*
X1254425Y77614D01*
Y84386D01*
X1578307Y924578D02*
X1574922D01*
X1576614D01*
Y916114D01*
X1574922Y914422D01*
X1573229D01*
X1571536Y916114D01*
X1581693D02*
X1583386Y914422D01*
X1586771D01*
X1588464Y916114D01*
Y922886D01*
X1586771Y924578D01*
X1583386D01*
X1581693Y922886D01*
Y921193D01*
X1583386Y919500D01*
X1588464D01*
X884057Y1002828D02*
X880672D01*
X882364D01*
Y994364D01*
X880672Y992672D01*
X878979D01*
X877286Y994364D01*
X887443Y1002828D02*
X894214D01*
Y1001136D01*
X887443Y994364D01*
Y992672D01*
X1051557Y1001578D02*
X1048172D01*
X1049864D01*
Y993114D01*
X1048172Y991422D01*
X1046479D01*
X1044786Y993114D01*
X1061714Y1001578D02*
X1058328Y999886D01*
X1054943Y996500D01*
Y993114D01*
X1056636Y991422D01*
X1060021D01*
X1061714Y993114D01*
Y994807D01*
X1060021Y996500D01*
X1054943D01*
X1088807Y1002828D02*
X1085422D01*
X1087114D01*
Y994364D01*
X1085422Y992672D01*
X1083729D01*
X1082036Y994364D01*
X1098964Y1002828D02*
X1092193D01*
Y997750D01*
X1095578Y999443D01*
X1097271D01*
X1098964Y997750D01*
Y994364D01*
X1097271Y992672D01*
X1093886D01*
X1092193Y994364D01*
X756621Y464553D02*
X751833Y459765D01*
X755424Y456174D01*
X757818Y458568D01*
X755424Y456174D01*
X759015Y452583D01*
Y466947D02*
X766197Y459765D01*
X769788Y463356D01*
Y465750D01*
X768591Y466947D01*
X766197D01*
X762606Y463356D01*
X766197Y466947D01*
Y469341D01*
X765000Y470538D01*
X762606D01*
X759015Y466947D01*
X767394Y472932D02*
Y475326D01*
X769788Y477720D01*
X772182D01*
X773379Y476523D01*
Y474129D01*
X775773D01*
X776970Y472932D01*
Y470538D01*
X774576Y468144D01*
X772182D01*
X770985Y469341D01*
Y471735D01*
X768591D01*
X767394Y472932D01*
X770985Y471735D02*
X773379Y474129D01*
X686197Y464621D02*
X690985Y459833D01*
X694576Y463424D01*
X692182Y465818D01*
X694576Y463424D01*
X698167Y467015D01*
X683803D02*
X690985Y474197D01*
X687394Y477788D01*
X685000D01*
X683803Y476591D01*
Y474197D01*
X687394Y470606D01*
X683803Y474197D01*
X681409D01*
X680212Y473000D01*
Y470606D01*
X683803Y467015D01*
X676621Y474197D02*
X671833Y478985D01*
X673030Y480182D01*
X682606Y480182D01*
X683803Y481379D01*
X487371Y449303D02*
X482583Y444515D01*
X486174Y440924D01*
X488568Y443318D01*
X486174Y440924D01*
X489765Y437333D01*
Y451697D02*
X496947Y444515D01*
X500538Y448106D01*
Y450500D01*
X499341Y451697D01*
X496947D01*
X493356Y448106D01*
X496947Y451697D01*
Y454091D01*
X495750Y455288D01*
X493356D01*
X489765Y451697D01*
X501735Y463667D02*
X496947Y458879D01*
X500538Y455288D01*
X501735Y458879D01*
X502932Y460076D01*
X505326D01*
X507720Y457682D01*
Y455288D01*
X505326Y452894D01*
X502932D01*
X450053Y447629D02*
X445265Y452417D01*
X441674Y448826D01*
X444068Y446432D01*
X441674Y448826D01*
X438083Y445235D01*
X452447D02*
X445265Y438053D01*
X448856Y434462D01*
X451250D01*
X452447Y435659D01*
Y438053D01*
X448856Y441644D01*
X452447Y438053D01*
X454841D01*
X456038Y439250D01*
Y441644D01*
X452447Y445235D01*
X456038Y427280D02*
X463220Y434462D01*
X456038Y434462D01*
X460826Y429674D01*
X941790Y348778D02*
X946578Y343990D01*
X950169Y347581D01*
X947775Y349975D01*
X950169Y347581D01*
X953760Y351172D01*
X939396D02*
X946578Y358354D01*
X942987Y361945D01*
X940593D01*
X939396Y360748D01*
Y358354D01*
X942987Y354763D01*
X939396Y358354D01*
X937002D01*
X935805Y357157D01*
Y354763D01*
X939396Y351172D01*
X934608Y370324D02*
X939396Y365536D01*
X929820D01*
X928623Y364339D01*
Y361945D01*
X931017Y359551D01*
X933411D01*
X1028593Y326541D02*
X1033381Y321753D01*
X1036972Y325344D01*
X1034578Y327738D01*
X1036972Y325344D01*
X1040563Y328935D01*
X1026199D02*
X1033381Y336116D01*
X1029790Y339707D01*
X1027396D01*
X1026199Y338511D01*
Y336116D01*
X1029790Y332526D01*
X1026199Y336116D01*
X1023805D01*
X1022608Y334920D01*
Y332526D01*
X1026199Y328935D01*
Y343298D02*
X1023805Y345692D01*
X1025002Y344495D01*
X1017820Y337313D01*
X1020214D01*
X1372001Y263828D02*
X1365230D01*
Y258750D01*
X1368615D01*
X1365230D01*
Y253672D01*
X1375386D02*
X1378772D01*
X1377079D01*
Y263828D01*
X1375386Y262136D01*
X958422Y106036D02*
X968578D01*
Y111114D01*
X966886Y112807D01*
X960114D01*
X958422Y111114D01*
Y106036D01*
Y122964D02*
X960114Y119578D01*
X963500Y116193D01*
X966886D01*
X968578Y117886D01*
Y121271D01*
X966886Y122964D01*
X965193D01*
X963500Y121271D01*
Y116193D01*
X1072922Y106786D02*
X1083078D01*
Y111864D01*
X1081386Y113557D01*
X1074614D01*
X1072922Y111864D01*
Y106786D01*
Y123714D02*
Y116943D01*
X1078000D01*
X1076307Y120328D01*
Y122021D01*
X1078000Y123714D01*
X1081386D01*
X1083078Y122021D01*
Y118636D01*
X1081386Y116943D01*
X804536Y121828D02*
Y111672D01*
X809614D01*
X811307Y113364D01*
Y120136D01*
X809614Y121828D01*
X804536D01*
X819771Y111672D02*
Y121828D01*
X814693Y116750D01*
X821464D01*
X923286Y119078D02*
Y108922D01*
X928364D01*
X930057Y110614D01*
Y117386D01*
X928364Y119078D01*
X923286D01*
X933443Y117386D02*
X935136Y119078D01*
X938521D01*
X940214Y117386D01*
Y115693D01*
X938521Y114000D01*
X936828D01*
X938521D01*
X940214Y112307D01*
Y110614D01*
X938521Y108922D01*
X935136D01*
X933443Y110614D01*
X1540229Y213078D02*
Y202922D01*
X1545307D01*
X1547000Y204614D01*
Y211386D01*
X1545307Y213078D01*
X1540229D01*
X1550386Y202922D02*
X1553771D01*
X1552078D01*
Y213078D01*
X1550386Y211386D01*
X700076Y241614D02*
X697682D01*
X695288Y239220D01*
Y236826D01*
X700076Y232038D01*
X702470D01*
X704864Y234432D01*
Y236826D01*
X708455Y238023D02*
X710848Y240417D01*
X709651Y239220D01*
X702470Y246402D01*
Y244008D01*
X708455Y249993D02*
Y252386D01*
X710848Y254780D01*
X713242D01*
X714439Y253583D01*
Y251189D01*
X713242Y249993D01*
X714439Y251189D01*
X716833D01*
X718030Y249993D01*
Y247598D01*
X715636Y245205D01*
X713242D01*
X726409Y255977D02*
X721621Y251189D01*
Y260765D01*
X720424Y261962D01*
X718030D01*
X715636Y259568D01*
Y257174D01*
X811939Y308273D02*
Y305879D01*
X814333Y303485D01*
X816727D01*
X821515Y308273D01*
Y310667D01*
X819121Y313060D01*
X816727D01*
X815530Y316651D02*
X813136Y319046D01*
X814333Y317848D01*
X807151Y310667D01*
X809545D01*
X803560Y316651D02*
X801167D01*
X798773Y319046D01*
Y321439D01*
X799970Y322636D01*
X802364D01*
X803560Y321439D01*
X802364Y322636D01*
Y325030D01*
X803560Y326227D01*
X805955D01*
X808348Y323833D01*
Y321439D01*
X802364Y329818D02*
X799969Y332212D01*
X801167Y331015D01*
X793985Y323833D01*
X796379D01*
X811886Y255576D02*
Y253182D01*
X814280Y250788D01*
X816674D01*
X821462Y255576D01*
Y257970D01*
X819068Y260364D01*
X816674D01*
X815477Y263955D02*
X813083Y266348D01*
X814280Y265152D01*
X807098Y257970D01*
X809492D01*
X803508Y263955D02*
X801114D01*
X798720Y266348D01*
Y268742D01*
X799917Y269939D01*
X802310D01*
X803508Y268743D01*
X802310Y269939D01*
Y272333D01*
X803508Y273530D01*
X805901D01*
X808295Y271136D01*
Y268743D01*
X796326Y271136D02*
X793932D01*
X791538Y273530D01*
Y275924D01*
X796326Y280712D01*
X798720D01*
X801114Y278318D01*
Y275924D01*
X796326Y271136D01*
X757886Y253576D02*
Y251182D01*
X760280Y248788D01*
X762674D01*
X767462Y253576D01*
Y255970D01*
X765068Y258363D01*
X762674D01*
X761477Y261954D02*
X759083Y264349D01*
X760280Y263151D01*
X753099Y255970D01*
X755492D01*
X750704Y272727D02*
X755492Y267939D01*
X745917D01*
X744720Y266742D01*
Y264349D01*
X747114Y261954D01*
X749508D01*
X747114Y273924D02*
Y276318D01*
X744720Y278712D01*
X742326D01*
X737538Y273924D01*
Y271530D01*
X739932Y269136D01*
X742326D01*
X743523Y270333D01*
Y272727D01*
X739932Y276318D01*
X686076Y255614D02*
X683682D01*
X681288Y253220D01*
Y250826D01*
X686076Y246038D01*
X688470D01*
X690863Y248432D01*
Y250826D01*
X694454Y252023D02*
X696849Y254417D01*
X695651Y253220D01*
X688470Y260401D01*
Y258008D01*
X705227Y262796D02*
X700439Y258008D01*
Y267583D01*
X699242Y268780D01*
X696849D01*
X694454Y266386D01*
Y263993D01*
X701636Y271174D02*
Y273568D01*
X704030Y275962D01*
X706424D01*
X707621Y274765D01*
Y272371D01*
X710015D01*
X711212Y271174D01*
Y268780D01*
X708818Y266386D01*
X706424D01*
X705227Y267583D01*
Y269977D01*
X702833D01*
X701636Y271174D01*
X705227Y269977D02*
X707621Y272371D01*
X620636Y401826D02*
Y399432D01*
X623030Y397038D01*
X625424D01*
X630212Y401826D01*
Y404220D01*
X627818Y406614D01*
X625424D01*
X624227Y410205D02*
X621833Y412598D01*
X623030Y411401D01*
X615849Y404220D01*
X618242D01*
X613455Y420977D02*
X618242Y416189D01*
X608667D01*
X607470Y414992D01*
Y412598D01*
X609864Y410205D01*
X612257D01*
X603879Y416189D02*
X599091Y420977D01*
X600288Y422174D01*
X609864D01*
X611060Y423371D01*
X676136Y454076D02*
Y451682D01*
X678530Y449288D01*
X680924D01*
X685712Y454076D01*
Y456470D01*
X683318Y458864D01*
X680924D01*
X679727Y462454D02*
X677333Y464849D01*
X678530Y463652D01*
X671348Y456470D01*
X673742D01*
X668954Y473227D02*
X673742Y468439D01*
X664167D01*
X662970Y467242D01*
Y464849D01*
X665363Y462454D01*
X667757D01*
X654591Y473227D02*
X658182Y472030D01*
X662970Y472030D01*
X665363Y474424D01*
Y476818D01*
X662970Y479212D01*
X660576D01*
X659379Y478015D01*
Y475621D01*
X662970Y472030D01*
X808826Y411364D02*
X806432D01*
X804038Y408970D01*
Y406576D01*
X808826Y401788D01*
X811220D01*
X813614Y404182D01*
Y406576D01*
X817205Y407773D02*
X819598Y410167D01*
X818401Y408970D01*
X811220Y416152D01*
Y413758D01*
X827977Y418545D02*
X823189Y413758D01*
Y423333D01*
X821992Y424530D01*
X819598D01*
X817205Y422136D01*
Y419743D01*
X824386Y426924D02*
Y429318D01*
X826780Y431712D01*
X829174D01*
X833962Y426924D01*
Y424530D01*
X831568Y422136D01*
X829174D01*
X824386Y426924D01*
X796924Y423462D02*
X794530D01*
X792136Y421068D01*
Y418674D01*
X796924Y413886D01*
X799318D01*
X801712Y416280D01*
Y418674D01*
X805303Y419871D02*
X807697Y422265D01*
X806500Y421068D01*
X799318Y428250D01*
Y425856D01*
X811288D02*
X813682Y428250D01*
X812485Y427053D01*
X805303Y434235D01*
Y431841D01*
X816076Y433038D02*
X818470D01*
X820864Y435432D01*
Y437826D01*
X816076Y442614D01*
X813682D01*
X811288Y440220D01*
Y437826D01*
X812485Y436629D01*
X814879D01*
X818470Y440220D01*
X783924Y436712D02*
X781530D01*
X779136Y434318D01*
Y431924D01*
X783924Y427136D01*
X786318D01*
X788712Y429530D01*
Y431924D01*
X792303Y433121D02*
X794697Y435515D01*
X793500Y434318D01*
X786318Y441500D01*
Y439106D01*
X798288D02*
X800682Y441500D01*
X799485Y440303D01*
X792303Y447485D01*
Y445091D01*
X798288Y451076D02*
Y453470D01*
X800682Y455864D01*
X803076D01*
X804273Y454667D01*
Y452273D01*
X806667D01*
X807864Y451076D01*
Y448682D01*
X805470Y446288D01*
X803076D01*
X801879Y447485D01*
Y449879D01*
X799485D01*
X798288Y451076D01*
X801879Y449879D02*
X804273Y452273D01*
X772674Y449712D02*
X770280D01*
X767886Y447318D01*
Y444924D01*
X772674Y440136D01*
X775068D01*
X777462Y442530D01*
Y444924D01*
X781053Y446121D02*
X783447Y448515D01*
X782250Y447318D01*
X775068Y454500D01*
Y452106D01*
X787038D02*
X789432Y454500D01*
X788235Y453303D01*
X781053Y460485D01*
Y458091D01*
X785841Y465273D02*
X790629Y470061D01*
X791826Y468864D01*
X791826Y459288D01*
X793023Y458091D01*
X659288Y444174D02*
Y441780D01*
X661682Y439386D01*
X664076D01*
X668864Y444174D01*
Y446568D01*
X666470Y448962D01*
X664076D01*
X662879Y452553D02*
X660485Y454947D01*
X661682Y453750D01*
X654500Y446568D01*
X656894D01*
Y458538D02*
X654500Y460932D01*
X655697Y459735D01*
X648515Y452553D01*
X650909D01*
X638939Y462129D02*
X642530Y460932D01*
X647318Y460932D01*
X649712Y463326D01*
Y465720D01*
X647318Y468114D01*
X644924D01*
X643727Y466917D01*
Y464523D01*
X647318Y460932D01*
X334093Y219886D02*
X332401Y221578D01*
X329015D01*
X327322Y219886D01*
Y213114D01*
X329015Y211422D01*
X332401D01*
X334093Y213114D01*
X337479Y211422D02*
X340864D01*
X339172D01*
Y221578D01*
X337479Y219886D01*
X345943Y211422D02*
X349328D01*
X347636D01*
Y221578D01*
X345943Y219886D01*
X361178Y221578D02*
X354407D01*
Y216500D01*
X357792Y218193D01*
X359485D01*
X361178Y216500D01*
Y213114D01*
X359485Y211422D01*
X356100D01*
X354407Y213114D01*
X898424Y289962D02*
X896030D01*
X893636Y287568D01*
Y285174D01*
X898424Y280386D01*
X900818D01*
X903212Y282780D01*
Y285174D01*
X906803Y286371D02*
X909197Y288765D01*
X908000Y287568D01*
X900818Y294750D01*
Y292356D01*
X912788D02*
X915182Y294750D01*
X913985Y293553D01*
X906803Y300735D01*
Y298341D01*
X912788Y304326D02*
Y306720D01*
X915182Y309114D01*
X917576D01*
X918773Y307917D01*
Y305523D01*
X917576Y304326D01*
X918773Y305523D01*
X921167D01*
X922364Y304326D01*
Y301932D01*
X919970Y299538D01*
X917576D01*
X559712Y275326D02*
Y277720D01*
X557318Y280114D01*
X554924D01*
X550136Y275326D01*
Y272932D01*
X552530Y270538D01*
X554924D01*
X556121Y266947D02*
X558515Y264553D01*
X557318Y265750D01*
X564500Y272932D01*
X562106D01*
Y260962D02*
X564500Y258568D01*
X563303Y259765D01*
X570485Y266947D01*
X568091D01*
X572879Y250189D02*
X568091Y254977D01*
X577667D01*
X578864Y256174D01*
Y258568D01*
X576470Y260962D01*
X574076D01*
X547159Y259879D02*
Y262273D01*
X544765Y264667D01*
X542371D01*
X537583Y259879D01*
Y257485D01*
X539977Y255091D01*
X542371D01*
X543568Y251500D02*
X545962Y249106D01*
X544765Y250303D01*
X551947Y257485D01*
X549553D01*
Y245515D02*
X551947Y243121D01*
X550750Y244318D01*
X557932Y251500D01*
X555538D01*
Y239530D02*
X557932Y237136D01*
X556735Y238333D01*
X563917Y245515D01*
X561523D01*
X532212Y247076D02*
Y249470D01*
X529818Y251864D01*
X527424D01*
X522636Y247076D01*
Y244682D01*
X525030Y242288D01*
X527424D01*
X528621Y238697D02*
X531015Y236303D01*
X529818Y237500D01*
X537000Y244682D01*
X534606D01*
Y232712D02*
X537000Y230318D01*
X535803Y231515D01*
X542985Y238697D01*
X540591D01*
X546576Y232712D02*
X548970D01*
X551364Y230318D01*
Y227924D01*
X546576Y223136D01*
X544182D01*
X541788Y225530D01*
Y227924D01*
X546576Y232712D01*
X517614Y236174D02*
Y238568D01*
X515220Y240962D01*
X512826D01*
X508038Y236174D01*
Y233780D01*
X510432Y231386D01*
X512826D01*
X514023Y227796D02*
X516417Y225401D01*
X515220Y226598D01*
X522402Y233780D01*
X520008D01*
X525992Y227796D02*
X528386D01*
X530780Y225401D01*
Y223008D01*
X525992Y218220D01*
X523599D01*
X521204Y220614D01*
Y223008D01*
X525992Y227796D01*
X528386Y215826D02*
Y213432D01*
X530780Y211038D01*
X533174D01*
X537962Y215826D01*
Y218220D01*
X535568Y220614D01*
X533174D01*
X531977Y219417D01*
Y217023D01*
X535568Y213432D01*
X348076Y284614D02*
X345682D01*
X343288Y282220D01*
Y279826D01*
X348076Y275038D01*
X350470D01*
X352864Y277432D01*
Y279826D01*
X356455Y281023D02*
X358848Y283417D01*
X357651Y282220D01*
X350470Y289401D01*
Y287008D01*
X356455Y292992D02*
Y295386D01*
X358848Y297780D01*
X361242D01*
X366030Y292992D01*
Y290599D01*
X363636Y288204D01*
X361242D01*
X356455Y292992D01*
X363636Y300174D02*
Y302568D01*
X366030Y304962D01*
X368424D01*
X369621Y303765D01*
Y301371D01*
X372015D01*
X373212Y300174D01*
Y297780D01*
X370818Y295386D01*
X368424D01*
X367227Y296583D01*
Y298977D01*
X364833D01*
X363636Y300174D01*
X367227Y298977D02*
X369621Y301371D01*
X348707Y348331D02*
Y350725D01*
X346313Y353119D01*
X343919D01*
X339131Y348331D01*
Y345937D01*
X341525Y343543D01*
X343919D01*
X345116Y339952D02*
X347510Y337558D01*
X346313Y338755D01*
X353495Y345937D01*
X351101D01*
X357086Y339952D02*
X359480D01*
X361874Y337558D01*
Y335164D01*
X357086Y330376D01*
X354692D01*
X352298Y332770D01*
Y335164D01*
X357086Y339952D01*
X365465Y333967D02*
X370252Y329179D01*
X369055Y327982D01*
X359480D01*
X358283Y326786D01*
X391364Y453424D02*
Y455818D01*
X388970Y458212D01*
X386576D01*
X381788Y453424D01*
Y451030D01*
X384182Y448636D01*
X386576D01*
X387773Y445046D02*
X390167Y442651D01*
X388970Y443848D01*
X396152Y451030D01*
X393758D01*
X399742Y445046D02*
X402136D01*
X404530Y442651D01*
Y440257D01*
X399742Y435470D01*
X397349D01*
X394954Y437864D01*
Y440257D01*
X399742Y445046D01*
X412909Y434273D02*
X409318Y435470D01*
X404530Y435470D01*
X402136Y433076D01*
Y430682D01*
X404530Y428288D01*
X406924D01*
X408121Y429485D01*
Y431879D01*
X404530Y435470D01*
X539826Y393864D02*
X537432D01*
X535038Y391470D01*
Y389076D01*
X539826Y384288D01*
X542220D01*
X544613Y386682D01*
Y389076D01*
X548204Y390273D02*
X550598Y392667D01*
X549402Y391470D01*
X542220Y398652D01*
Y396258D01*
X548204Y402243D02*
Y404636D01*
X550598Y407030D01*
X552992D01*
X557780Y402243D01*
Y399849D01*
X555386Y397455D01*
X552992D01*
X548204Y402243D01*
X555386Y409424D02*
Y411818D01*
X557780Y414212D01*
X560174D01*
X564962Y409424D01*
Y407030D01*
X562568Y404636D01*
X560174D01*
X555386Y409424D01*
X527568Y408856D02*
X525174D01*
X522780Y406462D01*
Y404068D01*
X527568Y399280D01*
X529962D01*
X532356Y401674D01*
Y404068D01*
X534750Y406462D02*
X537144D01*
X539538Y408856D01*
Y411250D01*
X534750Y416038D01*
X532356D01*
X529962Y413644D01*
Y411250D01*
X531159Y410053D01*
X533553D01*
X537144Y413644D01*
X541932Y413644D02*
X544326D01*
X546720Y416038D01*
Y418432D01*
X541932Y423220D01*
X539538D01*
X537144Y420826D01*
Y418432D01*
X538341Y417235D01*
X540735D01*
X544326Y420826D01*
X515568Y421356D02*
X513174D01*
X510780Y418962D01*
Y416568D01*
X515568Y411780D01*
X517962D01*
X520356Y414174D01*
Y416568D01*
X522750Y418962D02*
X525144D01*
X527538Y421356D01*
Y423750D01*
X522750Y428538D01*
X520356D01*
X517962Y426144D01*
Y423750D01*
X519159Y422553D01*
X521553D01*
X525144Y426144D01*
Y430932D02*
Y433326D01*
X527538Y435720D01*
X529932D01*
X531129Y434523D01*
Y432129D01*
X533523D01*
X534720Y430932D01*
Y428538D01*
X532326Y426144D01*
X529932D01*
X528735Y427341D01*
Y429735D01*
X526341D01*
X525144Y430932D01*
X528735Y429735D02*
X531129Y432129D01*
X503318Y434606D02*
X500924D01*
X498530Y432212D01*
Y429818D01*
X503318Y425030D01*
X505712D01*
X508106Y427424D01*
Y429818D01*
X510500Y432212D02*
X512894D01*
X515288Y434606D01*
Y437000D01*
X510500Y441788D01*
X508106D01*
X505712Y439394D01*
Y437000D01*
X506909Y435803D01*
X509303D01*
X512894Y439394D01*
X511697Y445379D02*
X516485Y450167D01*
X517682Y448970D01*
X517682Y439394D01*
X518879Y438197D01*
X384699Y432839D02*
Y435233D01*
X382305Y437627D01*
X379911D01*
X375123Y432839D01*
Y430445D01*
X377517Y428051D01*
X379911D01*
X382305Y425657D02*
Y423263D01*
X384699Y420869D01*
X387093D01*
X391881Y425657D01*
Y428051D01*
X389487Y430445D01*
X387093D01*
X385896Y429248D01*
Y426854D01*
X389487Y423263D01*
X400260Y419672D02*
X396669Y420869D01*
X391881Y420869D01*
X389487Y418475D01*
Y416081D01*
X391881Y413687D01*
X394275D01*
X395472Y414884D01*
Y417278D01*
X391881Y420869D01*
X645356Y261432D02*
Y263826D01*
X642962Y266220D01*
X640568D01*
X635780Y261432D01*
Y259038D01*
X638174Y256644D01*
X640568D01*
X642962Y254250D02*
Y251856D01*
X645356Y249462D01*
X647750D01*
X652538Y254250D01*
Y256644D01*
X650144Y259038D01*
X647750D01*
X646553Y257841D01*
Y255447D01*
X650144Y251856D01*
X652538Y242280D02*
X659720Y249462D01*
X652538Y249462D01*
X657326Y244674D01*
X136729Y715636D02*
X135036Y717328D01*
X131650D01*
X129958Y715636D01*
Y708864D01*
X131650Y707172D01*
X135036D01*
X136729Y708864D01*
X140114D02*
X141807Y707172D01*
X145193D01*
X146886Y708864D01*
Y715636D01*
X145193Y717328D01*
X141807D01*
X140114Y715636D01*
Y713943D01*
X141807Y712250D01*
X146886D01*
X157042Y707172D02*
X150271D01*
X157042Y713943D01*
Y715636D01*
X155350Y717328D01*
X151964D01*
X150271Y715636D01*
X59422Y613886D02*
X57729Y615578D01*
X54343D01*
X52650Y613886D01*
Y607114D01*
X54343Y605422D01*
X57729D01*
X59422Y607114D01*
X62807D02*
X64500Y605422D01*
X67886D01*
X69578Y607114D01*
Y613886D01*
X67886Y615578D01*
X64500D01*
X62807Y613886D01*
Y612193D01*
X64500Y610500D01*
X69578D01*
X72964Y605422D02*
X76350D01*
X74657D01*
Y615578D01*
X72964Y613886D01*
X58979Y728636D02*
X57286Y730328D01*
X53900D01*
X52208Y728636D01*
Y721864D01*
X53900Y720172D01*
X57286D01*
X58979Y721864D01*
X62364D02*
X64057Y720172D01*
X67443D01*
X69135Y721864D01*
Y728636D01*
X67443Y730328D01*
X64057D01*
X62364Y728636D01*
Y726943D01*
X64057Y725250D01*
X69135D01*
X72521Y728636D02*
X74214Y730328D01*
X77600D01*
X79292Y728636D01*
Y721864D01*
X77600Y720172D01*
X74214D01*
X72521Y721864D01*
Y728636D01*
X1124864Y181729D02*
X1123172Y180036D01*
Y176651D01*
X1124864Y174958D01*
X1131636D01*
X1133328Y176651D01*
Y180036D01*
X1131636Y181729D01*
X1124864Y185114D02*
X1123172Y186807D01*
Y190193D01*
X1124864Y191886D01*
X1126557D01*
X1128250Y190193D01*
X1129943Y191886D01*
X1131636D01*
X1133328Y190193D01*
Y186807D01*
X1131636Y185114D01*
X1129943D01*
X1128250Y186807D01*
X1126557Y185114D01*
X1124864D01*
X1128250Y186807D02*
Y190193D01*
X1131636Y195271D02*
X1133328Y196964D01*
Y200350D01*
X1131636Y202042D01*
X1124864D01*
X1123172Y200350D01*
Y196964D01*
X1124864Y195271D01*
X1126557D01*
X1128250Y196964D01*
Y202042D01*
X1108364Y181729D02*
X1106672Y180036D01*
Y176651D01*
X1108364Y174958D01*
X1115135D01*
X1116828Y176651D01*
Y180036D01*
X1115135Y181729D01*
X1108364Y185114D02*
X1106672Y186807D01*
Y190193D01*
X1108364Y191886D01*
X1110057D01*
X1111750Y190193D01*
X1113443Y191886D01*
X1115135D01*
X1116828Y190193D01*
Y186807D01*
X1115135Y185114D01*
X1113443D01*
X1111750Y186807D01*
X1110057Y185114D01*
X1108364D01*
X1111750Y186807D02*
Y190193D01*
X1108364Y195271D02*
X1106672Y196964D01*
Y200350D01*
X1108364Y202042D01*
X1110057D01*
X1111750Y200350D01*
X1113443Y202042D01*
X1115135D01*
X1116828Y200350D01*
Y196964D01*
X1115135Y195271D01*
X1113443D01*
X1111750Y196964D01*
X1110057Y195271D01*
X1108364D01*
X1111750Y196964D02*
Y200350D01*
X1142614Y182229D02*
X1140922Y180536D01*
Y177150D01*
X1142614Y175458D01*
X1149386D01*
X1151078Y177150D01*
Y180536D01*
X1149386Y182229D01*
X1142614Y185614D02*
X1140922Y187307D01*
Y190693D01*
X1142614Y192386D01*
X1144307D01*
X1146000Y190693D01*
X1147693Y192386D01*
X1149386D01*
X1151078Y190693D01*
Y187307D01*
X1149386Y185614D01*
X1147693D01*
X1146000Y187307D01*
X1144307Y185614D01*
X1142614D01*
X1146000Y187307D02*
Y190693D01*
X1140922Y195771D02*
Y202542D01*
X1142614D01*
X1149386Y195771D01*
X1151078D01*
X1187479Y171636D02*
X1185786Y173328D01*
X1182401D01*
X1180708Y171636D01*
Y164864D01*
X1182401Y163172D01*
X1185786D01*
X1187479Y164864D01*
X1190864Y171636D02*
X1192557Y173328D01*
X1195943D01*
X1197636Y171636D01*
Y169943D01*
X1195943Y168250D01*
X1197636Y166557D01*
Y164864D01*
X1195943Y163172D01*
X1192557D01*
X1190864Y164864D01*
Y166557D01*
X1192557Y168250D01*
X1190864Y169943D01*
Y171636D01*
X1192557Y168250D02*
X1195943D01*
X1207792Y173328D02*
X1204407Y171636D01*
X1201021Y168250D01*
Y164864D01*
X1202714Y163172D01*
X1206099D01*
X1207792Y164864D01*
Y166557D01*
X1206099Y168250D01*
X1201021D01*
X1146364Y218229D02*
X1144672Y216536D01*
Y213151D01*
X1146364Y211458D01*
X1153136D01*
X1154828Y213151D01*
Y216536D01*
X1153136Y218229D01*
X1146364Y221614D02*
X1144672Y223307D01*
Y226693D01*
X1146364Y228386D01*
X1148057D01*
X1149750Y226693D01*
X1151443Y228386D01*
X1153136D01*
X1154828Y226693D01*
Y223307D01*
X1153136Y221614D01*
X1151443D01*
X1149750Y223307D01*
X1148057Y221614D01*
X1146364D01*
X1149750Y223307D02*
Y226693D01*
X1144672Y238542D02*
Y231771D01*
X1149750D01*
X1148057Y235157D01*
Y236849D01*
X1149750Y238542D01*
X1153136D01*
X1154828Y236849D01*
Y233464D01*
X1153136Y231771D01*
X1507909Y764655D02*
X1506216Y766348D01*
X1502831D01*
X1501138Y764655D01*
Y757884D01*
X1502831Y756191D01*
X1506216D01*
X1507909Y757884D01*
X1511295Y764655D02*
X1512987Y766348D01*
X1516373D01*
X1518066Y764655D01*
Y762963D01*
X1516373Y761270D01*
X1518066Y759577D01*
Y757884D01*
X1516373Y756191D01*
X1512987D01*
X1511295Y757884D01*
Y759577D01*
X1512987Y761270D01*
X1511295Y762963D01*
Y764655D01*
X1512987Y761270D02*
X1516373D01*
X1526530Y756191D02*
Y766348D01*
X1521451Y761270D01*
X1528222D01*
X1511229Y731636D02*
X1509536Y733328D01*
X1506151D01*
X1504458Y731636D01*
Y724864D01*
X1506151Y723172D01*
X1509536D01*
X1511229Y724864D01*
X1514614Y731636D02*
X1516307Y733328D01*
X1519693D01*
X1521386Y731636D01*
Y729943D01*
X1519693Y728250D01*
X1521386Y726557D01*
Y724864D01*
X1519693Y723172D01*
X1516307D01*
X1514614Y724864D01*
Y726557D01*
X1516307Y728250D01*
X1514614Y729943D01*
Y731636D01*
X1516307Y728250D02*
X1519693D01*
X1524771Y731636D02*
X1526464Y733328D01*
X1529850D01*
X1531542Y731636D01*
Y729943D01*
X1529850Y728250D01*
X1528157D01*
X1529850D01*
X1531542Y726557D01*
Y724864D01*
X1529850Y723172D01*
X1526464D01*
X1524771Y724864D01*
X1508159Y747116D02*
X1506466Y748808D01*
X1503080D01*
X1501388Y747116D01*
Y740344D01*
X1503080Y738652D01*
X1506466D01*
X1508159Y740344D01*
X1511544Y747116D02*
X1513237Y748808D01*
X1516623D01*
X1518315Y747116D01*
Y745423D01*
X1516623Y743730D01*
X1518315Y742037D01*
Y740344D01*
X1516623Y738652D01*
X1513237D01*
X1511544Y740344D01*
Y742037D01*
X1513237Y743730D01*
X1511544Y745423D01*
Y747116D01*
X1513237Y743730D02*
X1516623D01*
X1528472Y738652D02*
X1521701D01*
X1528472Y745423D01*
Y747116D01*
X1526779Y748808D01*
X1523394D01*
X1521701Y747116D01*
X1511172Y709636D02*
X1509479Y711328D01*
X1506093D01*
X1504400Y709636D01*
Y702864D01*
X1506093Y701172D01*
X1509479D01*
X1511172Y702864D01*
X1514557Y709636D02*
X1516250Y711328D01*
X1519636D01*
X1521328Y709636D01*
Y707943D01*
X1519636Y706250D01*
X1521328Y704557D01*
Y702864D01*
X1519636Y701172D01*
X1516250D01*
X1514557Y702864D01*
Y704557D01*
X1516250Y706250D01*
X1514557Y707943D01*
Y709636D01*
X1516250Y706250D02*
X1519636D01*
X1524714Y701172D02*
X1528100D01*
X1526407D01*
Y711328D01*
X1524714Y709636D01*
X1511979Y686886D02*
X1510286Y688578D01*
X1506900D01*
X1505208Y686886D01*
Y680114D01*
X1506900Y678422D01*
X1510286D01*
X1511979Y680114D01*
X1515365Y686886D02*
X1517057Y688578D01*
X1520443D01*
X1522136Y686886D01*
Y685193D01*
X1520443Y683500D01*
X1522136Y681807D01*
Y680114D01*
X1520443Y678422D01*
X1517057D01*
X1515365Y680114D01*
Y681807D01*
X1517057Y683500D01*
X1515365Y685193D01*
Y686886D01*
X1517057Y683500D02*
X1520443D01*
X1525521Y686886D02*
X1527214Y688578D01*
X1530600D01*
X1532292Y686886D01*
Y680114D01*
X1530600Y678422D01*
X1527214D01*
X1525521Y680114D01*
Y686886D01*
X1510479Y659636D02*
X1508786Y661328D01*
X1505401D01*
X1503708Y659636D01*
Y652864D01*
X1505401Y651172D01*
X1508786D01*
X1510479Y652864D01*
X1513864Y661328D02*
X1520636D01*
Y659636D01*
X1513864Y652864D01*
Y651172D01*
X1524021Y652864D02*
X1525714Y651172D01*
X1529099D01*
X1530792Y652864D01*
Y659636D01*
X1529099Y661328D01*
X1525714D01*
X1524021Y659636D01*
Y657943D01*
X1525714Y656250D01*
X1530792D01*
X1148979Y882886D02*
X1147286Y884578D01*
X1143901D01*
X1142208Y882886D01*
Y876114D01*
X1143901Y874422D01*
X1147286D01*
X1148979Y876114D01*
X1152364Y884578D02*
X1159136D01*
Y882886D01*
X1152364Y876114D01*
Y874422D01*
X1162521Y882886D02*
X1164214Y884578D01*
X1167599D01*
X1169292Y882886D01*
Y881193D01*
X1167599Y879500D01*
X1165907D01*
X1167599D01*
X1169292Y877807D01*
Y876114D01*
X1167599Y874422D01*
X1164214D01*
X1162521Y876114D01*
X1125479Y841386D02*
X1123786Y843078D01*
X1120400D01*
X1118708Y841386D01*
Y834614D01*
X1120400Y832922D01*
X1123786D01*
X1125479Y834614D01*
X1128864Y843078D02*
X1135636D01*
Y841386D01*
X1128864Y834614D01*
Y832922D01*
X1145792D02*
X1139021D01*
X1145792Y839693D01*
Y841386D01*
X1144100Y843078D01*
X1140714D01*
X1139021Y841386D01*
X883978Y916636D02*
X882285Y918329D01*
X878900D01*
X877207Y916636D01*
Y909865D01*
X878900Y908172D01*
X882285D01*
X883978Y909865D01*
X887363Y918329D02*
X894135D01*
Y916636D01*
X887363Y909865D01*
Y908172D01*
X897520Y916636D02*
X899213Y918329D01*
X902598D01*
X904291Y916636D01*
Y909865D01*
X902598Y908172D01*
X899213D01*
X897520Y909865D01*
Y916636D01*
X894728Y840886D02*
X893035Y842579D01*
X889650D01*
X887957Y840886D01*
Y834115D01*
X889650Y832422D01*
X893035D01*
X894728Y834115D01*
X904884Y842579D02*
X901499Y840886D01*
X898113Y837500D01*
Y834115D01*
X899806Y832422D01*
X903192D01*
X904884Y834115D01*
Y835808D01*
X903192Y837500D01*
X898113D01*
X908270Y834115D02*
X909963Y832422D01*
X913348D01*
X915041Y834115D01*
Y840886D01*
X913348Y842579D01*
X909963D01*
X908270Y840886D01*
Y839193D01*
X909963Y837500D01*
X915041D01*
X1005614Y931729D02*
X1003922Y930036D01*
Y926650D01*
X1005614Y924958D01*
X1012386D01*
X1014078Y926650D01*
Y930036D01*
X1012386Y931729D01*
X1003922Y941886D02*
X1005614Y938500D01*
X1009000Y935114D01*
X1012386D01*
X1014078Y936807D01*
Y940193D01*
X1012386Y941886D01*
X1010693D01*
X1009000Y940193D01*
Y935114D01*
X1005614Y945271D02*
X1003922Y946964D01*
Y950350D01*
X1005614Y952042D01*
X1007307D01*
X1009000Y950350D01*
X1010693Y952042D01*
X1012386D01*
X1014078Y950350D01*
Y946964D01*
X1012386Y945271D01*
X1010693D01*
X1009000Y946964D01*
X1007307Y945271D01*
X1005614D01*
X1009000Y946964D02*
Y950350D01*
X1026114Y932229D02*
X1024422Y930536D01*
Y927150D01*
X1026114Y925458D01*
X1032886D01*
X1034578Y927150D01*
Y930536D01*
X1032886Y932229D01*
X1024422Y942385D02*
X1026114Y939000D01*
X1029500Y935614D01*
X1032886D01*
X1034578Y937307D01*
Y940693D01*
X1032886Y942385D01*
X1031193D01*
X1029500Y940693D01*
Y935614D01*
X1024422Y952542D02*
Y945771D01*
X1029500D01*
X1027807Y949157D01*
Y950850D01*
X1029500Y952542D01*
X1032886D01*
X1034578Y950850D01*
Y947464D01*
X1032886Y945771D01*
X1127229Y861636D02*
X1125536Y863328D01*
X1122150D01*
X1120458Y861636D01*
Y854864D01*
X1122150Y853172D01*
X1125536D01*
X1127229Y854864D01*
X1137385Y863328D02*
X1134000Y861636D01*
X1130614Y858250D01*
Y854864D01*
X1132307Y853172D01*
X1135693D01*
X1137385Y854864D01*
Y856557D01*
X1135693Y858250D01*
X1130614D01*
X1145850Y853172D02*
Y863328D01*
X1140771Y858250D01*
X1147542D01*
X1126729Y806636D02*
X1125036Y808328D01*
X1121650D01*
X1119958Y806636D01*
Y799864D01*
X1121650Y798172D01*
X1125036D01*
X1126729Y799864D01*
X1136886Y808328D02*
X1133500Y806636D01*
X1130114Y803250D01*
Y799864D01*
X1131807Y798172D01*
X1135193D01*
X1136886Y799864D01*
Y801557D01*
X1135193Y803250D01*
X1130114D01*
X1140271Y806636D02*
X1141964Y808328D01*
X1145350D01*
X1147042Y806636D01*
Y804943D01*
X1145350Y803250D01*
X1143657D01*
X1145350D01*
X1147042Y801557D01*
Y799864D01*
X1145350Y798172D01*
X1141964D01*
X1140271Y799864D01*
X1038864Y1186672D02*
X1037172Y1184979D01*
Y1181593D01*
X1038864Y1179901D01*
X1045636D01*
X1047328Y1181593D01*
Y1184979D01*
X1045636Y1186672D01*
X1037172Y1196828D02*
X1038864Y1193443D01*
X1042250Y1190057D01*
X1045636D01*
X1047328Y1191750D01*
Y1195136D01*
X1045636Y1196828D01*
X1043943D01*
X1042250Y1195136D01*
Y1190057D01*
X1047328Y1200214D02*
Y1203599D01*
Y1201907D01*
X1037172D01*
X1038864Y1200214D01*
X930729Y1218636D02*
X929036Y1220328D01*
X925650D01*
X923958Y1218636D01*
Y1211864D01*
X925650Y1210172D01*
X929036D01*
X930729Y1211864D01*
X940885Y1220328D02*
X937500Y1218636D01*
X934114Y1215250D01*
Y1211864D01*
X935807Y1210172D01*
X939193D01*
X940885Y1211864D01*
Y1213557D01*
X939193Y1215250D01*
X934114D01*
X944271Y1218636D02*
X945964Y1220328D01*
X949350D01*
X951042Y1218636D01*
Y1211864D01*
X949350Y1210172D01*
X945964D01*
X944271Y1211864D01*
Y1218636D01*
X1080979Y1229386D02*
X1079286Y1231078D01*
X1075900D01*
X1074208Y1229386D01*
Y1222614D01*
X1075900Y1220922D01*
X1079286D01*
X1080979Y1222614D01*
X1091136Y1231078D02*
X1084364D01*
Y1226000D01*
X1087750Y1227693D01*
X1089443D01*
X1091136Y1226000D01*
Y1222614D01*
X1089443Y1220922D01*
X1086057D01*
X1084364Y1222614D01*
X1094521D02*
X1096214Y1220922D01*
X1099600D01*
X1101292Y1222614D01*
Y1229386D01*
X1099600Y1231078D01*
X1096214D01*
X1094521Y1229386D01*
Y1227693D01*
X1096214Y1226000D01*
X1101292D01*
X1237886Y1202771D02*
X1239578Y1204464D01*
Y1207850D01*
X1237886Y1209542D01*
X1231114D01*
X1229422Y1207850D01*
Y1204464D01*
X1231114Y1202771D01*
X1239578Y1192614D02*
Y1199386D01*
X1234500D01*
X1236193Y1196000D01*
Y1194307D01*
X1234500Y1192614D01*
X1231114D01*
X1229422Y1194307D01*
Y1197693D01*
X1231114Y1199386D01*
X1237886Y1189229D02*
X1239578Y1187536D01*
Y1184150D01*
X1237886Y1182458D01*
X1236193D01*
X1234500Y1184150D01*
X1232807Y1182458D01*
X1231114D01*
X1229422Y1184150D01*
Y1187536D01*
X1231114Y1189229D01*
X1232807D01*
X1234500Y1187536D01*
X1236193Y1189229D01*
X1237886D01*
X1234500Y1187536D02*
Y1184150D01*
X1160979Y1243636D02*
X1159286Y1245328D01*
X1155900D01*
X1154208Y1243636D01*
Y1236864D01*
X1155900Y1235172D01*
X1159286D01*
X1160979Y1236864D01*
X1171136Y1245328D02*
X1164364D01*
Y1240250D01*
X1167750Y1241943D01*
X1169443D01*
X1171136Y1240250D01*
Y1236864D01*
X1169443Y1235172D01*
X1166057D01*
X1164364Y1236864D01*
X1174521Y1245328D02*
X1181292D01*
Y1243636D01*
X1174521Y1236864D01*
Y1235172D01*
X891886Y1195271D02*
X893578Y1196964D01*
Y1200350D01*
X891886Y1202042D01*
X885114D01*
X883422Y1200350D01*
Y1196964D01*
X885114Y1195271D01*
X893578Y1185114D02*
Y1191886D01*
X888500D01*
X890193Y1188500D01*
Y1186807D01*
X888500Y1185114D01*
X885114D01*
X883422Y1186807D01*
Y1190193D01*
X885114Y1191886D01*
X893578Y1174958D02*
Y1181729D01*
X888500D01*
X890193Y1178343D01*
Y1176650D01*
X888500Y1174958D01*
X885114D01*
X883422Y1176650D01*
Y1180036D01*
X885114Y1181729D01*
X773729Y1215386D02*
X772036Y1217078D01*
X768651D01*
X766958Y1215386D01*
Y1208614D01*
X768651Y1206922D01*
X772036D01*
X773729Y1208614D01*
X783886Y1217078D02*
X777114D01*
Y1212000D01*
X780500Y1213693D01*
X782193D01*
X783886Y1212000D01*
Y1208614D01*
X782193Y1206922D01*
X778807D01*
X777114Y1208614D01*
X792349Y1206922D02*
Y1217078D01*
X787271Y1212000D01*
X794042D01*
X846114Y893172D02*
X844422Y891479D01*
Y888093D01*
X846114Y886401D01*
X852886D01*
X854578Y888093D01*
Y891479D01*
X852886Y893172D01*
X844422Y903328D02*
Y896557D01*
X849500D01*
X847807Y899943D01*
Y901636D01*
X849500Y903328D01*
X852886D01*
X854578Y901636D01*
Y898250D01*
X852886Y896557D01*
X854578Y906714D02*
Y910100D01*
Y908407D01*
X844422D01*
X846114Y906714D01*
X1076737Y612725D02*
Y610331D01*
X1079131Y607937D01*
X1081525D01*
X1086313Y612725D01*
Y615119D01*
X1083919Y617513D01*
X1081525D01*
X1068358Y618710D02*
X1073146Y613922D01*
X1076737Y617513D01*
X1073146Y618710D01*
X1071949Y619907D01*
Y622301D01*
X1074343Y624695D01*
X1076737D01*
X1079131Y622301D01*
Y619907D01*
X1067161Y622301D02*
X1064767D01*
X1062373Y624695D01*
Y627089D01*
X1067161Y631877D01*
X1069555D01*
X1071949Y629483D01*
Y627089D01*
X1067161Y622301D01*
X1171161Y605513D02*
X1168767D01*
X1166373Y603119D01*
Y600725D01*
X1171161Y595937D01*
X1173555D01*
X1175949Y598331D01*
Y600725D01*
X1183131Y605513D02*
X1175949Y612695D01*
X1175949Y605513D01*
X1180737Y610301D01*
X1185525Y610301D02*
X1187919D01*
X1190313Y612695D01*
Y615089D01*
X1185525Y619877D01*
X1183131D01*
X1180737Y617483D01*
Y615089D01*
X1181934Y613892D01*
X1184328D01*
X1187919Y617483D01*
X1171487Y401475D02*
Y399081D01*
X1173881Y396687D01*
X1176275D01*
X1181063Y401475D01*
Y403869D01*
X1178669Y406263D01*
X1176275D01*
X1171487Y413445D02*
X1164305Y406263D01*
X1171487Y406263D01*
X1166699Y411051D01*
X1161911D02*
X1159517D01*
X1157123Y413445D01*
Y415839D01*
X1158320Y417036D01*
X1160714D01*
Y419430D01*
X1161911Y420627D01*
X1164305D01*
X1166699Y418233D01*
Y415839D01*
X1165502Y414642D01*
X1163108D01*
Y412248D01*
X1161911Y411051D01*
X1163108Y414642D02*
X1160714Y417036D01*
X1211737Y442225D02*
Y439831D01*
X1214131Y437437D01*
X1216525D01*
X1221313Y442225D01*
Y444619D01*
X1218919Y447013D01*
X1216525D01*
X1211737Y454195D02*
X1204555Y447013D01*
X1211737Y447013D01*
X1206949Y451801D01*
X1200964Y450604D02*
X1196176Y455392D01*
X1197373Y456589D01*
X1206949Y456589D01*
X1208146Y457786D01*
X994737Y530475D02*
Y528081D01*
X997131Y525687D01*
X999525D01*
X1004313Y530475D01*
Y532869D01*
X1001919Y535263D01*
X999525D01*
X994737Y542445D02*
X987555Y535263D01*
X994737Y535263D01*
X989949Y540051D01*
X979176Y543642D02*
X982767Y542445D01*
X987555Y542445D01*
X989949Y544839D01*
Y547233D01*
X987555Y549627D01*
X985161D01*
X983964Y548430D01*
Y546036D01*
X987555Y542445D01*
X1188661Y589013D02*
X1186267D01*
X1183873Y586619D01*
Y584225D01*
X1188661Y579437D01*
X1191055D01*
X1193449Y581831D01*
Y584225D01*
X1200631Y589013D02*
X1193449Y596195D01*
X1193449Y589013D01*
X1198237Y593801D01*
X1201828Y604574D02*
X1197040Y599786D01*
X1200631Y596195D01*
X1201828Y599786D01*
X1203025Y600983D01*
X1205419D01*
X1207813Y598589D01*
Y596195D01*
X1205419Y593801D01*
X1203025D01*
X1052911Y423763D02*
X1050517D01*
X1048123Y421369D01*
Y418975D01*
X1052911Y414187D01*
X1055305D01*
X1057699Y416581D01*
Y418975D01*
X1064881Y423763D02*
X1057699Y430945D01*
X1057699Y423763D01*
X1062487Y428551D01*
X1072063Y430945D02*
X1064881Y438127D01*
X1064881Y430945D01*
X1069669Y435733D01*
X1094364Y233979D02*
X1092672Y232286D01*
Y228901D01*
X1094364Y227208D01*
X1101135D01*
X1102828Y228901D01*
Y232286D01*
X1101135Y233979D01*
X1102828Y242443D02*
X1092672D01*
X1097750Y237365D01*
Y244136D01*
X1094364Y247521D02*
X1092672Y249214D01*
Y252600D01*
X1094364Y254292D01*
X1096057D01*
X1097750Y252600D01*
Y250907D01*
Y252600D01*
X1099443Y254292D01*
X1101135D01*
X1102828Y252600D01*
Y249214D01*
X1101135Y247521D01*
X960818Y483606D02*
X958424D01*
X956030Y481212D01*
Y478818D01*
X960818Y474030D01*
X963212D01*
X965606Y476424D01*
Y478818D01*
X972788Y483606D02*
X965606Y490788D01*
X965606Y483606D01*
X970394Y488394D01*
X981167Y491985D02*
X976379Y487197D01*
Y496773D01*
X975182Y497970D01*
X972788D01*
X970394Y495576D01*
Y493182D01*
X1010265Y442553D02*
X1007871D01*
X1005477Y440159D01*
Y437765D01*
X1010265Y432977D01*
X1012659D01*
X1015053Y435371D01*
Y437765D01*
X1022235Y442553D02*
X1015053Y449735D01*
X1015053Y442553D01*
X1019841Y447341D01*
X1025826Y446144D02*
X1028220Y448538D01*
X1027023Y447341D01*
X1019841Y454523D01*
Y452129D01*
X921114Y199729D02*
X919422Y198036D01*
Y194650D01*
X921114Y192958D01*
X927886D01*
X929578Y194650D01*
Y198036D01*
X927886Y199729D01*
X929578Y208193D02*
X919422D01*
X924500Y203114D01*
Y209886D01*
X921114Y213271D02*
X919422Y214964D01*
Y218349D01*
X921114Y220042D01*
X927886D01*
X929578Y218349D01*
Y214964D01*
X927886Y213271D01*
X921114D01*
X1104487Y637827D02*
Y635433D01*
X1106881Y633039D01*
X1109275D01*
X1114063Y637827D01*
Y640221D01*
X1111669Y642615D01*
X1109275D01*
X1102093Y640221D02*
X1099699D01*
X1097305Y642615D01*
Y645009D01*
X1098502Y646206D01*
X1100896D01*
X1102093Y645009D01*
X1100896Y646206D01*
Y648600D01*
X1102093Y649797D01*
X1104487D01*
X1106881Y647403D01*
Y645009D01*
X1099699Y652191D02*
Y654585D01*
X1097305Y656979D01*
X1094911D01*
X1090123Y652191D01*
Y649797D01*
X1092517Y647403D01*
X1094911D01*
X1096108Y648600D01*
Y650994D01*
X1092517Y654585D01*
X1091237Y625475D02*
Y623081D01*
X1093631Y620687D01*
X1096025D01*
X1100813Y625475D01*
Y627869D01*
X1098419Y630263D01*
X1096025D01*
X1088843Y627869D02*
X1086449D01*
X1084055Y630263D01*
Y632657D01*
X1085252Y633854D01*
X1087646D01*
X1088843Y632657D01*
X1087646Y633854D01*
Y636248D01*
X1088843Y637445D01*
X1091237D01*
X1093631Y635051D01*
Y632657D01*
X1081661Y635051D02*
X1079267D01*
X1076873Y637445D01*
Y639839D01*
X1078070Y641036D01*
X1080464D01*
Y643430D01*
X1081661Y644627D01*
X1084055D01*
X1086449Y642233D01*
Y639839D01*
X1085252Y638642D01*
X1082858D01*
Y636248D01*
X1081661Y635051D01*
X1082858Y638642D02*
X1080464Y641036D01*
X966737Y372475D02*
Y370081D01*
X969131Y367687D01*
X971525D01*
X976313Y372475D01*
Y374869D01*
X973919Y377263D01*
X971525D01*
X964343Y374869D02*
X961949D01*
X959555Y377263D01*
Y379657D01*
X960752Y380854D01*
X963146D01*
X964343Y379657D01*
X963146Y380854D01*
Y383248D01*
X964343Y384445D01*
X966737D01*
X969131Y382051D01*
Y379657D01*
X955964Y380854D02*
X951176Y385642D01*
X952373Y386839D01*
X961949Y386839D01*
X963146Y388036D01*
X1059237Y354291D02*
Y351897D01*
X1061631Y349503D01*
X1064025D01*
X1068813Y354291D01*
Y356685D01*
X1066419Y359079D01*
X1064025D01*
X1056843Y356685D02*
X1054449D01*
X1052055Y359079D01*
Y361473D01*
X1053252Y362670D01*
X1055646D01*
X1056843Y361473D01*
X1055646Y362670D01*
Y365064D01*
X1056843Y366260D01*
X1059237D01*
X1061631Y363867D01*
Y361473D01*
X1043676Y367458D02*
X1047267Y366260D01*
X1052055Y366261D01*
X1054449Y368655D01*
Y371049D01*
X1052055Y373442D01*
X1049661D01*
X1048464Y372245D01*
Y369851D01*
X1052055Y366261D01*
X954737Y361225D02*
Y358831D01*
X957131Y356437D01*
X959525D01*
X964313Y361225D01*
Y363619D01*
X961919Y366013D01*
X959525D01*
X952343Y363619D02*
X949949D01*
X947555Y366013D01*
Y368407D01*
X948752Y369604D01*
X951146D01*
X952343Y368407D01*
X951146Y369604D01*
Y371998D01*
X952343Y373195D01*
X954737D01*
X957131Y370801D01*
Y368407D01*
X939176Y374392D02*
X943964Y369604D01*
X947555Y373195D01*
X943964Y374392D01*
X942767Y375589D01*
Y377983D01*
X945161Y380377D01*
X947555D01*
X949949Y377983D01*
Y375589D01*
X1044737Y338041D02*
Y335647D01*
X1047131Y333253D01*
X1049525D01*
X1054313Y338041D01*
Y340435D01*
X1051919Y342829D01*
X1049525D01*
X1042343Y340435D02*
X1039949D01*
X1037555Y342829D01*
Y345223D01*
X1038752Y346420D01*
X1041146D01*
X1042343Y345223D01*
X1041146Y346420D01*
Y348814D01*
X1042343Y350010D01*
X1044737D01*
X1047131Y347617D01*
Y345223D01*
X1037555Y357192D02*
X1030373Y350010D01*
X1037555Y350011D01*
X1032767Y354799D01*
X886709Y635820D02*
Y633426D01*
X889103Y631032D01*
X891497D01*
X896285Y635820D01*
Y638214D01*
X893891Y640608D01*
X891497D01*
X884315Y638214D02*
X881921D01*
X879528Y640608D01*
Y643002D01*
X880724Y644199D01*
X883118D01*
X884315Y643002D01*
X883118Y644199D01*
Y646593D01*
X884315Y647790D01*
X886709D01*
X889103Y645396D01*
Y643002D01*
X877133Y645396D02*
X874740D01*
X872346Y647790D01*
Y650184D01*
X873543Y651381D01*
X875937D01*
X877133Y650184D01*
X875937Y651381D01*
Y653775D01*
X877133Y654972D01*
X879528D01*
X881921Y652578D01*
Y650184D01*
X242614Y1208979D02*
X240922Y1207286D01*
Y1203901D01*
X242614Y1202208D01*
X249386D01*
X251078Y1203901D01*
Y1207286D01*
X249386Y1208979D01*
X242614Y1212364D02*
X240922Y1214057D01*
Y1217443D01*
X242614Y1219136D01*
X244307D01*
X246000Y1217443D01*
Y1215750D01*
Y1217443D01*
X247693Y1219136D01*
X249386D01*
X251078Y1217443D01*
Y1214057D01*
X249386Y1212364D01*
X251078Y1229292D02*
Y1222521D01*
X244307Y1229292D01*
X242614D01*
X240922Y1227599D01*
Y1224214D01*
X242614Y1222521D01*
X259114Y1208922D02*
X257422Y1207229D01*
Y1203843D01*
X259114Y1202150D01*
X265886D01*
X267578Y1203843D01*
Y1207229D01*
X265886Y1208922D01*
X259114Y1212307D02*
X257422Y1214000D01*
Y1217386D01*
X259114Y1219078D01*
X260807D01*
X262500Y1217386D01*
Y1215693D01*
Y1217386D01*
X264193Y1219078D01*
X265886D01*
X267578Y1217386D01*
Y1214000D01*
X265886Y1212307D01*
X267578Y1222464D02*
Y1225850D01*
Y1224157D01*
X257422D01*
X259114Y1222464D01*
X275114Y1208979D02*
X273422Y1207286D01*
Y1203901D01*
X275114Y1202208D01*
X281886D01*
X283578Y1203901D01*
Y1207286D01*
X281886Y1208979D01*
X275114Y1212365D02*
X273422Y1214057D01*
Y1217443D01*
X275114Y1219136D01*
X276807D01*
X278500Y1217443D01*
Y1215750D01*
Y1217443D01*
X280193Y1219136D01*
X281886D01*
X283578Y1217443D01*
Y1214057D01*
X281886Y1212365D01*
X275114Y1222521D02*
X273422Y1224214D01*
Y1227599D01*
X275114Y1229292D01*
X281886D01*
X283578Y1227599D01*
Y1224214D01*
X281886Y1222521D01*
X275114D01*
X291114Y1208229D02*
X289422Y1206536D01*
Y1203150D01*
X291114Y1201458D01*
X297886D01*
X299578Y1203150D01*
Y1206536D01*
X297886Y1208229D01*
X299578Y1218385D02*
Y1211614D01*
X292807Y1218385D01*
X291114D01*
X289422Y1216693D01*
Y1213307D01*
X291114Y1211614D01*
X297886Y1221771D02*
X299578Y1223464D01*
Y1226850D01*
X297886Y1228542D01*
X291114D01*
X289422Y1226850D01*
Y1223464D01*
X291114Y1221771D01*
X292807D01*
X294500Y1223464D01*
Y1228542D01*
X306864Y1208479D02*
X305172Y1206786D01*
Y1203400D01*
X306864Y1201708D01*
X313636D01*
X315328Y1203400D01*
Y1206786D01*
X313636Y1208479D01*
X315328Y1218636D02*
Y1211864D01*
X308557Y1218636D01*
X306864D01*
X305172Y1216943D01*
Y1213557D01*
X306864Y1211864D01*
Y1222021D02*
X305172Y1223714D01*
Y1227100D01*
X306864Y1228792D01*
X308557D01*
X310250Y1227100D01*
X311943Y1228792D01*
X313636D01*
X315328Y1227100D01*
Y1223714D01*
X313636Y1222021D01*
X311943D01*
X310250Y1223714D01*
X308557Y1222021D01*
X306864D01*
X310250Y1223714D02*
Y1227100D01*
X324114Y1209229D02*
X322422Y1207536D01*
Y1204150D01*
X324114Y1202458D01*
X330886D01*
X332578Y1204150D01*
Y1207536D01*
X330886Y1209229D01*
X332578Y1219386D02*
Y1212614D01*
X325807Y1219386D01*
X324114D01*
X322422Y1217693D01*
Y1214307D01*
X324114Y1212614D01*
X322422Y1222771D02*
Y1229542D01*
X324114D01*
X330886Y1222771D01*
X332578D01*
X491614Y1213979D02*
X489922Y1212286D01*
Y1208901D01*
X491614Y1207208D01*
X498386D01*
X500078Y1208901D01*
Y1212286D01*
X498386Y1213979D01*
X500078Y1224136D02*
Y1217364D01*
X493307Y1224136D01*
X491614D01*
X489922Y1222443D01*
Y1219057D01*
X491614Y1217364D01*
X489922Y1234292D02*
X491614Y1230907D01*
X495000Y1227521D01*
X498386D01*
X500078Y1229214D01*
Y1232599D01*
X498386Y1234292D01*
X496693D01*
X495000Y1232599D01*
Y1227521D01*
X441422Y658136D02*
X439729Y659828D01*
X436343D01*
X434650Y658136D01*
Y651364D01*
X436343Y649672D01*
X439729D01*
X441422Y651364D01*
X451578Y649672D02*
X444807D01*
X451578Y656443D01*
Y658136D01*
X449885Y659828D01*
X446500D01*
X444807Y658136D01*
X454964Y649672D02*
X458349D01*
X456657D01*
Y659828D01*
X454964Y658136D01*
X646808Y662734D02*
X645115Y664427D01*
X641729D01*
X640036Y662734D01*
Y655963D01*
X641729Y654270D01*
X645115D01*
X646808Y655963D01*
X656964Y654270D02*
X650193D01*
X656964Y661041D01*
Y662734D01*
X655272Y664427D01*
X651886D01*
X650193Y662734D01*
X660350D02*
X662043Y664427D01*
X665428D01*
X667121Y662734D01*
Y655963D01*
X665428Y654270D01*
X662043D01*
X660350Y655963D01*
Y662734D01*
X552636Y681425D02*
X554328Y683118D01*
Y686503D01*
X552636Y688196D01*
X545864D01*
X544172Y686503D01*
Y683118D01*
X545864Y681425D01*
X544172Y678039D02*
Y674654D01*
Y676346D01*
X554328D01*
X552636Y678039D01*
X545864Y669575D02*
X544172Y667882D01*
Y664497D01*
X545864Y662804D01*
X552636D01*
X554328Y664497D01*
Y667882D01*
X552636Y669575D01*
X550943D01*
X549250Y667882D01*
Y662804D01*
X1185364Y193325D02*
X1183672Y191632D01*
Y188247D01*
X1185364Y186554D01*
X1192136D01*
X1193828Y188247D01*
Y191632D01*
X1192136Y193325D01*
X1193828Y196711D02*
Y200096D01*
Y198404D01*
X1183672D01*
X1185364Y196711D01*
Y205175D02*
X1183672Y206868D01*
Y210253D01*
X1185364Y211946D01*
X1187057D01*
X1188750Y210253D01*
X1190443Y211946D01*
X1192136D01*
X1193828Y210253D01*
Y206868D01*
X1192136Y205175D01*
X1190443D01*
X1188750Y206868D01*
X1187057Y205175D01*
X1185364D01*
X1188750Y206868D02*
Y210253D01*
X1227614Y229325D02*
X1225922Y227633D01*
Y224247D01*
X1227614Y222554D01*
X1234386D01*
X1236078Y224247D01*
Y227633D01*
X1234386Y229325D01*
X1236078Y232711D02*
Y236096D01*
Y234404D01*
X1225922D01*
X1227614Y232711D01*
X1225922Y241175D02*
Y247946D01*
X1227614D01*
X1234386Y241175D01*
X1236078D01*
X1249114Y158825D02*
X1247422Y157133D01*
Y153747D01*
X1249114Y152054D01*
X1255886D01*
X1257578Y153747D01*
Y157133D01*
X1255886Y158825D01*
X1257578Y162211D02*
Y165596D01*
Y163904D01*
X1247422D01*
X1249114Y162211D01*
X1247422Y177446D02*
X1249114Y174060D01*
X1252500Y170675D01*
X1255886D01*
X1257578Y172367D01*
Y175753D01*
X1255886Y177446D01*
X1254193D01*
X1252500Y175753D01*
Y170675D01*
X1245364Y264325D02*
X1243672Y262633D01*
Y259247D01*
X1245364Y257554D01*
X1252135D01*
X1253828Y259247D01*
Y262633D01*
X1252135Y264325D01*
X1253828Y267711D02*
Y271096D01*
Y269404D01*
X1243672D01*
X1245364Y267711D01*
X1243672Y282946D02*
Y276175D01*
X1248750D01*
X1247057Y279560D01*
Y281253D01*
X1248750Y282946D01*
X1252135D01*
X1253828Y281253D01*
Y277868D01*
X1252135Y276175D01*
X1355825Y383386D02*
X1354133Y385078D01*
X1350747D01*
X1349054Y383386D01*
Y376614D01*
X1350747Y374922D01*
X1354133D01*
X1355825Y376614D01*
X1359211Y374922D02*
X1362596D01*
X1360904D01*
Y385078D01*
X1359211Y383386D01*
X1372753Y374922D02*
Y385078D01*
X1367675Y380000D01*
X1374446D01*
X1521575Y343636D02*
X1519883Y345328D01*
X1516497D01*
X1514804Y343636D01*
Y336864D01*
X1516497Y335172D01*
X1519883D01*
X1521575Y336864D01*
X1524961Y335172D02*
X1528346D01*
X1526654D01*
Y345328D01*
X1524961Y343636D01*
X1533425D02*
X1535118Y345328D01*
X1538503D01*
X1540196Y343636D01*
Y341943D01*
X1538503Y340250D01*
X1536810D01*
X1538503D01*
X1540196Y338557D01*
Y336864D01*
X1538503Y335172D01*
X1535118D01*
X1533425Y336864D01*
X1521575Y324136D02*
X1519883Y325828D01*
X1516497D01*
X1514804Y324136D01*
Y317364D01*
X1516497Y315672D01*
X1519883D01*
X1521575Y317364D01*
X1524961Y315672D02*
X1528346D01*
X1526654D01*
Y325828D01*
X1524961Y324136D01*
X1540196Y315672D02*
X1533425D01*
X1540196Y322443D01*
Y324136D01*
X1538503Y325828D01*
X1535118D01*
X1533425Y324136D01*
X1266864Y294018D02*
X1265172Y292325D01*
Y288940D01*
X1266864Y287247D01*
X1273636D01*
X1275328Y288940D01*
Y292325D01*
X1273636Y294018D01*
X1275328Y297404D02*
Y300789D01*
Y299096D01*
X1265172D01*
X1266864Y297404D01*
X1275328Y305868D02*
Y309253D01*
Y307560D01*
X1265172D01*
X1266864Y305868D01*
X1265325Y413136D02*
X1263632Y414828D01*
X1260247D01*
X1258554Y413136D01*
Y406364D01*
X1260247Y404672D01*
X1263632D01*
X1265325Y406364D01*
X1268711Y404672D02*
X1272096D01*
X1270404D01*
Y414828D01*
X1268711Y413136D01*
X1277175D02*
X1278867Y414828D01*
X1282253D01*
X1283946Y413136D01*
Y406364D01*
X1282253Y404672D01*
X1278867D01*
X1277175Y406364D01*
Y413136D01*
X1332614Y369557D02*
X1330922Y367864D01*
Y364479D01*
X1332614Y362786D01*
X1339386D01*
X1341078Y364479D01*
Y367864D01*
X1339386Y369557D01*
Y372943D02*
X1341078Y374636D01*
Y378021D01*
X1339386Y379714D01*
X1332614D01*
X1330922Y378021D01*
Y374636D01*
X1332614Y372943D01*
X1334307D01*
X1336000Y374636D01*
Y379714D01*
X1366114Y306057D02*
X1364422Y304364D01*
Y300979D01*
X1366114Y299286D01*
X1372886D01*
X1374578Y300979D01*
Y304364D01*
X1372886Y306057D01*
X1366114Y309443D02*
X1364422Y311136D01*
Y314521D01*
X1366114Y316214D01*
X1367807D01*
X1369500Y314521D01*
X1371193Y316214D01*
X1372886D01*
X1374578Y314521D01*
Y311136D01*
X1372886Y309443D01*
X1371193D01*
X1369500Y311136D01*
X1367807Y309443D01*
X1366114D01*
X1369500Y311136D02*
Y314521D01*
X1355454Y543400D02*
X1353762Y545093D01*
X1350376D01*
X1348683Y543400D01*
Y536629D01*
X1350376Y534936D01*
X1353762D01*
X1355454Y536629D01*
X1358840Y545093D02*
X1365611D01*
Y543400D01*
X1358840Y536629D01*
Y534936D01*
X1288762Y484072D02*
X1287069Y482379D01*
Y478994D01*
X1288762Y477301D01*
X1295533D01*
X1297225Y478994D01*
Y482379D01*
X1295533Y484072D01*
X1288762Y487458D02*
X1287069Y489150D01*
Y492536D01*
X1288762Y494229D01*
X1290454D01*
X1292147Y492536D01*
Y490843D01*
Y492536D01*
X1293840Y494229D01*
X1295533D01*
X1297225Y492536D01*
Y489150D01*
X1295533Y487458D01*
X1326261Y559322D02*
X1324569Y557629D01*
Y554244D01*
X1326261Y552551D01*
X1333033D01*
X1334725Y554244D01*
Y557629D01*
X1333033Y559322D01*
X1334725Y569479D02*
Y562708D01*
X1327954Y569479D01*
X1326261D01*
X1324569Y567786D01*
Y564400D01*
X1326261Y562708D01*
X1362012Y468015D02*
X1360319Y466322D01*
Y462937D01*
X1362012Y461244D01*
X1368783D01*
X1370475Y462937D01*
Y466322D01*
X1368783Y468015D01*
X1370475Y471400D02*
Y474786D01*
Y473093D01*
X1360319D01*
X1362012Y471400D01*
X1329458Y172828D02*
Y164364D01*
X1331151Y162672D01*
X1334536D01*
X1336229Y164364D01*
Y172828D01*
X1346385Y162672D02*
X1339614D01*
X1346385Y169443D01*
Y171136D01*
X1344693Y172828D01*
X1341307D01*
X1339614Y171136D01*
X1349771Y164364D02*
X1351464Y162672D01*
X1354850D01*
X1356542Y164364D01*
Y171136D01*
X1354850Y172828D01*
X1351464D01*
X1349771Y171136D01*
Y169443D01*
X1351464Y167750D01*
X1356542D01*
X166581Y1221957D02*
Y1213493D01*
X168273Y1211800D01*
X171659D01*
X173352Y1213493D01*
Y1221957D01*
X181816Y1211800D02*
Y1221957D01*
X176737Y1216879D01*
X183508D01*
X1297786Y201578D02*
Y193114D01*
X1299479Y191422D01*
X1302864D01*
X1304557Y193114D01*
Y201578D01*
X1307943Y199886D02*
X1309636Y201578D01*
X1313021D01*
X1314714Y199886D01*
Y198193D01*
X1313021Y196500D01*
X1311328D01*
X1313021D01*
X1314714Y194807D01*
Y193114D01*
X1313021Y191422D01*
X1309636D01*
X1307943Y193114D01*
X1275000Y30386D02*
X1273307Y32078D01*
X1269922D01*
X1268229Y30386D01*
Y28693D01*
X1269922Y27000D01*
X1273307D01*
X1275000Y25307D01*
Y23614D01*
X1273307Y21922D01*
X1269922D01*
X1268229Y23614D01*
X1278386Y21922D02*
X1281771D01*
X1280078D01*
Y32078D01*
X1278386Y30386D01*
X1318804Y288172D02*
Y298328D01*
X1323882D01*
X1325575Y296636D01*
Y293250D01*
X1323882Y291557D01*
X1318804D01*
X1322190D02*
X1325575Y288172D01*
X1328961D02*
X1332346D01*
X1330654D01*
Y298328D01*
X1328961Y296636D01*
X1337425D02*
X1339118Y298328D01*
X1342503D01*
X1344196Y296636D01*
Y294943D01*
X1342503Y293250D01*
X1340810D01*
X1342503D01*
X1344196Y291557D01*
Y289864D01*
X1342503Y288172D01*
X1339118D01*
X1337425Y289864D01*
X1515497Y361922D02*
Y372078D01*
X1520575D01*
X1522268Y370386D01*
Y367000D01*
X1520575Y365307D01*
X1515497D01*
X1518882D02*
X1522268Y361922D01*
X1525654D02*
X1529039D01*
X1527346D01*
Y372078D01*
X1525654Y370386D01*
X1534118Y361922D02*
X1537503D01*
X1535810D01*
Y372078D01*
X1534118Y370386D01*
X1252578Y356054D02*
X1242422D01*
Y361133D01*
X1244114Y362825D01*
X1247500D01*
X1249193Y361133D01*
Y356054D01*
Y359440D02*
X1252578Y362825D01*
Y366211D02*
Y369596D01*
Y367904D01*
X1242422D01*
X1244114Y366211D01*
Y374675D02*
X1242422Y376368D01*
Y379753D01*
X1244114Y381446D01*
X1250886D01*
X1252578Y379753D01*
Y376368D01*
X1250886Y374675D01*
X1244114D01*
X1278726Y542301D02*
X1268569D01*
Y547379D01*
X1270262Y549072D01*
X1273647D01*
X1275340Y547379D01*
Y542301D01*
Y545686D02*
X1278726Y549072D01*
X1277033Y552458D02*
X1278726Y554150D01*
Y557536D01*
X1277033Y559229D01*
X1270262D01*
X1268569Y557536D01*
Y554150D01*
X1270262Y552458D01*
X1271954D01*
X1273647Y554150D01*
Y559229D01*
X1429725Y554301D02*
X1419569D01*
Y559379D01*
X1421261Y561072D01*
X1424647D01*
X1426340Y559379D01*
Y554301D01*
Y557687D02*
X1429725Y561072D01*
X1421261Y564458D02*
X1419569Y566150D01*
Y569536D01*
X1421261Y571229D01*
X1422954D01*
X1424647Y569536D01*
X1426340Y571229D01*
X1428033D01*
X1429725Y569536D01*
Y566150D01*
X1428033Y564458D01*
X1426340D01*
X1424647Y566150D01*
X1422954Y564458D01*
X1421261D01*
X1424647Y566150D02*
Y569536D01*
X1509433Y547687D02*
Y557843D01*
X1514512D01*
X1516204Y556150D01*
Y552765D01*
X1514512Y551072D01*
X1509433D01*
X1512819D02*
X1516204Y547687D01*
X1519590Y557843D02*
X1526361D01*
Y556150D01*
X1519590Y549379D01*
Y547687D01*
X1314476Y552551D02*
X1304319D01*
Y557629D01*
X1306012Y559322D01*
X1309397D01*
X1311090Y557629D01*
Y552551D01*
Y555937D02*
X1314476Y559322D01*
X1304319Y569479D02*
Y562708D01*
X1309397D01*
X1307704Y566093D01*
Y567786D01*
X1309397Y569479D01*
X1312783D01*
X1314476Y567786D01*
Y564400D01*
X1312783Y562708D01*
X1508933Y528937D02*
Y539093D01*
X1514012D01*
X1515704Y537400D01*
Y534015D01*
X1514012Y532322D01*
X1508933D01*
X1512319D02*
X1515704Y528937D01*
X1524168D02*
Y539093D01*
X1519090Y534015D01*
X1525861D01*
X1237078Y522286D02*
X1226922D01*
Y527365D01*
X1228614Y529057D01*
X1232000D01*
X1233693Y527365D01*
Y522286D01*
Y525672D02*
X1237078Y529057D01*
Y539214D02*
Y532443D01*
X1230307Y539214D01*
X1228614D01*
X1226922Y537521D01*
Y534136D01*
X1228614Y532443D01*
X269208Y757422D02*
Y767578D01*
X274286D01*
X275979Y765886D01*
Y762500D01*
X274286Y760807D01*
X269208D01*
X272593D02*
X275979Y757422D01*
X279364Y759114D02*
X281057Y757422D01*
X284443D01*
X286136Y759114D01*
Y765886D01*
X284443Y767578D01*
X281057D01*
X279364Y765886D01*
Y764193D01*
X281057Y762500D01*
X286136D01*
X296292Y767578D02*
X289521D01*
Y762500D01*
X292907Y764193D01*
X294599D01*
X296292Y762500D01*
Y759114D01*
X294599Y757422D01*
X291214D01*
X289521Y759114D01*
X269208Y704172D02*
Y714328D01*
X274286D01*
X275979Y712636D01*
Y709250D01*
X274286Y707557D01*
X269208D01*
X272593D02*
X275979Y704172D01*
X279364Y705864D02*
X281057Y704172D01*
X284443D01*
X286136Y705864D01*
Y712636D01*
X284443Y714328D01*
X281057D01*
X279364Y712636D01*
Y710943D01*
X281057Y709250D01*
X286136D01*
X294599Y704172D02*
Y714328D01*
X289521Y709250D01*
X296292D01*
X315500Y747364D02*
Y754136D01*
X313807Y755828D01*
X310422D01*
X308729Y754136D01*
Y747364D01*
X310422Y745672D01*
X313807D01*
X312114Y749057D02*
X315500Y745672D01*
X313807D02*
X315500Y747364D01*
X318886Y745672D02*
X322271D01*
X320578D01*
Y755828D01*
X318886Y754136D01*
X1078307Y75328D02*
X1074922D01*
X1076614D01*
Y66864D01*
X1074922Y65172D01*
X1073229D01*
X1071536Y66864D01*
X1086771Y65172D02*
Y75328D01*
X1081693Y70250D01*
X1088464D01*
X769807Y24078D02*
X766422D01*
X768114D01*
Y15614D01*
X766422Y13922D01*
X764729D01*
X763036Y15614D01*
X773193Y22386D02*
X774886Y24078D01*
X778271D01*
X779964Y22386D01*
Y20693D01*
X778271Y19000D01*
X776578D01*
X778271D01*
X779964Y17307D01*
Y15614D01*
X778271Y13922D01*
X774886D01*
X773193Y15614D01*
X1515454Y511900D02*
X1513762Y513593D01*
X1510376D01*
X1508683Y511900D01*
Y505129D01*
X1510376Y503437D01*
X1513762D01*
X1515454Y505129D01*
X1525611Y513593D02*
X1522225Y511900D01*
X1518840Y508515D01*
Y505129D01*
X1520533Y503437D01*
X1523918D01*
X1525611Y505129D01*
Y506822D01*
X1523918Y508515D01*
X1518840D01*
X1515454Y494400D02*
X1513762Y496093D01*
X1510376D01*
X1508683Y494400D01*
Y487629D01*
X1510376Y485937D01*
X1513762D01*
X1515454Y487629D01*
X1525611Y496093D02*
X1518840D01*
Y491015D01*
X1522225Y492708D01*
X1523918D01*
X1525611Y491015D01*
Y487629D01*
X1523918Y485937D01*
X1520533D01*
X1518840Y487629D01*
X1268261Y484072D02*
X1266569Y482379D01*
Y478994D01*
X1268261Y477301D01*
X1275033D01*
X1276725Y478994D01*
Y482379D01*
X1275033Y484072D01*
X1276725Y492536D02*
X1266569D01*
X1271647Y487458D01*
Y494229D01*
X414652Y756460D02*
X412959Y758153D01*
X409573D01*
X407881Y756460D01*
Y749689D01*
X409573Y747996D01*
X412959D01*
X414652Y749689D01*
X418037Y758153D02*
X424808D01*
Y756460D01*
X418037Y749689D01*
Y747996D01*
X428194Y758153D02*
X434965D01*
Y756460D01*
X428194Y749689D01*
Y747996D01*
X48979Y980911D02*
Y972447D01*
X50671Y970754D01*
X54057D01*
X55750Y972447D01*
Y980911D01*
X59135Y970754D02*
X62521D01*
X60828D01*
Y980911D01*
X59135Y979218D01*
X67599Y972447D02*
X69292Y970754D01*
X72677D01*
X74370Y972447D01*
Y979218D01*
X72677Y980911D01*
X69292D01*
X67599Y979218D01*
Y977525D01*
X69292Y975833D01*
X74370D01*
X358078Y753479D02*
X347922D01*
Y758557D01*
X349614Y760250D01*
X353000D01*
X354693Y758557D01*
Y753479D01*
Y756864D02*
X358078Y760250D01*
Y763636D02*
Y767021D01*
Y765328D01*
X347922D01*
X349614Y763636D01*
X90828Y783458D02*
X80672D01*
Y788536D01*
X82364Y790229D01*
X85750D01*
X87443Y788536D01*
Y783458D01*
Y786843D02*
X90828Y790229D01*
X89136Y793614D02*
X90828Y795307D01*
Y798693D01*
X89136Y800386D01*
X82364D01*
X80672Y798693D01*
Y795307D01*
X82364Y793614D01*
X84057D01*
X85750Y795307D01*
Y800386D01*
X82364Y803771D02*
X80672Y805464D01*
Y808849D01*
X82364Y810542D01*
X84057D01*
X85750Y808849D01*
Y807157D01*
Y808849D01*
X87443Y810542D01*
X89136D01*
X90828Y808849D01*
Y805464D01*
X89136Y803771D01*
X73328Y783708D02*
X63172D01*
Y788786D01*
X64864Y790479D01*
X68250D01*
X69943Y788786D01*
Y783708D01*
Y787093D02*
X73328Y790479D01*
X71635Y793865D02*
X73328Y795557D01*
Y798943D01*
X71635Y800636D01*
X64864D01*
X63172Y798943D01*
Y795557D01*
X64864Y793865D01*
X66557D01*
X68250Y795557D01*
Y800636D01*
X73328Y810792D02*
Y804021D01*
X66557Y810792D01*
X64864D01*
X63172Y809100D01*
Y805714D01*
X64864Y804021D01*
X55078Y783901D02*
X44922D01*
Y788979D01*
X46614Y790672D01*
X50000D01*
X51693Y788979D01*
Y783901D01*
Y787286D02*
X55078Y790672D01*
X53386Y794057D02*
X55078Y795750D01*
Y799136D01*
X53386Y800828D01*
X46614D01*
X44922Y799136D01*
Y795750D01*
X46614Y794057D01*
X48307D01*
X50000Y795750D01*
Y800828D01*
X55078Y804214D02*
Y807599D01*
Y805907D01*
X44922D01*
X46614Y804214D01*
X27556Y1130517D02*
X24170D01*
X25863D01*
Y1122053D01*
X24170Y1120360D01*
X22477D01*
X20784Y1122053D01*
X37712Y1120360D02*
X30941D01*
X37712Y1127132D01*
Y1128824D01*
X36020Y1130517D01*
X32634D01*
X30941Y1128824D01*
X23746Y790919D02*
X20360D01*
X22053D01*
Y782455D01*
X20360Y780762D01*
X18667D01*
X16975Y782455D01*
X27131Y789226D02*
X28824Y790919D01*
X32210D01*
X33902Y789226D01*
Y787533D01*
X32210Y785841D01*
X33902Y784148D01*
Y782455D01*
X32210Y780762D01*
X28824D01*
X27131Y782455D01*
Y784148D01*
X28824Y785841D01*
X27131Y787533D01*
Y789226D01*
X28824Y785841D02*
X32210D01*
M02*
