G04*
G04 #@! TF.GenerationSoftware,Altium Limited,Altium Designer,25.5.2 (35)*
G04*
G04 Layer_Physical_Order=8*
G04 Layer_Color=16711680*
%FSLAX44Y44*%
%MOMM*%
G71*
G04*
G04 #@! TF.SameCoordinates,7FE83EBB-F424-4E48-BF24-F714E467DA33*
G04*
G04*
G04 #@! TF.FilePolarity,Positive*
G04*
G01*
G75*
%ADD12C,0.1270*%
%ADD16C,0.2540*%
%ADD17C,0.2032*%
%ADD18R,0.9000X1.0000*%
%ADD22R,1.0000X1.0000*%
%ADD23R,1.0000X0.9000*%
%ADD24R,1.0000X1.0000*%
%ADD35R,0.8001X0.8001*%
%ADD39P,1.4142X4X90.0*%
G04:AMPARAMS|DCode=43|XSize=1mm|YSize=0.9mm|CornerRadius=0mm|HoleSize=0mm|Usage=FLASHONLY|Rotation=45.000|XOffset=0mm|YOffset=0mm|HoleType=Round|Shape=Rectangle|*
%AMROTATEDRECTD43*
4,1,4,-0.0354,-0.6718,-0.6718,-0.0354,0.0354,0.6718,0.6718,0.0354,-0.0354,-0.6718,0.0*
%
%ADD43ROTATEDRECTD43*%

G04:AMPARAMS|DCode=54|XSize=1mm|YSize=0.9mm|CornerRadius=0mm|HoleSize=0mm|Usage=FLASHONLY|Rotation=315.000|XOffset=0mm|YOffset=0mm|HoleType=Round|Shape=Rectangle|*
%AMROTATEDRECTD54*
4,1,4,-0.6718,0.0354,-0.0354,0.6718,0.6718,-0.0354,0.0354,-0.6718,-0.6718,0.0354,0.0*
%
%ADD54ROTATEDRECTD54*%

G04:AMPARAMS|DCode=58|XSize=0.7mm|YSize=0.65mm|CornerRadius=0mm|HoleSize=0mm|Usage=FLASHONLY|Rotation=315.000|XOffset=0mm|YOffset=0mm|HoleType=Round|Shape=Rectangle|*
%AMROTATEDRECTD58*
4,1,4,-0.4773,0.0177,-0.0177,0.4773,0.4773,-0.0177,0.0177,-0.4773,-0.4773,0.0177,0.0*
%
%ADD58ROTATEDRECTD58*%

G04:AMPARAMS|DCode=59|XSize=0.7mm|YSize=0.65mm|CornerRadius=0mm|HoleSize=0mm|Usage=FLASHONLY|Rotation=45.000|XOffset=0mm|YOffset=0mm|HoleType=Round|Shape=Rectangle|*
%AMROTATEDRECTD59*
4,1,4,-0.0177,-0.4773,-0.4773,-0.0177,0.0177,0.4773,0.4773,0.0177,-0.0177,-0.4773,0.0*
%
%ADD59ROTATEDRECTD59*%

%ADD154C,1.0000*%
%ADD155C,0.1016*%
%ADD156C,0.6350*%
%ADD157C,0.0508*%
%ADD161C,0.0762*%
%ADD162C,2.5500*%
%ADD163C,1.1600*%
%ADD164C,1.5150*%
%ADD165C,1.9500*%
%ADD166C,1.6500*%
%ADD167C,1.9800*%
%ADD168C,2.4000*%
%ADD169C,1.4000*%
%ADD170C,1.5200*%
%ADD171R,1.4000X1.4000*%
%ADD172C,2.0250*%
%ADD173R,2.0250X2.0250*%
%ADD174C,2.2500*%
%ADD175R,1.9500X1.9500*%
%ADD176C,3.2500*%
%ADD177C,0.3750*%
%ADD178R,1.1600X1.1600*%
%ADD179C,2.7000*%
%ADD180R,1.6500X1.6500*%
%ADD181C,0.2032*%
%ADD182C,1.2700*%
G04:AMPARAMS|DCode=183|XSize=0.4mm|YSize=0.565mm|CornerRadius=0.1mm|HoleSize=0mm|Usage=FLASHONLY|Rotation=90.000|XOffset=0mm|YOffset=0mm|HoleType=Round|Shape=RoundedRectangle|*
%AMROUNDEDRECTD183*
21,1,0.4000,0.3650,0,0,90.0*
21,1,0.2000,0.5650,0,0,90.0*
1,1,0.2000,0.1825,0.1000*
1,1,0.2000,0.1825,-0.1000*
1,1,0.2000,-0.1825,-0.1000*
1,1,0.2000,-0.1825,0.1000*
%
%ADD183ROUNDEDRECTD183*%
G04:AMPARAMS|DCode=184|XSize=0.4mm|YSize=0.565mm|CornerRadius=0.1mm|HoleSize=0mm|Usage=FLASHONLY|Rotation=0.000|XOffset=0mm|YOffset=0mm|HoleType=Round|Shape=RoundedRectangle|*
%AMROUNDEDRECTD184*
21,1,0.4000,0.3650,0,0,0.0*
21,1,0.2000,0.5650,0,0,0.0*
1,1,0.2000,0.1000,-0.1825*
1,1,0.2000,-0.1000,-0.1825*
1,1,0.2000,-0.1000,0.1825*
1,1,0.2000,0.1000,0.1825*
%
%ADD184ROUNDEDRECTD184*%
G04:AMPARAMS|DCode=185|XSize=0.2mm|YSize=0.565mm|CornerRadius=0.05mm|HoleSize=0mm|Usage=FLASHONLY|Rotation=90.000|XOffset=0mm|YOffset=0mm|HoleType=Round|Shape=RoundedRectangle|*
%AMROUNDEDRECTD185*
21,1,0.2000,0.4650,0,0,90.0*
21,1,0.1000,0.5650,0,0,90.0*
1,1,0.1000,0.2325,0.0500*
1,1,0.1000,0.2325,-0.0500*
1,1,0.1000,-0.2325,-0.0500*
1,1,0.1000,-0.2325,0.0500*
%
%ADD185ROUNDEDRECTD185*%
G04:AMPARAMS|DCode=186|XSize=0.2mm|YSize=0.565mm|CornerRadius=0.05mm|HoleSize=0mm|Usage=FLASHONLY|Rotation=0.000|XOffset=0mm|YOffset=0mm|HoleType=Round|Shape=RoundedRectangle|*
%AMROUNDEDRECTD186*
21,1,0.2000,0.4650,0,0,0.0*
21,1,0.1000,0.5650,0,0,0.0*
1,1,0.1000,0.0500,-0.2325*
1,1,0.1000,-0.0500,-0.2325*
1,1,0.1000,-0.0500,0.2325*
1,1,0.1000,0.0500,0.2325*
%
%ADD186ROUNDEDRECTD186*%
G36*
X1598307Y1570D02*
X1606D01*
Y1258270D01*
X1598307D01*
Y1570D01*
D02*
G37*
%LPC*%
G36*
X386776Y1254520D02*
X385724D01*
X384980Y1253776D01*
Y1252724D01*
X385724Y1251980D01*
X386776D01*
X387520Y1252724D01*
Y1253776D01*
X386776Y1254520D01*
D02*
G37*
G36*
X1158167Y1234302D02*
X1157115D01*
X1156371Y1233558D01*
Y1232506D01*
X1157115Y1231762D01*
X1158167D01*
X1158911Y1232506D01*
Y1233558D01*
X1158167Y1234302D01*
D02*
G37*
G36*
X1232276Y1225770D02*
X1231224D01*
X1230480Y1225026D01*
Y1223974D01*
X1231224Y1223230D01*
X1232276D01*
X1233020Y1223974D01*
Y1225026D01*
X1232276Y1225770D01*
D02*
G37*
G36*
X538370Y1235854D02*
X536631D01*
X534951Y1235404D01*
X533445Y1234535D01*
X532216Y1233305D01*
X531346Y1231799D01*
X530896Y1230120D01*
Y1228381D01*
X531346Y1226701D01*
X532216Y1225195D01*
X533445Y1223966D01*
X534951Y1223096D01*
X536631Y1222646D01*
X538370D01*
X540049Y1223096D01*
X541555Y1223966D01*
X542785Y1225195D01*
X543654Y1226701D01*
X544104Y1228381D01*
Y1230120D01*
X543654Y1231799D01*
X542785Y1233305D01*
X541555Y1234535D01*
X540049Y1235404D01*
X538370Y1235854D01*
D02*
G37*
G36*
X563369Y1235604D02*
X561631D01*
X559951Y1235154D01*
X558445Y1234285D01*
X557215Y1233055D01*
X556346Y1231549D01*
X555896Y1229870D01*
Y1228131D01*
X556346Y1226451D01*
X557215Y1224945D01*
X558445Y1223716D01*
X559951Y1222846D01*
X561631Y1222396D01*
X563369D01*
X565049Y1222846D01*
X566555Y1223716D01*
X567785Y1224945D01*
X568654Y1226451D01*
X569104Y1228131D01*
Y1229870D01*
X568654Y1231549D01*
X567785Y1233055D01*
X566555Y1234285D01*
X565049Y1235154D01*
X563369Y1235604D01*
D02*
G37*
G36*
X513869Y1234604D02*
X512131D01*
X510451Y1234154D01*
X508945Y1233285D01*
X507715Y1232055D01*
X506846Y1230549D01*
X506396Y1228869D01*
Y1227131D01*
X506846Y1225451D01*
X507715Y1223945D01*
X508945Y1222715D01*
X510451Y1221846D01*
X512131Y1221396D01*
X513869D01*
X515549Y1221846D01*
X517055Y1222715D01*
X518284Y1223945D01*
X519154Y1225451D01*
X519604Y1227131D01*
Y1228869D01*
X519154Y1230549D01*
X518284Y1232055D01*
X517055Y1233285D01*
X515549Y1234154D01*
X513869Y1234604D01*
D02*
G37*
G36*
X1148316Y1222840D02*
X1147263D01*
X1146520Y1222096D01*
Y1221044D01*
X1147263Y1220300D01*
X1148316D01*
X1149060Y1221044D01*
Y1222096D01*
X1148316Y1222840D01*
D02*
G37*
G36*
X1040634Y1219308D02*
X1039582D01*
X1038838Y1218564D01*
Y1217512D01*
X1039582Y1216768D01*
X1040634D01*
X1041377Y1217512D01*
Y1218564D01*
X1040634Y1219308D01*
D02*
G37*
G36*
X349776Y1241270D02*
X348724D01*
X347980Y1240526D01*
Y1239474D01*
X348288Y1239166D01*
Y1219504D01*
X343996D01*
Y1215293D01*
X332058D01*
Y1215376D01*
X331258Y1217307D01*
X329780Y1218785D01*
X327849Y1219585D01*
X325759D01*
X323828Y1218785D01*
X322350Y1217307D01*
X321550Y1215376D01*
Y1213286D01*
X322350Y1211355D01*
X323828Y1209877D01*
X325759Y1209077D01*
X327849D01*
X329780Y1209877D01*
X331258Y1211355D01*
X332058Y1213286D01*
Y1213369D01*
X343996D01*
Y1209996D01*
X354504D01*
Y1219504D01*
X350212D01*
Y1239166D01*
X350520Y1239474D01*
Y1240526D01*
X349776Y1241270D01*
D02*
G37*
G36*
X886741Y1216678D02*
X885689D01*
X884945Y1215934D01*
Y1214882D01*
X885689Y1214138D01*
X886741D01*
X887485Y1214882D01*
Y1215934D01*
X886741Y1216678D01*
D02*
G37*
G36*
X584869Y1224854D02*
X583131D01*
X581451Y1224404D01*
X579945Y1223534D01*
X578716Y1222305D01*
X577846Y1220799D01*
X577396Y1219119D01*
Y1217380D01*
X577846Y1215701D01*
X578716Y1214195D01*
X579945Y1212965D01*
X581451Y1212096D01*
X583131Y1211646D01*
X584869D01*
X586549Y1212096D01*
X588055Y1212965D01*
X589285Y1214195D01*
X590154Y1215701D01*
X590604Y1217380D01*
Y1219119D01*
X590154Y1220799D01*
X589285Y1222305D01*
X588055Y1223534D01*
X586549Y1224404D01*
X584869Y1224854D01*
D02*
G37*
G36*
X853992Y1213928D02*
X852940D01*
X852196Y1213184D01*
Y1212132D01*
X852940Y1211388D01*
X853992D01*
X854736Y1212132D01*
Y1213184D01*
X853992Y1213928D01*
D02*
G37*
G36*
X1144064Y1213299D02*
X1143012D01*
X1142268Y1212555D01*
Y1211503D01*
X1143012Y1210759D01*
X1144064D01*
X1144808Y1211503D01*
Y1212555D01*
X1144064Y1213299D01*
D02*
G37*
G36*
X1178526Y1212270D02*
X1177474D01*
X1176730Y1211526D01*
Y1210474D01*
X1177474Y1209730D01*
X1178526D01*
X1179270Y1210474D01*
Y1211526D01*
X1178526Y1212270D01*
D02*
G37*
G36*
X947276Y1208270D02*
X946224D01*
X945480Y1207526D01*
Y1206474D01*
X946224Y1205730D01*
X947276D01*
X948020Y1206474D01*
Y1207526D01*
X947276Y1208270D01*
D02*
G37*
G36*
X789276Y1207770D02*
X788224D01*
X787480Y1207026D01*
Y1205974D01*
X788224Y1205230D01*
X789276D01*
X790020Y1205974D01*
Y1207026D01*
X789276Y1207770D01*
D02*
G37*
G36*
X1147418Y1203802D02*
X1146365D01*
X1145621Y1203058D01*
Y1202006D01*
X1146365Y1201262D01*
X1147418D01*
X1148161Y1202006D01*
Y1203058D01*
X1147418Y1203802D01*
D02*
G37*
G36*
X570120Y1214354D02*
X568381D01*
X566701Y1213904D01*
X565195Y1213035D01*
X563966Y1211805D01*
X563096Y1210299D01*
X562646Y1208620D01*
Y1206881D01*
X563096Y1205201D01*
X563966Y1203695D01*
X565195Y1202466D01*
X566701Y1201596D01*
X568381Y1201146D01*
X570120D01*
X571799Y1201596D01*
X573305Y1202466D01*
X574535Y1203695D01*
X575404Y1205201D01*
X575854Y1206881D01*
Y1208620D01*
X575404Y1210299D01*
X574535Y1211805D01*
X573305Y1213035D01*
X571799Y1213904D01*
X570120Y1214354D01*
D02*
G37*
G36*
X550869Y1214104D02*
X549131D01*
X547451Y1213654D01*
X545945Y1212785D01*
X544716Y1211555D01*
X543846Y1210049D01*
X543396Y1208370D01*
Y1206631D01*
X543846Y1204951D01*
X544716Y1203445D01*
X545945Y1202216D01*
X547451Y1201346D01*
X549131Y1200896D01*
X550869D01*
X552549Y1201346D01*
X554055Y1202216D01*
X555285Y1203445D01*
X556154Y1204951D01*
X556604Y1206631D01*
Y1208370D01*
X556154Y1210049D01*
X555285Y1211555D01*
X554055Y1212785D01*
X552549Y1213654D01*
X550869Y1214104D01*
D02*
G37*
G36*
X531869Y1213854D02*
X530130D01*
X528451Y1213404D01*
X526945Y1212535D01*
X525715Y1211305D01*
X524846Y1209799D01*
X524396Y1208120D01*
Y1206381D01*
X524846Y1204701D01*
X525715Y1203195D01*
X526945Y1201966D01*
X528451Y1201096D01*
X530130Y1200646D01*
X531869D01*
X533549Y1201096D01*
X535055Y1201966D01*
X536284Y1203195D01*
X537154Y1204701D01*
X537604Y1206381D01*
Y1208120D01*
X537154Y1209799D01*
X536284Y1211305D01*
X535055Y1212535D01*
X533549Y1213404D01*
X531869Y1213854D01*
D02*
G37*
G36*
X512870D02*
X511131D01*
X509451Y1213404D01*
X507945Y1212535D01*
X506716Y1211305D01*
X505846Y1209799D01*
X505396Y1208120D01*
Y1206381D01*
X505846Y1204701D01*
X506716Y1203195D01*
X507945Y1201966D01*
X509451Y1201096D01*
X511131Y1200646D01*
X512870D01*
X514549Y1201096D01*
X516055Y1201966D01*
X517285Y1203195D01*
X518154Y1204701D01*
X518604Y1206381D01*
Y1208120D01*
X518154Y1209799D01*
X517285Y1211305D01*
X516055Y1212535D01*
X514549Y1213404D01*
X512870Y1213854D01*
D02*
G37*
G36*
X1040280Y1201461D02*
X1039228D01*
X1038484Y1200718D01*
Y1199665D01*
X1039228Y1198922D01*
X1040280D01*
X1041024Y1199665D01*
Y1200718D01*
X1040280Y1201461D01*
D02*
G37*
G36*
X481295Y1206254D02*
X479205D01*
X477274Y1205454D01*
X475796Y1203976D01*
X474996Y1202045D01*
Y1199955D01*
X475796Y1198024D01*
X475855Y1197965D01*
X471755Y1193866D01*
X471473Y1193186D01*
Y1167166D01*
X471166Y1166858D01*
Y1165806D01*
X471909Y1165062D01*
X472962D01*
X473706Y1165806D01*
Y1166858D01*
X473398Y1167166D01*
Y1192787D01*
X477215Y1196605D01*
X477274Y1196546D01*
X479205Y1195746D01*
X481295D01*
X483226Y1196546D01*
X484704Y1198024D01*
X485504Y1199955D01*
Y1202045D01*
X484704Y1203976D01*
X483226Y1205454D01*
X481295Y1206254D01*
D02*
G37*
G36*
X886036Y1198106D02*
X884984D01*
X884240Y1197362D01*
Y1196310D01*
X884984Y1195566D01*
X886036D01*
X886780Y1196310D01*
Y1197362D01*
X886036Y1198106D01*
D02*
G37*
G36*
X485500Y1214212D02*
X451250D01*
X450570Y1213930D01*
X439570Y1202930D01*
X439288Y1202250D01*
Y1188584D01*
X438980Y1188276D01*
Y1187224D01*
X439724Y1186480D01*
X440776D01*
X441520Y1187224D01*
Y1188276D01*
X441212Y1188584D01*
Y1201851D01*
X451649Y1212288D01*
X485101D01*
X508820Y1188570D01*
X509500Y1188288D01*
X1268416D01*
X1268724Y1187980D01*
X1269776D01*
X1270520Y1188724D01*
Y1189776D01*
X1269776Y1190520D01*
X1268724D01*
X1268416Y1190212D01*
X509899D01*
X486180Y1213930D01*
X485500Y1214212D01*
D02*
G37*
G36*
X450026Y1189020D02*
X448974D01*
X448230Y1188276D01*
Y1187224D01*
X448974Y1186480D01*
X450026D01*
X450770Y1187224D01*
Y1188276D01*
X450026Y1189020D01*
D02*
G37*
G36*
X371000Y1248462D02*
X201250D01*
X200570Y1248180D01*
X146070Y1193681D01*
X145788Y1193000D01*
Y1079149D01*
X141409Y1074770D01*
X140974D01*
X140230Y1074026D01*
Y1072974D01*
X140974Y1072230D01*
X142026D01*
X142770Y1072974D01*
Y1073409D01*
X147431Y1078070D01*
X147712Y1078750D01*
Y1192602D01*
X201649Y1246538D01*
X370602D01*
X407538Y1209601D01*
Y1188230D01*
X407230Y1187922D01*
Y1186870D01*
X407974Y1186126D01*
X409026D01*
X409770Y1186870D01*
Y1187922D01*
X409463Y1188230D01*
Y1210000D01*
X409181Y1210680D01*
X371681Y1248180D01*
X371000Y1248462D01*
D02*
G37*
G36*
X374500Y1253712D02*
X199750D01*
X199069Y1253431D01*
X140820Y1195180D01*
X140538Y1194500D01*
Y1098334D01*
X140230Y1098026D01*
Y1096974D01*
X140974Y1096230D01*
X142026D01*
X142770Y1096974D01*
Y1098026D01*
X142462Y1098334D01*
Y1194101D01*
X200148Y1251788D01*
X374102D01*
X415038Y1210852D01*
Y1187804D01*
X414730Y1187496D01*
Y1186444D01*
X415474Y1185700D01*
X416526D01*
X417270Y1186444D01*
Y1187496D01*
X416962Y1187804D01*
Y1211250D01*
X416680Y1211931D01*
X375181Y1253431D01*
X374500Y1253712D01*
D02*
G37*
G36*
X354504Y1202504D02*
X343996D01*
Y1192996D01*
X349288D01*
Y1186334D01*
X348980Y1186026D01*
Y1184974D01*
X349724Y1184230D01*
X350776D01*
X351520Y1184974D01*
Y1186026D01*
X351212Y1186334D01*
Y1192996D01*
X354504D01*
Y1202504D01*
D02*
G37*
G36*
X488462Y1186352D02*
X487410D01*
X486666Y1185608D01*
Y1184556D01*
X487410Y1183812D01*
X488462D01*
X489206Y1184556D01*
Y1185608D01*
X488462Y1186352D01*
D02*
G37*
G36*
X483962Y1186102D02*
X482910D01*
X482166Y1185358D01*
Y1184306D01*
X482910Y1183562D01*
X483962D01*
X484706Y1184306D01*
Y1185358D01*
X483962Y1186102D01*
D02*
G37*
G36*
X373295Y1201504D02*
X371205D01*
X369274Y1200704D01*
X367796Y1199226D01*
X366996Y1197295D01*
Y1195205D01*
X367796Y1193274D01*
X369274Y1191796D01*
X371205Y1190996D01*
X371288D01*
Y1168584D01*
X370980Y1168276D01*
Y1167224D01*
X371724Y1166480D01*
X372776D01*
X373520Y1167224D01*
Y1168276D01*
X373212Y1168584D01*
Y1190996D01*
X373295D01*
X375226Y1191796D01*
X376704Y1193274D01*
X377504Y1195205D01*
Y1197295D01*
X376704Y1199226D01*
X375226Y1200704D01*
X373295Y1201504D01*
D02*
G37*
G36*
X404719Y1169020D02*
X403667D01*
X402923Y1168276D01*
Y1167224D01*
X403667Y1166480D01*
X404719D01*
X405463Y1167224D01*
Y1168276D01*
X404719Y1169020D01*
D02*
G37*
G36*
X396719D02*
X395667D01*
X394923Y1168276D01*
Y1167224D01*
X395667Y1166480D01*
X396719D01*
X397463Y1167224D01*
Y1168276D01*
X396719Y1169020D01*
D02*
G37*
G36*
X392719D02*
X391667D01*
X390923Y1168276D01*
Y1167224D01*
X391667Y1166480D01*
X392719D01*
X393463Y1167224D01*
Y1168276D01*
X392719Y1169020D01*
D02*
G37*
G36*
X384719D02*
X383667D01*
X382923Y1168276D01*
Y1167224D01*
X383667Y1166480D01*
X384719D01*
X385463Y1167224D01*
Y1168276D01*
X384719Y1169020D01*
D02*
G37*
G36*
X380719D02*
X379667D01*
X378923Y1168276D01*
Y1167224D01*
X379667Y1166480D01*
X380719D01*
X381463Y1167224D01*
Y1168276D01*
X380719Y1169020D01*
D02*
G37*
G36*
X329526Y1168270D02*
X328474D01*
X327730Y1167526D01*
Y1166474D01*
X328474Y1165730D01*
X329526D01*
X330270Y1166474D01*
Y1167526D01*
X329526Y1168270D01*
D02*
G37*
G36*
X496276Y1167770D02*
X495224D01*
X494480Y1167026D01*
Y1165974D01*
X495224Y1165230D01*
X496276D01*
X496506Y1165459D01*
X496740Y1165362D01*
Y1165002D01*
X497484Y1164258D01*
X498536D01*
X499280Y1165002D01*
Y1166054D01*
X498536Y1166798D01*
X497484D01*
X497255Y1166568D01*
X497020Y1166665D01*
Y1167026D01*
X496276Y1167770D01*
D02*
G37*
G36*
X460564Y1166604D02*
X459512D01*
X458768Y1165860D01*
Y1164808D01*
X459512Y1164064D01*
X460564D01*
X461308Y1164808D01*
Y1165860D01*
X460564Y1166604D01*
D02*
G37*
G36*
X508026Y1168520D02*
X506974D01*
X506230Y1167776D01*
Y1166724D01*
X506847Y1166107D01*
X506230Y1165490D01*
Y1164438D01*
X506974Y1163694D01*
X508026D01*
X508770Y1164438D01*
Y1165490D01*
X508153Y1166107D01*
X508770Y1166724D01*
Y1167776D01*
X508026Y1168520D01*
D02*
G37*
G36*
X571026Y1164770D02*
X569974D01*
X569230Y1164026D01*
Y1162974D01*
X569974Y1162230D01*
X571026D01*
X571770Y1162974D01*
Y1164026D01*
X571026Y1164770D01*
D02*
G37*
G36*
X347330Y1163216D02*
X346278D01*
X345534Y1162472D01*
Y1161420D01*
X346278Y1160676D01*
X347330D01*
X348074Y1161420D01*
Y1162472D01*
X347330Y1163216D01*
D02*
G37*
G36*
X338045Y1183504D02*
X335955D01*
X334024Y1182704D01*
X332546Y1181226D01*
X331746Y1179295D01*
Y1177205D01*
X332546Y1175274D01*
X334024Y1173796D01*
X335955Y1172996D01*
X336125D01*
Y1161750D01*
X336230Y1161497D01*
Y1161224D01*
X336423Y1161031D01*
X336528Y1160778D01*
X336781Y1160673D01*
X336974Y1160480D01*
X337248D01*
X337500Y1160376D01*
X337753Y1160480D01*
X338026D01*
X338219Y1160673D01*
X338472Y1160778D01*
X338577Y1161031D01*
X338770Y1161224D01*
Y1161497D01*
X338875Y1161750D01*
Y1173340D01*
X339976Y1173796D01*
X341454Y1175274D01*
X342254Y1177205D01*
Y1179295D01*
X341454Y1181226D01*
X339976Y1182704D01*
X338045Y1183504D01*
D02*
G37*
G36*
X356026Y1162770D02*
X354974D01*
X354230Y1162026D01*
Y1160974D01*
X354974Y1160230D01*
X356026D01*
X356770Y1160974D01*
Y1162026D01*
X356026Y1162770D01*
D02*
G37*
G36*
X360776Y1162270D02*
X359724D01*
X358980Y1161526D01*
Y1160474D01*
X359724Y1159730D01*
X360776D01*
X361520Y1160474D01*
Y1161526D01*
X360776Y1162270D01*
D02*
G37*
G36*
X410776Y1159770D02*
X409724D01*
X408980Y1159026D01*
Y1157974D01*
X409724Y1157230D01*
X410776D01*
X411520Y1157974D01*
Y1159026D01*
X410776Y1159770D01*
D02*
G37*
G36*
X354681Y1158216D02*
X353629D01*
X352885Y1157472D01*
Y1156420D01*
X353629Y1155676D01*
X354681D01*
X355425Y1156420D01*
Y1157472D01*
X354681Y1158216D01*
D02*
G37*
G36*
X364830Y1157466D02*
X363778D01*
X363034Y1156722D01*
Y1155670D01*
X363778Y1154926D01*
X364830D01*
X365574Y1155670D01*
Y1156722D01*
X364830Y1157466D01*
D02*
G37*
G36*
X947526Y1149270D02*
X946474D01*
X945730Y1148526D01*
Y1147474D01*
X946474Y1146730D01*
X947526D01*
X948270Y1147474D01*
Y1148526D01*
X947526Y1149270D01*
D02*
G37*
G36*
X685004Y1171212D02*
X681382D01*
X677884Y1170275D01*
X674748Y1168465D01*
X672187Y1165904D01*
X670376Y1162767D01*
X669439Y1159269D01*
Y1155648D01*
X670376Y1152150D01*
X672187Y1149013D01*
X674748Y1146453D01*
X677884Y1144642D01*
X681382Y1143705D01*
X685004D01*
X688502Y1144642D01*
X691638Y1146453D01*
X694199Y1149013D01*
X696010Y1152150D01*
X696947Y1155648D01*
Y1159269D01*
X696010Y1162767D01*
X694199Y1165904D01*
X691638Y1168465D01*
X688502Y1170275D01*
X685004Y1171212D01*
D02*
G37*
G36*
X205004D02*
X201382D01*
X197884Y1170275D01*
X194748Y1168465D01*
X192187Y1165904D01*
X190376Y1162767D01*
X189439Y1159269D01*
Y1155648D01*
X190376Y1152150D01*
X192187Y1149013D01*
X194748Y1146453D01*
X197884Y1144642D01*
X201382Y1143705D01*
X205004D01*
X208502Y1144642D01*
X211638Y1146453D01*
X214199Y1149013D01*
X216010Y1152150D01*
X216947Y1155648D01*
Y1159269D01*
X216010Y1162767D01*
X214199Y1165904D01*
X211638Y1168465D01*
X208502Y1170275D01*
X205004Y1171212D01*
D02*
G37*
G36*
X1501767Y1168074D02*
X1498146D01*
X1494648Y1167137D01*
X1491511Y1165326D01*
X1488951Y1162765D01*
X1487140Y1159629D01*
X1486203Y1156131D01*
Y1152509D01*
X1487140Y1149011D01*
X1488951Y1145875D01*
X1491511Y1143314D01*
X1494648Y1141503D01*
X1498146Y1140566D01*
X1501767D01*
X1505265Y1141503D01*
X1508402Y1143314D01*
X1510963Y1145875D01*
X1512773Y1149011D01*
X1513710Y1152509D01*
Y1156131D01*
X1512773Y1159629D01*
X1510963Y1162765D01*
X1508402Y1165326D01*
X1505265Y1167137D01*
X1501767Y1168074D01*
D02*
G37*
G36*
X101767D02*
X98146D01*
X94647Y1167137D01*
X91511Y1165326D01*
X88950Y1162765D01*
X87140Y1159629D01*
X86202Y1156131D01*
Y1152509D01*
X87140Y1149011D01*
X88950Y1145875D01*
X91511Y1143314D01*
X94647Y1141503D01*
X98146Y1140566D01*
X101767D01*
X105265Y1141503D01*
X108401Y1143314D01*
X110962Y1145875D01*
X112773Y1149011D01*
X113710Y1152509D01*
Y1156131D01*
X112773Y1159629D01*
X110962Y1162765D01*
X108401Y1165326D01*
X105265Y1167137D01*
X101767Y1168074D01*
D02*
G37*
G36*
X1419526Y1139924D02*
X1418474D01*
X1417730Y1139181D01*
Y1138128D01*
X1418474Y1137384D01*
X1419526D01*
X1420270Y1138128D01*
Y1139181D01*
X1419526Y1139924D01*
D02*
G37*
G36*
X485295Y1167754D02*
X483205D01*
X481274Y1166954D01*
X479796Y1165476D01*
X478996Y1163545D01*
Y1161455D01*
X479796Y1159524D01*
X481274Y1158046D01*
X483205Y1157246D01*
X483288D01*
Y1140899D01*
X476659Y1134270D01*
X476224D01*
X475480Y1133526D01*
Y1132474D01*
X476224Y1131730D01*
X477276D01*
X478020Y1132474D01*
Y1132909D01*
X484931Y1139820D01*
X485212Y1140500D01*
Y1157246D01*
X485295D01*
X487226Y1158046D01*
X488704Y1159524D01*
X489504Y1161455D01*
Y1163545D01*
X488704Y1165476D01*
X487226Y1166954D01*
X485295Y1167754D01*
D02*
G37*
G36*
X493776Y1155520D02*
X492724D01*
X491980Y1154776D01*
Y1153724D01*
X492288Y1153416D01*
Y1130112D01*
X491928Y1129752D01*
X491476Y1130204D01*
X489545Y1131004D01*
X487455D01*
X485524Y1130204D01*
X484046Y1128726D01*
X483246Y1126795D01*
Y1124705D01*
X484046Y1122774D01*
X485524Y1121296D01*
X487455Y1120496D01*
X489545D01*
X491476Y1121296D01*
X492954Y1122774D01*
X493754Y1124705D01*
Y1126795D01*
X493150Y1128253D01*
X493930Y1129033D01*
X494212Y1129713D01*
Y1153416D01*
X494520Y1153724D01*
Y1154776D01*
X493776Y1155520D01*
D02*
G37*
G36*
X514276Y1132770D02*
X513224D01*
X512480Y1132026D01*
Y1130974D01*
X513224Y1130230D01*
X514097D01*
Y1129358D01*
X514841Y1128614D01*
X515893D01*
X516637Y1129358D01*
Y1130410D01*
X515893Y1131154D01*
X515020D01*
Y1132026D01*
X514276Y1132770D01*
D02*
G37*
G36*
X390054Y1139345D02*
X388887Y1138862D01*
X388640Y1138615D01*
X388157Y1137448D01*
Y1130754D01*
X384552D01*
Y1120246D01*
X395060D01*
Y1123851D01*
X399317D01*
X399388Y1123780D01*
X400554Y1123297D01*
X401721Y1123780D01*
X402204Y1124946D01*
X401721Y1126113D01*
X401166Y1126667D01*
X400000Y1127150D01*
X395060D01*
Y1130754D01*
X391456D01*
Y1137099D01*
X391703Y1137696D01*
X391220Y1138862D01*
X390054Y1139345D01*
D02*
G37*
G36*
X330750Y1139375D02*
X330497Y1139270D01*
X330224D01*
X330031Y1139077D01*
X329778Y1138972D01*
X329673Y1138719D01*
X329480Y1138526D01*
Y1138253D01*
X329375Y1138000D01*
Y1131004D01*
X326052D01*
Y1120496D01*
X336560D01*
Y1122254D01*
X345052D01*
Y1120496D01*
X355560D01*
Y1131004D01*
X349017D01*
Y1132608D01*
X349017Y1132608D01*
X348614Y1133580D01*
X348614Y1133580D01*
X345722Y1136472D01*
X345469Y1136577D01*
X345276Y1136770D01*
X345003D01*
X344750Y1136875D01*
X344497Y1136770D01*
X344224D01*
X344030Y1136577D01*
X343778Y1136472D01*
X343673Y1136220D01*
X343480Y1136026D01*
Y1135753D01*
X343375Y1135500D01*
X343480Y1135247D01*
Y1134974D01*
X343673Y1134781D01*
X343778Y1134528D01*
X346268Y1132038D01*
Y1131004D01*
X345052D01*
Y1129246D01*
X336560D01*
Y1131004D01*
X332124D01*
Y1138000D01*
X332020Y1138253D01*
Y1138526D01*
X331827Y1138719D01*
X331722Y1138972D01*
X331469Y1139077D01*
X331276Y1139270D01*
X331003D01*
X330750Y1139375D01*
D02*
G37*
G36*
X371250Y1140096D02*
X370084Y1139613D01*
X369601Y1138446D01*
Y1130796D01*
X365369D01*
Y1120288D01*
X375877D01*
Y1130796D01*
X372900D01*
Y1138446D01*
X372417Y1139613D01*
X371250Y1140096D01*
D02*
G37*
G36*
X495550Y1115574D02*
X494498D01*
X493754Y1114830D01*
Y1113778D01*
X494498Y1113034D01*
X495550D01*
X496294Y1113778D01*
Y1114830D01*
X495550Y1115574D01*
D02*
G37*
G36*
X498393Y1112654D02*
X497341D01*
X496597Y1111909D01*
Y1110857D01*
X497341Y1110114D01*
X498393D01*
X499137Y1110857D01*
Y1111909D01*
X498393Y1112654D01*
D02*
G37*
G36*
X820504Y1108254D02*
X809996D01*
Y1097746D01*
X814004D01*
Y1084742D01*
X813696Y1084434D01*
Y1083382D01*
X814440Y1082638D01*
X815492D01*
X816236Y1083382D01*
Y1084434D01*
X815928Y1084742D01*
Y1097746D01*
X820504D01*
Y1102196D01*
X828132D01*
X828440Y1101888D01*
X829492D01*
X830236Y1102632D01*
Y1103684D01*
X829492Y1104428D01*
X828440D01*
X828132Y1104120D01*
X820504D01*
Y1108254D01*
D02*
G37*
G36*
X432526Y1104146D02*
X431474D01*
X430730Y1103401D01*
Y1102349D01*
X431474Y1101606D01*
X432526D01*
X433270Y1102349D01*
Y1103401D01*
X432526Y1104146D01*
D02*
G37*
G36*
X989254Y1108254D02*
X978746D01*
Y1097746D01*
X983266D01*
Y1086505D01*
X982958Y1086198D01*
Y1085145D01*
X983702Y1084401D01*
X984754D01*
X985498Y1085145D01*
Y1086198D01*
X985190Y1086505D01*
Y1097746D01*
X989254D01*
Y1102038D01*
X998708D01*
Y1101896D01*
X999452Y1101152D01*
X1000504D01*
X1001248Y1101896D01*
Y1102948D01*
X1000504Y1103692D01*
X999846D01*
X999193Y1103962D01*
X989254D01*
Y1108254D01*
D02*
G37*
G36*
X412719Y1101270D02*
X411667D01*
X410923Y1100526D01*
Y1099474D01*
X411667Y1098730D01*
X412719D01*
X413463Y1099474D01*
Y1100526D01*
X412719Y1101270D01*
D02*
G37*
G36*
X404719D02*
X403667D01*
X402923Y1100526D01*
Y1099474D01*
X403667Y1098730D01*
X404719D01*
X405463Y1099474D01*
Y1100526D01*
X404719Y1101270D01*
D02*
G37*
G36*
X1158948Y1102754D02*
X1148440D01*
Y1092246D01*
X1152731D01*
Y1083298D01*
X1152703Y1083270D01*
X1152474D01*
X1151730Y1082526D01*
Y1081474D01*
X1152474Y1080730D01*
X1153526D01*
X1154270Y1081474D01*
Y1082116D01*
X1154374Y1082220D01*
X1154516Y1082562D01*
X1154656Y1082900D01*
Y1092246D01*
X1158948D01*
Y1096288D01*
X1164916D01*
X1165224Y1095980D01*
X1166276D01*
X1167020Y1096724D01*
Y1097776D01*
X1166276Y1098520D01*
X1165224D01*
X1164916Y1098212D01*
X1158948D01*
Y1102754D01*
D02*
G37*
G36*
X389747Y1094132D02*
X388695D01*
X387951Y1093388D01*
Y1092336D01*
X388695Y1091592D01*
X389747D01*
X390491Y1092336D01*
Y1093388D01*
X389747Y1094132D01*
D02*
G37*
G36*
X62504Y1107904D02*
X42496D01*
Y1087896D01*
X62504D01*
Y1107904D01*
D02*
G37*
G36*
X357026Y1084770D02*
X355974D01*
X355230Y1084026D01*
Y1082974D01*
X355974Y1082230D01*
X357026D01*
X357770Y1082974D01*
Y1084026D01*
X357026Y1084770D01*
D02*
G37*
G36*
X464776Y1082270D02*
X463724D01*
X462980Y1081526D01*
Y1080474D01*
X463724Y1079730D01*
X464776D01*
X465520Y1080474D01*
Y1081526D01*
X464776Y1082270D01*
D02*
G37*
G36*
X452776Y1076020D02*
X451724D01*
X450980Y1075276D01*
Y1074224D01*
X451724Y1073480D01*
X452776D01*
X453520Y1074224D01*
Y1075276D01*
X452776Y1076020D01*
D02*
G37*
G36*
X53817Y1082504D02*
X51183D01*
X48639Y1081822D01*
X46357Y1080505D01*
X44495Y1078643D01*
X43178Y1076361D01*
X42496Y1073817D01*
Y1071183D01*
X43178Y1068639D01*
X44495Y1066357D01*
X46357Y1064495D01*
X48639Y1063178D01*
X51183Y1062496D01*
X53817D01*
X56361Y1063178D01*
X58643Y1064495D01*
X60505Y1066357D01*
X61822Y1068639D01*
X62504Y1071183D01*
Y1073817D01*
X61822Y1076361D01*
X60505Y1078643D01*
X58643Y1080505D01*
X56361Y1081822D01*
X53817Y1082504D01*
D02*
G37*
G36*
X1306026Y1057020D02*
X1304974D01*
X1304230Y1056276D01*
Y1055224D01*
X1304974Y1054480D01*
X1306026D01*
X1306770Y1055224D01*
Y1056276D01*
X1306026Y1057020D01*
D02*
G37*
G36*
X1157276Y1030020D02*
X1156224D01*
X1155480Y1029276D01*
Y1028224D01*
X1156224Y1027480D01*
X1157276D01*
X1158020Y1028224D01*
Y1029276D01*
X1157276Y1030020D01*
D02*
G37*
G36*
X1153276D02*
X1152224D01*
X1151480Y1029276D01*
Y1028224D01*
X1152224Y1027480D01*
X1153276D01*
X1154020Y1028224D01*
Y1029276D01*
X1153276Y1030020D01*
D02*
G37*
G36*
X1149276D02*
X1148224D01*
X1147480Y1029276D01*
Y1028224D01*
X1148224Y1027480D01*
X1149276D01*
X1150020Y1028224D01*
Y1029276D01*
X1149276Y1030020D01*
D02*
G37*
G36*
X1145276D02*
X1144224D01*
X1143480Y1029276D01*
Y1028224D01*
X1144224Y1027480D01*
X1145276D01*
X1146020Y1028224D01*
Y1029276D01*
X1145276Y1030020D01*
D02*
G37*
G36*
X1141276D02*
X1140224D01*
X1139480Y1029276D01*
Y1028224D01*
X1140224Y1027480D01*
X1141276D01*
X1142020Y1028224D01*
Y1029276D01*
X1141276Y1030020D01*
D02*
G37*
G36*
X1137276D02*
X1136224D01*
X1135480Y1029276D01*
Y1028224D01*
X1136224Y1027480D01*
X1137276D01*
X1138020Y1028224D01*
Y1029276D01*
X1137276Y1030020D01*
D02*
G37*
G36*
X976776Y1026270D02*
X975724D01*
X974980Y1025526D01*
Y1024474D01*
X975724Y1023730D01*
X976776D01*
X977520Y1024474D01*
Y1025526D01*
X976776Y1026270D01*
D02*
G37*
G36*
X968526Y1026020D02*
X967474D01*
X966730Y1025276D01*
Y1024224D01*
X967474Y1023480D01*
X968526D01*
X969270Y1024224D01*
Y1025276D01*
X968526Y1026020D01*
D02*
G37*
G36*
X994776Y1025770D02*
X993724D01*
X992980Y1025026D01*
Y1023974D01*
X993724Y1023230D01*
X994776D01*
X995520Y1023974D01*
Y1025026D01*
X994776Y1025770D01*
D02*
G37*
G36*
X960776D02*
X959724D01*
X958980Y1025026D01*
Y1023974D01*
X959724Y1023230D01*
X960776D01*
X961520Y1023974D01*
Y1025026D01*
X960776Y1025770D01*
D02*
G37*
G36*
X986276Y1025520D02*
X985224D01*
X984480Y1024776D01*
Y1023724D01*
X985224Y1022980D01*
X986276D01*
X987020Y1023724D01*
Y1024776D01*
X986276Y1025520D01*
D02*
G37*
G36*
X953276D02*
X952224D01*
X951480Y1024776D01*
Y1023724D01*
X952224Y1022980D01*
X953276D01*
X954020Y1023724D01*
Y1024776D01*
X953276Y1025520D01*
D02*
G37*
G36*
X693526Y1022020D02*
X692474D01*
X691730Y1021276D01*
Y1020224D01*
X692474Y1019480D01*
X693526D01*
X694270Y1020224D01*
Y1021276D01*
X693526Y1022020D01*
D02*
G37*
G36*
X117754Y1022754D02*
X107246D01*
Y1018462D01*
X101084D01*
X100776Y1018770D01*
X99724D01*
X98980Y1018026D01*
Y1016974D01*
X99724Y1016230D01*
X100776D01*
X101084Y1016538D01*
X107246D01*
Y1012246D01*
X117754D01*
Y1022754D01*
D02*
G37*
G36*
X715276Y1014770D02*
X714224D01*
X713480Y1014026D01*
Y1012974D01*
X714224Y1012230D01*
X715276D01*
X716020Y1012974D01*
Y1014026D01*
X715276Y1014770D01*
D02*
G37*
G36*
X743276Y1013020D02*
X742224D01*
X741480Y1012276D01*
Y1011224D01*
X742224Y1010480D01*
X743276D01*
X744020Y1011224D01*
Y1012276D01*
X743276Y1013020D01*
D02*
G37*
G36*
X743026Y1008270D02*
X741974D01*
X741230Y1007526D01*
Y1006474D01*
X741974Y1005730D01*
X743026D01*
X743770Y1006474D01*
Y1007526D01*
X743026Y1008270D01*
D02*
G37*
G36*
X118004Y1004004D02*
X107496D01*
Y999713D01*
X101456D01*
X100776Y999431D01*
X100615Y999270D01*
X99974D01*
X99230Y998526D01*
Y997474D01*
X99974Y996730D01*
X101026D01*
X101770Y997474D01*
Y997703D01*
X101855Y997788D01*
X107496D01*
Y993496D01*
X118004D01*
Y1004004D01*
D02*
G37*
G36*
Y985254D02*
X107496D01*
Y980962D01*
X100956D01*
X100492Y980770D01*
X99724D01*
X98980Y980026D01*
Y978974D01*
X99724Y978230D01*
X100776D01*
X101520Y978974D01*
Y979038D01*
X107496D01*
Y974746D01*
X118004D01*
Y985254D01*
D02*
G37*
G36*
X787526Y962270D02*
X786474D01*
X785730Y961526D01*
Y960474D01*
X786474Y959730D01*
X787526D01*
X788270Y960474D01*
Y961526D01*
X787526Y962270D01*
D02*
G37*
G36*
X805776Y961520D02*
X804724D01*
X803980Y960776D01*
Y959724D01*
X804724Y958980D01*
X805776D01*
X806520Y959724D01*
Y960776D01*
X805776Y961520D01*
D02*
G37*
G36*
X769026D02*
X767974D01*
X767230Y960776D01*
Y959724D01*
X767974Y958980D01*
X769026D01*
X769770Y959724D01*
Y960776D01*
X769026Y961520D01*
D02*
G37*
G36*
X862776Y961020D02*
X861724D01*
X860980Y960276D01*
Y959224D01*
X861724Y958480D01*
X862776D01*
X863520Y959224D01*
Y960276D01*
X862776Y961020D01*
D02*
G37*
G36*
X825776Y960770D02*
X824724D01*
X823980Y960026D01*
Y958974D01*
X824724Y958230D01*
X825776D01*
X826520Y958974D01*
Y960026D01*
X825776Y960770D01*
D02*
G37*
G36*
X845276Y959770D02*
X844224D01*
X843480Y959026D01*
Y957974D01*
X844224Y957230D01*
X845276D01*
X846020Y957974D01*
Y959026D01*
X845276Y959770D01*
D02*
G37*
G36*
X1132026Y944770D02*
X1130974D01*
X1130230Y944026D01*
Y942974D01*
X1130974Y942230D01*
X1132026D01*
X1132770Y942974D01*
Y944026D01*
X1132026Y944770D01*
D02*
G37*
G36*
X93026Y934020D02*
X91974D01*
X91230Y933276D01*
Y932224D01*
X91974Y931480D01*
X93026D01*
X93770Y932224D01*
Y933276D01*
X93026Y934020D01*
D02*
G37*
G36*
X86526D02*
X85474D01*
X84730Y933276D01*
Y932224D01*
X85474Y931480D01*
X86526D01*
X87270Y932224D01*
Y933276D01*
X86526Y934020D01*
D02*
G37*
G36*
X1143607Y933495D02*
X1142555D01*
X1141811Y932751D01*
Y931699D01*
X1142555Y930955D01*
X1143607D01*
X1144351Y931699D01*
Y932751D01*
X1143607Y933495D01*
D02*
G37*
G36*
X112026Y932520D02*
X110974D01*
X110230Y931776D01*
Y930724D01*
X110974Y929980D01*
X112026D01*
X112770Y930724D01*
Y931776D01*
X112026Y932520D01*
D02*
G37*
G36*
X124276Y928520D02*
X123224D01*
X122916Y928213D01*
X108500D01*
X107820Y927931D01*
X70570Y890680D01*
X70288Y890000D01*
Y819750D01*
X70570Y819070D01*
X77320Y812320D01*
X78000Y812038D01*
X83246D01*
Y807496D01*
X86788D01*
Y799754D01*
X86705D01*
X84774Y798954D01*
X83296Y797476D01*
X82496Y795545D01*
Y793455D01*
X83296Y791524D01*
X84774Y790046D01*
X86705Y789246D01*
X88795D01*
X90726Y790046D01*
X92204Y791524D01*
X93004Y793455D01*
Y795545D01*
X92204Y797476D01*
X90726Y798954D01*
X88795Y799754D01*
X88712D01*
Y807496D01*
X92754D01*
Y818004D01*
X83246D01*
Y813962D01*
X78399D01*
X72212Y820149D01*
Y889601D01*
X108899Y926288D01*
X122916D01*
X123224Y925980D01*
X124276D01*
X125020Y926724D01*
Y927776D01*
X124276Y928520D01*
D02*
G37*
G36*
X70276Y925020D02*
X69224D01*
X68480Y924276D01*
Y923224D01*
X69224Y922480D01*
X70276D01*
X71020Y923224D01*
Y924276D01*
X70276Y925020D01*
D02*
G37*
G36*
X1049526Y924020D02*
X1048474D01*
X1047730Y923276D01*
Y922224D01*
X1048474Y921480D01*
X1049526D01*
X1050270Y922224D01*
Y923276D01*
X1049526Y924020D01*
D02*
G37*
G36*
X64776Y918020D02*
X63724D01*
X62980Y917276D01*
Y916224D01*
X63724Y915480D01*
X64776D01*
X65520Y916224D01*
Y917276D01*
X64776Y918020D01*
D02*
G37*
G36*
X1100776Y916020D02*
X1099724D01*
X1098980Y915276D01*
Y914224D01*
X1099724Y913480D01*
X1100776D01*
X1101520Y914224D01*
Y915276D01*
X1100776Y916020D01*
D02*
G37*
G36*
X972276Y915770D02*
X971224D01*
X970480Y915026D01*
Y913974D01*
X971224Y913230D01*
X972276D01*
X973020Y913974D01*
Y915026D01*
X972276Y915770D01*
D02*
G37*
G36*
X144276Y900770D02*
X143224D01*
X142480Y900026D01*
Y898974D01*
X143224Y898230D01*
X144276D01*
X145020Y898974D01*
Y900026D01*
X144276Y900770D01*
D02*
G37*
G36*
X750776Y899270D02*
X749724D01*
X748980Y898526D01*
Y897474D01*
X749724Y896730D01*
X750776D01*
X751520Y897474D01*
Y898526D01*
X750776Y899270D01*
D02*
G37*
G36*
X745026Y892770D02*
X743974D01*
X743230Y892026D01*
Y890974D01*
X743974Y890230D01*
X745026D01*
X745770Y890974D01*
Y892026D01*
X745026Y892770D01*
D02*
G37*
G36*
X1030052Y886540D02*
X1029000D01*
X1028256Y885796D01*
Y884744D01*
X1029000Y884000D01*
X1030052D01*
X1030796Y884744D01*
Y885796D01*
X1030052Y886540D01*
D02*
G37*
G36*
X739526Y886020D02*
X738474D01*
X737730Y885276D01*
Y884224D01*
X738474Y883480D01*
X739526D01*
X740270Y884224D01*
Y885276D01*
X739526Y886020D01*
D02*
G37*
G36*
X1072526Y885770D02*
X1071474D01*
X1070730Y885026D01*
Y883974D01*
X1071474Y883230D01*
X1072526D01*
X1073270Y883974D01*
Y885026D01*
X1072526Y885770D01*
D02*
G37*
G36*
X1093776Y880520D02*
X1092724D01*
X1091980Y879776D01*
Y878724D01*
X1092724Y877980D01*
X1093776D01*
X1094520Y878724D01*
Y879776D01*
X1093776Y880520D01*
D02*
G37*
G36*
X1102026Y880270D02*
X1100974D01*
X1100230Y879526D01*
Y878474D01*
X1100974Y877730D01*
X1102026D01*
X1102770Y878474D01*
Y879526D01*
X1102026Y880270D01*
D02*
G37*
G36*
X1076526Y879770D02*
X1075474D01*
X1074730Y879026D01*
Y877974D01*
X1075474Y877230D01*
X1076526D01*
X1077270Y877974D01*
Y879026D01*
X1076526Y879770D01*
D02*
G37*
G36*
X733026Y879520D02*
X731974D01*
X731230Y878776D01*
Y877724D01*
X731974Y876980D01*
X733026D01*
X733770Y877724D01*
Y878776D01*
X733026Y879520D01*
D02*
G37*
G36*
X1009520Y877092D02*
X1008468D01*
X1007724Y876348D01*
Y875296D01*
X1008468Y874552D01*
X1009520D01*
X1010264Y875296D01*
Y876348D01*
X1009520Y877092D01*
D02*
G37*
G36*
X1029786Y877014D02*
X1028733D01*
X1027990Y876270D01*
Y875218D01*
X1028733Y874474D01*
X1029786D01*
X1030529Y875218D01*
Y876270D01*
X1029786Y877014D01*
D02*
G37*
G36*
X725276Y873520D02*
X724224D01*
X723480Y872776D01*
Y871724D01*
X724224Y870980D01*
X725276D01*
X726020Y871724D01*
Y872776D01*
X725276Y873520D01*
D02*
G37*
G36*
X982254Y872504D02*
X972746D01*
Y861996D01*
X982254D01*
Y866288D01*
X988416D01*
X988724Y865980D01*
X989776D01*
X990520Y866724D01*
Y867776D01*
X989776Y868520D01*
X988724D01*
X988416Y868212D01*
X982254D01*
Y872504D01*
D02*
G37*
G36*
X718776Y866770D02*
X717724D01*
X716980Y866026D01*
Y864974D01*
X717724Y864230D01*
X718776D01*
X719520Y864974D01*
Y866026D01*
X718776Y866770D01*
D02*
G37*
G36*
X862026Y858520D02*
X860974D01*
X860230Y857776D01*
Y856724D01*
X860974Y855980D01*
X862026D01*
X862770Y856724D01*
Y857776D01*
X862026Y858520D01*
D02*
G37*
G36*
X1077026Y857270D02*
X1075974D01*
X1075230Y856526D01*
Y855474D01*
X1075974Y854730D01*
X1077026D01*
X1077770Y855474D01*
Y856526D01*
X1077026Y857270D01*
D02*
G37*
G36*
X1068526Y849520D02*
X1067474D01*
X1066730Y848776D01*
Y847724D01*
X1067474Y846980D01*
X1068526D01*
X1069270Y847724D01*
Y848776D01*
X1068526Y849520D01*
D02*
G37*
G36*
X848776Y847520D02*
X847724D01*
X846980Y846776D01*
Y845724D01*
X847724Y844980D01*
X848776D01*
X849520Y845724D01*
Y846776D01*
X848776Y847520D01*
D02*
G37*
G36*
X982254Y855004D02*
X971746D01*
Y844496D01*
X982254D01*
Y848788D01*
X987001D01*
X987681Y849070D01*
X990091Y851480D01*
X990526D01*
X991270Y852224D01*
Y853276D01*
X990526Y854020D01*
X989474D01*
X988730Y853276D01*
Y852841D01*
X986602Y850713D01*
X982254D01*
Y855004D01*
D02*
G37*
G36*
X1555821Y866774D02*
X1552792D01*
X1549866Y865990D01*
X1547243Y864476D01*
X1545101Y862334D01*
X1543586Y859710D01*
X1542802Y856785D01*
Y853756D01*
X1543586Y850830D01*
X1545101Y848207D01*
X1547243Y846065D01*
X1549866Y844550D01*
X1552792Y843766D01*
X1555821D01*
X1558747Y844550D01*
X1561370Y846065D01*
X1563512Y848207D01*
X1565027Y850830D01*
X1565810Y853756D01*
Y856785D01*
X1565027Y859710D01*
X1563512Y862334D01*
X1561370Y864476D01*
X1558747Y865990D01*
X1555821Y866774D01*
D02*
G37*
G36*
X918025Y885770D02*
X916972D01*
X916228Y885027D01*
Y883974D01*
X916536Y883667D01*
Y857251D01*
X916818Y856571D01*
X933820Y839570D01*
X934500Y839288D01*
X989916D01*
X990224Y838980D01*
X991276D01*
X992020Y839724D01*
Y840776D01*
X991276Y841520D01*
X990224D01*
X989916Y841212D01*
X934899D01*
X918461Y857650D01*
Y883667D01*
X918768Y883974D01*
Y885027D01*
X918025Y885770D01*
D02*
G37*
G36*
X820302Y837790D02*
X819250D01*
X818506Y837046D01*
Y835994D01*
X819250Y835250D01*
X820302D01*
X821046Y835994D01*
Y837046D01*
X820302Y837790D01*
D02*
G37*
G36*
X982254Y837504D02*
X971746D01*
Y826996D01*
X982254D01*
Y831288D01*
X987395D01*
X987730Y830953D01*
Y830724D01*
X988474Y829980D01*
X989526D01*
X990270Y830724D01*
Y831776D01*
X989526Y832520D01*
X988885D01*
X988474Y832931D01*
X987794Y833212D01*
X982254D01*
Y837504D01*
D02*
G37*
G36*
X1073276Y829520D02*
X1072224D01*
X1071480Y828776D01*
Y827724D01*
X1072224Y826980D01*
X1073276D01*
X1074020Y827724D01*
Y828776D01*
X1073276Y829520D01*
D02*
G37*
G36*
X130526Y930270D02*
X129474D01*
X128730Y929526D01*
Y928474D01*
X129038Y928166D01*
Y905398D01*
X104820Y881180D01*
X104538Y880500D01*
Y836754D01*
X100746D01*
Y826246D01*
X110254D01*
Y830788D01*
X118746D01*
Y830705D01*
X119546Y828774D01*
X121024Y827296D01*
X122955Y826496D01*
X125045D01*
X126976Y827296D01*
X128454Y828774D01*
X129254Y830705D01*
Y832795D01*
X128454Y834726D01*
X126976Y836204D01*
X125045Y837004D01*
X122955D01*
X121024Y836204D01*
X119546Y834726D01*
X118746Y832795D01*
Y832712D01*
X110254D01*
Y836754D01*
X106462D01*
Y880101D01*
X130680Y904320D01*
X130962Y905000D01*
Y928166D01*
X131270Y928474D01*
Y929526D01*
X130526Y930270D01*
D02*
G37*
G36*
X1007004Y889254D02*
X996496D01*
Y879746D01*
X1000788D01*
Y835398D01*
X990409Y825020D01*
X989974D01*
X989230Y824276D01*
Y823224D01*
X989974Y822480D01*
X991026D01*
X991770Y823224D01*
Y823659D01*
X1002430Y834320D01*
X1002712Y835000D01*
Y879746D01*
X1007004D01*
Y889254D01*
D02*
G37*
G36*
X844931Y822020D02*
X843879D01*
X843135Y821276D01*
Y820224D01*
X843879Y819480D01*
X844931D01*
X845675Y820224D01*
Y821276D01*
X844931Y822020D01*
D02*
G37*
G36*
X851026Y818020D02*
X849974D01*
X849230Y817276D01*
Y816224D01*
X849974Y815480D01*
X851026D01*
X851770Y816224D01*
Y817276D01*
X851026Y818020D01*
D02*
G37*
G36*
X991526Y820020D02*
X990474D01*
X989730Y819276D01*
Y818841D01*
X985601Y814712D01*
X982504D01*
Y819004D01*
X971996D01*
Y808496D01*
X982504D01*
Y812788D01*
X986000D01*
X986680Y813069D01*
X991091Y817480D01*
X991526D01*
X992270Y818224D01*
Y819276D01*
X991526Y820020D01*
D02*
G37*
G36*
X685004Y841213D02*
X681382D01*
X677884Y840275D01*
X674748Y838465D01*
X672187Y835904D01*
X670376Y832767D01*
X669439Y829269D01*
Y825648D01*
X670376Y822150D01*
X672187Y819014D01*
X674748Y816453D01*
X677884Y814642D01*
X681382Y813705D01*
X685004D01*
X688502Y814642D01*
X691638Y816453D01*
X694199Y819014D01*
X696010Y822150D01*
X696947Y825648D01*
Y829269D01*
X696010Y832767D01*
X694199Y835904D01*
X691638Y838465D01*
X688502Y840275D01*
X685004Y841213D01*
D02*
G37*
G36*
X205004D02*
X201382D01*
X197884Y840275D01*
X194748Y838465D01*
X192187Y835904D01*
X190376Y832767D01*
X189439Y829269D01*
Y825648D01*
X190376Y822150D01*
X192187Y819014D01*
X194748Y816453D01*
X197884Y814642D01*
X201382Y813705D01*
X205004D01*
X208502Y814642D01*
X211638Y816453D01*
X214199Y819014D01*
X216010Y822150D01*
X216947Y825648D01*
Y829269D01*
X216010Y832767D01*
X214199Y835904D01*
X211638Y838465D01*
X208502Y840275D01*
X205004Y841213D01*
D02*
G37*
G36*
X856226Y814020D02*
X855174D01*
X854430Y813276D01*
Y812224D01*
X855174Y811480D01*
X856226D01*
X856970Y812224D01*
Y813276D01*
X856226Y814020D01*
D02*
G37*
G36*
X109754Y818004D02*
X100246D01*
Y807496D01*
X109754D01*
Y810538D01*
X116916D01*
X117224Y810230D01*
X118276D01*
X119020Y810974D01*
Y812026D01*
X118276Y812770D01*
X117224D01*
X116916Y812462D01*
X109754D01*
Y818004D01*
D02*
G37*
G36*
X853686Y810020D02*
X852634D01*
X851890Y809276D01*
Y808224D01*
X852634Y807480D01*
X853686D01*
X854430Y808224D01*
Y809276D01*
X853686Y810020D01*
D02*
G37*
G36*
X68026Y808770D02*
X66974D01*
X66230Y808026D01*
Y806974D01*
X66974Y806230D01*
X68026D01*
X68770Y806974D01*
Y808026D01*
X68026Y808770D01*
D02*
G37*
G36*
X1459026Y806020D02*
X1457974D01*
X1457230Y805276D01*
Y804224D01*
X1457974Y803480D01*
X1459026D01*
X1459770Y804224D01*
Y805276D01*
X1459026Y806020D01*
D02*
G37*
G36*
X848606D02*
X847554D01*
X846810Y805276D01*
Y804224D01*
X847554Y803480D01*
X848606D01*
X849350Y804224D01*
Y805276D01*
X848606Y806020D01*
D02*
G37*
G36*
X1481026Y805770D02*
X1479974D01*
X1479230Y805026D01*
Y803974D01*
X1479974Y803230D01*
X1481026D01*
X1481770Y803974D01*
Y805026D01*
X1481026Y805770D01*
D02*
G37*
G36*
X1470276Y805020D02*
X1469224D01*
X1468480Y804276D01*
Y803224D01*
X1469224Y802480D01*
X1470276D01*
X1471020Y803224D01*
Y804276D01*
X1470276Y805020D01*
D02*
G37*
G36*
X1078026Y804770D02*
X1076974D01*
X1076230Y804026D01*
Y802974D01*
X1076974Y802230D01*
X1078026D01*
X1078770Y802974D01*
Y804026D01*
X1078026Y804770D01*
D02*
G37*
G36*
X844931Y802020D02*
X843879D01*
X843135Y801276D01*
Y800224D01*
X843879Y799480D01*
X844931D01*
X845675Y800224D01*
Y801276D01*
X844931Y802020D01*
D02*
G37*
G36*
X1034754Y833254D02*
X1024246D01*
Y822746D01*
X1028538D01*
Y800084D01*
X1027980Y799526D01*
Y798474D01*
X1028724Y797730D01*
X1029776D01*
X1030520Y798474D01*
Y799526D01*
X1030462Y799584D01*
Y822746D01*
X1034754D01*
Y833254D01*
D02*
G37*
G36*
X93254Y836754D02*
X83746D01*
Y826246D01*
X93254D01*
Y830538D01*
X94602D01*
X95538Y829601D01*
Y801500D01*
X95820Y800820D01*
X98480Y798159D01*
Y797724D01*
X99224Y796980D01*
X100276D01*
X101020Y797724D01*
Y798776D01*
X100276Y799520D01*
X99841D01*
X97462Y801898D01*
Y830000D01*
X97180Y830680D01*
X95681Y832180D01*
X95000Y832462D01*
X93254D01*
Y836754D01*
D02*
G37*
G36*
X1349776Y783270D02*
X1348724D01*
X1347980Y782526D01*
Y781474D01*
X1348724Y780730D01*
X1349776D01*
X1350520Y781474D01*
Y782526D01*
X1349776Y783270D01*
D02*
G37*
G36*
X1340276Y783020D02*
X1339224D01*
X1338480Y782276D01*
Y781224D01*
X1339224Y780480D01*
X1340276D01*
X1341020Y781224D01*
Y782276D01*
X1340276Y783020D01*
D02*
G37*
G36*
X1327476D02*
X1326424D01*
X1325680Y782276D01*
Y781224D01*
X1326424Y780480D01*
X1327476D01*
X1328220Y781224D01*
Y782276D01*
X1327476Y783020D01*
D02*
G37*
G36*
X1312926D02*
X1311874D01*
X1311130Y782276D01*
Y781224D01*
X1311874Y780480D01*
X1312926D01*
X1313670Y781224D01*
Y782276D01*
X1312926Y783020D01*
D02*
G37*
G36*
X796026Y781770D02*
X794974D01*
X794230Y781026D01*
Y779974D01*
X794974Y779230D01*
X796026D01*
X796770Y779974D01*
Y781026D01*
X796026Y781770D01*
D02*
G37*
G36*
X337776Y781520D02*
X336724D01*
X335980Y780776D01*
Y779724D01*
X336724Y778980D01*
X337776D01*
X338520Y779724D01*
Y780776D01*
X337776Y781520D01*
D02*
G37*
G36*
X218526Y781020D02*
X217474D01*
X216730Y780276D01*
Y779224D01*
X217474Y778480D01*
X218526D01*
X219270Y779224D01*
Y780276D01*
X218526Y781020D01*
D02*
G37*
G36*
X378526Y755520D02*
X377474D01*
X376730Y754776D01*
Y753724D01*
X377474Y752980D01*
X378526D01*
X379270Y753724D01*
Y754776D01*
X378526Y755520D01*
D02*
G37*
G36*
X159920Y766004D02*
X157680D01*
X155518Y765424D01*
X153578Y764305D01*
X151995Y762722D01*
X150876Y760782D01*
X150296Y758620D01*
Y756380D01*
X150876Y754218D01*
X151995Y752278D01*
X153578Y750695D01*
X155518Y749576D01*
X157680Y748996D01*
X159920D01*
X162082Y749576D01*
X164021Y750695D01*
X165605Y752278D01*
X166724Y754218D01*
X167304Y756380D01*
Y758620D01*
X166724Y760782D01*
X165605Y762722D01*
X164021Y764305D01*
X162082Y765424D01*
X159920Y766004D01*
D02*
G37*
G36*
X134520D02*
X132280D01*
X130118Y765424D01*
X128178Y764305D01*
X126595Y762722D01*
X125476Y760782D01*
X124896Y758620D01*
Y756380D01*
X125476Y754218D01*
X126595Y752278D01*
X128178Y750695D01*
X130118Y749576D01*
X132280Y748996D01*
X134520D01*
X136682Y749576D01*
X138622Y750695D01*
X140205Y752278D01*
X141324Y754218D01*
X141904Y756380D01*
Y758620D01*
X141324Y760782D01*
X140205Y762722D01*
X138622Y764305D01*
X136682Y765424D01*
X134520Y766004D01*
D02*
G37*
G36*
X109120D02*
X106880D01*
X104718Y765424D01*
X102778Y764305D01*
X101195Y762722D01*
X100076Y760782D01*
X99496Y758620D01*
Y756380D01*
X100076Y754218D01*
X101195Y752278D01*
X102778Y750695D01*
X104718Y749576D01*
X106880Y748996D01*
X109120D01*
X111282Y749576D01*
X113222Y750695D01*
X114805Y752278D01*
X115924Y754218D01*
X116504Y756380D01*
Y758620D01*
X115924Y760782D01*
X114805Y762722D01*
X113222Y764305D01*
X111282Y765424D01*
X109120Y766004D01*
D02*
G37*
G36*
X58320D02*
X56080D01*
X53917Y765424D01*
X51978Y764305D01*
X50395Y762722D01*
X49275Y760782D01*
X48696Y758620D01*
Y756380D01*
X49275Y754218D01*
X50395Y752278D01*
X51978Y750695D01*
X53917Y749576D01*
X56080Y748996D01*
X58320D01*
X60482Y749576D01*
X62421Y750695D01*
X64005Y752278D01*
X65124Y754218D01*
X65704Y756380D01*
Y758620D01*
X65124Y760782D01*
X64005Y762722D01*
X62421Y764305D01*
X60482Y765424D01*
X58320Y766004D01*
D02*
G37*
G36*
X124776Y861520D02*
X123724D01*
X122980Y860776D01*
Y859724D01*
X123724Y858980D01*
X124776D01*
X125084Y859288D01*
X131101D01*
X137038Y853352D01*
Y802648D01*
X115101Y780712D01*
X36250D01*
X35570Y780430D01*
X31119Y775980D01*
X30838Y775300D01*
Y766004D01*
X23296D01*
Y748996D01*
X40304D01*
Y766004D01*
X32762D01*
Y774901D01*
X36649Y778788D01*
X115500D01*
X116180Y779070D01*
X138680Y801570D01*
X138962Y802250D01*
Y853750D01*
X138680Y854430D01*
X132180Y860930D01*
X131500Y861212D01*
X125084D01*
X124776Y861520D01*
D02*
G37*
G36*
X414526Y745270D02*
X413474D01*
X412730Y744526D01*
Y743474D01*
X413474Y742730D01*
X414526D01*
X415270Y743474D01*
Y744526D01*
X414526Y745270D01*
D02*
G37*
G36*
X1015562Y721270D02*
X1014510D01*
X1013893Y720653D01*
X1013276Y721270D01*
X1012224D01*
X1011480Y720526D01*
Y719474D01*
X1012224Y718730D01*
X1013276D01*
X1013893Y719347D01*
X1014510Y718730D01*
X1015562D01*
X1016306Y719474D01*
Y720526D01*
X1015562Y721270D01*
D02*
G37*
G36*
X976989Y720177D02*
X975937D01*
X975193Y719433D01*
Y718381D01*
X975937Y717637D01*
X976989D01*
X977662Y718310D01*
X977704Y718293D01*
X978448Y717549D01*
X979500D01*
X980244Y718293D01*
Y719345D01*
X979500Y720089D01*
X978448D01*
X977774Y719416D01*
X977733Y719433D01*
X976989Y720177D01*
D02*
G37*
G36*
X807526Y704770D02*
X806474D01*
X805730Y704026D01*
Y702974D01*
X806474Y702230D01*
X807526D01*
X808270Y702974D01*
Y704026D01*
X807526Y704770D01*
D02*
G37*
G36*
X825526Y703520D02*
X824474D01*
X823730Y702776D01*
Y701724D01*
X824474Y700980D01*
X825526D01*
X826270Y701724D01*
Y702776D01*
X825526Y703520D01*
D02*
G37*
G36*
X843026Y703270D02*
X841974D01*
X841230Y702526D01*
Y701474D01*
X841974Y700730D01*
X843026D01*
X843770Y701474D01*
Y702526D01*
X843026Y703270D01*
D02*
G37*
G36*
X414776Y698520D02*
X413724D01*
X412980Y697776D01*
Y696724D01*
X413724Y695980D01*
X414776D01*
X415520Y696724D01*
Y697776D01*
X414776Y698520D01*
D02*
G37*
G36*
X1050128Y694823D02*
X1049076D01*
X1048390Y694138D01*
X1047758Y694770D01*
X1046706D01*
X1045962Y694026D01*
Y692974D01*
X1046706Y692230D01*
X1047758D01*
X1048444Y692916D01*
X1049076Y692283D01*
X1050128D01*
X1050872Y693027D01*
Y694080D01*
X1050128Y694823D01*
D02*
G37*
G36*
X428026Y676270D02*
X426974D01*
X426230Y675526D01*
Y674474D01*
X426974Y673730D01*
X428026D01*
X428770Y674474D01*
Y675526D01*
X428026Y676270D01*
D02*
G37*
G36*
X483776Y675270D02*
X482724D01*
X481980Y674526D01*
Y673474D01*
X482724Y672730D01*
X483776D01*
X484520Y673474D01*
Y674526D01*
X483776Y675270D01*
D02*
G37*
G36*
X539026Y675020D02*
X537974D01*
X537230Y674276D01*
Y673224D01*
X537974Y672480D01*
X539026D01*
X539770Y673224D01*
Y674276D01*
X539026Y675020D01*
D02*
G37*
G36*
X549330Y659966D02*
X548278D01*
X547534Y659222D01*
Y658170D01*
X548278Y657426D01*
X549330D01*
X550074Y658170D01*
Y659222D01*
X549330Y659966D01*
D02*
G37*
G36*
X646830Y652466D02*
X645778D01*
X645034Y651722D01*
Y650670D01*
X645778Y649926D01*
X646830D01*
X647574Y650670D01*
Y651722D01*
X646830Y652466D01*
D02*
G37*
G36*
X468276Y650770D02*
X467224D01*
X466480Y650026D01*
Y648974D01*
X467224Y648230D01*
X468276D01*
X469020Y648974D01*
Y650026D01*
X468276Y650770D01*
D02*
G37*
G36*
X561330Y648466D02*
X560278D01*
X559534Y647722D01*
Y646670D01*
X560278Y645926D01*
X561330D01*
X562074Y646670D01*
Y647722D01*
X561330Y648466D01*
D02*
G37*
G36*
X439080Y646966D02*
X438028D01*
X437284Y646222D01*
Y645170D01*
X438028Y644426D01*
X439080D01*
X439824Y645170D01*
Y646222D01*
X439080Y646966D01*
D02*
G37*
G36*
X912276Y644520D02*
X911224D01*
X910480Y643776D01*
Y642724D01*
X911224Y641980D01*
X912276D01*
X913020Y642724D01*
Y643776D01*
X912276Y644520D01*
D02*
G37*
G36*
X349776Y635770D02*
X348724D01*
X347980Y635026D01*
Y633974D01*
X348724Y633230D01*
X349776D01*
X350520Y633974D01*
Y635026D01*
X349776Y635770D01*
D02*
G37*
G36*
X527526Y631770D02*
X526474D01*
X525730Y631026D01*
Y629974D01*
X526474Y629230D01*
X527526D01*
X528270Y629974D01*
Y631026D01*
X527526Y631770D01*
D02*
G37*
G36*
X969408Y643089D02*
X961978Y635659D01*
X966160Y631478D01*
X960840Y626158D01*
X957398Y629600D01*
X949968Y622169D01*
X953410Y618728D01*
X947840Y613158D01*
X945158Y615839D01*
X942090Y612771D01*
X932520Y622341D01*
Y622776D01*
X931776Y623520D01*
X930724D01*
X929980Y622776D01*
Y621724D01*
X930724Y620980D01*
X931159D01*
X940730Y611410D01*
X937728Y608409D01*
X944452Y601685D01*
X951882Y609116D01*
X949201Y611797D01*
X954771Y617367D01*
X956691Y615446D01*
X964121Y622876D01*
X962201Y624797D01*
X967520Y630117D01*
X968701Y628936D01*
X976132Y636366D01*
X969408Y643089D01*
D02*
G37*
G36*
X350026Y631020D02*
X348974D01*
X348230Y630276D01*
Y629224D01*
X348974Y628480D01*
X350026D01*
X350770Y629224D01*
Y630276D01*
X350026Y631020D01*
D02*
G37*
G36*
X291337Y646604D02*
X288663D01*
X286081Y645912D01*
X283765Y644575D01*
X281875Y642685D01*
X280538Y640369D01*
X279846Y637787D01*
Y635113D01*
X280538Y632531D01*
X281875Y630215D01*
X283765Y628325D01*
X286081Y626988D01*
X288663Y626296D01*
X291337D01*
X293919Y626988D01*
X296235Y628325D01*
X298125Y630215D01*
X299462Y632531D01*
X300154Y635113D01*
Y637787D01*
X299462Y640369D01*
X298125Y642685D01*
X296235Y644575D01*
X293919Y645912D01*
X291337Y646604D01*
D02*
G37*
G36*
X439330Y624966D02*
X438278D01*
X437534Y624222D01*
Y623170D01*
X438278Y622426D01*
X439330D01*
X440074Y623170D01*
Y624222D01*
X439330Y624966D01*
D02*
G37*
G36*
X981429Y631068D02*
X973999Y623638D01*
X980722Y616915D01*
X983757Y619949D01*
X988887Y614819D01*
X989567Y614538D01*
X992416D01*
X992724Y614230D01*
X993776D01*
X994520Y614974D01*
Y616026D01*
X993776Y616770D01*
X992724D01*
X992416Y616462D01*
X989966D01*
X985118Y621310D01*
X988152Y624345D01*
X981429Y631068D01*
D02*
G37*
G36*
X13484Y621824D02*
X11745D01*
X10065Y621374D01*
X8559Y620505D01*
X7330Y619275D01*
X6460Y617769D01*
X6010Y616090D01*
Y614351D01*
X6460Y612671D01*
X7330Y611165D01*
X8559Y609935D01*
X10065Y609066D01*
X11745Y608616D01*
X13484D01*
X15163Y609066D01*
X16669Y609935D01*
X17899Y611165D01*
X18768Y612671D01*
X19218Y614351D01*
Y616090D01*
X18768Y617769D01*
X17899Y619275D01*
X16669Y620505D01*
X15163Y621374D01*
X13484Y621824D01*
D02*
G37*
G36*
X1241026Y610270D02*
X1239974D01*
X1239230Y609526D01*
Y608474D01*
X1239974Y607730D01*
X1241026D01*
X1241770Y608474D01*
Y609526D01*
X1241026Y610270D01*
D02*
G37*
G36*
X579526Y605270D02*
X578474D01*
X577730Y604526D01*
Y603474D01*
X578474Y602730D01*
X579526D01*
X580270Y603474D01*
Y604526D01*
X579526Y605270D01*
D02*
G37*
G36*
X539776D02*
X538724D01*
X537980Y604526D01*
Y603474D01*
X538724Y602730D01*
X539776D01*
X540520Y603474D01*
Y604526D01*
X539776Y605270D01*
D02*
G37*
G36*
X505526Y605020D02*
X504474D01*
X503730Y604276D01*
Y603224D01*
X504474Y602480D01*
X505526D01*
X506270Y603224D01*
Y604276D01*
X505526Y605020D01*
D02*
G37*
G36*
X291337Y621204D02*
X288663D01*
X286081Y620512D01*
X283765Y619175D01*
X281875Y617285D01*
X280538Y614969D01*
X279846Y612387D01*
Y609713D01*
X280538Y607131D01*
X281875Y604815D01*
X283765Y602925D01*
X286081Y601588D01*
X288663Y600896D01*
X291337D01*
X293919Y601588D01*
X296235Y602925D01*
X298125Y604815D01*
X299462Y607131D01*
X300154Y609713D01*
Y612387D01*
X299462Y614969D01*
X298125Y617285D01*
X296235Y619175D01*
X293919Y620512D01*
X291337Y621204D01*
D02*
G37*
G36*
X617276Y602770D02*
X616224D01*
X615480Y602026D01*
Y600974D01*
X616224Y600230D01*
X617276D01*
X618020Y600974D01*
Y602026D01*
X617276Y602770D01*
D02*
G37*
G36*
X969419Y617579D02*
X961989Y610149D01*
X968712Y603425D01*
X971747Y606460D01*
X976538Y601669D01*
Y596584D01*
X976230Y596276D01*
Y595224D01*
X976974Y594480D01*
X978026D01*
X978770Y595224D01*
Y596276D01*
X978462Y596584D01*
Y602068D01*
X978180Y602748D01*
X973108Y607821D01*
X976142Y610856D01*
X969419Y617579D01*
D02*
G37*
G36*
X422918Y595128D02*
X421866D01*
X421122Y594384D01*
Y593332D01*
X421866Y592588D01*
X422918D01*
X423662Y593332D01*
Y594384D01*
X422918Y595128D01*
D02*
G37*
G36*
X1075276Y589674D02*
X1074224D01*
X1073480Y588930D01*
Y587878D01*
X1074224Y587134D01*
X1075276D01*
X1076020Y587878D01*
Y588930D01*
X1075276Y589674D01*
D02*
G37*
G36*
X957179Y603818D02*
X949749Y596388D01*
X956472Y589665D01*
X959507Y592699D01*
X966241Y585965D01*
X966921Y585684D01*
X967521D01*
X967974Y585230D01*
X969026D01*
X969770Y585974D01*
Y587026D01*
X969026Y587770D01*
X967974D01*
X967812Y587608D01*
X967320D01*
X960868Y594060D01*
X963903Y597095D01*
X957179Y603818D01*
D02*
G37*
G36*
X1067776Y583270D02*
X1066724D01*
X1065980Y582526D01*
Y581474D01*
X1066724Y580730D01*
X1067776D01*
X1068520Y581474D01*
Y582526D01*
X1067776Y583270D01*
D02*
G37*
G36*
X259776Y599270D02*
X258724D01*
X257980Y598526D01*
Y597884D01*
X257570Y597474D01*
X257429Y597135D01*
X257288Y596794D01*
Y592254D01*
X252996D01*
Y581746D01*
X263504D01*
Y584688D01*
X279846D01*
Y584313D01*
X280538Y581731D01*
X281875Y579416D01*
X283765Y577525D01*
X286081Y576188D01*
X288663Y575496D01*
X291337D01*
X293919Y576188D01*
X296235Y577525D01*
X298125Y579416D01*
X299462Y581731D01*
X300154Y584313D01*
Y586987D01*
X299462Y589570D01*
X298125Y591885D01*
X296235Y593775D01*
X293919Y595112D01*
X291337Y595804D01*
X288663D01*
X286081Y595112D01*
X283765Y593775D01*
X281875Y591885D01*
X280538Y589570D01*
X279846Y586987D01*
Y586612D01*
X263504D01*
Y592254D01*
X259212D01*
Y596395D01*
X259547Y596730D01*
X259776D01*
X260520Y597474D01*
Y598526D01*
X259776Y599270D01*
D02*
G37*
G36*
X475276Y571520D02*
X474224D01*
X473480Y570776D01*
Y569724D01*
X474224Y568980D01*
X475276D01*
X476020Y569724D01*
Y570776D01*
X475276Y571520D01*
D02*
G37*
G36*
X1138526Y567770D02*
X1137474D01*
X1136730Y567026D01*
Y565974D01*
X1137474Y565230D01*
X1138526D01*
X1139270Y565974D01*
Y567026D01*
X1138526Y567770D01*
D02*
G37*
G36*
X1051026Y564020D02*
X1049974D01*
X1049230Y563276D01*
Y562224D01*
X1049974Y561480D01*
X1051026D01*
X1051770Y562224D01*
Y563276D01*
X1051026Y564020D01*
D02*
G37*
G36*
X1464813Y553766D02*
X1463760D01*
X1463017Y553022D01*
Y551970D01*
X1463760Y551226D01*
X1464813D01*
X1465556Y551970D01*
Y553022D01*
X1464813Y553766D01*
D02*
G37*
G36*
X1156026Y550924D02*
X1154974D01*
X1154230Y550180D01*
Y549128D01*
X1154974Y548384D01*
X1156026D01*
X1156770Y549128D01*
Y550180D01*
X1156026Y550924D01*
D02*
G37*
G36*
X1022276Y536674D02*
X1021224D01*
X1020480Y535930D01*
Y534878D01*
X1021224Y534134D01*
X1022276D01*
X1023020Y534878D01*
Y535930D01*
X1022276Y536674D01*
D02*
G37*
G36*
X1054026Y532520D02*
X1052974D01*
X1052230Y531776D01*
Y530724D01*
X1052974Y529980D01*
X1054026D01*
X1054334Y530288D01*
X1055352D01*
X1058948Y526692D01*
X1058889Y526633D01*
X1058089Y524702D01*
Y522612D01*
X1058889Y520681D01*
X1060367Y519203D01*
X1062298Y518403D01*
X1064388D01*
X1066319Y519203D01*
X1067797Y520681D01*
X1068597Y522612D01*
Y524702D01*
X1067797Y526633D01*
X1066319Y528111D01*
X1064388Y528911D01*
X1062298D01*
X1060367Y528111D01*
X1060309Y528052D01*
X1056431Y531930D01*
X1055750Y532212D01*
X1054334D01*
X1054026Y532520D01*
D02*
G37*
G36*
X454026Y519020D02*
X452974D01*
X452230Y518276D01*
Y517224D01*
X452974Y516480D01*
X454026D01*
X454770Y517224D01*
Y518276D01*
X454026Y519020D01*
D02*
G37*
G36*
X994776Y509174D02*
X993724D01*
X992980Y508430D01*
Y507378D01*
X993724Y506634D01*
X994776D01*
X995520Y507378D01*
Y508430D01*
X994776Y509174D01*
D02*
G37*
G36*
X1068386Y505316D02*
X1061663Y498593D01*
X1064823Y495434D01*
X1061409Y492020D01*
X1060974D01*
X1060230Y491276D01*
Y490224D01*
X1060974Y489480D01*
X1062026D01*
X1062770Y490224D01*
Y490659D01*
X1066183Y494073D01*
X1069093Y491163D01*
X1075816Y497886D01*
X1068386Y505316D01*
D02*
G37*
G36*
X1166026Y491770D02*
X1164974D01*
X1164230Y491026D01*
Y489974D01*
X1164974Y489230D01*
X1166026D01*
X1166770Y489974D01*
Y491026D01*
X1166026Y491770D01*
D02*
G37*
G36*
X1040255Y469040D02*
X1039203D01*
X1038459Y468296D01*
Y467244D01*
X1039203Y466500D01*
X1040076D01*
Y465628D01*
X1040820Y464884D01*
X1041872D01*
X1042616Y465628D01*
Y466680D01*
X1041872Y467424D01*
X1040999D01*
Y468296D01*
X1040255Y469040D01*
D02*
G37*
G36*
X1061426Y456396D02*
X1060374D01*
X1059630Y455652D01*
Y454600D01*
X1060374Y453856D01*
X1061426D01*
X1062170Y454600D01*
Y455652D01*
X1061426Y456396D01*
D02*
G37*
G36*
X736526Y454270D02*
X735474D01*
X734730Y453526D01*
Y452474D01*
X735474Y451730D01*
X736526D01*
X737270Y452474D01*
Y453526D01*
X736526Y454270D01*
D02*
G37*
G36*
X1126526Y452770D02*
X1125474D01*
X1124730Y452026D01*
Y450974D01*
X1125474Y450230D01*
X1126526D01*
X1127270Y450974D01*
Y452026D01*
X1126526Y452770D01*
D02*
G37*
G36*
X642526Y442520D02*
X641474D01*
X640730Y441776D01*
Y440724D01*
X641474Y439980D01*
X642526D01*
X643270Y440724D01*
Y441776D01*
X642526Y442520D01*
D02*
G37*
G36*
X667276Y441020D02*
X666224D01*
X665480Y440276D01*
Y439224D01*
X666224Y438480D01*
X667276D01*
X668020Y439224D01*
Y440276D01*
X667276Y441020D01*
D02*
G37*
G36*
X486776Y436770D02*
X485724D01*
X484980Y436026D01*
Y434974D01*
X485724Y434230D01*
X486776D01*
X487520Y434974D01*
Y436026D01*
X486776Y436770D01*
D02*
G37*
G36*
X1075526Y434770D02*
X1074474D01*
X1073730Y434026D01*
Y432974D01*
X1074474Y432230D01*
X1075526D01*
X1076270Y432974D01*
Y434026D01*
X1075526Y434770D01*
D02*
G37*
G36*
X1115026Y433020D02*
X1113974D01*
X1113230Y432276D01*
Y431224D01*
X1113974Y430480D01*
X1115026D01*
X1115770Y431224D01*
Y432276D01*
X1115026Y433020D01*
D02*
G37*
G36*
X368026Y418270D02*
X366974D01*
X366230Y417526D01*
Y416474D01*
X366974Y415730D01*
X368026D01*
X368770Y416474D01*
Y417526D01*
X368026Y418270D01*
D02*
G37*
G36*
X394776Y416770D02*
X393724D01*
X392980Y416026D01*
Y414974D01*
X393724Y414230D01*
X394776D01*
X395520Y414974D01*
Y416026D01*
X394776Y416770D01*
D02*
G37*
G36*
X770655Y420404D02*
X765346Y415095D01*
X767240Y413201D01*
X761638Y407599D01*
X758343Y410893D01*
X750913Y403463D01*
X754045Y400331D01*
X744667Y390953D01*
X744425Y390370D01*
Y389971D01*
X743980Y389526D01*
Y388474D01*
X744724Y387730D01*
X745776D01*
X746520Y388474D01*
Y389526D01*
X746075Y389971D01*
Y390028D01*
X755211Y399165D01*
X758343Y396033D01*
X765773Y403463D01*
X762804Y406432D01*
X768406Y412034D01*
X770301Y410140D01*
X775610Y415449D01*
X770655Y420404D01*
D02*
G37*
G36*
X775000Y438399D02*
X748000D01*
X746833Y437916D01*
X702317Y393400D01*
X684089D01*
X680343Y397146D01*
X683040Y399843D01*
X675610Y407273D01*
X668179Y399843D01*
X670877Y397146D01*
X666206Y392475D01*
X663657Y395023D01*
X656227Y387593D01*
X663657Y380163D01*
X665956Y382461D01*
X674334Y374083D01*
X683083Y365334D01*
X684250Y364850D01*
X695353D01*
X756084Y304120D01*
X756084Y304119D01*
X760761Y299442D01*
X757320Y296000D01*
X760049Y293271D01*
X755003Y288225D01*
X752454Y290773D01*
X745024Y283343D01*
X752454Y275913D01*
X759884Y283343D01*
X757335Y285892D01*
X762382Y290938D01*
X764750Y288570D01*
X772180Y296000D01*
X764750Y303430D01*
X763094Y301774D01*
X758416Y306452D01*
X758416Y306452D01*
X697202Y367666D01*
X696036Y368150D01*
X684933D01*
X676666Y376416D01*
X668288Y384794D01*
X671087Y387593D01*
X668539Y390142D01*
X673210Y394813D01*
X675610Y392413D01*
X678010Y394813D01*
X682239Y390584D01*
X683406Y390101D01*
X703000D01*
X704166Y390584D01*
X748683Y435100D01*
X774317D01*
X781709Y427708D01*
X781709Y427708D01*
X785600Y423817D01*
Y413639D01*
X781510Y409549D01*
X780199Y410860D01*
X774890Y405551D01*
X779845Y400596D01*
X785154Y405905D01*
X783843Y407216D01*
X788416Y411789D01*
X788899Y412956D01*
Y424500D01*
X788416Y425666D01*
X784041Y430041D01*
X784041Y430041D01*
X776166Y437916D01*
X775000Y438399D01*
D02*
G37*
G36*
X465479Y422473D02*
X458756Y415750D01*
X461573Y412933D01*
X436570Y387930D01*
X436288Y387250D01*
Y381334D01*
X435980Y381026D01*
Y379974D01*
X436724Y379230D01*
X437776D01*
X438520Y379974D01*
Y381026D01*
X438212Y381334D01*
Y386851D01*
X462933Y411573D01*
X466186Y408320D01*
X472909Y415043D01*
X465479Y422473D01*
D02*
G37*
G36*
X689364Y419316D02*
X681934Y411886D01*
X688657Y405163D01*
X691789Y408295D01*
X693527Y406557D01*
Y405200D01*
X693211Y404884D01*
Y403832D01*
X693955Y403088D01*
X695007D01*
X695751Y403832D01*
Y404884D01*
X695177Y405458D01*
Y406898D01*
X694935Y407481D01*
X692955Y409461D01*
X696087Y412593D01*
X689364Y419316D01*
D02*
G37*
G36*
X1070276Y857520D02*
X1069224D01*
X1068480Y856776D01*
Y855724D01*
X1069224Y854980D01*
X1069659D01*
X1092538Y832102D01*
Y401084D01*
X1092230Y400776D01*
Y399724D01*
X1092974Y398980D01*
X1094026D01*
X1094770Y399724D01*
Y400776D01*
X1094462Y401084D01*
Y832500D01*
X1094181Y833180D01*
X1071020Y856341D01*
Y856776D01*
X1070276Y857520D01*
D02*
G37*
G36*
X709776Y423020D02*
X708724D01*
X707980Y422276D01*
Y421224D01*
X708724Y420480D01*
X708925D01*
Y413592D01*
X694103Y398770D01*
X693474D01*
X692730Y398026D01*
Y396974D01*
X693474Y396230D01*
X694526D01*
X695270Y396974D01*
Y397604D01*
X710333Y412667D01*
X710575Y413250D01*
Y421250D01*
X710520Y421382D01*
Y422276D01*
X709776Y423020D01*
D02*
G37*
G36*
X423776Y440270D02*
X422724D01*
X421980Y439526D01*
Y438474D01*
X422724Y437730D01*
X423159D01*
X435788Y425102D01*
Y399398D01*
X425785Y389395D01*
X422343Y392837D01*
X414913Y385407D01*
X417869Y382451D01*
X412799Y377382D01*
X410250Y379930D01*
X402820Y372500D01*
X410250Y365070D01*
X412785Y367604D01*
X418230Y362159D01*
Y361724D01*
X418974Y360980D01*
X420026D01*
X420770Y361724D01*
Y362776D01*
X420026Y363520D01*
X419591D01*
X414146Y368965D01*
X417681Y372500D01*
X415132Y375049D01*
X420201Y380118D01*
X422343Y377976D01*
X424892Y380525D01*
X428851Y376567D01*
Y360162D01*
X429334Y358995D01*
X434228Y354101D01*
X432917Y352790D01*
X434405Y351302D01*
X432503Y349400D01*
X432238D01*
X431072Y348917D01*
X430588Y347750D01*
Y328762D01*
X431072Y327596D01*
X467584Y291084D01*
X468750Y290601D01*
X488846D01*
X488948Y290558D01*
X489538Y290313D01*
X489539Y290313D01*
X489540Y290313D01*
X490112Y290550D01*
X490705Y290795D01*
X490706Y290796D01*
X490706Y290796D01*
X490942Y291366D01*
X491189Y291961D01*
X491189Y291962D01*
X491189Y291963D01*
Y296107D01*
X492933Y297850D01*
X498817D01*
X503305Y293362D01*
X500756Y290814D01*
X503276Y288293D01*
X498235Y283252D01*
X495686Y285800D01*
X488256Y278370D01*
X495686Y270940D01*
X503116Y278370D01*
X500568Y280919D01*
X505609Y285960D01*
X508186Y283383D01*
X515616Y290814D01*
X508186Y298244D01*
X505637Y295695D01*
X500666Y300666D01*
X499500Y301150D01*
X492250D01*
X491553Y300861D01*
X491084Y300666D01*
X488374Y297957D01*
X488374Y297957D01*
X488373Y297957D01*
X488162Y297447D01*
X487890Y296790D01*
X487890Y296790D01*
X487890Y296790D01*
Y293900D01*
X469433D01*
X433888Y329445D01*
Y346391D01*
X434353Y346584D01*
X436738Y348969D01*
X438226Y347481D01*
X443181Y352436D01*
X437872Y357745D01*
X436561Y356434D01*
X432150Y360845D01*
Y377250D01*
X431667Y378416D01*
X427225Y382858D01*
X429773Y385407D01*
X427146Y388035D01*
X437430Y398319D01*
X437712Y399000D01*
Y425500D01*
X437430Y426181D01*
X424520Y439091D01*
Y439526D01*
X423776Y440270D01*
D02*
G37*
G36*
X737826Y393470D02*
X736774D01*
X736030Y392726D01*
Y391674D01*
X736774Y390930D01*
X737646D01*
Y390058D01*
X738390Y389314D01*
X739442D01*
X740186Y390058D01*
Y391110D01*
X739442Y391854D01*
X738570D01*
Y392726D01*
X737826Y393470D01*
D02*
G37*
G36*
X1425776Y391520D02*
X1424724D01*
X1423980Y390776D01*
Y389724D01*
X1424724Y388980D01*
X1425776D01*
X1426520Y389724D01*
Y390776D01*
X1425776Y391520D01*
D02*
G37*
G36*
X987526Y386270D02*
X986474D01*
X985730Y385526D01*
Y384474D01*
X986474Y383730D01*
X987526D01*
X988270Y384474D01*
Y385526D01*
X987526Y386270D01*
D02*
G37*
G36*
X782636Y385566D02*
X779609Y382539D01*
X778967Y383180D01*
X778287Y383462D01*
X754750D01*
X754070Y383180D01*
X751909Y381020D01*
X751474D01*
X750730Y380276D01*
Y379224D01*
X751474Y378480D01*
X752526D01*
X753270Y379224D01*
Y379659D01*
X755149Y381538D01*
X777888D01*
X778248Y381178D01*
X775913Y378843D01*
X783343Y371413D01*
X790066Y378136D01*
X782636Y385566D01*
D02*
G37*
G36*
X689026Y383520D02*
X687974D01*
X687230Y382776D01*
Y381724D01*
X687974Y380980D01*
X689026D01*
X689770Y381724D01*
Y382776D01*
X689026Y383520D01*
D02*
G37*
G36*
X472794Y376752D02*
X471742D01*
X470998Y376008D01*
Y374956D01*
X471742Y374212D01*
X472614D01*
Y373339D01*
X473358Y372595D01*
X474411D01*
X475154Y373339D01*
Y374392D01*
X474411Y375135D01*
X473538D01*
Y376008D01*
X472794Y376752D01*
D02*
G37*
G36*
X764026Y374056D02*
X762974D01*
X762230Y373312D01*
Y372260D01*
X762974Y371516D01*
X764026D01*
X764770Y372260D01*
Y373312D01*
X764026Y374056D01*
D02*
G37*
G36*
X499729Y383973D02*
X493006Y377250D01*
X496390Y373866D01*
Y373612D01*
X487548Y364770D01*
X486724D01*
X485980Y364026D01*
Y362974D01*
X486724Y362230D01*
X487776D01*
X488520Y362974D01*
Y363798D01*
X497489Y372767D01*
X500437Y369819D01*
X507160Y376543D01*
X499729Y383973D01*
D02*
G37*
G36*
X767487Y371495D02*
X766435D01*
X765691Y370751D01*
Y369699D01*
X766435Y368955D01*
X767487D01*
X768231Y369699D01*
Y370751D01*
X767487Y371495D01*
D02*
G37*
G36*
X667276Y369270D02*
X666224D01*
X665480Y368526D01*
Y367474D01*
X666224Y366730D01*
X667276D01*
X668020Y367474D01*
Y368526D01*
X667276Y369270D01*
D02*
G37*
G36*
X542844Y374368D02*
X528412D01*
X527732Y374087D01*
X502685Y349040D01*
X502250D01*
X501506Y348296D01*
Y347244D01*
X502250Y346500D01*
X503302D01*
X504046Y347244D01*
Y347679D01*
X528811Y372444D01*
X542445D01*
X546980Y367909D01*
Y367474D01*
X547724Y366730D01*
X548776D01*
X549520Y367474D01*
Y368526D01*
X548776Y369270D01*
X548341D01*
X543524Y374087D01*
X542844Y374368D01*
D02*
G37*
G36*
X767776Y378270D02*
X766724D01*
X765980Y377526D01*
Y376474D01*
X766724Y375730D01*
X767776D01*
X768084Y376038D01*
X769352D01*
X771288Y374101D01*
Y368399D01*
X769101Y366212D01*
X766084D01*
X765776Y366520D01*
X764724D01*
X763980Y365776D01*
Y364724D01*
X764724Y363980D01*
X765776D01*
X766084Y364288D01*
X769500D01*
X770180Y364569D01*
X772930Y367320D01*
X773212Y368000D01*
Y374500D01*
X772930Y375180D01*
X770431Y377680D01*
X769750Y377962D01*
X768084D01*
X767776Y378270D01*
D02*
G37*
G36*
X626843Y379587D02*
X619413Y372157D01*
X622104Y369465D01*
X618659Y366020D01*
X618224D01*
X617480Y365276D01*
Y364224D01*
X618224Y363480D01*
X619276D01*
X620020Y364224D01*
Y364659D01*
X623465Y368104D01*
X626136Y365433D01*
X633566Y372864D01*
X626843Y379587D01*
D02*
G37*
G36*
X424776Y365770D02*
X423724D01*
X422980Y365026D01*
Y363974D01*
X423724Y363230D01*
X424776D01*
X425520Y363974D01*
Y365026D01*
X424776Y365770D01*
D02*
G37*
G36*
X651500Y381930D02*
X644070Y374500D01*
X647202Y371368D01*
X641132Y365298D01*
X638864Y367566D01*
X631434Y360136D01*
X638157Y353413D01*
X645587Y360843D01*
X642298Y364132D01*
X648368Y370202D01*
X651500Y367070D01*
X654535Y370104D01*
X664070Y360570D01*
X664750Y360288D01*
X668128D01*
X668809Y360570D01*
X672680Y364441D01*
X672962Y365122D01*
Y368916D01*
X673270Y369224D01*
Y370276D01*
X672526Y371020D01*
X671474D01*
X670730Y370276D01*
Y369224D01*
X671038Y368916D01*
Y365520D01*
X667729Y362212D01*
X665149D01*
X655896Y371465D01*
X658930Y374500D01*
X651500Y381930D01*
D02*
G37*
G36*
X658526Y361270D02*
X657474D01*
X656730Y360526D01*
Y359474D01*
X657474Y358730D01*
X658526D01*
X659270Y359474D01*
Y360526D01*
X658526Y361270D01*
D02*
G37*
G36*
X1012276Y360770D02*
X1011224D01*
X1010480Y360026D01*
Y358974D01*
X1011224Y358230D01*
X1012276D01*
X1013020Y358974D01*
Y360026D01*
X1012276Y360770D01*
D02*
G37*
G36*
X492276Y358270D02*
X491224D01*
X490480Y357526D01*
Y356474D01*
X491224Y355730D01*
X492276D01*
X493020Y356474D01*
Y357526D01*
X492276Y358270D01*
D02*
G37*
G36*
X480026Y372270D02*
X478974D01*
X478230Y371526D01*
Y370474D01*
X478459Y370245D01*
X462822Y354608D01*
X459593Y357837D01*
X456919Y355164D01*
X451414Y360668D01*
X452726Y361980D01*
X447416Y367289D01*
X442461Y362333D01*
X447770Y357024D01*
X449081Y358336D01*
X454586Y352831D01*
X452163Y350407D01*
X459593Y342977D01*
X467023Y350407D01*
X463794Y353636D01*
X479743Y369585D01*
X479803Y369730D01*
X480026D01*
X480770Y370474D01*
Y371526D01*
X480026Y372270D01*
D02*
G37*
G36*
X779026Y357270D02*
X777974D01*
X777230Y356526D01*
Y355634D01*
X776377D01*
X775633Y354891D01*
Y353838D01*
X776377Y353094D01*
X777429D01*
X778173Y353838D01*
Y354730D01*
X779026D01*
X779770Y355474D01*
Y356526D01*
X779026Y357270D01*
D02*
G37*
G36*
X660026Y355270D02*
X658974D01*
X658230Y354526D01*
Y353474D01*
X658974Y352730D01*
X660026D01*
X660770Y353474D01*
Y354526D01*
X660026Y355270D01*
D02*
G37*
G36*
X396250Y366680D02*
X388820Y359250D01*
X391854Y356215D01*
X386160Y350521D01*
X383707Y352973D01*
X376277Y345543D01*
X383000Y338820D01*
X390430Y346250D01*
X387521Y349160D01*
X393215Y354854D01*
X396250Y351820D01*
X401410Y356979D01*
X405980Y352409D01*
Y351974D01*
X406724Y351230D01*
X407776D01*
X408520Y351974D01*
Y353026D01*
X407776Y353770D01*
X407341D01*
X402771Y358340D01*
X403680Y359250D01*
X396250Y366680D01*
D02*
G37*
G36*
X367931Y371020D02*
X366879D01*
X366135Y370276D01*
Y369841D01*
X365320Y369026D01*
X365038Y368345D01*
Y363250D01*
X365320Y362570D01*
X367291Y360598D01*
X364256Y357564D01*
X370979Y350841D01*
X378410Y358271D01*
X371687Y364994D01*
X368652Y361959D01*
X366962Y363649D01*
Y367947D01*
X367496Y368480D01*
X367931D01*
X368675Y369224D01*
Y370276D01*
X367931Y371020D01*
D02*
G37*
G36*
X498776Y352020D02*
X497724D01*
X496980Y351276D01*
Y350224D01*
X497724Y349480D01*
X498776D01*
X499520Y350224D01*
Y351276D01*
X498776Y352020D01*
D02*
G37*
G36*
X405276Y350020D02*
X404224D01*
X403480Y349276D01*
Y348224D01*
X404224Y347480D01*
X405276D01*
X406020Y348224D01*
Y349276D01*
X405276Y350020D01*
D02*
G37*
G36*
X503304Y343742D02*
X502252D01*
X501508Y342998D01*
Y341946D01*
X502252Y341202D01*
X503304D01*
X504048Y341946D01*
Y342998D01*
X503304Y343742D01*
D02*
G37*
G36*
X397776Y341770D02*
X396724D01*
X395980Y341026D01*
Y339974D01*
X396724Y339230D01*
X397776D01*
X398520Y339974D01*
Y341026D01*
X397776Y341770D01*
D02*
G37*
G36*
X507963Y339845D02*
X506911D01*
X506167Y339101D01*
Y338049D01*
X506911Y337305D01*
X507963D01*
X508707Y338049D01*
Y339101D01*
X507963Y339845D01*
D02*
G37*
G36*
X393526Y339270D02*
X392474D01*
X391730Y338526D01*
Y337474D01*
X392474Y336730D01*
X393526D01*
X394270Y337474D01*
Y338526D01*
X393526Y339270D01*
D02*
G37*
G36*
X779276Y320270D02*
X778224D01*
X777480Y319526D01*
Y318474D01*
X778224Y317730D01*
X779276D01*
X780020Y318474D01*
Y319526D01*
X779276Y320270D01*
D02*
G37*
G36*
X760526Y317520D02*
X759474D01*
X758730Y316776D01*
Y315724D01*
X759474Y314980D01*
X760526D01*
X761270Y315724D01*
Y316776D01*
X760526Y317520D01*
D02*
G37*
G36*
X898276Y317020D02*
X897224D01*
X896480Y316276D01*
Y315224D01*
X897224Y314480D01*
X898276D01*
X899020Y315224D01*
Y316276D01*
X898276Y317020D01*
D02*
G37*
G36*
X757093Y314500D02*
X756041D01*
X755297Y313756D01*
Y312703D01*
X756041Y311960D01*
X757093D01*
X757837Y312703D01*
Y313756D01*
X757093Y314500D01*
D02*
G37*
G36*
X677026Y310020D02*
X675974D01*
X675230Y309276D01*
Y308224D01*
X675974Y307480D01*
X677026D01*
X677770Y308224D01*
Y309276D01*
X677026Y310020D01*
D02*
G37*
G36*
X767026Y307770D02*
X765974D01*
X765230Y307026D01*
Y305974D01*
X765974Y305230D01*
X767026D01*
X767770Y305974D01*
Y307026D01*
X767026Y307770D01*
D02*
G37*
G36*
X750026Y307560D02*
X748974D01*
X748230Y306816D01*
Y305764D01*
X748974Y305020D01*
X750026D01*
X750770Y305764D01*
Y306816D01*
X750026Y307560D01*
D02*
G37*
G36*
X513026Y307020D02*
X511974D01*
X511230Y306276D01*
Y305224D01*
X511974Y304480D01*
X513026D01*
X513770Y305224D01*
Y306276D01*
X513026Y307020D01*
D02*
G37*
G36*
X681776Y305770D02*
X680724D01*
X679980Y305026D01*
Y303974D01*
X680724Y303230D01*
X681776D01*
X682520Y303974D01*
Y305026D01*
X681776Y305770D01*
D02*
G37*
G36*
X746236Y303937D02*
X745184D01*
X744440Y303193D01*
Y302141D01*
X745184Y301397D01*
X746236D01*
X746980Y302141D01*
Y303193D01*
X746236Y303937D01*
D02*
G37*
G36*
X686026Y299270D02*
X684974D01*
X684230Y298526D01*
Y297474D01*
X684974Y296730D01*
X686026D01*
X686770Y297474D01*
Y298526D01*
X686026Y299270D01*
D02*
G37*
G36*
X691026Y296020D02*
X689974D01*
X689230Y295276D01*
Y294224D01*
X689974Y293480D01*
X691026D01*
X691770Y294224D01*
Y295276D01*
X691026Y296020D01*
D02*
G37*
G36*
X754454Y296014D02*
X753402D01*
X752658Y295271D01*
Y294218D01*
X753402Y293475D01*
X754454D01*
X755198Y294218D01*
Y295271D01*
X754454Y296014D01*
D02*
G37*
G36*
X494276Y295770D02*
X493224D01*
X492480Y295026D01*
Y293974D01*
X493224Y293230D01*
X494276D01*
X495020Y293974D01*
Y295026D01*
X494276Y295770D01*
D02*
G37*
G36*
X695776Y292020D02*
X694724D01*
X693980Y291276D01*
Y290224D01*
X694724Y289480D01*
X695776D01*
X696520Y290224D01*
Y291276D01*
X695776Y292020D01*
D02*
G37*
G36*
X410026Y289270D02*
X408974D01*
X408230Y288526D01*
Y287474D01*
X408974Y286730D01*
X410026D01*
X410770Y287474D01*
Y288526D01*
X410026Y289270D01*
D02*
G37*
G36*
X488250Y288250D02*
X487198D01*
X486454Y287506D01*
Y286454D01*
X487198Y285710D01*
X488250D01*
X488994Y286454D01*
Y287506D01*
X488250Y288250D01*
D02*
G37*
G36*
X591526Y287020D02*
X590474D01*
X589730Y286276D01*
Y285224D01*
X590474Y284480D01*
X591526D01*
X592270Y285224D01*
Y286276D01*
X591526Y287020D01*
D02*
G37*
G36*
X414026Y285770D02*
X412974D01*
X412230Y285026D01*
Y283974D01*
X412974Y283230D01*
X414026D01*
X414770Y283974D01*
Y285026D01*
X414026Y285770D01*
D02*
G37*
G36*
X419526Y281520D02*
X418474D01*
X417730Y280776D01*
Y279724D01*
X418474Y278980D01*
X419526D01*
X420270Y279724D01*
Y280776D01*
X419526Y281520D01*
D02*
G37*
G36*
X425026Y276770D02*
X423974D01*
X423230Y276026D01*
Y274974D01*
X423974Y274230D01*
X425026D01*
X425770Y274974D01*
Y276026D01*
X425026Y276770D01*
D02*
G37*
G36*
X482276Y275270D02*
X481224D01*
X480480Y274526D01*
Y273474D01*
X481224Y272730D01*
X482276D01*
X483020Y273474D01*
Y274526D01*
X482276Y275270D01*
D02*
G37*
G36*
X429026Y272770D02*
X427974D01*
X427230Y272026D01*
Y270974D01*
X427974Y270230D01*
X429026D01*
X429770Y270974D01*
Y272026D01*
X429026Y272770D01*
D02*
G37*
G36*
X433250Y268540D02*
X432198D01*
X431454Y267796D01*
Y266744D01*
X432198Y266000D01*
X433250D01*
X433994Y266744D01*
Y267796D01*
X433250Y268540D01*
D02*
G37*
G36*
X1166869Y275854D02*
X1165130D01*
X1163451Y275404D01*
X1161945Y274534D01*
X1160715Y273305D01*
X1159846Y271799D01*
X1159396Y270119D01*
Y268381D01*
X1159846Y266701D01*
X1160715Y265195D01*
X1161945Y263965D01*
X1163451Y263096D01*
X1165130Y262646D01*
X1166869D01*
X1168549Y263096D01*
X1170055Y263965D01*
X1171284Y265195D01*
X1172154Y266701D01*
X1172604Y268381D01*
Y270119D01*
X1172154Y271799D01*
X1171284Y273305D01*
X1170055Y274534D01*
X1168549Y275404D01*
X1166869Y275854D01*
D02*
G37*
G36*
X870026Y253520D02*
X868974D01*
X868230Y252776D01*
Y251724D01*
X868974Y250980D01*
X870026D01*
X870770Y251724D01*
Y252776D01*
X870026Y253520D01*
D02*
G37*
G36*
X908526Y250770D02*
X907474D01*
X906730Y250026D01*
Y248974D01*
X907474Y248230D01*
X908526D01*
X909270Y248974D01*
Y250026D01*
X908526Y250770D01*
D02*
G37*
G36*
X1066276Y249770D02*
X1065224D01*
X1064480Y249026D01*
Y247974D01*
X1065224Y247230D01*
X1066276D01*
X1067020Y247974D01*
Y249026D01*
X1066276Y249770D01*
D02*
G37*
G36*
X859026D02*
X857974D01*
X857230Y249026D01*
Y247974D01*
X857974Y247230D01*
X859026D01*
X859770Y247974D01*
Y249026D01*
X859026Y249770D01*
D02*
G37*
G36*
X315526Y247520D02*
X314474D01*
X313730Y246776D01*
Y245724D01*
X314474Y244980D01*
X315526D01*
X316270Y245724D01*
Y246776D01*
X315526Y247520D01*
D02*
G37*
G36*
X1236776Y246270D02*
X1235724D01*
X1234980Y245526D01*
Y244474D01*
X1235724Y243730D01*
X1236776D01*
X1237520Y244474D01*
Y245526D01*
X1236776Y246270D01*
D02*
G37*
G36*
X1102026Y571520D02*
X1100974D01*
X1100230Y570776D01*
Y569724D01*
X1100538Y569416D01*
Y266399D01*
X1070852Y236712D01*
X1013334D01*
X1013026Y237020D01*
X1011974D01*
X1011230Y236276D01*
Y235224D01*
X1011974Y234480D01*
X1013026D01*
X1013334Y234788D01*
X1071250D01*
X1071931Y235070D01*
X1102180Y265320D01*
X1102462Y266000D01*
Y569416D01*
X1102770Y569724D01*
Y570776D01*
X1102026Y571520D01*
D02*
G37*
G36*
X1132026Y490520D02*
X1130974D01*
X1130230Y489776D01*
Y488724D01*
X1130974Y487980D01*
X1131409D01*
X1139788Y479602D01*
Y291149D01*
X1071851Y223212D01*
X860649D01*
X854712Y229149D01*
Y235667D01*
X855020Y235974D01*
Y237026D01*
X854276Y237770D01*
X853224D01*
X852480Y237026D01*
Y235974D01*
X852788Y235667D01*
Y228750D01*
X853070Y228070D01*
X859570Y221569D01*
X860250Y221288D01*
X1072250D01*
X1072930Y221569D01*
X1141430Y290070D01*
X1141712Y290751D01*
Y480000D01*
X1141430Y480681D01*
X1132770Y489341D01*
Y489776D01*
X1132026Y490520D01*
D02*
G37*
G36*
X1439804Y218054D02*
X1427696D01*
Y205946D01*
X1439804D01*
Y218054D01*
D02*
G37*
G36*
X1122619Y217104D02*
X1120881D01*
X1119201Y216654D01*
X1117695Y215784D01*
X1116466Y214555D01*
X1115596Y213049D01*
X1115146Y211369D01*
Y209631D01*
X1115596Y207951D01*
X1116466Y206445D01*
X1117695Y205215D01*
X1119201Y204346D01*
X1120881Y203896D01*
X1122619D01*
X1124299Y204346D01*
X1125805Y205215D01*
X1127035Y206445D01*
X1127904Y207951D01*
X1128354Y209631D01*
Y211369D01*
X1127904Y213049D01*
X1127035Y214555D01*
X1125805Y215784D01*
X1124299Y216654D01*
X1122619Y217104D01*
D02*
G37*
G36*
X559956Y200361D02*
X557746Y200070D01*
X555686Y199217D01*
X553917Y197859D01*
X552560Y196091D01*
X552126Y195042D01*
X552125D01*
X552075Y194921D01*
X552176Y194678D01*
X552419Y194578D01*
X552662Y194678D01*
X552677Y194713D01*
X567235Y194714D01*
X567250Y194678D01*
X567493Y194578D01*
X567736Y194678D01*
X567837Y194921D01*
X567787Y195042D01*
X567787D01*
X567352Y196091D01*
X565995Y197859D01*
X564226Y199217D01*
X562167Y200070D01*
X559956Y200361D01*
D02*
G37*
G36*
X1181026Y189270D02*
X1179974D01*
X1179230Y188526D01*
Y187474D01*
X1179974Y186730D01*
X1181026D01*
X1181770Y187474D01*
Y188526D01*
X1181026Y189270D01*
D02*
G37*
G36*
X1142376Y182520D02*
X1141324D01*
X1140580Y181776D01*
Y180724D01*
X1141324Y179980D01*
X1142376D01*
X1143120Y180724D01*
Y181776D01*
X1142376Y182520D01*
D02*
G37*
G36*
X1129576D02*
X1128524D01*
X1127780Y181776D01*
Y180724D01*
X1128524Y179980D01*
X1129576D01*
X1130320Y180724D01*
Y181776D01*
X1129576Y182520D01*
D02*
G37*
G36*
X1115026D02*
X1113974D01*
X1113230Y181776D01*
Y180724D01*
X1113974Y179980D01*
X1115026D01*
X1115770Y180724D01*
Y181776D01*
X1115026Y182520D01*
D02*
G37*
G36*
X621995Y187182D02*
X620085D01*
X618240Y186688D01*
X616586Y185732D01*
X615235Y184382D01*
X614280Y182728D01*
X613786Y180883D01*
Y178973D01*
X614280Y177128D01*
X615235Y175474D01*
X616586Y174123D01*
X618240Y173168D01*
X620085Y172674D01*
X621995D01*
X623840Y173168D01*
X625494Y174123D01*
X626844Y175474D01*
X627799Y177128D01*
X628294Y178973D01*
Y180883D01*
X627799Y182728D01*
X626844Y184382D01*
X625494Y185732D01*
X623840Y186688D01*
X621995Y187182D01*
D02*
G37*
G36*
X482295D02*
X480385D01*
X478540Y186688D01*
X476886Y185732D01*
X475535Y184382D01*
X474580Y182728D01*
X474086Y180883D01*
Y178973D01*
X474580Y177128D01*
X475535Y175474D01*
X476886Y174123D01*
X478540Y173168D01*
X480385Y172674D01*
X482295D01*
X484140Y173168D01*
X485794Y174123D01*
X487145Y175474D01*
X488100Y177128D01*
X488594Y178973D01*
Y180883D01*
X488100Y182728D01*
X487145Y184382D01*
X485794Y185732D01*
X484140Y186688D01*
X482295Y187182D01*
D02*
G37*
G36*
X298720Y187081D02*
X296810D01*
X294965Y186586D01*
X293311Y185631D01*
X291960Y184281D01*
X291005Y182627D01*
X290511Y180782D01*
Y178872D01*
X291005Y177027D01*
X291960Y175373D01*
X293311Y174022D01*
X294965Y173067D01*
X296810Y172573D01*
X298720D01*
X300565Y173067D01*
X302219Y174022D01*
X303570Y175373D01*
X304524Y177027D01*
X305019Y178872D01*
Y180782D01*
X304524Y182627D01*
X303570Y184281D01*
X302219Y185631D01*
X300565Y186586D01*
X298720Y187081D01*
D02*
G37*
G36*
X888526Y152270D02*
X887474D01*
X886730Y151526D01*
Y150474D01*
X887474Y149730D01*
X888526D01*
X889270Y150474D01*
Y151526D01*
X888526Y152270D01*
D02*
G37*
G36*
X660095Y161782D02*
X658185D01*
X656340Y161287D01*
X654686Y160333D01*
X653335Y158982D01*
X652380Y157328D01*
X651886Y155483D01*
Y153573D01*
X652380Y151728D01*
X653335Y150074D01*
X654686Y148723D01*
X656340Y147768D01*
X658185Y147274D01*
X660095D01*
X661940Y147768D01*
X663594Y148723D01*
X664945Y150074D01*
X665900Y151728D01*
X666394Y153573D01*
Y155483D01*
X665900Y157328D01*
X664945Y158982D01*
X663594Y160333D01*
X661940Y161287D01*
X660095Y161782D01*
D02*
G37*
G36*
X634695D02*
X632785D01*
X630940Y161287D01*
X629286Y160333D01*
X627935Y158982D01*
X626980Y157328D01*
X626486Y155483D01*
Y153573D01*
X626980Y151728D01*
X627935Y150074D01*
X629286Y148723D01*
X630940Y147768D01*
X632785Y147274D01*
X634695D01*
X636540Y147768D01*
X638194Y148723D01*
X639544Y150074D01*
X640499Y151728D01*
X640994Y153573D01*
Y155483D01*
X640499Y157328D01*
X639544Y158982D01*
X638194Y160333D01*
X636540Y161287D01*
X634695Y161782D01*
D02*
G37*
G36*
X520395D02*
X518485D01*
X516640Y161287D01*
X514986Y160333D01*
X513635Y158982D01*
X512680Y157328D01*
X512186Y155483D01*
Y153573D01*
X512680Y151728D01*
X513635Y150074D01*
X514986Y148723D01*
X516640Y147768D01*
X518485Y147274D01*
X520395D01*
X522240Y147768D01*
X523894Y148723D01*
X525244Y150074D01*
X526199Y151728D01*
X526694Y153573D01*
Y155483D01*
X526199Y157328D01*
X525244Y158982D01*
X523894Y160333D01*
X522240Y161287D01*
X520395Y161782D01*
D02*
G37*
G36*
X494995D02*
X493085D01*
X491240Y161287D01*
X489586Y160333D01*
X488235Y158982D01*
X487280Y157328D01*
X486786Y155483D01*
Y153573D01*
X487280Y151728D01*
X488235Y150074D01*
X489586Y148723D01*
X491240Y147768D01*
X493085Y147274D01*
X494995D01*
X496840Y147768D01*
X498494Y148723D01*
X499845Y150074D01*
X500799Y151728D01*
X501294Y153573D01*
Y155483D01*
X500799Y157328D01*
X499845Y158982D01*
X498494Y160333D01*
X496840Y161287D01*
X494995Y161782D01*
D02*
G37*
G36*
X260620Y161681D02*
X258710D01*
X256865Y161186D01*
X255211Y160231D01*
X253860Y158881D01*
X252905Y157227D01*
X252411Y155382D01*
Y154977D01*
X250177D01*
X249949Y154882D01*
X249788Y154816D01*
X242861Y147889D01*
X242700Y147500D01*
Y143978D01*
X231111Y132389D01*
X230950Y132000D01*
Y125471D01*
X230423Y125252D01*
X230184Y124675D01*
Y120025D01*
X230423Y119448D01*
X231000Y119209D01*
X232000D01*
X232577Y119448D01*
X232816Y120025D01*
Y124675D01*
X232577Y125252D01*
X232050Y125471D01*
Y131772D01*
X243639Y143361D01*
X243800Y143750D01*
Y147272D01*
X250405Y153877D01*
X252411D01*
Y153472D01*
X252905Y151627D01*
X253860Y149973D01*
X255211Y148622D01*
X256865Y147667D01*
X258710Y147173D01*
X260620D01*
X262465Y147667D01*
X264119Y148622D01*
X265469Y149973D01*
X266425Y151627D01*
X266919Y153472D01*
Y155382D01*
X266425Y157227D01*
X265469Y158881D01*
X264119Y160231D01*
X262465Y161186D01*
X260620Y161681D01*
D02*
G37*
G36*
X1501767Y168074D02*
X1498146D01*
X1494648Y167137D01*
X1491511Y165326D01*
X1488951Y162765D01*
X1487140Y159629D01*
X1486203Y156131D01*
Y152509D01*
X1487140Y149011D01*
X1488951Y145875D01*
X1491511Y143314D01*
X1494648Y141503D01*
X1498146Y140566D01*
X1501767D01*
X1505265Y141503D01*
X1508402Y143314D01*
X1510963Y145875D01*
X1512773Y149011D01*
X1513710Y152509D01*
Y156131D01*
X1512773Y159629D01*
X1510963Y162765D01*
X1508402Y165326D01*
X1505265Y167137D01*
X1501767Y168074D01*
D02*
G37*
G36*
X101767D02*
X98146D01*
X94647Y167137D01*
X91511Y165326D01*
X88950Y162765D01*
X87140Y159629D01*
X86202Y156131D01*
Y152509D01*
X87140Y149011D01*
X88950Y145875D01*
X91511Y143314D01*
X94647Y141503D01*
X98146Y140566D01*
X101767D01*
X105265Y141503D01*
X108401Y143314D01*
X110962Y145875D01*
X112773Y149011D01*
X113710Y152509D01*
Y156131D01*
X112773Y159629D01*
X110962Y162765D01*
X108401Y165326D01*
X105265Y167137D01*
X101767Y168074D01*
D02*
G37*
G36*
X1068026Y138270D02*
X1066974D01*
X1066230Y137526D01*
Y136474D01*
X1066974Y135730D01*
X1068026D01*
X1068770Y136474D01*
Y137526D01*
X1068026Y138270D01*
D02*
G37*
G36*
X1331776Y134020D02*
X1330724D01*
X1329980Y133276D01*
Y132224D01*
X1330724Y131480D01*
X1331776D01*
X1332520Y132224D01*
Y133276D01*
X1331776Y134020D01*
D02*
G37*
G36*
X1313776Y133270D02*
X1312724D01*
X1311980Y132526D01*
Y131474D01*
X1312724Y130730D01*
X1313776D01*
X1314520Y131474D01*
Y132526D01*
X1313776Y133270D01*
D02*
G37*
G36*
X494325Y132566D02*
X489675D01*
X489098Y132327D01*
X488859Y131750D01*
Y130750D01*
X489098Y130173D01*
X489675Y129934D01*
X494325D01*
X494902Y130173D01*
X495141Y130750D01*
Y131750D01*
X494902Y132327D01*
X494325Y132566D01*
D02*
G37*
G36*
X456895Y187182D02*
X454985D01*
X453140Y186688D01*
X451486Y185732D01*
X450135Y184382D01*
X449180Y182728D01*
X448686Y180883D01*
Y178973D01*
X449180Y177128D01*
X450135Y175474D01*
X451486Y174123D01*
X453140Y173168D01*
X454978Y172676D01*
Y149560D01*
X455259Y148880D01*
X473570Y130569D01*
X474250Y130288D01*
X480701D01*
X480748Y130173D01*
X481325Y129934D01*
X485975D01*
X486552Y130173D01*
X486791Y130750D01*
Y131750D01*
X486552Y132327D01*
X485975Y132566D01*
X481325D01*
X480748Y132327D01*
X480701Y132212D01*
X474649D01*
X456902Y149959D01*
Y172676D01*
X458740Y173168D01*
X460394Y174123D01*
X461744Y175474D01*
X462700Y177128D01*
X463194Y178973D01*
Y180883D01*
X462700Y182728D01*
X461744Y184382D01*
X460394Y185732D01*
X458740Y186688D01*
X456895Y187182D01*
D02*
G37*
G36*
X638690Y130991D02*
X634040D01*
X633463Y130752D01*
X633223Y130175D01*
Y129175D01*
X633463Y128598D01*
X634040Y128359D01*
X638690D01*
X639267Y128598D01*
X639506Y129175D01*
Y130175D01*
X639267Y130752D01*
X638690Y130991D01*
D02*
G37*
G36*
X596595Y187182D02*
X594685D01*
X592840Y186688D01*
X591186Y185732D01*
X589835Y184382D01*
X588880Y182728D01*
X588386Y180883D01*
Y178973D01*
X588880Y177128D01*
X589835Y175474D01*
X591186Y174123D01*
X592840Y173168D01*
X594678Y172676D01*
Y148610D01*
X594959Y147930D01*
X613895Y128995D01*
X614576Y128713D01*
X625065D01*
X625113Y128598D01*
X625690Y128359D01*
X630340D01*
X630917Y128598D01*
X631156Y129175D01*
Y130175D01*
X630917Y130752D01*
X630340Y130991D01*
X625690D01*
X625113Y130752D01*
X625065Y130637D01*
X614974D01*
X596602Y149009D01*
Y172676D01*
X598440Y173168D01*
X600094Y174123D01*
X601445Y175474D01*
X602399Y177128D01*
X602894Y178973D01*
Y180883D01*
X602399Y182728D01*
X601445Y184382D01*
X600094Y185732D01*
X598440Y186688D01*
X596595Y187182D01*
D02*
G37*
G36*
X494325Y127566D02*
X489675D01*
X489098Y127327D01*
X488859Y126750D01*
Y125750D01*
X489098Y125173D01*
X489675Y124934D01*
X494325D01*
X494902Y125173D01*
X495141Y125750D01*
Y126750D01*
X494902Y127327D01*
X494325Y127566D01*
D02*
G37*
G36*
X450494Y161782D02*
X435986D01*
Y147274D01*
X449133D01*
X468078Y128329D01*
X471162Y125245D01*
X471843Y124963D01*
X472523Y125245D01*
X472541Y125288D01*
X480701D01*
X480748Y125173D01*
X481325Y124934D01*
X485975D01*
X486552Y125173D01*
X486791Y125750D01*
Y126750D01*
X486552Y127327D01*
X485975Y127566D01*
X481325D01*
X480748Y127327D01*
X480701Y127212D01*
X471916D01*
X469439Y129689D01*
X450494Y148635D01*
Y161782D01*
D02*
G37*
G36*
X1434954Y135554D02*
X1432546D01*
X1430321Y134633D01*
X1428618Y132929D01*
X1427696Y130704D01*
Y128296D01*
X1428618Y126071D01*
X1430321Y124368D01*
X1432546Y123446D01*
X1434954D01*
X1437179Y124368D01*
X1438882Y126071D01*
X1439804Y128296D01*
Y130704D01*
X1438882Y132929D01*
X1437179Y134633D01*
X1434954Y135554D01*
D02*
G37*
G36*
X1383954D02*
X1381546D01*
X1379321Y134633D01*
X1377617Y132929D01*
X1376696Y130704D01*
Y128296D01*
X1377617Y126071D01*
X1379321Y124368D01*
X1381546Y123446D01*
X1383954D01*
X1386179Y124368D01*
X1387882Y126071D01*
X1388804Y128296D01*
Y130704D01*
X1387882Y132929D01*
X1386179Y134633D01*
X1383954Y135554D01*
D02*
G37*
G36*
X638690Y125991D02*
X634040D01*
X633463Y125752D01*
X633223Y125175D01*
Y124175D01*
X633463Y123598D01*
X634040Y123359D01*
X638690D01*
X639267Y123598D01*
X639506Y124175D01*
Y125175D01*
X639267Y125752D01*
X638690Y125991D01*
D02*
G37*
G36*
X590194Y161782D02*
X575686D01*
Y147274D01*
X581978D01*
Y142310D01*
X582259Y141629D01*
X599895Y123995D01*
X600575Y123713D01*
X625065D01*
X625113Y123598D01*
X625690Y123359D01*
X630340D01*
X630917Y123598D01*
X631156Y124175D01*
Y125175D01*
X630917Y125752D01*
X630340Y125991D01*
X625690D01*
X625113Y125752D01*
X625065Y125638D01*
X600974D01*
X583902Y142709D01*
Y147274D01*
X590194D01*
Y161782D01*
D02*
G37*
G36*
X273320Y187081D02*
X271410D01*
X269565Y186586D01*
X267911Y185631D01*
X266560Y184281D01*
X265605Y182627D01*
X265111Y180782D01*
Y178872D01*
X265605Y177027D01*
X266560Y175373D01*
X267911Y174022D01*
X269565Y173067D01*
X271410Y172573D01*
X273320D01*
X275165Y173067D01*
X276819Y174022D01*
X278169Y175373D01*
X279125Y177027D01*
X279433Y178180D01*
X279717Y178256D01*
X294950Y163022D01*
Y142478D01*
X280612Y128139D01*
X280450Y127751D01*
Y125970D01*
X279923Y125752D01*
X279684Y125175D01*
Y120525D01*
X279923Y119948D01*
X280500Y119709D01*
X281500D01*
X282078Y119948D01*
X282316Y120525D01*
Y125175D01*
X282078Y125752D01*
X281550Y125970D01*
Y127523D01*
X295889Y141861D01*
X296050Y142250D01*
Y163250D01*
X295889Y163639D01*
X280218Y179309D01*
X279829Y179470D01*
X279619D01*
Y180782D01*
X279125Y182627D01*
X278169Y184281D01*
X276819Y185631D01*
X275165Y186586D01*
X273320Y187081D01*
D02*
G37*
G36*
X286020Y161681D02*
X284110D01*
X282265Y161186D01*
X280611Y160231D01*
X279260Y158881D01*
X278305Y157227D01*
X277811Y155382D01*
Y153472D01*
X278305Y151627D01*
X279260Y149973D01*
X280611Y148622D01*
X282265Y147667D01*
X284110Y147173D01*
X284515D01*
Y143293D01*
X275611Y134389D01*
X275450Y134000D01*
Y125970D01*
X274923Y125752D01*
X274684Y125175D01*
Y120525D01*
X274923Y119948D01*
X275500Y119709D01*
X276500D01*
X277077Y119948D01*
X277316Y120525D01*
Y125175D01*
X277077Y125752D01*
X276550Y125970D01*
Y133772D01*
X285454Y142676D01*
X285615Y143065D01*
Y147173D01*
X286020D01*
X287865Y147667D01*
X289519Y148622D01*
X290870Y149973D01*
X291824Y151627D01*
X292319Y153472D01*
Y155382D01*
X291824Y157227D01*
X290870Y158881D01*
X289519Y160231D01*
X287865Y161186D01*
X286020Y161681D01*
D02*
G37*
G36*
X247920Y187081D02*
X246010D01*
X244165Y186586D01*
X242511Y185631D01*
X241160Y184281D01*
X240205Y182627D01*
X239711Y180782D01*
Y178872D01*
X240205Y177027D01*
X241160Y175373D01*
X242511Y174022D01*
X244165Y173067D01*
X246010Y172573D01*
X247920D01*
X249765Y173067D01*
X251419Y174022D01*
X252770Y175373D01*
X253724Y177027D01*
X254219Y178872D01*
Y179277D01*
X256754D01*
X273700Y162331D01*
Y141478D01*
X265611Y133389D01*
X265450Y133000D01*
Y125970D01*
X264923Y125752D01*
X264684Y125175D01*
Y120525D01*
X264923Y119948D01*
X265500Y119709D01*
X266500D01*
X267077Y119948D01*
X267316Y120525D01*
Y125175D01*
X267077Y125752D01*
X266550Y125970D01*
Y132773D01*
X274639Y140862D01*
X274800Y141250D01*
Y162559D01*
X274639Y162948D01*
X257371Y180216D01*
X256982Y180377D01*
X254219D01*
Y180782D01*
X253724Y182627D01*
X252770Y184281D01*
X251419Y185631D01*
X249765Y186586D01*
X247920Y187081D01*
D02*
G37*
G36*
X262250Y168300D02*
X247588D01*
X247199Y168139D01*
X239005Y159945D01*
X238719Y160231D01*
X237065Y161186D01*
X235220Y161681D01*
X233310D01*
X231465Y161186D01*
X229811Y160231D01*
X228460Y158881D01*
X227505Y157227D01*
X227011Y155382D01*
Y153472D01*
X227505Y151627D01*
X228460Y149973D01*
X229811Y148622D01*
X231465Y147667D01*
X233310Y147173D01*
X235220D01*
X237065Y147667D01*
X238719Y148622D01*
X240070Y149973D01*
X241024Y151627D01*
X241519Y153472D01*
Y155382D01*
X241024Y157227D01*
X240070Y158881D01*
X239783Y159167D01*
X247816Y167200D01*
X262022D01*
X269200Y160022D01*
Y144728D01*
X260611Y136139D01*
X260450Y135750D01*
Y125970D01*
X259923Y125752D01*
X259684Y125175D01*
Y120525D01*
X259923Y119948D01*
X260500Y119709D01*
X261500D01*
X262077Y119948D01*
X262316Y120525D01*
Y125175D01*
X262077Y125752D01*
X261550Y125970D01*
Y135522D01*
X270139Y144111D01*
X270300Y144500D01*
Y160250D01*
X270139Y160639D01*
X262639Y168139D01*
X262250Y168300D01*
D02*
G37*
G36*
X222520Y187081D02*
X220610D01*
X218765Y186586D01*
X217111Y185631D01*
X215760Y184281D01*
X214805Y182627D01*
X214311Y180782D01*
Y178872D01*
X214805Y177027D01*
X215760Y175373D01*
X217111Y174022D01*
X218765Y173067D01*
X220610Y172573D01*
X221015D01*
Y138185D01*
X221176Y137796D01*
X225950Y133022D01*
Y125471D01*
X225422Y125252D01*
X225184Y124675D01*
Y120025D01*
X225422Y119448D01*
X226000Y119209D01*
X227000D01*
X227577Y119448D01*
X227816Y120025D01*
Y124675D01*
X227577Y125252D01*
X227050Y125471D01*
Y133250D01*
X226888Y133639D01*
X222115Y138413D01*
Y172573D01*
X222520D01*
X224365Y173067D01*
X226019Y174022D01*
X227369Y175373D01*
X228325Y177027D01*
X228819Y178872D01*
Y180782D01*
X228325Y182627D01*
X227369Y184281D01*
X226019Y185631D01*
X224365Y186586D01*
X222520Y187081D01*
D02*
G37*
G36*
X209820Y161681D02*
X207910D01*
X206065Y161186D01*
X204411Y160231D01*
X203060Y158881D01*
X202105Y157227D01*
X201611Y155382D01*
Y153472D01*
X202105Y151627D01*
X203060Y149973D01*
X204411Y148622D01*
X206065Y147667D01*
X207910Y147173D01*
X208315D01*
Y141385D01*
X208476Y140996D01*
X215950Y133522D01*
Y125471D01*
X215422Y125252D01*
X215184Y124675D01*
Y120025D01*
X215422Y119448D01*
X216000Y119209D01*
X217000D01*
X217577Y119448D01*
X217816Y120025D01*
Y124675D01*
X217577Y125252D01*
X217050Y125471D01*
Y133750D01*
X216888Y134139D01*
X209415Y141613D01*
Y147173D01*
X209820D01*
X211665Y147667D01*
X213319Y148622D01*
X214669Y149973D01*
X215625Y151627D01*
X216119Y153472D01*
Y155382D01*
X215625Y157227D01*
X214669Y158881D01*
X213319Y160231D01*
X211665Y161186D01*
X209820Y161681D01*
D02*
G37*
G36*
X203419Y187081D02*
X188911D01*
Y172573D01*
X195615D01*
Y145085D01*
X195776Y144696D01*
X210950Y129522D01*
Y125471D01*
X210423Y125252D01*
X210184Y124675D01*
Y120025D01*
X210423Y119448D01*
X211000Y119209D01*
X212000D01*
X212577Y119448D01*
X212816Y120025D01*
Y124675D01*
X212577Y125252D01*
X212050Y125471D01*
Y129750D01*
X211889Y130139D01*
X196715Y145313D01*
Y172573D01*
X203419D01*
Y187081D01*
D02*
G37*
G36*
X493825Y123607D02*
X490175D01*
X489216Y123210D01*
X488818Y122250D01*
Y120250D01*
X489216Y119290D01*
X490175Y118892D01*
X493825D01*
X494785Y119290D01*
X495182Y120250D01*
Y122250D01*
X494785Y123210D01*
X493825Y123607D01*
D02*
G37*
G36*
X1341526Y120020D02*
X1340474D01*
X1339730Y119276D01*
Y118224D01*
X1340474Y117480D01*
X1341526D01*
X1342270Y118224D01*
Y119276D01*
X1341526Y120020D01*
D02*
G37*
G36*
X638190Y122032D02*
X634540D01*
X633580Y121635D01*
X633182Y120675D01*
Y118675D01*
X633580Y117715D01*
X634540Y117318D01*
X638190D01*
X639149Y117715D01*
X639547Y118675D01*
Y120675D01*
X639149Y121635D01*
X638190Y122032D01*
D02*
G37*
G36*
X494325Y117566D02*
X489675D01*
X489098Y117327D01*
X488859Y116750D01*
Y115750D01*
X489098Y115173D01*
X489675Y114934D01*
X494325D01*
X494902Y115173D01*
X495141Y115750D01*
Y116750D01*
X494902Y117327D01*
X494325Y117566D01*
D02*
G37*
G36*
X507695Y187182D02*
X505785D01*
X503940Y186688D01*
X502286Y185732D01*
X500935Y184382D01*
X499980Y182728D01*
X499486Y180883D01*
Y178973D01*
X499980Y177128D01*
X500935Y175474D01*
X502286Y174123D01*
X503940Y173168D01*
X505778Y172676D01*
Y102888D01*
X499101Y96212D01*
X474899D01*
X469212Y101898D01*
Y112343D01*
X472158Y115288D01*
X480701D01*
X480748Y115173D01*
X481325Y114934D01*
X485975D01*
X486552Y115173D01*
X486791Y115750D01*
Y116750D01*
X486552Y117327D01*
X485975Y117566D01*
X481325D01*
X480748Y117327D01*
X480701Y117212D01*
X471759D01*
X471078Y116931D01*
X467570Y113422D01*
X467288Y112741D01*
Y101500D01*
X467570Y100819D01*
X473820Y94569D01*
X474500Y94288D01*
X499500D01*
X500180Y94569D01*
X507420Y101809D01*
X507702Y102490D01*
Y172676D01*
X509540Y173168D01*
X511194Y174123D01*
X512545Y175474D01*
X513499Y177128D01*
X513994Y178973D01*
Y180883D01*
X513499Y182728D01*
X512545Y184382D01*
X511194Y185732D01*
X509540Y186688D01*
X507695Y187182D01*
D02*
G37*
G36*
X638690Y115991D02*
X634040D01*
X633463Y115752D01*
X633223Y115175D01*
Y114175D01*
X633463Y113598D01*
X634040Y113359D01*
X638690D01*
X639267Y113598D01*
X639506Y114175D01*
Y115175D01*
X639267Y115752D01*
X638690Y115991D01*
D02*
G37*
G36*
X647395Y187182D02*
X645485D01*
X643640Y186688D01*
X641986Y185732D01*
X640635Y184382D01*
X639680Y182728D01*
X639186Y180883D01*
Y178973D01*
X639680Y177128D01*
X640635Y175474D01*
X641986Y174123D01*
X643640Y173168D01*
X645478Y172676D01*
Y142060D01*
X645759Y141380D01*
X654538Y132601D01*
Y101149D01*
X644602Y91212D01*
X615649D01*
X608712Y98149D01*
Y107807D01*
X614618Y113713D01*
X625065D01*
X625113Y113598D01*
X625690Y113359D01*
X630340D01*
X630917Y113598D01*
X631156Y114175D01*
Y115175D01*
X630917Y115752D01*
X630340Y115991D01*
X625690D01*
X625113Y115752D01*
X625065Y115638D01*
X614220D01*
X613540Y115356D01*
X607070Y108886D01*
X606788Y108205D01*
Y97750D01*
X607070Y97070D01*
X614570Y89570D01*
X615250Y89288D01*
X645000D01*
X645681Y89570D01*
X656180Y100070D01*
X656462Y100750D01*
Y133000D01*
X656180Y133680D01*
X647402Y142459D01*
Y172676D01*
X649240Y173168D01*
X650894Y174123D01*
X652244Y175474D01*
X653199Y177128D01*
X653694Y178973D01*
Y180883D01*
X653199Y182728D01*
X652244Y184382D01*
X650894Y185732D01*
X649240Y186688D01*
X647395Y187182D01*
D02*
G37*
G36*
X1161276Y130270D02*
X1160224D01*
X1159480Y129526D01*
Y128474D01*
X1160224Y127730D01*
X1160453D01*
X1160788Y127395D01*
Y120755D01*
X1157495D01*
Y112246D01*
X1166004D01*
Y120755D01*
X1162712D01*
Y127794D01*
X1162430Y128474D01*
X1162020Y128884D01*
Y129526D01*
X1161276Y130270D01*
D02*
G37*
G36*
X1135776Y127020D02*
X1134724D01*
X1133980Y126276D01*
Y125224D01*
X1134493Y124712D01*
X1134715Y124174D01*
X1135038Y123851D01*
Y120755D01*
X1131745D01*
Y112246D01*
X1140254D01*
Y120755D01*
X1136962D01*
Y124250D01*
X1136680Y124930D01*
X1136453Y125157D01*
X1136520Y125224D01*
Y126276D01*
X1135776Y127020D01*
D02*
G37*
G36*
X1112276Y130770D02*
X1111224D01*
X1110480Y130026D01*
Y129591D01*
X1108570Y127681D01*
X1108288Y127000D01*
Y120755D01*
X1104996D01*
Y112246D01*
X1113505D01*
Y120755D01*
X1110212D01*
Y126602D01*
X1111841Y128230D01*
X1112276D01*
X1113020Y128974D01*
Y130026D01*
X1112276Y130770D01*
D02*
G37*
G36*
X1179026Y131270D02*
X1177974D01*
X1177230Y130526D01*
Y129474D01*
X1177974Y128730D01*
X1179026D01*
X1179334Y129038D01*
X1183851D01*
X1186538Y126351D01*
Y120505D01*
X1183245D01*
Y111996D01*
X1191755D01*
Y120505D01*
X1188462D01*
Y126750D01*
X1188180Y127430D01*
X1184930Y130681D01*
X1184250Y130962D01*
X1179334D01*
X1179026Y131270D01*
D02*
G37*
G36*
X281500Y117641D02*
X280500D01*
X279923Y117402D01*
X279684Y116825D01*
Y112175D01*
X279923Y111598D01*
X280500Y111359D01*
X281500D01*
X282078Y111598D01*
X282316Y112175D01*
Y116825D01*
X282078Y117402D01*
X281500Y117641D01*
D02*
G37*
G36*
X276500D02*
X275500D01*
X274923Y117402D01*
X274684Y116825D01*
Y112175D01*
X274923Y111598D01*
X275500Y111359D01*
X276500D01*
X277077Y111598D01*
X277316Y112175D01*
Y116825D01*
X277077Y117402D01*
X276500Y117641D01*
D02*
G37*
G36*
X266500D02*
X265500D01*
X264923Y117402D01*
X264684Y116825D01*
Y112175D01*
X264923Y111598D01*
X265500Y111359D01*
X266500D01*
X267077Y111598D01*
X267316Y112175D01*
Y116825D01*
X267077Y117402D01*
X266500Y117641D01*
D02*
G37*
G36*
X261500D02*
X260500D01*
X259923Y117402D01*
X259684Y116825D01*
Y112175D01*
X259923Y111598D01*
X260500Y111359D01*
X261500D01*
X262077Y111598D01*
X262316Y112175D01*
Y116825D01*
X262077Y117402D01*
X261500Y117641D01*
D02*
G37*
G36*
X272000Y117682D02*
X270000D01*
X269040Y117285D01*
X268643Y116325D01*
Y112675D01*
X269040Y111715D01*
X270000Y111318D01*
X272000D01*
X272960Y111715D01*
X273357Y112675D01*
Y116325D01*
X272960Y117285D01*
X272000Y117682D01*
D02*
G37*
G36*
X232000Y117141D02*
X231000D01*
X230423Y116902D01*
X230184Y116325D01*
Y111675D01*
X230423Y111098D01*
X231000Y110859D01*
X232000D01*
X232577Y111098D01*
X232816Y111675D01*
Y116325D01*
X232577Y116902D01*
X232000Y117141D01*
D02*
G37*
G36*
X227000D02*
X226000D01*
X225422Y116902D01*
X225184Y116325D01*
Y111675D01*
X225422Y111098D01*
X226000Y110859D01*
X227000D01*
X227577Y111098D01*
X227816Y111675D01*
Y116325D01*
X227577Y116902D01*
X227000Y117141D01*
D02*
G37*
G36*
X217000D02*
X216000D01*
X215422Y116902D01*
X215184Y116325D01*
Y111675D01*
X215422Y111098D01*
X216000Y110859D01*
X217000D01*
X217577Y111098D01*
X217816Y111675D01*
Y116325D01*
X217577Y116902D01*
X217000Y117141D01*
D02*
G37*
G36*
X212000D02*
X211000D01*
X210423Y116902D01*
X210184Y116325D01*
Y111675D01*
X210423Y111098D01*
X211000Y110859D01*
X212000D01*
X212577Y111098D01*
X212816Y111675D01*
Y116325D01*
X212577Y116902D01*
X212000Y117141D01*
D02*
G37*
G36*
X222500Y117182D02*
X220500D01*
X219540Y116785D01*
X219142Y115825D01*
Y112175D01*
X219540Y111215D01*
X220500Y110818D01*
X222500D01*
X223460Y111215D01*
X223857Y112175D01*
Y115825D01*
X223460Y116785D01*
X222500Y117182D01*
D02*
G37*
G36*
X494325Y112566D02*
X489675D01*
X489098Y112327D01*
X488859Y111750D01*
Y110750D01*
X489098Y110173D01*
X489675Y109934D01*
X494325D01*
X494902Y110173D01*
X495141Y110750D01*
Y111750D01*
X494902Y112327D01*
X494325Y112566D01*
D02*
G37*
G36*
X469595Y161782D02*
X467685D01*
X465840Y161287D01*
X464186Y160333D01*
X462835Y158982D01*
X461880Y157328D01*
X461386Y155483D01*
Y153573D01*
X461880Y151728D01*
X462835Y150074D01*
X464186Y148723D01*
X465840Y147768D01*
X467467Y147332D01*
X467678Y147211D01*
X467959Y146531D01*
X473921Y140570D01*
X474601Y140288D01*
X497602D01*
X501038Y136851D01*
Y106149D01*
X496604Y101715D01*
X477645D01*
X474712Y104649D01*
Y108601D01*
X476399Y110288D01*
X480701D01*
X480748Y110173D01*
X481325Y109934D01*
X485975D01*
X486552Y110173D01*
X486791Y110750D01*
Y111750D01*
X486552Y112327D01*
X485975Y112566D01*
X481325D01*
X480748Y112327D01*
X480701Y112212D01*
X476000D01*
X475670Y112075D01*
X475320Y111930D01*
X473069Y109680D01*
X473069Y109680D01*
X473069Y109680D01*
X472924Y109330D01*
X472788Y109000D01*
X472788Y109000D01*
X472788Y109000D01*
Y104250D01*
X473069Y103570D01*
X476567Y100073D01*
X477247Y99791D01*
X497003D01*
X497683Y100073D01*
X502681Y105070D01*
X502962Y105750D01*
Y137250D01*
X502681Y137930D01*
X498681Y141931D01*
X498681Y141931D01*
X498681Y141931D01*
X498000Y142212D01*
X475000D01*
X470045Y147167D01*
X470111Y147412D01*
X471440Y147768D01*
X473094Y148723D01*
X474445Y150074D01*
X475400Y151728D01*
X475894Y153573D01*
Y155483D01*
X475400Y157328D01*
X474445Y158982D01*
X473094Y160333D01*
X471440Y161287D01*
X469595Y161782D01*
D02*
G37*
G36*
X638690Y110991D02*
X634040D01*
X633463Y110752D01*
X633223Y110175D01*
Y109175D01*
X633463Y108598D01*
X634040Y108359D01*
X638690D01*
X639267Y108598D01*
X639506Y109175D01*
Y110175D01*
X639267Y110752D01*
X638690Y110991D01*
D02*
G37*
G36*
X609295Y161782D02*
X607385D01*
X605540Y161287D01*
X603886Y160333D01*
X602535Y158982D01*
X601580Y157328D01*
X601086Y155483D01*
Y153573D01*
X601580Y151728D01*
X602535Y150074D01*
X603886Y148723D01*
X605540Y147768D01*
X607385Y147274D01*
X609295D01*
X611140Y147768D01*
X612787Y148720D01*
X621722Y139784D01*
X622403Y139503D01*
X640142D01*
X645537Y134108D01*
Y102899D01*
X640101Y97462D01*
X619399D01*
X616212Y100649D01*
Y105852D01*
X619073Y108713D01*
X625065D01*
X625113Y108598D01*
X625690Y108359D01*
X630340D01*
X630917Y108598D01*
X631156Y109175D01*
Y110175D01*
X630917Y110752D01*
X630340Y110991D01*
X625690D01*
X625113Y110752D01*
X625065Y110637D01*
X618675D01*
X618675Y110637D01*
X618675Y110637D01*
X618324Y110492D01*
X617994Y110355D01*
X617994Y110355D01*
X617994Y110355D01*
X614570Y106930D01*
X614433Y106600D01*
X614288Y106250D01*
Y100250D01*
X614570Y99570D01*
X618320Y95820D01*
X619000Y95538D01*
X640500D01*
X641180Y95820D01*
X647180Y101820D01*
X647462Y102500D01*
Y134506D01*
X647180Y135187D01*
X641221Y141145D01*
X640541Y141427D01*
X622801D01*
X614148Y150080D01*
X615099Y151728D01*
X615594Y153573D01*
Y155483D01*
X615099Y157328D01*
X614145Y158982D01*
X612794Y160333D01*
X611140Y161287D01*
X609295Y161782D01*
D02*
G37*
G36*
X545776Y112020D02*
X544724D01*
X543980Y111276D01*
Y110224D01*
X544287Y109916D01*
Y101754D01*
X541246D01*
Y91246D01*
X545038D01*
Y83334D01*
X544480Y82776D01*
Y81724D01*
X545224Y80980D01*
X546276D01*
X547020Y81724D01*
Y82776D01*
X546962Y82834D01*
Y91246D01*
X550754D01*
Y101754D01*
X546212D01*
Y109916D01*
X546520Y110224D01*
Y111276D01*
X545776Y112020D01*
D02*
G37*
G36*
X686165Y107532D02*
X682914D01*
X679726Y106898D01*
X676722Y105653D01*
X674019Y103847D01*
X671720Y101549D01*
X669914Y98845D01*
X668670Y95842D01*
X668036Y92653D01*
Y89402D01*
X668670Y86214D01*
X669914Y83210D01*
X671720Y80507D01*
X674019Y78208D01*
X676722Y76402D01*
X679726Y75158D01*
X682914Y74524D01*
X686165D01*
X689354Y75158D01*
X692357Y76402D01*
X695061Y78208D01*
X697359Y80507D01*
X699165Y83210D01*
X700410Y86214D01*
X701044Y89402D01*
Y92653D01*
X700410Y95842D01*
X699165Y98845D01*
X697359Y101549D01*
X695061Y103847D01*
X692357Y105653D01*
X689354Y106898D01*
X686165Y107532D01*
D02*
G37*
G36*
X432165D02*
X428914D01*
X425726Y106898D01*
X422722Y105653D01*
X420019Y103847D01*
X417720Y101549D01*
X415914Y98845D01*
X414670Y95842D01*
X414036Y92653D01*
Y89402D01*
X414670Y86214D01*
X415914Y83210D01*
X417720Y80507D01*
X420019Y78208D01*
X422722Y76402D01*
X425726Y75158D01*
X428914Y74524D01*
X432165D01*
X435354Y75158D01*
X438357Y76402D01*
X441060Y78208D01*
X443359Y80507D01*
X445165Y83210D01*
X446410Y86214D01*
X447044Y89402D01*
Y92653D01*
X446410Y95842D01*
X445165Y98845D01*
X443359Y101549D01*
X441060Y103847D01*
X438357Y105653D01*
X435354Y106898D01*
X432165Y107532D01*
D02*
G37*
G36*
X312090Y107431D02*
X308839D01*
X305651Y106797D01*
X302647Y105552D01*
X299944Y103746D01*
X297645Y101447D01*
X295839Y98744D01*
X294595Y95741D01*
X293961Y92552D01*
Y89301D01*
X294595Y86113D01*
X295839Y83109D01*
X297645Y80406D01*
X299944Y78107D01*
X302647Y76301D01*
X305651Y75057D01*
X308839Y74423D01*
X312090D01*
X315279Y75057D01*
X318283Y76301D01*
X320986Y78107D01*
X323284Y80406D01*
X325090Y83109D01*
X326335Y86113D01*
X326969Y89301D01*
Y92552D01*
X326335Y95741D01*
X325090Y98744D01*
X323284Y101447D01*
X320986Y103746D01*
X318283Y105552D01*
X315279Y106797D01*
X312090Y107431D01*
D02*
G37*
G36*
X197790D02*
X194539D01*
X191351Y106797D01*
X188347Y105552D01*
X185644Y103746D01*
X183345Y101447D01*
X181539Y98744D01*
X180295Y95741D01*
X179661Y92552D01*
Y89301D01*
X180295Y86113D01*
X181539Y83109D01*
X183345Y80406D01*
X185644Y78107D01*
X188347Y76301D01*
X191351Y75057D01*
X194539Y74423D01*
X197790D01*
X200979Y75057D01*
X203983Y76301D01*
X206686Y78107D01*
X208984Y80406D01*
X210791Y83109D01*
X212035Y86113D01*
X212669Y89301D01*
Y92552D01*
X212035Y95741D01*
X210791Y98744D01*
X208984Y101447D01*
X206686Y103746D01*
X203983Y105552D01*
X200979Y106797D01*
X197790Y107431D01*
D02*
G37*
G36*
X1486072Y91060D02*
X1483043D01*
X1480117Y90276D01*
X1477494Y88761D01*
X1475352Y86619D01*
X1473837Y83996D01*
X1473053Y81070D01*
Y78041D01*
X1473837Y75115D01*
X1475352Y72492D01*
X1477494Y70350D01*
X1480117Y68836D01*
X1483043Y68052D01*
X1486072D01*
X1488998Y68836D01*
X1491621Y70350D01*
X1493763Y72492D01*
X1495278Y75115D01*
X1496062Y78041D01*
Y81070D01*
X1495278Y83996D01*
X1493763Y86619D01*
X1491621Y88761D01*
X1488998Y90276D01*
X1486072Y91060D01*
D02*
G37*
G36*
X1436072D02*
X1433043D01*
X1430117Y90276D01*
X1427494Y88761D01*
X1425352Y86619D01*
X1423838Y83996D01*
X1423054Y81070D01*
Y78041D01*
X1423838Y75115D01*
X1425352Y72492D01*
X1427494Y70350D01*
X1430117Y68836D01*
X1433043Y68052D01*
X1436072D01*
X1438998Y68836D01*
X1441621Y70350D01*
X1443763Y72492D01*
X1445278Y75115D01*
X1446062Y78041D01*
Y81070D01*
X1445278Y83996D01*
X1443763Y86619D01*
X1441621Y88761D01*
X1438998Y90276D01*
X1436072Y91060D01*
D02*
G37*
G36*
X589074Y75982D02*
X587006D01*
X585008Y75447D01*
X583217Y74412D01*
X581755Y72950D01*
X580721Y71159D01*
X580186Y69162D01*
Y67094D01*
X580721Y65096D01*
X581755Y63305D01*
X583217Y61843D01*
X585008Y60809D01*
X587006Y60274D01*
X589074D01*
X591071Y60809D01*
X592862Y61843D01*
X594324Y63305D01*
X595358Y65096D01*
X595894Y67094D01*
Y69162D01*
X595358Y71159D01*
X594324Y72950D01*
X592862Y74412D01*
X591071Y75447D01*
X589074Y75982D01*
D02*
G37*
G36*
X567754Y101754D02*
X558246D01*
Y91246D01*
X561677D01*
Y75982D01*
X561606D01*
X559608Y75447D01*
X557817Y74412D01*
X556355Y72950D01*
X555321Y71159D01*
X554786Y69162D01*
Y67094D01*
X555321Y65096D01*
X556355Y63305D01*
X557817Y61843D01*
X559608Y60809D01*
X561606Y60274D01*
X563674D01*
X565671Y60809D01*
X567462Y61843D01*
X568924Y63305D01*
X569958Y65096D01*
X570494Y67094D01*
Y69162D01*
X569958Y71159D01*
X568924Y72950D01*
X567462Y74412D01*
X565671Y75447D01*
X563674Y75982D01*
X563602D01*
Y91246D01*
X567754D01*
Y101754D01*
D02*
G37*
G36*
X1365765Y74373D02*
X1363091D01*
X1360509Y73681D01*
X1358194Y72344D01*
X1356303Y70453D01*
X1354966Y68138D01*
X1354274Y65556D01*
Y62882D01*
X1354966Y60299D01*
X1356303Y57984D01*
X1358194Y56093D01*
X1360509Y54757D01*
X1363091Y54065D01*
X1365765D01*
X1368347Y54757D01*
X1370663Y56093D01*
X1372554Y57984D01*
X1373890Y60299D01*
X1374582Y62882D01*
Y65556D01*
X1373890Y68138D01*
X1372554Y70453D01*
X1370663Y72344D01*
X1368347Y73681D01*
X1365765Y74373D01*
D02*
G37*
G36*
X1295665D02*
X1292991D01*
X1290408Y73681D01*
X1288093Y72344D01*
X1286203Y70453D01*
X1284866Y68138D01*
X1284174Y65556D01*
Y62882D01*
X1284866Y60299D01*
X1286203Y57984D01*
X1288093Y56093D01*
X1290408Y54757D01*
X1292991Y54065D01*
X1295665D01*
X1298247Y54757D01*
X1300562Y56093D01*
X1302453Y57984D01*
X1303790Y60299D01*
X1304482Y62882D01*
Y65556D01*
X1303790Y68138D01*
X1302453Y70453D01*
X1300562Y72344D01*
X1298247Y73681D01*
X1295665Y74373D01*
D02*
G37*
G36*
X1050465Y72522D02*
X1029707D01*
Y51764D01*
X1050465D01*
Y72522D01*
D02*
G37*
G36*
X1003353D02*
X1000620D01*
X997980Y71814D01*
X995614Y70448D01*
X993681Y68515D01*
X992315Y66149D01*
X991608Y63509D01*
Y60776D01*
X992315Y58136D01*
X993681Y55770D01*
X995614Y53837D01*
X997980Y52471D01*
X1000620Y51764D01*
X1003353D01*
X1005993Y52471D01*
X1008359Y53837D01*
X1010292Y55770D01*
X1011658Y58136D01*
X1012365Y60776D01*
Y63509D01*
X1011658Y66149D01*
X1010292Y68515D01*
X1008359Y70448D01*
X1005993Y71814D01*
X1003353Y72522D01*
D02*
G37*
G36*
X965253D02*
X962520D01*
X959880Y71814D01*
X957514Y70448D01*
X955581Y68515D01*
X954215Y66149D01*
X953508Y63509D01*
Y60776D01*
X954215Y58136D01*
X955581Y55770D01*
X957514Y53837D01*
X959880Y52471D01*
X962520Y51764D01*
X965253D01*
X967893Y52471D01*
X970259Y53837D01*
X972192Y55770D01*
X973558Y58136D01*
X974266Y60776D01*
Y63509D01*
X973558Y66149D01*
X972192Y68515D01*
X970259Y70448D01*
X967893Y71814D01*
X965253Y72522D01*
D02*
G37*
G36*
X900605D02*
X879847D01*
Y51764D01*
X900605D01*
Y72522D01*
D02*
G37*
G36*
X853493D02*
X850760D01*
X848120Y71814D01*
X845754Y70448D01*
X843821Y68515D01*
X842455Y66149D01*
X841748Y63509D01*
Y60776D01*
X842455Y58136D01*
X843821Y55770D01*
X845754Y53837D01*
X848120Y52471D01*
X850760Y51764D01*
X853493D01*
X856133Y52471D01*
X858499Y53837D01*
X860432Y55770D01*
X861798Y58136D01*
X862505Y60776D01*
Y63509D01*
X861798Y66149D01*
X860432Y68515D01*
X858499Y70448D01*
X856133Y71814D01*
X853493Y72522D01*
D02*
G37*
G36*
X815393D02*
X812660D01*
X810020Y71814D01*
X807654Y70448D01*
X805721Y68515D01*
X804355Y66149D01*
X803648Y63509D01*
Y60776D01*
X804355Y58136D01*
X805721Y55770D01*
X807654Y53837D01*
X810020Y52471D01*
X812660Y51764D01*
X815393D01*
X818033Y52471D01*
X820399Y53837D01*
X822332Y55770D01*
X823698Y58136D01*
X824406Y60776D01*
Y63509D01*
X823698Y66149D01*
X822332Y68515D01*
X820399Y70448D01*
X818033Y71814D01*
X815393Y72522D01*
D02*
G37*
G36*
X528074Y58281D02*
X526006D01*
X524008Y57746D01*
X522217Y56712D01*
X520755Y55250D01*
X519721Y53459D01*
X519186Y51462D01*
Y51390D01*
X507004D01*
Y55004D01*
X496496D01*
Y45496D01*
X507004D01*
Y49465D01*
X519186D01*
Y49394D01*
X519721Y47396D01*
X520755Y45605D01*
X522217Y44143D01*
X524008Y43109D01*
X526006Y42573D01*
X528074D01*
X530071Y43109D01*
X531862Y44143D01*
X533325Y45605D01*
X534359Y47396D01*
X534894Y49394D01*
Y51462D01*
X534359Y53459D01*
X533325Y55250D01*
X531862Y56712D01*
X530071Y57746D01*
X528074Y58281D01*
D02*
G37*
G36*
X423874D02*
X421806D01*
X419809Y57746D01*
X418018Y56712D01*
X416555Y55250D01*
X415521Y53459D01*
X414986Y51462D01*
Y51390D01*
X400004D01*
Y55754D01*
X389496D01*
Y46246D01*
X400004D01*
Y49465D01*
X414986D01*
Y49394D01*
X415521Y47396D01*
X416555Y45605D01*
X418018Y44143D01*
X419809Y43109D01*
X421806Y42573D01*
X423874D01*
X425872Y43109D01*
X427663Y44143D01*
X429125Y45605D01*
X430159Y47396D01*
X430694Y49394D01*
Y51462D01*
X430159Y53459D01*
X429125Y55250D01*
X427663Y56712D01*
X425872Y57746D01*
X423874Y58281D01*
D02*
G37*
G36*
X295249Y57981D02*
X293181D01*
X291183Y57446D01*
X289393Y56411D01*
X287930Y54949D01*
X286896Y53158D01*
X286361Y51161D01*
Y51089D01*
X275004D01*
Y54754D01*
X264496D01*
Y45246D01*
X275004D01*
Y49165D01*
X286361D01*
Y49093D01*
X286896Y47095D01*
X287930Y45304D01*
X289393Y43842D01*
X291183Y42808D01*
X293181Y42273D01*
X295249D01*
X297246Y42808D01*
X299037Y43842D01*
X300500Y45304D01*
X301534Y47095D01*
X302069Y49093D01*
Y51161D01*
X301534Y53158D01*
X300500Y54949D01*
X299037Y56411D01*
X297246Y57446D01*
X295249Y57981D01*
D02*
G37*
G36*
X188049D02*
X185981D01*
X183983Y57446D01*
X182192Y56411D01*
X180730Y54949D01*
X179696Y53158D01*
X179161Y51161D01*
Y51089D01*
X150004D01*
Y56504D01*
X140496D01*
Y45996D01*
X150004D01*
Y49165D01*
X179161D01*
Y49093D01*
X179696Y47095D01*
X180730Y45304D01*
X182192Y43842D01*
X183983Y42808D01*
X185981Y42273D01*
X188049D01*
X190046Y42808D01*
X191837Y43842D01*
X193300Y45304D01*
X194333Y47095D01*
X194869Y49093D01*
Y51161D01*
X194333Y53158D01*
X193300Y54949D01*
X191837Y56411D01*
X190046Y57446D01*
X188049Y57981D01*
D02*
G37*
G36*
X693274Y58281D02*
X691206D01*
X689209Y57746D01*
X687418Y56712D01*
X685955Y55250D01*
X684921Y53459D01*
X684386Y51462D01*
Y49394D01*
X684921Y47396D01*
X685955Y45605D01*
X687418Y44143D01*
X689209Y43109D01*
X691206Y42573D01*
X693274D01*
X695272Y43109D01*
X697063Y44143D01*
X698525Y45605D01*
X699559Y47396D01*
X700094Y49394D01*
Y51462D01*
X699559Y53459D01*
X698525Y55250D01*
X697063Y56712D01*
X695272Y57746D01*
X693274Y58281D01*
D02*
G37*
G36*
X553474D02*
X551406D01*
X549408Y57746D01*
X547617Y56712D01*
X546155Y55250D01*
X545121Y53459D01*
X544586Y51462D01*
Y49394D01*
X545121Y47396D01*
X546155Y45605D01*
X547617Y44143D01*
X549408Y43109D01*
X551406Y42573D01*
X553474D01*
X555471Y43109D01*
X557262Y44143D01*
X558725Y45605D01*
X559759Y47396D01*
X560294Y49394D01*
Y51462D01*
X559759Y53459D01*
X558725Y55250D01*
X557262Y56712D01*
X555471Y57746D01*
X553474Y58281D01*
D02*
G37*
G36*
X449274D02*
X447206D01*
X445209Y57746D01*
X443418Y56712D01*
X441955Y55250D01*
X440921Y53459D01*
X440386Y51462D01*
Y49394D01*
X440921Y47396D01*
X441955Y45605D01*
X443418Y44143D01*
X445209Y43109D01*
X447206Y42573D01*
X449274D01*
X451272Y43109D01*
X453063Y44143D01*
X454525Y45605D01*
X455559Y47396D01*
X456094Y49394D01*
Y51462D01*
X455559Y53459D01*
X454525Y55250D01*
X453063Y56712D01*
X451272Y57746D01*
X449274Y58281D01*
D02*
G37*
G36*
X320649Y57981D02*
X318581D01*
X316583Y57446D01*
X314792Y56411D01*
X313330Y54949D01*
X312296Y53158D01*
X311761Y51161D01*
Y49093D01*
X312296Y47095D01*
X313330Y45304D01*
X314792Y43842D01*
X316583Y42808D01*
X318581Y42273D01*
X320649D01*
X322646Y42808D01*
X324437Y43842D01*
X325900Y45304D01*
X326934Y47095D01*
X327469Y49093D01*
Y51161D01*
X326934Y53158D01*
X325900Y54949D01*
X324437Y56411D01*
X322646Y57446D01*
X320649Y57981D01*
D02*
G37*
G36*
X213449D02*
X211381D01*
X209383Y57446D01*
X207592Y56411D01*
X206130Y54949D01*
X205096Y53158D01*
X204561Y51161D01*
Y49093D01*
X205096Y47095D01*
X206130Y45304D01*
X207592Y43842D01*
X209383Y42808D01*
X211381Y42273D01*
X213449D01*
X215446Y42808D01*
X217237Y43842D01*
X218699Y45304D01*
X219734Y47095D01*
X220269Y49093D01*
Y51161D01*
X219734Y53158D01*
X218699Y54949D01*
X217237Y56411D01*
X215446Y57446D01*
X213449Y57981D01*
D02*
G37*
G36*
X128026Y66520D02*
X126974D01*
X126230Y65776D01*
Y64724D01*
X126974Y63980D01*
X127203D01*
X127288Y63895D01*
Y56504D01*
X123496D01*
Y45996D01*
X126538D01*
Y38084D01*
X126230Y37776D01*
Y36724D01*
X126974Y35980D01*
X128026D01*
X128770Y36724D01*
Y37776D01*
X128462Y38084D01*
Y45996D01*
X133004D01*
Y56504D01*
X129212D01*
Y64294D01*
X128930Y64974D01*
X128770Y65135D01*
Y65776D01*
X128026Y66520D01*
D02*
G37*
G36*
X400004Y38754D02*
X389496D01*
Y34962D01*
X381855D01*
X381520Y35297D01*
Y35526D01*
X380776Y36270D01*
X379724D01*
X378980Y35526D01*
Y34474D01*
X379724Y33730D01*
X380365D01*
X380776Y33319D01*
X381456Y33038D01*
X389496D01*
Y29246D01*
X400004D01*
Y33038D01*
X406293D01*
X406758Y33230D01*
X407526D01*
X408270Y33974D01*
Y35026D01*
X407526Y35770D01*
X406474D01*
X405730Y35026D01*
Y34962D01*
X400004D01*
Y38754D01*
D02*
G37*
G36*
X1307909Y47148D02*
X1305847D01*
X1303856Y46614D01*
X1302071Y45584D01*
X1300613Y44126D01*
X1299583Y42341D01*
X1299049Y40350D01*
Y38288D01*
X1299583Y36297D01*
X1300613Y34512D01*
X1302071Y33054D01*
X1303856Y32024D01*
X1305847Y31490D01*
X1307909D01*
X1309900Y32024D01*
X1311685Y33054D01*
X1313143Y34512D01*
X1314173Y36297D01*
X1314707Y38288D01*
Y40350D01*
X1314173Y42341D01*
X1313143Y44126D01*
X1311685Y45584D01*
X1309900Y46614D01*
X1307909Y47148D01*
D02*
G37*
G36*
X507004Y38004D02*
X496496D01*
Y28496D01*
X500788D01*
Y21834D01*
X500480Y21526D01*
Y20474D01*
X501224Y19730D01*
X502276D01*
X503020Y20474D01*
Y21526D01*
X502713Y21834D01*
Y28496D01*
X507004D01*
Y31288D01*
X513916D01*
X514224Y30980D01*
X515276D01*
X516020Y31724D01*
Y32776D01*
X515276Y33520D01*
X514224D01*
X513916Y33212D01*
X507004D01*
Y38004D01*
D02*
G37*
G36*
X275004Y37754D02*
X264496D01*
Y28246D01*
X268788D01*
Y21956D01*
X268980Y21492D01*
Y20724D01*
X269724Y19980D01*
X270776D01*
X271520Y20724D01*
Y21776D01*
X270776Y22520D01*
X270713D01*
Y28246D01*
X275004D01*
Y32038D01*
X281395D01*
X281730Y31703D01*
Y31474D01*
X282474Y30730D01*
X283526D01*
X284270Y31474D01*
Y32526D01*
X283526Y33270D01*
X282885D01*
X282474Y33680D01*
X282474Y33680D01*
X282474Y33681D01*
X282136Y33821D01*
X281794Y33962D01*
X281794Y33962D01*
X281794Y33962D01*
X275004D01*
Y37754D01*
D02*
G37*
G36*
X648776Y39770D02*
X647724D01*
X646980Y39026D01*
Y37974D01*
X647724Y37230D01*
X647953D01*
X648038Y37145D01*
Y29504D01*
X644246D01*
Y24712D01*
X637334D01*
X637026Y25020D01*
X635974D01*
X635230Y24276D01*
Y23224D01*
X635974Y22480D01*
X637026D01*
X637334Y22788D01*
X644246D01*
Y18996D01*
X653754D01*
Y29504D01*
X649962D01*
Y37544D01*
X649681Y38224D01*
X649520Y38385D01*
Y39026D01*
X648776Y39770D01*
D02*
G37*
G36*
X1200343Y30164D02*
X1198750D01*
X1197279Y29554D01*
X1196152Y28428D01*
X1195543Y26956D01*
Y25363D01*
X1196152Y23892D01*
X1197279Y22765D01*
X1198750Y22156D01*
X1200343D01*
X1201815Y22765D01*
X1202941Y23892D01*
X1203551Y25363D01*
Y26956D01*
X1202941Y28428D01*
X1201815Y29554D01*
X1200343Y30164D01*
D02*
G37*
G36*
X1115343D02*
X1113750D01*
X1112279Y29554D01*
X1111152Y28428D01*
X1110543Y26956D01*
Y25363D01*
X1111152Y23892D01*
X1112279Y22765D01*
X1113750Y22156D01*
X1115343D01*
X1116815Y22765D01*
X1117941Y23892D01*
X1118551Y25363D01*
Y26956D01*
X1117941Y28428D01*
X1116815Y29554D01*
X1115343Y30164D01*
D02*
G37*
G36*
X667874Y58281D02*
X665806D01*
X663809Y57746D01*
X662018Y56712D01*
X660555Y55250D01*
X659521Y53459D01*
X658986Y51462D01*
Y49394D01*
X659521Y47396D01*
X660555Y45605D01*
X662018Y44143D01*
X663809Y43109D01*
X665806Y42573D01*
X665878D01*
Y29504D01*
X661246D01*
Y18996D01*
X670754D01*
Y29504D01*
X667802D01*
Y42573D01*
X667874D01*
X669872Y43109D01*
X671663Y44143D01*
X673125Y45605D01*
X674159Y47396D01*
X674694Y49394D01*
Y51462D01*
X674159Y53459D01*
X673125Y55250D01*
X671663Y56712D01*
X669872Y57746D01*
X667874Y58281D01*
D02*
G37*
%LPD*%
D12*
X337000Y1178250D02*
X337354Y1177895D01*
Y1161896D02*
Y1177895D01*
Y1161896D02*
X337500Y1161750D01*
X350250Y1185500D02*
Y1196750D01*
X372250Y1167750D02*
Y1196250D01*
X96500Y801500D02*
Y830000D01*
X95000Y831500D02*
X96500Y830000D01*
X88500Y831500D02*
X95000D01*
X366000Y368345D02*
X367405Y369750D01*
X366000Y363250D02*
Y368345D01*
Y363250D02*
X371333Y357917D01*
X437250Y380500D02*
Y387250D01*
X465396Y415396D01*
X465833D01*
X528412Y373406D02*
X542844D01*
X502776Y347770D02*
X528412Y373406D01*
X668128Y361250D02*
X672000Y365122D01*
Y369750D01*
X664750Y361250D02*
X668128D01*
X651500Y374500D02*
X664750Y361250D01*
X651500Y374500D02*
X651500D01*
X767250Y377000D02*
X769750D01*
X772250Y368000D02*
Y374500D01*
X769750Y377000D02*
X772250Y374500D01*
X765250Y365250D02*
X769500D01*
X772250Y368000D01*
X782297Y378490D02*
X782990D01*
X778287Y382500D02*
X782297Y378490D01*
X754750Y382500D02*
X778287D01*
X752000Y379750D02*
X754750Y382500D01*
X990500Y823750D02*
X1001750Y835000D01*
Y884500D01*
X440250Y1187750D02*
Y1202250D01*
X451250Y1213250D02*
X485500D01*
X440250Y1202250D02*
X451250Y1213250D01*
X485500D02*
X509500Y1189250D01*
X1269250D01*
X493250Y1129713D02*
Y1154250D01*
X488500Y1125750D02*
X489287D01*
X493250Y1129713D01*
X408500Y1187396D02*
Y1210000D01*
X371000Y1247500D02*
X408500Y1210000D01*
X201250Y1247500D02*
X371000D01*
X96500Y801500D02*
X99750Y798250D01*
X88500Y831000D02*
Y831500D01*
X36250Y779750D02*
X115500D01*
X31800Y775300D02*
X36250Y779750D01*
X115500D02*
X138000Y802250D01*
X31800Y757500D02*
Y775300D01*
X138000Y802250D02*
Y853750D01*
X131500Y860250D02*
X138000Y853750D01*
X124250Y860250D02*
X131500D01*
X71250Y819750D02*
Y890000D01*
X108500Y927250D01*
X123750D01*
X71250Y819750D02*
X78000Y813000D01*
X130000Y905000D02*
Y929000D01*
X105500Y880500D02*
X130000Y905000D01*
X105500Y831500D02*
Y880500D01*
X1055750Y531250D02*
X1063343Y523657D01*
X1053500Y531250D02*
X1055750D01*
X1101500Y266000D02*
Y570250D01*
X1071250Y235750D02*
X1101500Y266000D01*
X1072250Y222250D02*
X1140750Y290751D01*
X1131500Y489250D02*
X1140750Y480000D01*
Y290751D02*
Y480000D01*
X860250Y222250D02*
X1072250D01*
X853750Y228750D02*
X860250Y222250D01*
X853750Y228750D02*
Y236500D01*
X944805Y608762D02*
X969055Y633012D01*
X931250Y622250D02*
X944738Y608762D01*
X1093500Y400250D02*
Y832500D01*
X1153000Y1082000D02*
Y1082206D01*
X1153694Y1082900D02*
Y1097500D01*
X1153000Y1082206D02*
X1153694Y1082900D01*
X476750Y1133000D02*
X484250Y1140500D01*
Y1162500D01*
X472436Y1193186D02*
X480250Y1201000D01*
X472436Y1166332D02*
Y1193186D01*
X349250Y1214750D02*
Y1240250D01*
X146750Y1193000D02*
X201250Y1247500D01*
X326804Y1214331D02*
X348832D01*
X542844Y373406D02*
X548250Y368000D01*
X87750Y794500D02*
Y812500D01*
Y813000D02*
X88000Y812750D01*
X87750Y812500D02*
X88000Y812750D01*
X78000Y813000D02*
X87750D01*
X105000Y812750D02*
X106250Y811500D01*
X117750D01*
X422343Y384593D02*
X436750Y399000D01*
X468759Y129009D02*
X471843Y125925D01*
X468250Y101500D02*
X474004Y95746D01*
X474500Y95250D01*
X141500Y1073500D02*
X146750Y1078750D01*
Y1193000D01*
X141500Y1097500D02*
Y1194500D01*
X416000Y1186970D02*
Y1211250D01*
X374500Y1252750D02*
X416000Y1211250D01*
X199750Y1252750D02*
X374500D01*
X141500Y1194500D02*
X199750Y1252750D01*
X105750Y831750D02*
X124000D01*
X105500Y831500D02*
X105750Y831750D01*
X400500Y359250D02*
X407250Y352500D01*
X396250Y359250D02*
X400500D01*
X383354Y346354D02*
X396250Y359250D01*
X383354Y345896D02*
Y346354D01*
X436750Y399000D02*
Y425500D01*
X423250Y439000D02*
X436750Y425500D01*
X410250Y371500D02*
X419500Y362250D01*
X410250Y371500D02*
Y372500D01*
X934500Y840250D02*
X990750D01*
X917498Y857251D02*
X934500Y840250D01*
X917498Y857251D02*
Y884501D01*
X988794Y831250D02*
X989000D01*
X987794Y832250D02*
X988794Y831250D01*
X977000Y832250D02*
X987794D01*
X977500Y867250D02*
X989250D01*
X608340Y154528D02*
X622403Y140465D01*
X1069750Y856250D02*
X1093500Y832500D01*
X1012500Y235750D02*
X1071250D01*
X815250Y1103000D02*
X815408Y1103158D01*
X828966D01*
X814966Y1083908D02*
Y1102715D01*
X815250Y1103000D01*
X999772Y1102422D02*
X999978D01*
X999193Y1103000D02*
X999772Y1102422D01*
X984000Y1103000D02*
X999193D01*
X984228Y1085671D02*
Y1102772D01*
X984000Y1103000D02*
X984228Y1102772D01*
X1153694Y1097500D02*
X1153943Y1097250D01*
X1165750D01*
X502000Y105750D02*
Y137250D01*
X498000Y141250D02*
X502000Y137250D01*
X497003Y100753D02*
X502000Y105750D01*
X468640Y147211D02*
Y154528D01*
X474601Y141250D02*
X498000D01*
X476000Y111250D02*
X483650D01*
X477247Y100753D02*
X497003D01*
X473750Y104250D02*
X477247Y100753D01*
X468640Y147211D02*
X474601Y141250D01*
X473750Y104250D02*
Y109000D01*
X476000Y111250D01*
X455940Y149560D02*
X474250Y131250D01*
X483650D01*
X455940Y149560D02*
Y179928D01*
X471518Y126250D02*
X483650D01*
X483325Y125925D02*
X483650Y126250D01*
X468759Y129009D02*
X471518Y126250D01*
X443240Y154528D02*
X468759Y129009D01*
X499500Y95250D02*
X506740Y102490D01*
Y179928D01*
X474500Y95250D02*
X499500D01*
X471759Y116250D02*
X483650D01*
X468250Y101500D02*
Y112741D01*
X471759Y116250D01*
X501750Y21000D02*
Y33250D01*
X1029500Y799456D02*
Y828000D01*
X1029250Y799206D02*
X1029500Y799456D01*
X987001Y849750D02*
X990000Y852750D01*
X977000Y849750D02*
X987001D01*
X1029250Y799000D02*
Y799206D01*
X986000Y813750D02*
X991000Y818750D01*
X977250Y813750D02*
X986000D01*
X969055Y633012D02*
Y636012D01*
X944738Y608762D02*
X944805D01*
X626490Y372490D02*
Y372510D01*
X618750Y364750D02*
X626490Y372490D01*
X259250Y597794D02*
Y598000D01*
X258250Y587000D02*
Y596794D01*
X259250Y597794D01*
X100250Y1017500D02*
X112500D01*
X101456Y998750D02*
X112750D01*
X100706Y998000D02*
X101456Y998750D01*
X100500Y998000D02*
X100706D01*
X100956Y980000D02*
X112750D01*
X100456Y979500D02*
X100956Y980000D01*
X100250Y979500D02*
X100456D01*
X258250Y587000D02*
X259600Y585650D01*
X290000D01*
X545750Y82456D02*
X546000Y82706D01*
X545250Y97250D02*
X546000Y96500D01*
X545250Y97250D02*
Y110750D01*
X546000Y82706D02*
Y96500D01*
X545750Y82250D02*
Y82456D01*
X649000Y24250D02*
Y37544D01*
X648500Y23750D02*
X649000Y24250D01*
X648250Y38294D02*
X649000Y37544D01*
X648250Y38294D02*
Y38500D01*
X636500Y23750D02*
X648500D01*
X502750Y32250D02*
X514750D01*
X501750Y33250D02*
X502750Y32250D01*
X380250Y35000D02*
X380456D01*
X406794Y34500D02*
X407000D01*
X380456Y35000D02*
X381456Y34000D01*
X406293D02*
X406794Y34500D01*
X394750Y34000D02*
X406293D01*
X381456D02*
X394750D01*
X282794Y32000D02*
X283000D01*
X281794Y33000D02*
X282794Y32000D01*
X127500Y50500D02*
X128250Y51250D01*
X127500Y65044D02*
X128250Y64294D01*
X127500Y65044D02*
Y65250D01*
X128250Y51250D02*
Y64294D01*
X127500Y37250D02*
Y50500D01*
X269750Y33000D02*
X281794D01*
X269750Y21956D02*
X270250Y21456D01*
X269750Y21956D02*
Y33000D01*
X270250Y21250D02*
Y21456D01*
X646440Y142060D02*
Y179928D01*
Y142060D02*
X655500Y133000D01*
X607750Y108205D02*
X614220Y114675D01*
X607750Y97750D02*
Y108205D01*
Y97750D02*
X615250Y90250D01*
X645000D01*
X655500Y100750D01*
Y133000D01*
X614220Y114675D02*
X628015D01*
X622403Y140465D02*
X640541D01*
X646500Y134506D01*
Y102500D02*
Y134506D01*
X640500Y96500D02*
X646500Y102500D01*
X619000Y96500D02*
X640500D01*
X615250Y100250D02*
X619000Y96500D01*
X615250Y100250D02*
Y106250D01*
X618675Y109675D01*
X628015D01*
X595640Y148610D02*
Y179928D01*
Y148610D02*
X614576Y129675D01*
X628015D01*
X600575Y124675D02*
X628015D01*
X582940Y142310D02*
X600575Y124675D01*
X582940Y142310D02*
Y154528D01*
X989567Y615500D02*
X993250D01*
X981076Y623992D02*
X989567Y615500D01*
X977500Y595750D02*
Y602068D01*
X969065Y610502D02*
X977500Y602068D01*
X968354Y586646D02*
X968500Y586500D01*
X966921Y586646D02*
X968354D01*
X956826Y596741D02*
X966921Y586646D01*
X1061500Y490750D02*
X1068740Y497990D01*
Y498240D01*
X146373Y50127D02*
X187015D01*
X145250Y51250D02*
X146373Y50127D01*
X269750Y50000D02*
X269877Y50127D01*
X294215D01*
X395323Y50427D02*
X422840D01*
X394750Y51000D02*
X395323Y50427D01*
X562640Y68128D02*
Y96140D01*
X563000Y96500D01*
X501750Y50250D02*
X501927Y50427D01*
X527040D01*
X666000Y24250D02*
X666840Y25090D01*
Y50427D01*
X1160750Y128794D02*
Y129000D01*
Y128794D02*
X1161750Y127794D01*
Y116501D02*
Y127794D01*
X1109250Y127000D02*
X1111750Y129500D01*
X1109250Y116501D02*
Y127000D01*
X1135250Y125750D02*
X1135396Y125604D01*
X1136000Y116501D02*
Y124250D01*
X1135396Y124854D02*
Y125604D01*
Y124854D02*
X1136000Y124250D01*
X1178500Y130000D02*
X1184250D01*
X1187500Y116251D02*
Y126750D01*
X1184250Y130000D02*
X1187500Y126750D01*
D16*
X683406Y391750D02*
X703000D01*
X748000Y436750D01*
X775000D01*
X675500Y375250D02*
X684250Y366500D01*
X696036D02*
X757250Y305286D01*
X684250Y366500D02*
X696036D01*
X663657Y387093D02*
X675500Y375250D01*
X757250Y305286D02*
X764750Y297786D01*
Y296000D02*
Y297786D01*
X422343Y385407D02*
X430500Y377250D01*
X775000Y436750D02*
X782875Y428875D01*
X787250Y424500D01*
Y412956D02*
Y424500D01*
X371250Y1126170D02*
Y1138446D01*
X447593Y362157D02*
X459343Y350407D01*
X459593D01*
X492250Y299500D02*
X499500D01*
X489540Y296790D02*
X492250Y299500D01*
X489253Y292250D02*
X489540Y291963D01*
X468750Y292250D02*
X489253D01*
X499500Y299500D02*
X508186Y290814D01*
X495686Y278370D02*
X508130Y290814D01*
X508186D01*
X489540Y291963D02*
Y296790D01*
X430500Y360162D02*
Y377250D01*
X410250Y372500D02*
X422343Y384593D01*
X433186Y347750D02*
X438049Y352613D01*
X430500Y360162D02*
X438049Y352613D01*
X432238Y328762D02*
X468750Y292250D01*
X432238Y347750D02*
X433186D01*
X432238Y328762D02*
Y347750D01*
X764750Y295639D02*
Y296000D01*
X752454Y283343D02*
X764750Y295639D01*
X675610Y399546D02*
X683406Y391750D01*
X780022Y405728D02*
X787250Y412956D01*
X663657Y387093D02*
Y387593D01*
X675610Y399546D01*
X400000Y1125500D02*
X400554Y1124946D01*
X389806Y1125500D02*
X400000D01*
X389806Y1137448D02*
X390054Y1137696D01*
X389806Y1125500D02*
Y1137448D01*
X370623Y1125542D02*
X371250Y1126170D01*
D17*
X337000Y1178250D02*
X337500Y1177750D01*
Y1161750D02*
Y1177750D01*
X347642Y1128415D02*
Y1132608D01*
X344750Y1135500D02*
X347642Y1132608D01*
Y1128415D02*
X350306Y1125750D01*
X330750Y1126307D02*
X331306Y1125750D01*
X330750Y1126307D02*
Y1138000D01*
D18*
X960500Y867250D02*
D03*
X546000Y96500D02*
D03*
X649000Y24250D02*
D03*
X128250Y51250D02*
D03*
X563000Y96500D02*
D03*
X666000Y24250D02*
D03*
X145250Y51250D02*
D03*
X977500Y867250D02*
D03*
X105000Y812750D02*
D03*
X88000D02*
D03*
X88500Y831500D02*
D03*
X105500D02*
D03*
D22*
X961000Y849750D02*
D03*
Y832250D02*
D03*
X961250Y813750D02*
D03*
X128500Y1017500D02*
D03*
X128750Y998750D02*
D03*
Y980000D02*
D03*
X242250Y587000D02*
D03*
X977000Y849750D02*
D03*
X977250Y813750D02*
D03*
X112750Y998750D02*
D03*
X112500Y1017500D02*
D03*
X112750Y980000D02*
D03*
X258250Y587000D02*
D03*
X977000Y832250D02*
D03*
D23*
X1001750Y901500D02*
D03*
X501750Y33250D02*
D03*
X394750Y34000D02*
D03*
X269750Y33000D02*
D03*
X501750Y50250D02*
D03*
X394750Y51000D02*
D03*
X269750Y50000D02*
D03*
X1001750Y884500D02*
D03*
X349250Y1197750D02*
D03*
Y1214750D02*
D03*
D24*
X1153694Y1113500D02*
D03*
X984000Y1119000D02*
D03*
X1029500Y844000D02*
D03*
X815250Y1119000D02*
D03*
X389806Y1109500D02*
D03*
X370623Y1109542D02*
D03*
X350306Y1109750D02*
D03*
X331306D02*
D03*
X1029500Y828000D02*
D03*
X389806Y1125500D02*
D03*
X370623Y1125542D02*
D03*
X984000Y1103000D02*
D03*
X1153694Y1097500D02*
D03*
X815250Y1103000D02*
D03*
X350306Y1125750D02*
D03*
X331306D02*
D03*
D35*
X1187500Y94249D02*
D03*
X1161750Y94499D02*
D03*
X1136000D02*
D03*
X1109250D02*
D03*
Y116501D02*
D03*
X1187500Y116251D02*
D03*
X1136000Y116501D02*
D03*
X1161750D02*
D03*
D39*
X664296Y411157D02*
D03*
X769657Y392149D02*
D03*
X652343Y398907D02*
D03*
X640186Y385814D02*
D03*
X776064Y284686D02*
D03*
X470906Y339093D02*
D03*
X411030Y396720D02*
D03*
X398936Y383814D02*
D03*
X384936Y370564D02*
D03*
X763767Y272029D02*
D03*
X519500Y279500D02*
D03*
X507000Y267056D02*
D03*
X459593Y350407D02*
D03*
X508186Y290814D02*
D03*
X495686Y278370D02*
D03*
X410250Y372500D02*
D03*
X422343Y385407D02*
D03*
X396250Y359250D02*
D03*
X758343Y403463D02*
D03*
X675610Y399843D02*
D03*
X663657Y387593D02*
D03*
X764750Y296000D02*
D03*
X752454Y283343D02*
D03*
X651500Y374500D02*
D03*
D43*
X676989Y424261D02*
D03*
X383354Y345896D02*
D03*
X371333Y357917D02*
D03*
X969055Y636012D02*
D03*
X957045Y622523D02*
D03*
X944805Y608762D02*
D03*
X626490Y372510D02*
D03*
X689010Y412240D02*
D03*
X638511Y360489D02*
D03*
X969065Y610502D02*
D03*
X981076Y623992D02*
D03*
X956826Y596741D02*
D03*
D54*
X1080760Y510260D02*
D03*
X477853Y427417D02*
D03*
X795011Y390511D02*
D03*
X512104Y388917D02*
D03*
X500083Y376896D02*
D03*
X465833Y415396D02*
D03*
X1068740Y498240D02*
D03*
X782990Y378490D02*
D03*
D58*
X447593Y362157D02*
D03*
X438049Y352613D02*
D03*
D59*
X770478Y415272D02*
D03*
X780022Y405728D02*
D03*
D154*
X1063343Y523657D02*
D03*
X337000Y1178250D02*
D03*
X326804Y1214331D02*
D03*
X124000Y831750D02*
D03*
X87750Y794500D02*
D03*
X372250Y1196250D02*
D03*
X488500Y1125750D02*
D03*
X484250Y1162500D02*
D03*
X480250Y1201000D02*
D03*
D155*
X745250Y390370D02*
X758343Y403463D01*
X758669D01*
X770478Y415272D01*
X694352Y404487D02*
X694481Y404358D01*
X694352Y404487D02*
Y406898D01*
X689010Y412240D02*
X694352Y406898D01*
X709250Y421750D02*
X709750Y421250D01*
Y413250D02*
Y421250D01*
X694000Y397500D02*
X709750Y413250D01*
X638511Y360489D02*
Y361510D01*
X651500Y374500D01*
X745250Y389000D02*
Y390370D01*
D156*
X331306Y1125750D02*
X350306D01*
D157*
X349250Y1197750D02*
X350250Y1196750D01*
X250177Y154427D02*
X259665D01*
X243250Y147500D02*
X250177Y154427D01*
X243250Y143750D02*
Y147500D01*
X231500Y132000D02*
X243250Y143750D01*
X231500Y122350D02*
Y132000D01*
X247588Y167750D02*
X262250D01*
X269750Y160250D01*
X234265Y154427D02*
X247588Y167750D01*
X269750Y144500D02*
Y160250D01*
X261000Y122850D02*
Y135750D01*
X269750Y144500D01*
X266000Y122850D02*
Y133000D01*
X274250Y141250D01*
Y162559D01*
X256982Y179827D02*
X274250Y162559D01*
X246965Y179827D02*
X256982D01*
X285065Y143065D02*
Y154427D01*
X276000Y134000D02*
X285065Y143065D01*
X276000Y122850D02*
Y134000D01*
X273271Y178920D02*
X279829D01*
X295500Y163250D01*
Y142250D02*
Y163250D01*
X272365Y179827D02*
X273271Y178920D01*
X281000Y127751D02*
X295500Y142250D01*
X281000Y122850D02*
Y127751D01*
X221565Y138185D02*
X226500Y133250D01*
X221565Y138185D02*
Y179827D01*
X226500Y122350D02*
Y133250D01*
X196165Y145085D02*
Y179827D01*
Y145085D02*
X211500Y129750D01*
Y122350D02*
Y129750D01*
X208865Y141385D02*
Y154427D01*
Y141385D02*
X216500Y133750D01*
Y122350D02*
Y133750D01*
D161*
X479257Y370757D02*
X479500Y371000D01*
X479257Y370071D02*
Y370757D01*
X459593Y350407D02*
X479257Y370071D01*
X487250Y363500D02*
X500083Y376333D01*
Y376896D01*
D162*
X1528906Y880670D02*
D03*
X1579706D02*
D03*
Y829870D02*
D03*
X1528906D02*
D03*
D163*
X1382750Y212000D02*
D03*
X1433750Y129500D02*
D03*
X1382750D02*
D03*
D164*
X1351878Y39319D02*
D03*
X1306878D02*
D03*
D165*
X52500Y1047100D02*
D03*
Y1072500D02*
D03*
D166*
X82600Y757500D02*
D03*
X57200D02*
D03*
X108000D02*
D03*
X133400D02*
D03*
X158800D02*
D03*
D167*
X290000Y560250D02*
D03*
Y585650D02*
D03*
Y611050D02*
D03*
Y636450D02*
D03*
X1294328Y64219D02*
D03*
X1364428D02*
D03*
D168*
X557540Y193928D02*
D03*
X712190Y121528D02*
D03*
X402890D02*
D03*
X330765Y121427D02*
D03*
X175865D02*
D03*
D169*
X532140Y179928D02*
D03*
X671840D02*
D03*
X310465Y154427D02*
D03*
X468640Y154528D02*
D03*
X481340Y179928D02*
D03*
X494040Y154528D02*
D03*
X455940Y179928D02*
D03*
X506740D02*
D03*
X297765Y179827D02*
D03*
X285065Y154427D02*
D03*
X259665D02*
D03*
X234265D02*
D03*
X208865D02*
D03*
X272365Y179827D02*
D03*
X246965D02*
D03*
X221565D02*
D03*
X646440Y179928D02*
D03*
X621040D02*
D03*
X595640D02*
D03*
X519440Y154528D02*
D03*
X659140D02*
D03*
X633740D02*
D03*
X608340D02*
D03*
D170*
X552440Y50427D02*
D03*
X448240D02*
D03*
X187015Y50127D02*
D03*
X294215D02*
D03*
X319615D02*
D03*
X212415D02*
D03*
X666840Y50427D02*
D03*
X692240D02*
D03*
X422840D02*
D03*
X527040D02*
D03*
X588040Y68128D02*
D03*
X562640D02*
D03*
D171*
X443240Y154528D02*
D03*
X196165Y179827D02*
D03*
X582940Y154528D02*
D03*
D172*
X852126Y62143D02*
D03*
X814026D02*
D03*
X1001986D02*
D03*
X963886D02*
D03*
D173*
X890227D02*
D03*
X1040087D02*
D03*
D174*
X1554306Y855270D02*
D03*
X1434558Y79556D02*
D03*
X1484557D02*
D03*
D175*
X52500Y1097900D02*
D03*
D176*
X310465Y90927D02*
D03*
X196165D02*
D03*
X684540Y91028D02*
D03*
X430540D02*
D03*
D177*
X1114547Y26160D02*
D03*
X1199547D02*
D03*
D178*
X1433750Y212000D02*
D03*
D179*
X1499957Y154320D02*
D03*
Y1154320D02*
D03*
X683193Y1157458D02*
D03*
X203193Y827459D02*
D03*
X683193D02*
D03*
X203193Y1157458D02*
D03*
X99956Y154320D02*
D03*
Y1154320D02*
D03*
D180*
X31800Y757500D02*
D03*
D181*
X756567Y313230D02*
D03*
X749500Y306290D02*
D03*
X1126000Y451500D02*
D03*
X354155Y1156946D02*
D03*
X364304Y1156196D02*
D03*
X1268687Y1222722D02*
D03*
X1319487Y1171922D02*
D03*
X1357587Y1146522D02*
D03*
X1294086Y1222722D02*
D03*
X1344886Y1171922D02*
D03*
X1382986Y1146522D02*
D03*
X931250Y622250D02*
D03*
X819776Y836520D02*
D03*
X844405Y820750D02*
D03*
Y800750D02*
D03*
X862287Y3522D02*
D03*
X887686D02*
D03*
X582887D02*
D03*
X214587Y282910D02*
D03*
X201887Y308322D02*
D03*
X214587Y232122D02*
D03*
X138386Y333722D02*
D03*
X189186Y282922D02*
D03*
X74886Y511522D02*
D03*
X125687Y460722D02*
D03*
X69750Y923750D02*
D03*
X64250Y916750D02*
D03*
X74886Y968722D02*
D03*
X36786Y943322D02*
D03*
X49486Y917922D02*
D03*
X62186Y892522D02*
D03*
X36786D02*
D03*
X49486Y867122D02*
D03*
X62186Y841722D02*
D03*
X328886Y1222722D02*
D03*
X1464286Y552496D02*
D03*
X1240500Y609000D02*
D03*
X978974Y718819D02*
D03*
X1049602Y693553D02*
D03*
X1093500Y400250D02*
D03*
X908000Y249500D02*
D03*
X869500Y252250D02*
D03*
X786087Y257522D02*
D03*
X659500Y354000D02*
D03*
X367405Y369750D02*
D03*
X316187Y333722D02*
D03*
X218000Y779750D02*
D03*
X432000Y1102876D02*
D03*
X412193Y1100000D02*
D03*
X404193D02*
D03*
X497867Y1111384D02*
D03*
X329000Y1167000D02*
D03*
X460038Y1165334D02*
D03*
X498010Y1165528D02*
D03*
X467595Y379365D02*
D03*
X472165Y383792D02*
D03*
X465915Y386042D02*
D03*
X349250Y1240000D02*
D03*
X386250Y1253250D02*
D03*
X1573486Y1222722D02*
D03*
Y1171922D02*
D03*
X1586187Y1146522D02*
D03*
X1573486Y1121122D02*
D03*
Y1070322D02*
D03*
X1586187Y1044922D02*
D03*
X1573486Y1019522D02*
D03*
X1586187Y994122D02*
D03*
X1573486Y968722D02*
D03*
Y917922D02*
D03*
X1586187Y790922D02*
D03*
X1573486Y765522D02*
D03*
X1586187Y740122D02*
D03*
X1573486Y714722D02*
D03*
X1586187Y689322D02*
D03*
Y638522D02*
D03*
X1573486Y613122D02*
D03*
X1586187Y587722D02*
D03*
X1573486Y511522D02*
D03*
X1586187Y486122D02*
D03*
Y435322D02*
D03*
Y384522D02*
D03*
Y333722D02*
D03*
X1573486Y308322D02*
D03*
X1586187Y282922D02*
D03*
X1573486Y257522D02*
D03*
X1586187Y232122D02*
D03*
X1573486Y105122D02*
D03*
X1586187Y79722D02*
D03*
X1573486Y54322D02*
D03*
Y3522D02*
D03*
X1548087Y1171922D02*
D03*
Y1121122D02*
D03*
X1560786Y1095722D02*
D03*
X1548087Y1019522D02*
D03*
Y968722D02*
D03*
Y917922D02*
D03*
X1560786Y841722D02*
D03*
Y740122D02*
D03*
X1548087Y714722D02*
D03*
Y663922D02*
D03*
Y613122D02*
D03*
X1560786Y587722D02*
D03*
X1548087Y562322D02*
D03*
X1560786Y536922D02*
D03*
X1548087Y511522D02*
D03*
Y460722D02*
D03*
Y409922D02*
D03*
X1560786Y384522D02*
D03*
X1548087Y359122D02*
D03*
X1560786Y333722D02*
D03*
X1548087Y308322D02*
D03*
X1560786Y282922D02*
D03*
Y232122D02*
D03*
X1548087Y206722D02*
D03*
Y155922D02*
D03*
Y105122D02*
D03*
X1560786Y79722D02*
D03*
X1548087Y54322D02*
D03*
Y3522D02*
D03*
X1522686Y1222722D02*
D03*
X1535387Y1197322D02*
D03*
X1522686Y1171922D02*
D03*
X1535387Y1146522D02*
D03*
X1522686Y1121122D02*
D03*
X1535387Y1044922D02*
D03*
X1522686Y1019522D02*
D03*
X1535387Y994122D02*
D03*
X1522686Y968722D02*
D03*
X1535387Y943322D02*
D03*
X1522686Y917922D02*
D03*
Y765522D02*
D03*
X1535387Y740122D02*
D03*
X1522686Y714722D02*
D03*
X1535387Y689322D02*
D03*
Y638522D02*
D03*
Y587722D02*
D03*
X1522686Y562322D02*
D03*
X1535387Y536922D02*
D03*
X1522686Y460722D02*
D03*
Y409922D02*
D03*
X1535387Y384522D02*
D03*
Y333722D02*
D03*
X1522686Y308322D02*
D03*
X1535387Y232122D02*
D03*
X1522686Y206722D02*
D03*
X1535387Y181322D02*
D03*
X1522686Y155922D02*
D03*
Y105122D02*
D03*
X1535387Y79722D02*
D03*
X1522686Y54322D02*
D03*
X1535387Y28922D02*
D03*
X1522686Y3522D02*
D03*
X1509987Y1197322D02*
D03*
X1497287Y1171922D02*
D03*
X1509987Y1044922D02*
D03*
X1497287Y968722D02*
D03*
X1509987Y892522D02*
D03*
Y790922D02*
D03*
Y740122D02*
D03*
X1497287Y562322D02*
D03*
Y460722D02*
D03*
Y409922D02*
D03*
Y308322D02*
D03*
X1509987Y232122D02*
D03*
Y181322D02*
D03*
Y130522D02*
D03*
X1497287Y54322D02*
D03*
Y3522D02*
D03*
X1484586Y1146522D02*
D03*
Y1044922D02*
D03*
Y994122D02*
D03*
X1471886Y968722D02*
D03*
Y867122D02*
D03*
Y663922D02*
D03*
X1484586Y536922D02*
D03*
X1471886Y460722D02*
D03*
Y409922D02*
D03*
Y308322D02*
D03*
Y206722D02*
D03*
X1484586Y181322D02*
D03*
Y130522D02*
D03*
X1471886Y54322D02*
D03*
Y3522D02*
D03*
X1446487Y1222722D02*
D03*
X1459187Y1197322D02*
D03*
X1446487Y1121122D02*
D03*
X1459187Y1095722D02*
D03*
X1446487Y1070322D02*
D03*
X1459187Y1044922D02*
D03*
X1446487Y917922D02*
D03*
X1459187Y790922D02*
D03*
X1446487Y765522D02*
D03*
X1459187Y740122D02*
D03*
Y536922D02*
D03*
Y384522D02*
D03*
X1446487Y308322D02*
D03*
Y257522D02*
D03*
X1459187Y232122D02*
D03*
X1446487Y206722D02*
D03*
Y155922D02*
D03*
X1459187Y79722D02*
D03*
X1446487Y54322D02*
D03*
X1459187Y28922D02*
D03*
X1421086Y1222722D02*
D03*
Y1171922D02*
D03*
X1433786Y1095722D02*
D03*
X1421086Y1070322D02*
D03*
Y1019522D02*
D03*
Y968722D02*
D03*
Y867122D02*
D03*
X1433786Y740122D02*
D03*
X1421086Y714722D02*
D03*
Y663922D02*
D03*
X1433786Y638522D02*
D03*
X1421086Y562322D02*
D03*
X1433786Y536922D02*
D03*
Y486122D02*
D03*
X1421086Y460722D02*
D03*
X1433786Y435322D02*
D03*
X1421086Y409922D02*
D03*
X1433786Y384522D02*
D03*
X1421086Y308322D02*
D03*
X1433786Y282922D02*
D03*
Y232122D02*
D03*
Y181322D02*
D03*
X1421086Y105122D02*
D03*
Y54322D02*
D03*
X1433786Y28922D02*
D03*
X1421086Y3522D02*
D03*
X1395686Y1222722D02*
D03*
Y1171922D02*
D03*
X1408387Y1146522D02*
D03*
X1395686Y1070322D02*
D03*
X1408387Y1044922D02*
D03*
X1395686Y1019522D02*
D03*
Y968722D02*
D03*
X1408387Y943322D02*
D03*
Y892522D02*
D03*
X1395686Y867122D02*
D03*
X1408387Y841722D02*
D03*
X1395686Y765522D02*
D03*
X1408387Y740122D02*
D03*
X1395686Y714722D02*
D03*
X1408387Y689322D02*
D03*
Y638522D02*
D03*
X1395686Y562322D02*
D03*
Y460722D02*
D03*
X1408387Y435322D02*
D03*
X1395686Y409922D02*
D03*
Y206722D02*
D03*
X1408387Y130522D02*
D03*
X1395686Y54322D02*
D03*
X1382986Y1197322D02*
D03*
X1370287Y1171922D02*
D03*
Y1070322D02*
D03*
X1382986Y943322D02*
D03*
X1370287Y917922D02*
D03*
X1382986Y892522D02*
D03*
X1370287Y867122D02*
D03*
X1382986Y841722D02*
D03*
Y740122D02*
D03*
Y689322D02*
D03*
Y638522D02*
D03*
Y587722D02*
D03*
X1370287Y562322D02*
D03*
Y409922D02*
D03*
X1382986Y282922D02*
D03*
X1370287Y257522D02*
D03*
X1382986Y232122D02*
D03*
X1370287Y206722D02*
D03*
X1382986Y181322D02*
D03*
X1370287Y155922D02*
D03*
Y105122D02*
D03*
X1382986Y79722D02*
D03*
X1370287Y54322D02*
D03*
X1382986Y28922D02*
D03*
X1370287Y3522D02*
D03*
X1344886Y1222722D02*
D03*
X1357587Y1197322D02*
D03*
X1344886Y1121122D02*
D03*
X1357587Y1095722D02*
D03*
X1344886Y1019522D02*
D03*
Y968722D02*
D03*
X1357587Y943322D02*
D03*
Y892522D02*
D03*
X1344886Y867122D02*
D03*
Y765522D02*
D03*
X1357587Y740122D02*
D03*
X1344886Y714722D02*
D03*
X1357587Y689322D02*
D03*
X1344886Y663922D02*
D03*
X1357587Y638522D02*
D03*
Y587722D02*
D03*
X1344886Y409922D02*
D03*
X1357587Y384522D02*
D03*
X1344886Y206722D02*
D03*
X1357587Y181322D02*
D03*
Y130522D02*
D03*
X1344886Y105122D02*
D03*
X1357587Y28922D02*
D03*
X1344886Y3522D02*
D03*
X1319487Y1222722D02*
D03*
X1332186Y1197322D02*
D03*
X1319487Y1121122D02*
D03*
Y1070322D02*
D03*
X1332186Y1044922D02*
D03*
X1319487Y1019522D02*
D03*
X1332186Y994122D02*
D03*
Y943322D02*
D03*
X1319487Y917922D02*
D03*
X1332186Y892522D02*
D03*
Y841722D02*
D03*
Y740122D02*
D03*
X1319487Y714722D02*
D03*
X1332186Y689322D02*
D03*
X1319487Y663922D02*
D03*
X1332186Y587722D02*
D03*
X1319487Y409922D02*
D03*
X1332186Y384522D02*
D03*
Y282922D02*
D03*
X1319487Y206722D02*
D03*
X1332186Y79722D02*
D03*
X1319487Y54322D02*
D03*
X1332186Y28922D02*
D03*
X1294086Y1171922D02*
D03*
Y1121122D02*
D03*
Y917922D02*
D03*
Y714722D02*
D03*
Y663922D02*
D03*
X1306786Y638522D02*
D03*
Y587722D02*
D03*
Y384522D02*
D03*
X1294086Y308322D02*
D03*
X1306786Y282922D02*
D03*
Y232122D02*
D03*
Y28922D02*
D03*
X1281387Y1197322D02*
D03*
X1268687Y1171922D02*
D03*
Y1121122D02*
D03*
Y1070322D02*
D03*
X1281387Y994122D02*
D03*
X1268687Y867122D02*
D03*
X1281387Y790922D02*
D03*
X1268687Y765522D02*
D03*
X1281387Y740122D02*
D03*
X1268687Y663922D02*
D03*
Y562322D02*
D03*
X1281387Y536922D02*
D03*
X1268687Y409922D02*
D03*
X1281387Y282922D02*
D03*
X1268687Y3522D02*
D03*
X1255986Y1197322D02*
D03*
X1243287Y1171922D02*
D03*
X1255986Y1146522D02*
D03*
X1243287Y1121122D02*
D03*
X1255986Y1095722D02*
D03*
X1243287Y1070322D02*
D03*
X1255986Y1044922D02*
D03*
X1243287Y1019522D02*
D03*
X1255986Y994122D02*
D03*
X1243287Y816322D02*
D03*
X1255986Y790922D02*
D03*
X1243287Y714722D02*
D03*
X1255986Y689322D02*
D03*
X1243287Y663922D02*
D03*
X1255986Y638522D02*
D03*
X1243287Y613122D02*
D03*
Y511522D02*
D03*
X1255986Y486122D02*
D03*
Y435322D02*
D03*
Y28922D02*
D03*
X1243287Y3522D02*
D03*
X1217887Y1171922D02*
D03*
X1230586Y1095722D02*
D03*
Y892522D02*
D03*
X1217887Y867122D02*
D03*
X1230586Y790922D02*
D03*
Y740122D02*
D03*
Y689322D02*
D03*
X1217887Y663922D02*
D03*
Y613122D02*
D03*
X1230586Y486122D02*
D03*
Y435322D02*
D03*
X1217887Y155922D02*
D03*
Y105122D02*
D03*
X1230586Y79722D02*
D03*
Y28922D02*
D03*
X1205186Y1146522D02*
D03*
Y1095722D02*
D03*
Y1044922D02*
D03*
Y994122D02*
D03*
X1192486Y968722D02*
D03*
X1205186Y943322D02*
D03*
Y841722D02*
D03*
Y740122D02*
D03*
Y689322D02*
D03*
X1192486Y663922D02*
D03*
Y613122D02*
D03*
X1205186Y587722D02*
D03*
X1192486Y105122D02*
D03*
X1205186Y79722D02*
D03*
X1192486Y54322D02*
D03*
X1205186Y28922D02*
D03*
X1179787Y1044922D02*
D03*
Y994122D02*
D03*
Y790922D02*
D03*
X1167086Y765522D02*
D03*
X1179787Y740122D02*
D03*
X1167086Y714722D02*
D03*
X1179787Y689322D02*
D03*
Y638522D02*
D03*
Y181322D02*
D03*
X1167086Y105122D02*
D03*
Y54322D02*
D03*
X1154387Y1044922D02*
D03*
X1141686Y765522D02*
D03*
X1154387Y740122D02*
D03*
Y689322D02*
D03*
X1141686Y663922D02*
D03*
X1116286Y1121122D02*
D03*
Y1019522D02*
D03*
X1128987Y994122D02*
D03*
Y740122D02*
D03*
X1116286Y714722D02*
D03*
X1128987Y689322D02*
D03*
X1103587Y994122D02*
D03*
X1090887Y968722D02*
D03*
X1103587Y232122D02*
D03*
X1090887Y206722D02*
D03*
X1103587Y181322D02*
D03*
X1090887Y155922D02*
D03*
Y54322D02*
D03*
X1103587Y28922D02*
D03*
X1065487Y1070322D02*
D03*
Y1019522D02*
D03*
X1078186Y994122D02*
D03*
X1065487Y968722D02*
D03*
X1040087Y1121122D02*
D03*
X1052786Y1095722D02*
D03*
X1040087Y1019522D02*
D03*
X1052786Y994122D02*
D03*
X1040087Y968722D02*
D03*
Y3522D02*
D03*
X1027386Y994122D02*
D03*
X1014687Y968722D02*
D03*
X1027386Y28922D02*
D03*
X1001986Y994122D02*
D03*
X963886Y1121122D02*
D03*
Y1019522D02*
D03*
X938486D02*
D03*
Y54322D02*
D03*
X925787Y1095722D02*
D03*
X913086Y1019522D02*
D03*
X925787Y994122D02*
D03*
X913086Y54322D02*
D03*
X874986Y1095722D02*
D03*
X862287Y1070322D02*
D03*
Y257522D02*
D03*
Y206722D02*
D03*
X874986Y130522D02*
D03*
Y28922D02*
D03*
X836887Y257522D02*
D03*
X849586Y181322D02*
D03*
Y130522D02*
D03*
Y28922D02*
D03*
X811487Y257522D02*
D03*
X824186Y232122D02*
D03*
Y181322D02*
D03*
X811487Y155922D02*
D03*
X824186Y28922D02*
D03*
X786087Y206722D02*
D03*
X798786Y181322D02*
D03*
X786087Y105122D02*
D03*
X798786Y79722D02*
D03*
X786087Y54322D02*
D03*
X798786Y28922D02*
D03*
X786087Y3522D02*
D03*
X760686Y1222722D02*
D03*
Y1171922D02*
D03*
Y1121122D02*
D03*
Y1070322D02*
D03*
Y1019522D02*
D03*
Y968722D02*
D03*
X773387Y943322D02*
D03*
X760686Y917922D02*
D03*
Y54322D02*
D03*
X773387Y28922D02*
D03*
X760686Y3522D02*
D03*
X735286Y1222722D02*
D03*
Y1171922D02*
D03*
X747987Y1095722D02*
D03*
Y232122D02*
D03*
X735286Y155922D02*
D03*
X747987Y130522D02*
D03*
X735286Y105122D02*
D03*
X747987Y79722D02*
D03*
X735286Y54322D02*
D03*
X747987Y28922D02*
D03*
X735286Y3522D02*
D03*
X709886Y1171922D02*
D03*
Y155922D02*
D03*
X722587Y79722D02*
D03*
X709886Y54322D02*
D03*
X722587Y28922D02*
D03*
X684486Y1222722D02*
D03*
X697187Y1197322D02*
D03*
Y1146522D02*
D03*
Y181322D02*
D03*
Y130522D02*
D03*
X671786Y1197322D02*
D03*
X659087Y1019522D02*
D03*
X671786Y994122D02*
D03*
Y943322D02*
D03*
X659087Y917922D02*
D03*
X671786Y892522D02*
D03*
X659087Y867122D02*
D03*
X671786Y841722D02*
D03*
X646386Y1197322D02*
D03*
X633686Y1019522D02*
D03*
X646386Y994122D02*
D03*
Y943322D02*
D03*
Y892522D02*
D03*
X633686Y867122D02*
D03*
X646386Y841722D02*
D03*
X633686Y3522D02*
D03*
X620987Y1044922D02*
D03*
Y994122D02*
D03*
Y943322D02*
D03*
X608287Y917922D02*
D03*
X620987Y841722D02*
D03*
X608287Y816322D02*
D03*
Y3522D02*
D03*
X595587Y1044922D02*
D03*
Y994122D02*
D03*
Y943322D02*
D03*
Y841722D02*
D03*
X570187Y1095722D02*
D03*
Y1044922D02*
D03*
Y994122D02*
D03*
Y943322D02*
D03*
Y841722D02*
D03*
X557486Y3522D02*
D03*
X544786Y1095722D02*
D03*
X532086Y1070322D02*
D03*
X544786Y994122D02*
D03*
Y943322D02*
D03*
Y841722D02*
D03*
X532086Y3522D02*
D03*
X519386Y1044922D02*
D03*
Y994122D02*
D03*
Y943322D02*
D03*
X506687Y3522D02*
D03*
X481287Y1222722D02*
D03*
X493987Y1095722D02*
D03*
X481287Y1070322D02*
D03*
X493987Y1044922D02*
D03*
X481287Y1019522D02*
D03*
X493987Y994122D02*
D03*
Y943322D02*
D03*
X481287Y917922D02*
D03*
Y816322D02*
D03*
Y3522D02*
D03*
X455886Y1222722D02*
D03*
Y1070322D02*
D03*
Y1019522D02*
D03*
X468587Y994122D02*
D03*
X455886Y968722D02*
D03*
X468587Y943322D02*
D03*
X455886Y917922D02*
D03*
X468587Y892522D02*
D03*
X455886Y816322D02*
D03*
Y3522D02*
D03*
X443186Y1044922D02*
D03*
Y994122D02*
D03*
Y943322D02*
D03*
X430486Y3522D02*
D03*
X405087D02*
D03*
X379687D02*
D03*
X354286D02*
D03*
X341586Y1095722D02*
D03*
X328886Y917922D02*
D03*
Y816322D02*
D03*
Y460722D02*
D03*
Y409922D02*
D03*
Y3522D02*
D03*
X316187Y1197322D02*
D03*
X303486Y1171922D02*
D03*
X316187Y1146522D02*
D03*
X303486Y1121122D02*
D03*
X316187Y1095722D02*
D03*
X303486Y1070322D02*
D03*
X316187Y1044922D02*
D03*
X303486Y1019522D02*
D03*
X316187Y994122D02*
D03*
X303486Y968722D02*
D03*
Y917922D02*
D03*
X316187Y841722D02*
D03*
X303486Y816322D02*
D03*
X316187Y790922D02*
D03*
X303486Y765522D02*
D03*
X316187Y486122D02*
D03*
Y435322D02*
D03*
X303486Y409922D02*
D03*
X316187Y384522D02*
D03*
X303486Y3522D02*
D03*
X278086Y1222722D02*
D03*
X290786Y1197322D02*
D03*
X278086Y1171922D02*
D03*
X290786Y1095722D02*
D03*
X278086Y1070322D02*
D03*
X290786Y1044922D02*
D03*
Y994122D02*
D03*
Y943322D02*
D03*
Y892522D02*
D03*
X278086Y867122D02*
D03*
X290786Y841722D02*
D03*
Y790922D02*
D03*
X278086Y511522D02*
D03*
X290786Y486122D02*
D03*
Y384522D02*
D03*
Y333722D02*
D03*
Y282922D02*
D03*
X278086Y3522D02*
D03*
X252687Y1222722D02*
D03*
Y1171922D02*
D03*
X265387Y1146522D02*
D03*
X252687Y1070322D02*
D03*
X265387Y1044922D02*
D03*
Y994122D02*
D03*
X252687Y968722D02*
D03*
X265387Y943322D02*
D03*
X252687Y917922D02*
D03*
X265387Y892522D02*
D03*
X252687Y867122D02*
D03*
Y816322D02*
D03*
X265387Y790922D02*
D03*
X252687Y765522D02*
D03*
X265387Y740122D02*
D03*
X252687Y714722D02*
D03*
X265387Y536922D02*
D03*
Y486122D02*
D03*
X252687Y460722D02*
D03*
X265387Y435322D02*
D03*
X252687Y359122D02*
D03*
X265387Y333722D02*
D03*
X252687Y308322D02*
D03*
X265387Y282922D02*
D03*
X252687Y257522D02*
D03*
Y3522D02*
D03*
X227286Y1222722D02*
D03*
X239986Y1197322D02*
D03*
X227286Y1171922D02*
D03*
X239986Y1095722D02*
D03*
X227286Y1070322D02*
D03*
Y1019522D02*
D03*
X239986Y994122D02*
D03*
Y943322D02*
D03*
X227286Y917922D02*
D03*
X239986Y892522D02*
D03*
Y790922D02*
D03*
X227286Y714722D02*
D03*
Y562322D02*
D03*
X239986Y536922D02*
D03*
Y486122D02*
D03*
X227286Y460722D02*
D03*
X239986Y333722D02*
D03*
Y282922D02*
D03*
X227286Y3522D02*
D03*
X201887Y1222722D02*
D03*
Y1121122D02*
D03*
Y1070322D02*
D03*
X214587Y1044922D02*
D03*
Y994122D02*
D03*
X201887Y917922D02*
D03*
X214587Y790922D02*
D03*
X201887Y765522D02*
D03*
Y714722D02*
D03*
X214587Y638522D02*
D03*
X201887Y613122D02*
D03*
Y562322D02*
D03*
Y511522D02*
D03*
Y460722D02*
D03*
Y409922D02*
D03*
X214587Y384522D02*
D03*
X201887Y359122D02*
D03*
X214587Y333722D02*
D03*
X201887Y257522D02*
D03*
Y206722D02*
D03*
Y3522D02*
D03*
X176486Y1171922D02*
D03*
X189186Y1146522D02*
D03*
Y1095722D02*
D03*
Y1044922D02*
D03*
Y994122D02*
D03*
X176486Y917922D02*
D03*
X189186Y892522D02*
D03*
X176486Y816322D02*
D03*
X189186Y790922D02*
D03*
Y740122D02*
D03*
Y638522D02*
D03*
X176486Y613122D02*
D03*
X189186Y587722D02*
D03*
X176486Y511522D02*
D03*
X189186Y435322D02*
D03*
X176486Y409922D02*
D03*
X189186Y384522D02*
D03*
X176486Y359122D02*
D03*
Y155922D02*
D03*
X151087Y1222722D02*
D03*
X163787Y1197322D02*
D03*
X151087Y1171922D02*
D03*
X163787Y1146522D02*
D03*
X151087Y1070322D02*
D03*
X163787Y1044922D02*
D03*
Y994122D02*
D03*
X151087Y968722D02*
D03*
Y917922D02*
D03*
Y867122D02*
D03*
Y816322D02*
D03*
Y765522D02*
D03*
Y714722D02*
D03*
Y613122D02*
D03*
X163787Y587722D02*
D03*
X151087Y562322D02*
D03*
X163787Y486122D02*
D03*
X151087Y460722D02*
D03*
X163787Y435322D02*
D03*
X151087Y409922D02*
D03*
X163787Y384522D02*
D03*
X151087Y308322D02*
D03*
X163787Y282922D02*
D03*
X151087Y257522D02*
D03*
X163787Y181322D02*
D03*
X151087Y155922D02*
D03*
Y3522D02*
D03*
X125687Y1222722D02*
D03*
Y1171922D02*
D03*
Y1121122D02*
D03*
Y1070322D02*
D03*
X138386Y1044922D02*
D03*
X125687Y917922D02*
D03*
X138386Y892522D02*
D03*
Y790922D02*
D03*
Y740122D02*
D03*
Y638522D02*
D03*
X125687Y613122D02*
D03*
X138386Y587722D02*
D03*
X125687Y511522D02*
D03*
X138386Y435322D02*
D03*
Y384522D02*
D03*
X125687Y308322D02*
D03*
X138386Y282922D02*
D03*
X125687Y206722D02*
D03*
X138386Y181322D02*
D03*
X125687Y155922D02*
D03*
X138386Y130522D02*
D03*
X125687Y105122D02*
D03*
Y3522D02*
D03*
X100287Y1222722D02*
D03*
X112986Y1197322D02*
D03*
X100287Y1171922D02*
D03*
Y765522D02*
D03*
X112986Y638522D02*
D03*
X100287Y613122D02*
D03*
Y562322D02*
D03*
X112986Y536922D02*
D03*
X100287Y511522D02*
D03*
Y460722D02*
D03*
X112986Y435322D02*
D03*
Y384522D02*
D03*
Y333722D02*
D03*
Y232122D02*
D03*
Y181322D02*
D03*
X100287Y105122D02*
D03*
Y3522D02*
D03*
X74886Y1222722D02*
D03*
X87586Y1197322D02*
D03*
X74886Y1171922D02*
D03*
Y1070322D02*
D03*
X87586Y1044922D02*
D03*
X74886Y1019522D02*
D03*
X87586Y994122D02*
D03*
X74886Y613122D02*
D03*
X87586Y587722D02*
D03*
Y486122D02*
D03*
X74886Y460722D02*
D03*
X87586Y384522D02*
D03*
X74886Y359122D02*
D03*
X87586Y333722D02*
D03*
Y282922D02*
D03*
X74886Y257522D02*
D03*
X87586Y181322D02*
D03*
Y130522D02*
D03*
Y79722D02*
D03*
Y28922D02*
D03*
X49486Y1222722D02*
D03*
Y1171922D02*
D03*
X62186Y1146522D02*
D03*
X49486Y1121122D02*
D03*
X62186Y994122D02*
D03*
Y689322D02*
D03*
X49486Y663922D02*
D03*
X62186Y638522D02*
D03*
X49486Y613122D02*
D03*
X62186Y587722D02*
D03*
X49486Y562322D02*
D03*
Y511522D02*
D03*
X62186Y486122D02*
D03*
X49486Y460722D02*
D03*
X62186Y435322D02*
D03*
Y384522D02*
D03*
X49486Y359122D02*
D03*
X62186Y333722D02*
D03*
X49486Y308322D02*
D03*
X62186Y282922D02*
D03*
X49486Y257522D02*
D03*
Y206722D02*
D03*
X62186Y181322D02*
D03*
X49486Y105122D02*
D03*
X62186Y79722D02*
D03*
X49486Y3522D02*
D03*
X24086Y1171922D02*
D03*
X36786Y1146522D02*
D03*
X24086Y1121122D02*
D03*
Y1070322D02*
D03*
X36786Y1044922D02*
D03*
Y994122D02*
D03*
X24086Y917922D02*
D03*
Y867122D02*
D03*
Y816322D02*
D03*
X36786Y790922D02*
D03*
X24086Y714722D02*
D03*
Y663922D02*
D03*
X36786Y638522D02*
D03*
X24086Y613122D02*
D03*
Y562322D02*
D03*
Y511522D02*
D03*
Y460722D02*
D03*
X36786Y435322D02*
D03*
X24086Y359122D02*
D03*
Y308322D02*
D03*
X36786Y282922D02*
D03*
X24086Y257522D02*
D03*
Y206722D02*
D03*
Y155922D02*
D03*
Y105122D02*
D03*
Y54322D02*
D03*
Y3522D02*
D03*
X1229750Y1204250D02*
D03*
X1040107Y1218038D02*
D03*
X1039754Y1200191D02*
D03*
X1153000Y1082000D02*
D03*
X1419000Y1138654D02*
D03*
X476750Y1133000D02*
D03*
X493250Y1154250D02*
D03*
X472436Y1166332D02*
D03*
X487936Y1185082D02*
D03*
X483436Y1184832D02*
D03*
X440250Y1187750D02*
D03*
X1269250Y1189250D02*
D03*
X1236250Y245000D02*
D03*
X548250Y368000D02*
D03*
X502776Y347770D02*
D03*
X498250Y350750D02*
D03*
X449500Y1187750D02*
D03*
X389221Y1092862D02*
D03*
X349250Y634500D02*
D03*
X349500Y629750D02*
D03*
X355500Y1161500D02*
D03*
X360250Y1161000D02*
D03*
X372250Y1167750D02*
D03*
X384193Y1167750D02*
D03*
X380193D02*
D03*
X527000Y630500D02*
D03*
X474750Y570250D02*
D03*
X539250Y604000D02*
D03*
X538500Y673750D02*
D03*
X453500Y517750D02*
D03*
X548804Y658696D02*
D03*
X560804Y647196D02*
D03*
X570500Y1163500D02*
D03*
X507500Y1164964D02*
D03*
Y1167250D02*
D03*
X1425250Y390250D02*
D03*
X400250Y1125000D02*
D03*
X356500Y1083500D02*
D03*
X1313250Y132000D02*
D03*
X1072750Y828250D02*
D03*
X424250Y364500D02*
D03*
X976463Y718907D02*
D03*
X694481Y404358D02*
D03*
X337250Y780250D02*
D03*
X67500Y807500D02*
D03*
X464250Y1081000D02*
D03*
X452250Y1074750D02*
D03*
X99750Y798250D02*
D03*
X117750Y811500D02*
D03*
X143750Y899500D02*
D03*
X410250Y1158500D02*
D03*
X513750Y1131500D02*
D03*
X515367Y1129884D02*
D03*
X742750Y1011750D02*
D03*
X693000Y1020750D02*
D03*
X742500Y1007000D02*
D03*
X714750Y1013500D02*
D03*
X404193Y1167750D02*
D03*
X396193D02*
D03*
X392193D02*
D03*
X805250Y960250D02*
D03*
X844750Y958500D02*
D03*
X825000Y702250D02*
D03*
X787000Y961000D02*
D03*
X768500Y960250D02*
D03*
X862250Y959750D02*
D03*
X842500Y702000D02*
D03*
X495024Y1114304D02*
D03*
X495750Y1166500D02*
D03*
X408500Y1187396D02*
D03*
X416000Y1186970D02*
D03*
X141500Y1073500D02*
D03*
Y1097500D02*
D03*
X92500Y932750D02*
D03*
X378000Y754250D02*
D03*
X414250Y697250D02*
D03*
X86000Y932750D02*
D03*
X123750Y927250D02*
D03*
X130000Y929000D02*
D03*
X393000Y338000D02*
D03*
X397250Y340500D02*
D03*
X407250Y352500D02*
D03*
X423250Y439000D02*
D03*
X419500Y362250D02*
D03*
X437250Y380500D02*
D03*
X479500Y371000D02*
D03*
X487250Y363500D02*
D03*
X507437Y338575D02*
D03*
X502778Y342472D02*
D03*
X757250Y305286D02*
D03*
X753928Y294744D02*
D03*
X745710Y302667D02*
D03*
X1068000Y848250D02*
D03*
X688500Y382250D02*
D03*
X591000Y285750D02*
D03*
X658000Y360000D02*
D03*
X709250Y421750D02*
D03*
X694000Y397500D02*
D03*
X672000Y369750D02*
D03*
X782750Y428750D02*
D03*
X745250Y389000D02*
D03*
X752000Y379750D02*
D03*
X766961Y370225D02*
D03*
X763500Y372786D02*
D03*
X778500Y356000D02*
D03*
X776903Y354364D02*
D03*
X767250Y377000D02*
D03*
X765250Y365250D02*
D03*
X990750Y840250D02*
D03*
X917498Y884501D02*
D03*
X989000Y831250D02*
D03*
X990500Y823750D02*
D03*
X989250Y867250D02*
D03*
X1157641Y1233032D02*
D03*
X1146891Y1202532D02*
D03*
X1147790Y1221570D02*
D03*
X1143538Y1212029D02*
D03*
X1143081Y932225D02*
D03*
X1131500Y943500D02*
D03*
X971750Y914500D02*
D03*
X788750Y1206500D02*
D03*
X760000Y316250D02*
D03*
X685500Y298000D02*
D03*
X681250Y304500D02*
D03*
X371250Y1138446D02*
D03*
X897750Y315750D02*
D03*
X994250Y507904D02*
D03*
X1021750Y535404D02*
D03*
X1074750Y588404D02*
D03*
X1155500Y549654D02*
D03*
X1060900Y455126D02*
D03*
X1069750Y856250D02*
D03*
X1131500Y489250D02*
D03*
X853750Y236500D02*
D03*
X1012500Y235750D02*
D03*
X1101500Y570250D02*
D03*
X1331250Y132750D02*
D03*
X946750Y1207000D02*
D03*
X947000Y1148000D02*
D03*
X795500Y780500D02*
D03*
X825250Y959500D02*
D03*
X807000Y703500D02*
D03*
X814966Y1083908D02*
D03*
X828966Y1103158D02*
D03*
X853466Y1212658D02*
D03*
X886215Y1215408D02*
D03*
X885510Y1196836D02*
D03*
X984228Y1085671D02*
D03*
X999978Y1102422D02*
D03*
X1231750Y1224500D02*
D03*
X1178000Y1211000D02*
D03*
X1165750Y1097250D02*
D03*
X1305500Y1055750D02*
D03*
X1093250Y879250D02*
D03*
X1100250Y914750D02*
D03*
X1076000Y878500D02*
D03*
X491750Y357000D02*
D03*
X473884Y373866D02*
D03*
X489540Y291963D02*
D03*
X472268Y375482D02*
D03*
X493750Y294500D02*
D03*
X778750Y319000D02*
D03*
X766500Y306500D02*
D03*
X422392Y593858D02*
D03*
X501750Y21000D02*
D03*
X428500Y271500D02*
D03*
X1049000Y922750D02*
D03*
X1072000Y884500D02*
D03*
X1101500Y879000D02*
D03*
X1029526Y885270D02*
D03*
X1029259Y875744D02*
D03*
X1076500Y856000D02*
D03*
X1077500Y803500D02*
D03*
X1067250Y582000D02*
D03*
X1029250Y799000D02*
D03*
X1008994Y875822D02*
D03*
X990000Y852750D02*
D03*
X861500Y857250D02*
D03*
X991000Y818750D02*
D03*
X848250Y846250D02*
D03*
X911750Y643250D02*
D03*
X1138000Y566500D02*
D03*
X1165500Y490500D02*
D03*
X1050500Y562750D02*
D03*
X987000Y385000D02*
D03*
X1011750Y359500D02*
D03*
X1341000Y118750D02*
D03*
X736000Y453000D02*
D03*
X695250Y290750D02*
D03*
X690500Y294750D02*
D03*
X616750Y601500D02*
D03*
X579000Y604000D02*
D03*
X642000Y441250D02*
D03*
X666750Y439750D02*
D03*
X505000Y603750D02*
D03*
X427500Y675000D02*
D03*
X676500Y308750D02*
D03*
X666750Y368000D02*
D03*
X486250Y435500D02*
D03*
X618750Y364750D02*
D03*
X512500Y305750D02*
D03*
X414000Y744000D02*
D03*
X259250Y598000D02*
D03*
X100500Y998000D02*
D03*
X100250Y1017500D02*
D03*
X111500Y931250D02*
D03*
X100250Y979500D02*
D03*
X394250Y415500D02*
D03*
X404750Y348750D02*
D03*
X367500Y417000D02*
D03*
X487724Y286980D02*
D03*
X545250Y110750D02*
D03*
X545750Y82250D02*
D03*
X648250Y38500D02*
D03*
X636500Y23750D02*
D03*
X481750Y274000D02*
D03*
X514750Y32250D02*
D03*
X432724Y267270D02*
D03*
X424500Y275500D02*
D03*
X419000Y280250D02*
D03*
X409500Y288000D02*
D03*
X413500Y284500D02*
D03*
X315000Y246250D02*
D03*
X407000Y34500D02*
D03*
X380250Y35000D02*
D03*
X127500Y65250D02*
D03*
Y37250D02*
D03*
X283000Y32000D02*
D03*
X270250Y21250D02*
D03*
X675500Y375250D02*
D03*
X646304Y651196D02*
D03*
X438804Y623696D02*
D03*
X438554Y645696D02*
D03*
X346804Y1161946D02*
D03*
X390054Y1137696D02*
D03*
X467750Y649500D02*
D03*
X337500Y1161750D02*
D03*
X344750Y1135500D02*
D03*
X330750Y1138000D02*
D03*
X350250Y1185500D02*
D03*
X483250Y674000D02*
D03*
X1075000Y433500D02*
D03*
X858500Y248500D02*
D03*
X1114500Y431750D02*
D03*
X1039729Y467770D02*
D03*
X1041346Y466154D02*
D03*
X1047232Y693500D02*
D03*
X1012750Y720000D02*
D03*
X737300Y392200D02*
D03*
X1015036Y720000D02*
D03*
X738916Y390584D02*
D03*
X993250Y615500D02*
D03*
X124250Y860250D02*
D03*
X1480500Y804500D02*
D03*
X1469750Y803750D02*
D03*
X1458500Y804750D02*
D03*
X1065750Y248500D02*
D03*
X1067500Y137000D02*
D03*
X888000Y151000D02*
D03*
X977500Y595750D02*
D03*
X968500Y586500D02*
D03*
X1053500Y531250D02*
D03*
X1061500Y490750D02*
D03*
X1349250Y782000D02*
D03*
X1180500Y188000D02*
D03*
X1339750Y781750D02*
D03*
X1141850Y181250D02*
D03*
X1312400Y781750D02*
D03*
X1114500Y181250D02*
D03*
X1326950Y781750D02*
D03*
X1129050Y181250D02*
D03*
X1160750Y129000D02*
D03*
X1111750Y129500D02*
D03*
X1135250Y125750D02*
D03*
X1178500Y130000D02*
D03*
X732500Y878250D02*
D03*
X976250Y1025000D02*
D03*
X724750Y872250D02*
D03*
X985750Y1024250D02*
D03*
X1136750Y1028750D02*
D03*
X850500Y816750D02*
D03*
X848080Y804750D02*
D03*
X718250Y865500D02*
D03*
X739000Y884750D02*
D03*
X744500Y891500D02*
D03*
X750250Y898000D02*
D03*
X960250Y1024500D02*
D03*
X952750Y1024250D02*
D03*
X968000Y1024750D02*
D03*
X994250Y1024500D02*
D03*
X1140750Y1028750D02*
D03*
X1144750D02*
D03*
X855700Y812750D02*
D03*
X1148750Y1028750D02*
D03*
X853160Y808750D02*
D03*
X1152750Y1028750D02*
D03*
X1156750D02*
D03*
D182*
X12614Y615220D02*
D03*
X1121750Y210500D02*
D03*
X1166000Y269250D02*
D03*
X584000Y1218250D02*
D03*
X562500Y1229000D02*
D03*
X537500Y1229250D02*
D03*
X513000Y1228000D02*
D03*
X569250Y1207750D02*
D03*
X512000Y1207250D02*
D03*
X531000D02*
D03*
X550000Y1207500D02*
D03*
D183*
X483650Y121250D02*
D03*
X628015Y119675D02*
D03*
X492000Y121250D02*
D03*
X636365Y119675D02*
D03*
D184*
X271000Y122850D02*
D03*
X221500Y122350D02*
D03*
Y114000D02*
D03*
X271000Y114500D02*
D03*
D185*
X483650Y111250D02*
D03*
Y131250D02*
D03*
Y126250D02*
D03*
Y116250D02*
D03*
X492000Y131250D02*
D03*
Y126250D02*
D03*
Y116250D02*
D03*
Y111250D02*
D03*
X636365Y109675D02*
D03*
Y114675D02*
D03*
Y124675D02*
D03*
Y129675D02*
D03*
X628015D02*
D03*
Y124675D02*
D03*
Y114675D02*
D03*
Y109675D02*
D03*
D186*
X211500Y122350D02*
D03*
X216500D02*
D03*
X226500D02*
D03*
X231500D02*
D03*
Y114000D02*
D03*
X226500D02*
D03*
X216500D02*
D03*
X211500D02*
D03*
X261000Y122850D02*
D03*
X266000D02*
D03*
X276000D02*
D03*
X281000D02*
D03*
Y114500D02*
D03*
X276000D02*
D03*
X266000D02*
D03*
X261000D02*
D03*
M02*
