M48
;Layer_Color=9474304
;FILE_FORMAT=4:4
METRIC,LZ
T18F00S00C1.0000
%
G90
G05
T18
G00X00394692Y-00015146
M15
G01X00394145Y-00014141
G01X00392106Y-00009591
G01X0039094Y-00006354
G01X00340679Y-00006354
G01X00336312Y-00015147
G01X00394692Y-00015146
M16
G00X01602139Y-00004578
M15
G01X01603884Y-00003174
G01X01604956Y-0000008
G01X01604956Y0125992
G01X01604455Y01262103
G01X01603051Y01263847
G01X01599956Y0126492
G01X-00000044Y0126492
G01X-00002226Y01264418
G01X-00003971Y01263014
G01X-00005044Y0125992
G01X-00005044Y-0000008
G01X-00004542Y-00002263
G01X-00003138Y-00004007
G01X-00000044Y-0000508
G01X01599956Y-0000508
G01X01602139Y-00004578
M16
M17
M30
