M48
;Layer_Color=9474304
;FILE_FORMAT=4:4
METRIC,LZ
;TYPE=PLATED
T01F00S00C0.1270
T02F00S00C0.7112
T03F00S00C0.7600
T04F00S00C0.8900
T05F00S00C0.9000
T06F00S00C1.0100
T07F00S00C1.0200
T08F00S00C1.1000
T09F00S00C1.3000
T10F00S00C1.3200
T11F00S00C1.3500
T12F00S00C1.5000
T13F00S00C1.6000
T14F00S00C1.6300
T15F00S00C1.7000
T16F00S00C2.7000
%
T01
X01586187Y00079722
Y00232122
X01560786
X01535387
X01509987
X01522686Y00206722
X01548087
X01535387Y00181322
X01509987
X01484586
X01471886Y00206722
X01446487
X01459187Y00232122
X01433786
Y00181322
X01446487Y00155922
X01484586Y00130522
X01509987
X01522686Y00155922
X01548087
Y00105122
X01573486
X01560786Y00079722
X01535387
X01548087Y00054322
X01573486
Y00003522
X01548087
X01522686
X01497287
X01471886
X01459187Y00028922
X01433786
X01446487Y00054322
X01471886
X01497287
X01522686
X01535387Y00028922
X01522686Y00105122
X01459187Y00079722
X01421086Y00105122
X01408387Y00130522
X01357587
X01341Y0011875
X01344886Y00105122
X01370287
X01382986Y00079722
X01395686Y00054322
X01421086
Y00003522
X01370287
X01344886
X01357587Y00028922
X01382986
X01370287Y00054322
X01319487
X01332186Y00079722
Y00028922
X01306786
X01255986
X01230586
X01205186
X01192486Y00054322
X01205186Y00079722
X01230586
X01217887Y00105122
X01192486
X01217887Y00155922
X0131325Y00132
X0133125Y0013275
X01370287Y00155922
X01382986Y00181322
X01357587
X01370287Y00206722
X01395686
X01382986Y00232122
X01344886Y00206722
X01319487
X01306786Y00232122
X01268687Y00003522
X01243287
X01167086Y00054322
Y00105122
X0116075Y00129
X011785Y0013
X0113525Y0012575
X0111175Y001295
X01090887Y00155922
X01103587Y00181322
X011145Y0018125
X0112905
X0114185
X01179787Y00181322
X011805Y00188
X01090887Y00206722
X01103587Y00232122
X010125Y0023575
X010675Y00137
X01090887Y00054322
X01103587Y00028922
X01027386
X01040087Y00003522
X00887686
X00862287
X00874986Y00028922
X00849586
X00824186
X00798786
Y00079722
X00811487Y00155922
X00824186Y00181322
X00849586
X00862287Y00206722
X0085375Y002365
X00824186Y00232122
X00798786Y00181322
X00849586Y00130522
X00874986
X00888Y00151
X00913086Y00054322
X00938486
X00786087
X00760686
X00735286
X00709886
X00722587Y00079722
X00747987
X00735286Y00105122
X00747987Y00130522
X00735286Y00155922
X00709886
X00697187Y00181322
Y00130522
X00786087Y00105122
X00773387Y00028922
X00747987
X00722587
X00735286Y00003522
X00760686
X00786087
X00633686
X006365Y0002375
X0064825Y000385
X00608287Y00003522
X00582887
X00557486
X00532086
X00506687
X0050175Y00021
X0051475Y0003225
X00481287Y00003522
X00455886
X00430486
X00405087
X00407Y000345
X0054575Y0008225
X0054525Y0011075
X00747987Y00232122
X00786087Y00206722
X0038025Y00035
X00379687Y00003522
X00354286
X00328886
X00303486
X00278086
X00252687
X00227286
X00201887
X00151087
X00125687
X00100287
X00087586Y00028922
X001275Y0003725
Y0006525
X00125687Y00105122
X00100287
X00087586Y00130522
X00138386
X00151087Y00155922
X00176486
X00163787Y00181322
X00138386
X00112986
X00087586
X00062186
X00049486Y00206722
X00024086
Y00155922
Y00105122
X00049486
X00062186Y00079722
X00087586
X00024086Y00054322
Y00003522
X00049486
X00125687Y00155922
Y00206722
X00112986Y00232122
X00214587
X00201887Y00206722
X0027025Y0002125
X00283Y00032
X00315Y0024625
X00290786Y00282922
X00265387
X00239986
X00214587Y0028291
X00189186Y00282922
X00163787
X00138386
X00151087Y00308322
X00125687
X00138386Y00333722
X00112986
X00087586
X00062186
X00074886Y00359122
X00049486
X00024086
Y00308322
X00049486
X00062186Y00282922
X00087586
X00074886Y00257522
X00049486
X00024086
X00036786Y00282922
X00062186Y00384522
X00087586
X00112986
X00138386
X00163787
X00189186
X00214587
X00201887Y00409922
X00176486
X00151087
X00163787Y00435322
X00189186
X00201887Y00460722
X00227286
X00252687
X00265387Y00486122
X00290786
X00316187
X00328886Y00460722
X00316187Y00435322
X00328886Y00409922
X00303486
X00316187Y00384522
X00290786
Y00333722
X00316187
X00265387
X00239986
X00214587
X00201887Y00308322
X00252687
Y00359122
X00201887
X00176486
X00138386Y00435322
X00112986
X00125687Y00460722
X00151087
X00163787Y00486122
X00176486Y00511522
X00201887
Y00562322
X00227286
X00239986Y00536922
X00265387
X00278086Y00511522
X00239986Y00486122
X00265387Y00435322
X003675Y00417
X0039425Y004155
X00367405Y0036975
X00393Y00338
X00252687Y00257522
X00201887
X00151087
X00100287Y00460722
X00074886
X00049486
X00024086
X00036786Y00435322
X00062186
Y00486122
X00087586
X00074886Y00511522
X00100287
X00125687
X00112986Y00536922
X00100287Y00562322
X00087586Y00587722
X00062186
X00074886Y00613122
X00100287
X00125687
X00151087
X00176486
X00201887
X00189186Y00587722
X00163787
X00138386
X00151087Y00562322
X00049486
X00024086
Y00613122
X00012614Y0061522
X00049486Y00613122
Y00511522
X00024086
X0025925Y00598
X003495Y0062975
X0034925Y006345
X00438804Y00623696
X00422392Y00593858
X0047475Y0057025
X00505Y0060375
X0053925Y00604
X00527Y006305
X00579Y00604
X0061675Y006015
X00642Y0044125
X0066675Y0043975
X0070925Y0042175
X00694481Y00404358
X00694Y003975
X006885Y0038225
X006755Y0037525
X00672Y0036975
X0066675Y00368
X00658Y0036
X006595Y00354
X0061875Y0036475
X0054825Y00368
X0048725Y003635
X0049175Y00357
X0049825Y0035075
X00502776Y0034777
X00502778Y00342472
X00507437Y00338575
X005125Y0030575
X0049375Y002945
X0048954Y00291963
X00487724Y0028698
X0048175Y00274
X004285Y002715
X004245Y002755
X00419Y0028025
X004135Y002845
X004095Y00288
X00432724Y0026727
X0042425Y003645
X004195Y0036225
X0040725Y003525
X0040475Y0034875
X0039725Y003405
X0043725Y003805
X00467595Y00379365
X00465915Y00386042
X00472165Y00383792
X00472268Y00375482
X00473884Y00373866
X004795Y00371
X0048625Y004355
X0042325Y00439
X004535Y0051775
X00736Y00453
X007373Y003922
X00738916Y00390584
X0074525Y00389
X00752Y0037975
X0076725Y00377
X00766961Y00370225
X007635Y00372786
X0076525Y0036525
X007785Y00356
X00776903Y00354364
X0077875Y00319
X0076Y0031625
X00756567Y0031323
X0075725Y00305286
X007495Y0030629
X0074571Y00302667
X00753928Y00294744
X007665Y003065
X00786087Y00257522
X0069525Y0029075
X006905Y0029475
X006855Y00298
X0068125Y003045
X006765Y0030875
X00591Y0028575
X0078275Y0042875
X00811487Y00257522
X00836887
X00862287
X008695Y0025225
X008585Y002485
X00908Y002495
X0089775Y0031575
X0101175Y003595
X00987Y00385
X010935Y0040025
X01075Y004335
X010609Y00455126
X01041346Y00466154
X01039729Y0046777
X010615Y0049075
X010535Y0053125
X010505Y0056275
X0106725Y00582
X0107475Y00588404
X011015Y0057025
X01138Y005665
X011555Y00549654
X011655Y004905
X011315Y0048925
X01126Y004515
X011145Y0043175
X0099425Y00507904
X0102175Y00535404
X009685Y005865
X009775Y0059575
X0099325Y006155
X0093125Y0062225
X0106575Y002485
X0123625Y00245
X01281387Y00282922
X01306786
X01332186
X01382986
X01370287Y00257522
X01446487
X01433786Y00282922
X01446487Y00308322
X01471886
X01497287
X01522686
X01548087
X01573486
X01560786Y00333722
X01535387
X01548087Y00359122
X01560786Y00384522
X01535387
X01548087Y00409922
X01522686
X01497287
X01471886
X01459187Y00384522
X01433786
X0142525Y0039025
X01421086Y00409922
X01395686
X01370287
X01344886
X01319487
X01332186Y00384522
X01357587
X01306786
X01268687Y00409922
X01255986Y00435322
X01230586
Y00486122
X01255986
X01243287Y00511522
X01281387Y00536922
X01268687Y00562322
X01306786Y00587722
X01332186
X01357587
X01382986
X01395686Y00562322
X01421086
X01433786Y00536922
X01459187
X01464286Y00552496
X01484586Y00536922
X01497287Y00562322
X01522686
X01548087
X01560786Y00587722
X01535387
X01548087Y00613122
X01573486
X01560786Y00536922
X01535387
X01548087Y00511522
X01573486
X01548087Y00460722
X01522686
X01497287
X01471886
X01421086
X01395686
X01408387Y00435322
X01433786
Y00486122
X01370287Y00562322
X012405Y00609
X01243287Y00613122
X01217887
X01192486
X01205186Y00587722
X01294086Y00308322
X01421086
X01560786Y00282922
X01573486Y00257522
X01586187Y00282922
Y00333722
Y00384522
Y00435322
Y00486122
Y00587722
Y00638522
Y00689322
Y00740122
Y00790922
Y00994122
X01573486Y01019522
X01548087
X01522686
X01535387Y00994122
X01548087Y00968722
X01573486
Y00917922
X01548087
X01522686
X01535387Y00943322
X01522686Y00968722
X01497287
X01471886
X01484586Y00994122
X01421086Y01019522
X01395686
Y00968722
X01421086
X01408387Y00943322
X01382986
X01357587
X01332186
X01344886Y00968722
X01332186Y00994122
X01344886Y01019522
X01319487
X01281387Y00994122
X01255986
X01243287Y01019522
X01205186Y00994122
X01192486Y00968722
X01205186Y00943322
X01230586Y00892522
X01217887Y00867122
X01205186Y00841722
X01243287Y00816322
X01255986Y00790922
X01281387
X01268687Y00765522
X01281387Y00740122
X01294086Y00714722
X01319487
X01344886
X01357587Y00740122
X01382986
X01408387
X01433786
X01459187
X01446487Y00765522
X01459187Y00790922
X014585Y0080475
X0146975Y0080375
X014805Y008045
X01509987Y00790922
X01522686Y00765522
X01535387Y00740122
X01560786
X01573486Y00765522
Y00714722
X01548087
X01522686
X01535387Y00689322
X01548087Y00663922
X01535387Y00638522
X01471886Y00663922
X01421086
X01433786Y00638522
X01408387
X01382986
X01357587
X01344886Y00663922
X01319487
X01294086
X01268687
X01243287
X01217887
X01192486
X01205186Y00689322
X01230586
X01255986
X01243287Y00714722
X01230586Y00740122
X01205186
X01230586Y00790922
X013124Y0078175
X0132695
X0133975
X0134925Y00782
X01344886Y00765522
X01332186Y00740122
Y00689322
X01357587
X01382986
X01408387
X01421086Y00714722
X01395686
Y00765522
X01408387Y00841722
X01382986
X01395686Y00867122
X01421086
X01408387Y00892522
X01382986
X01357587
X01332186
X01344886Y00867122
X01370287
Y00917922
X01319487
X01294086
X01268687Y00867122
X01332186Y00841722
X01471886Y00867122
X01509987Y00892522
X01446487Y00917922
X01560786Y00841722
X01509987Y00740122
X01306786Y00638522
X01255986
X01179787
Y00689322
X01154387
X01128987
X01141686Y00663922
X01167086Y00714722
X01179787Y00740122
X01154387
X01128987
X01141686Y00765522
X01167086
X01179787Y00790922
X010775Y008035
X0107275Y0082825
X01068Y0084825
X0106975Y0085625
X010765Y00856
X01076Y008785
X01072Y008845
X0109325Y0087925
X011015Y00879
X0110025Y0091475
X01049Y0092275
X01040087Y00968722
X01065487
X01090887
X01103587Y00994122
X01128987
X01116286Y01019522
X0113675Y0102875
X0114075
X0114475
X0114875
X0115275
X0115675
X01179787Y00994122
X01143081Y00932225
X011315Y009435
X01078186Y00994122
X01052786
X01027386
X01001986
X01014687Y00968722
X01040087Y01019522
X01065487
X0099425Y010245
X0098575Y0102425
X0097625Y01025
X00968Y0102475
X0096025Y010245
X0095275Y0102425
X00963886Y01019522
X00938486
X00913086
X00925787Y00994122
X0086225Y0095975
X0084475Y009585
X0082525Y009595
X0080525Y0096025
X00819776Y0083652
X0084825Y0084625
X008615Y0085725
X008557Y0081275
X0085316Y0080875
X0084808Y0080475
X00844405Y0080075
Y0082075
X008505Y0081675
X007955Y007805
X00807Y007035
X00825Y0070225
X008425Y00702
X0091175Y0064325
X00976463Y00718907
X00978974Y00718819
X0101275Y0072
X01015036
X01047232Y006935
X01049602Y00693553
X01116286Y00714722
X0102925Y00799
X00991Y0081875
X009905Y0082375
X00989Y0083125
X0099075Y0084025
X0099Y0085275
X0098925Y0086725
X01008994Y00875822
X01029259Y00875744
X01029526Y0088527
X0097175Y009145
X00917498Y00884501
X00739Y0088475
X007445Y008915
X0075025Y00898
X00760686Y00917922
X00773387Y00943322
X007685Y0096025
X00760686Y00968722
X00787Y00961
X00760686Y01019522
X0074275Y0101175
X007425Y01007
X0071475Y010135
X00693Y0102075
X00659087Y01019522
X00633686
X00646386Y00994122
X00671786
Y00943322
X00646386
X00620987
X00595587
X00570187
X00544786
X00519386
X00493987
X00468587
X00443186
X00455886Y00968722
X00468587Y00994122
X00493987
X00519386
X00544786
X00570187
X00595587
X00620987
X00608287Y00917922
X00659087
X00671786Y00892522
X00646386
X00659087Y00867122
X00633686
X00646386Y00841722
X00671786
X00620987
X00595587
X00570187
X00544786
X00608287Y00816322
X00481287
X00455886
X00468587Y00892522
X00481287Y00917922
X00455886
X00443186Y00994122
X00455886Y01019522
X00481287
X00414Y00744
X0041425Y0069725
X004275Y00675
X00438554Y00645696
X0046775Y006495
X0048325Y00674
X005385Y0067375
X00548804Y00658696
X00560804Y00647196
X00646304Y00651196
X0071825Y008655
X0072475Y0087225
X007325Y0087825
X00328886Y00917922
X00303486
X00290786Y00943322
X00265387
X00239986
X00252687Y00968722
X00265387Y00994122
X00290786
X00316187
X00303486Y01019522
Y00968722
X00290786Y00892522
X00265387
X00239986
X00252687Y00917922
X00227286
X00201887
X00176486
X00151087
X00125687
X0012375Y0092725
X0013Y00929
X001115Y0093125
X000925Y0093275
X00086
X0006975Y0092375
X0006425Y0091675
X00049486Y00917922
X00024086
X00036786Y00943322
Y00892522
X00062186
X00049486Y00867122
X00024086
Y00816322
X00036786Y00790922
X000675Y008075
X00062186Y00841722
X0012425Y0086025
X00151087Y00867122
X00138386Y00892522
X0014375Y008995
X00189186Y00892522
X00252687Y00867122
X00278086
X00290786Y00841722
X00316187
X00328886Y00816322
X00303486
X00316187Y00790922
X00290786
X00265387
X00239986
X00214587
X00218Y0077975
X00201887Y00765522
X00189186Y00790922
X00176486Y00816322
X00151087
X00138386Y00790922
X00151087Y00765522
X00138386Y00740122
X00151087Y00714722
X00201887
X00227286
X00252687
X00265387Y00740122
X00252687Y00765522
X00303486
X0033725Y0078025
X00378Y0075425
X00252687Y00816322
X00189186Y00740122
Y00638522
X00214587
X00138386
X00112986
X00062186
X00036786
X00049486Y00663922
X00024086
Y00714722
X00062186Y00689322
X00100287Y00765522
X0009975Y0079825
X0011775Y008115
X0010025Y009795
X001005Y00998
X00087586Y00994122
X00062186
X00036786
X00074886Y00968722
Y01019522
X0010025Y010175
X00163787Y00994122
X00189186
X00214587
X00239986
X00227286Y01019522
X00151087Y00968722
X00163787Y01044922
X00189186
X00214587
X00227286Y01070322
X00252687
X00278086
X00303486
X00316187Y01095722
X00341586
X003565Y010835
X00389221Y01092862
X00390054Y01137696
X0037125Y01138446
X00364304Y01156196
X0036025Y01161
X003555Y011615
X00354155Y01156946
X00346804Y01161946
X003375Y0116175
X00329Y01167
X00303486Y01171922
X00278086
X00252687
X00227286
X00239986Y01197322
X00252687Y01222722
X00278086
X00290786Y01197322
X00316187
X00328886Y01222722
X0034925Y0124
X0038625Y0125325
X00384193Y0116775
X00380193
X0037225Y0116775
X00392193Y0116775
X0035025Y011855
X0034475Y011355
X0033075Y01138
X00316187Y01146522
X00303486Y01121122
X00290786Y01095722
Y01044922
X00316187
X00265387
X00239986Y01095722
X00189186
X00201887Y01121122
X00189186Y01146522
X00163787
X00176486Y01171922
X00151087
X00125687
X00100287
X00074886
X00049486
X00024086
X00036786Y01146522
X00062186
X00049486Y01121122
X00024086
Y01070322
X00036786Y01044922
X00087586
X00074886Y01070322
X00125687
X001415Y010735
X00151087Y01070322
X001415Y010975
X00125687Y01121122
X00138386Y01044922
X00201887Y01070322
X00265387Y01146522
X00227286Y01222722
X00201887
X00151087
X00125687
X00100287
X00074886
X00049486
X00087586Y01197322
X00112986
X00163787
X004085Y01187396
X00416Y0118697
X0044025Y0118775
X004495
X00460038Y01165334
X00472436Y01166332
X0049575Y011665
X0049801Y01165528
X005075Y01164964
Y0116725
X0049325Y0115425
X00487936Y01185082
X00483436Y01184832
X00481287Y01222722
X00455886
X00404193Y0116775
X00396193
X0041025Y011585
X0040025Y01125
X00404193Y011
X00412193
X00432Y01102876
X0045225Y0107475
X00455886Y01070322
X0046425Y01081
X00481287Y01070322
X00493987Y01095722
X00497867Y01111384
X00495024Y01114304
X0051375Y011315
X00515367Y01129884
X0047675Y01133
X00544786Y01095722
X00570187
Y01044922
X00595587
X00620987
X00519386
X00493987
X00443186
X00532086Y01070322
X005705Y011635
X00646386Y01197322
X00671786
X00697187
X00709886Y01171922
X00735286
X00760686
Y01222722
X00735286
X00684486
X00697187Y01146522
X00760686Y01121122
X00747987Y01095722
X00760686Y01070322
X0078875Y012065
X00853466Y01212658
X00886215Y01215408
X0088551Y01196836
X0094675Y01207
X00947Y01148
X00963886Y01121122
X00999978Y01102422
X00984228Y01085671
X00925787Y01095722
X00874986
X00862287Y01070322
X00814966Y01083908
X00828966Y01103158
X01040087Y01121122
X01052786Y01095722
X01065487Y01070322
X01153Y01082
X0116575Y0109725
X01154387Y01044922
X01179787
X01116286Y01121122
X01146891Y01202532
X01143538Y01212029
X0114779Y0122157
X01157641Y01233032
X01178Y01211
X01040107Y01218038
X01039754Y01200191
X0122975Y0120425
X0123175Y012245
X01268687Y01222722
X01294086
X01319487
X01344886
X01357587Y01197322
X01382986
X01395686Y01222722
X01421086
X01446487
X01459187Y01197322
X01509987
X01535387
X01548087Y01171922
X01573486
Y01222722
X01522686
Y01171922
X01497287
X01484586Y01146522
X01535387
X01548087Y01121122
X01573486
X01560786Y01095722
X01573486Y01070322
X01535387Y01044922
X01509987
X01484586
X01459187
X01446487Y01070322
X01421086
X01395686
X01370287
X01357587Y01095722
X01344886Y01121122
X01319487
X01294086
X01268687
X01243287
X01255986Y01146522
X01268687Y01171922
X0126925Y0118925
X01281387Y01197322
X01255986
X01243287Y01171922
X01217887
X01205186Y01146522
Y01095722
X01230586
X01255986
X01268687Y01070322
X01243287
X01255986Y01044922
X01205186
X013055Y0105575
X01319487Y01070322
X01332186Y01044922
X01408387
X01433786Y01095722
X01459187
X01446487Y01121122
X01419Y01138654
X01408387Y01146522
X01382986
X01357587
X01344886Y01171922
X01319487
X01294086
X01332186Y01197322
X01370287Y01171922
X01395686
X01421086
X01522686Y01121122
X01586187Y01146522
Y01044922
T02
X0112175Y002105
X01166Y0026925
X00584Y0121825
X0056925Y0120775
X0055Y012075
X00531Y0120725
X00512
X00513Y01228
X005375Y0122925
X005625Y01229
T03
X0138275Y001295
X0143375
Y00212
X0138275
T04
X0044324Y00154528
X0046864
X0049404
X0051944
X0053214Y00179928
X0050674
X0048134
X0045594
X0059564
X0062104
X0064644
X0067184
X0065914Y00154528
X0063374
X0060834
X0058294
T05
X00208865Y00154427
X00234265
X00259665
X00285065
X00310465
X00297765Y00179827
X00272365
X00246965
X00221565
X00196165
T06
X01306878Y00039319
X01351878
T07
X0042284Y00050427
X0044824
X0052704
X0055244
X0056264Y00068128
X0058804
X0066684Y00050427
X0069224
X00319615Y00050127
X00294215
X00212415
X00187015
T08
X000318Y007575
X000572
X000826
X00108
X001334
X001588
T09
X000525Y010471
Y010725
Y010979
T10
X01294328Y00064219
X01364428
X0029Y0056025
Y0058565
Y0061105
Y0063645
T11
X00814026Y00062143
X00852126
X00890227
X00963886
X01001986
X01040087
T12
X01434558Y00079556
X01484557
X01554306Y0085527
T13
X00175865Y00121427
X00330765
T14
X0040289Y00121528
X0055754Y00193928
X0071219Y00121528
T15
X01528906Y0082987
Y0088067
X01579706
Y0082987
T16
X01499957Y0015432
X00099956
X00683193Y00827459
X00203193
Y01157458
X00099956Y0115432
X00683193Y01157458
X01499957Y0115432
M30
