G04*
G04 #@! TF.GenerationSoftware,Altium Limited,Altium Designer,25.5.2 (35)*
G04*
G04 Layer_Color=8388736*
%FSLAX44Y44*%
%MOMM*%
G71*
G04*
G04 #@! TF.SameCoordinates,7FE83EBB-F424-4E48-BF24-F714E467DA33*
G04*
G04*
G04 #@! TF.FilePolarity,Negative*
G04*
G01*
G75*
%ADD71R,0.8508X1.5508*%
%ADD72R,0.9508X1.0508*%
%ADD73R,1.2508X0.4508*%
%ADD74R,1.5508X0.8508*%
%ADD75R,1.1508X1.1508*%
%ADD76R,0.4108X0.3808*%
%ADD77R,1.0508X1.0508*%
%ADD78R,1.0508X0.9508*%
%ADD79R,1.0508X1.0508*%
%ADD80R,1.5900X2.1400*%
%ADD81R,0.4508X1.2508*%
%ADD82R,0.7400X0.5400*%
%ADD83R,0.9400X1.6400*%
%ADD84R,1.5258X0.5008*%
%ADD85R,1.2507X1.5509*%
G04:AMPARAMS|DCode=86|XSize=3.7508mm|YSize=3.7508mm|CornerRadius=0mm|HoleSize=0mm|Usage=FLASHONLY|Rotation=180.000|XOffset=0mm|YOffset=0mm|HoleType=Round|Shape=RoundedRectangle|*
%AMROUNDEDRECTD86*
21,1,3.7508,3.7508,0,0,180.0*
21,1,3.7508,3.7508,0,0,180.0*
1,1,0.0000,-1.8754,1.8754*
1,1,0.0000,1.8754,1.8754*
1,1,0.0000,1.8754,-1.8754*
1,1,0.0000,-1.8754,-1.8754*
%
%ADD86ROUNDEDRECTD86*%
%ADD87R,1.5308X2.8708*%
%ADD88R,1.5758X0.7008*%
%ADD89R,2.6508X3.1508*%
%ADD90R,0.8509X0.8509*%
%ADD91R,2.8708X1.5308*%
%ADD92R,2.2900X1.0900*%
%ADD93P,1.4861X4X360.0*%
%ADD94P,1.4861X4X90.0*%
G04:AMPARAMS|DCode=95|XSize=1.5508mm|YSize=0.7008mm|CornerRadius=0mm|HoleSize=0mm|Usage=FLASHONLY|Rotation=135.000|XOffset=0mm|YOffset=0mm|HoleType=Round|Shape=Rectangle|*
%AMROTATEDRECTD95*
4,1,4,0.7961,-0.3005,0.3005,-0.7961,-0.7961,0.3005,-0.3005,0.7961,0.7961,-0.3005,0.0*
%
%ADD95ROTATEDRECTD95*%

G04:AMPARAMS|DCode=96|XSize=0.2708mm|YSize=1.0508mm|CornerRadius=0mm|HoleSize=0mm|Usage=FLASHONLY|Rotation=135.000|XOffset=0mm|YOffset=0mm|HoleType=Round|Shape=Rectangle|*
%AMROTATEDRECTD96*
4,1,4,0.4673,0.2758,-0.2758,-0.4673,-0.4673,-0.2758,0.2758,0.4673,0.4673,0.2758,0.0*
%
%ADD96ROTATEDRECTD96*%

G04:AMPARAMS|DCode=97|XSize=0.2708mm|YSize=1.0508mm|CornerRadius=0mm|HoleSize=0mm|Usage=FLASHONLY|Rotation=45.000|XOffset=0mm|YOffset=0mm|HoleType=Round|Shape=Rectangle|*
%AMROTATEDRECTD97*
4,1,4,0.2758,-0.4673,-0.4673,0.2758,-0.2758,0.4673,0.4673,-0.2758,0.2758,-0.4673,0.0*
%
%ADD97ROTATEDRECTD97*%

G04:AMPARAMS|DCode=98|XSize=1.0508mm|YSize=0.9508mm|CornerRadius=0mm|HoleSize=0mm|Usage=FLASHONLY|Rotation=45.000|XOffset=0mm|YOffset=0mm|HoleType=Round|Shape=Rectangle|*
%AMROTATEDRECTD98*
4,1,4,-0.0354,-0.7077,-0.7077,-0.0354,0.0354,0.7077,0.7077,0.0354,-0.0354,-0.7077,0.0*
%
%ADD98ROTATEDRECTD98*%

G04:AMPARAMS|DCode=99|XSize=1.4508mm|YSize=1.2508mm|CornerRadius=0mm|HoleSize=0mm|Usage=FLASHONLY|Rotation=225.000|XOffset=0mm|YOffset=0mm|HoleType=Round|Shape=Rectangle|*
%AMROTATEDRECTD99*
4,1,4,0.0707,0.9552,0.9552,0.0707,-0.0707,-0.9552,-0.9552,-0.0707,0.0707,0.9552,0.0*
%
%ADD99ROTATEDRECTD99*%

%ADD100R,1.5508X0.7008*%
%ADD101R,0.8508X1.1908*%
%ADD102R,0.8509X0.8509*%
%ADD103R,0.4508X0.6008*%
%ADD104R,0.2508X0.7508*%
%ADD105R,2.4400X2.4400*%
%ADD106R,0.3400X0.8400*%
%ADD107R,0.5008X1.8508*%
%ADD108C,0.3508*%
G04:AMPARAMS|DCode=109|XSize=6.0508mm|YSize=6.0508mm|CornerRadius=0mm|HoleSize=0mm|Usage=FLASHONLY|Rotation=315.000|XOffset=0mm|YOffset=0mm|HoleType=Round|Shape=RoundedRectangle|*
%AMROUNDEDRECTD109*
21,1,6.0508,6.0508,0,0,315.0*
21,1,6.0508,6.0508,0,0,315.0*
1,1,0.0000,0.0000,-4.2786*
1,1,0.0000,-4.2786,0.0000*
1,1,0.0000,0.0000,4.2786*
1,1,0.0000,4.2786,0.0000*
%
%ADD109ROUNDEDRECTD109*%
G04:AMPARAMS|DCode=110|XSize=1.0508mm|YSize=0.9508mm|CornerRadius=0mm|HoleSize=0mm|Usage=FLASHONLY|Rotation=315.000|XOffset=0mm|YOffset=0mm|HoleType=Round|Shape=Rectangle|*
%AMROTATEDRECTD110*
4,1,4,-0.7077,0.0354,-0.0354,0.7077,0.7077,-0.0354,0.0354,-0.7077,-0.7077,0.0354,0.0*
%
%ADD110ROTATEDRECTD110*%

%ADD111R,0.6008X0.4508*%
%ADD112R,1.4508X0.5008*%
%ADD113R,3.5508X2.6508*%
G04:AMPARAMS|DCode=114|XSize=0.7508mm|YSize=0.7008mm|CornerRadius=0mm|HoleSize=0mm|Usage=FLASHONLY|Rotation=315.000|XOffset=0mm|YOffset=0mm|HoleType=Round|Shape=Rectangle|*
%AMROTATEDRECTD114*
4,1,4,-0.5132,0.0177,-0.0177,0.5132,0.5132,-0.0177,0.0177,-0.5132,-0.5132,0.0177,0.0*
%
%ADD114ROTATEDRECTD114*%

G04:AMPARAMS|DCode=115|XSize=0.7508mm|YSize=0.7008mm|CornerRadius=0mm|HoleSize=0mm|Usage=FLASHONLY|Rotation=45.000|XOffset=0mm|YOffset=0mm|HoleType=Round|Shape=Rectangle|*
%AMROTATEDRECTD115*
4,1,4,-0.0177,-0.5132,-0.5132,-0.0177,0.0177,0.5132,0.5132,0.0177,-0.0177,-0.5132,0.0*
%
%ADD115ROTATEDRECTD115*%

%ADD116R,0.9508X0.3308*%
%ADD117R,0.3308X0.9508*%
%ADD118C,1.2000*%
%ADD119R,0.8400X0.3400*%
%ADD120R,1.8509X1.0508*%
G04:AMPARAMS|DCode=121|XSize=0.4108mm|YSize=0.3808mm|CornerRadius=0mm|HoleSize=0mm|Usage=FLASHONLY|Rotation=225.000|XOffset=0mm|YOffset=0mm|HoleType=Round|Shape=Rectangle|*
%AMROTATEDRECTD121*
4,1,4,0.0106,0.2799,0.2799,0.0106,-0.0106,-0.2799,-0.2799,-0.0106,0.0106,0.2799,0.0*
%
%ADD121ROTATEDRECTD121*%

%ADD122R,1.0008X1.0008*%
%ADD123R,2.2900X3.4400*%
%ADD124R,0.7508X2.1508*%
%ADD125R,1.0308X3.4508*%
%ADD126R,3.0508X4.8008*%
%ADD127C,2.0000*%
%ADD128R,3.4508X1.0308*%
%ADD129C,2.6008*%
%ADD130C,1.2108*%
%ADD131C,1.5658*%
%ADD132C,2.0008*%
%ADD133C,1.7008*%
%ADD134C,2.0308*%
%ADD135C,2.4508*%
%ADD136C,1.4508*%
%ADD137C,1.5708*%
%ADD138R,1.4508X1.4508*%
%ADD139C,2.0758*%
%ADD140R,2.0758X2.0758*%
%ADD141C,2.3008*%
%ADD142R,2.0008X2.0008*%
%ADD143C,3.3008*%
%ADD144C,0.4258*%
%ADD145R,1.2108X1.2108*%
%ADD146C,6.1000*%
%ADD147R,1.7008X1.7008*%
%ADD148C,0.2540*%
D71*
X1480250Y957500D02*
D03*
X1458250D02*
D03*
X1436250D02*
D03*
X1337250D02*
D03*
X1447250Y818500D02*
D03*
X1370250D02*
D03*
X1260250Y957500D02*
D03*
X1271250D02*
D03*
X1414250D02*
D03*
X1469250D02*
D03*
X1447250D02*
D03*
X1425250D02*
D03*
X1403250D02*
D03*
X1392250D02*
D03*
X1381250D02*
D03*
X1370250D02*
D03*
X1359250D02*
D03*
X1348250D02*
D03*
X1326250D02*
D03*
X1315250D02*
D03*
X1304250D02*
D03*
X1293250D02*
D03*
X1282250D02*
D03*
X1260250Y818500D02*
D03*
X1271250D02*
D03*
X1282250D02*
D03*
X1293250D02*
D03*
X1304250D02*
D03*
X1315250D02*
D03*
X1326250D02*
D03*
X1337250D02*
D03*
X1348250D02*
D03*
X1359250D02*
D03*
X1381250D02*
D03*
X1392250D02*
D03*
X1403250D02*
D03*
X1414250D02*
D03*
X1425250D02*
D03*
X1436250D02*
D03*
X1458250D02*
D03*
X1469250D02*
D03*
X1480250D02*
D03*
D72*
X1419500Y1101750D02*
D03*
X1114750Y1179250D02*
D03*
X1107500Y821000D02*
D03*
X1494897Y553515D02*
D03*
X947000Y218500D02*
D03*
X988500Y136750D02*
D03*
X772000Y1176750D02*
D03*
X275250Y744500D02*
D03*
X796000Y224000D02*
D03*
X834500Y137250D02*
D03*
X1131250Y931500D02*
D03*
X1072750Y896000D02*
D03*
X1329750Y118000D02*
D03*
X314500Y233750D02*
D03*
X1054250Y137000D02*
D03*
X888000Y138250D02*
D03*
X813000Y224000D02*
D03*
X851500Y137250D02*
D03*
X853000Y156500D02*
D03*
X871000Y138250D02*
D03*
X870000Y156500D02*
D03*
X297500Y233750D02*
D03*
X1402500Y1101750D02*
D03*
X1419000Y1119750D02*
D03*
X1402000D02*
D03*
X1312750Y118000D02*
D03*
X292250Y744500D02*
D03*
X275250Y727250D02*
D03*
X292250D02*
D03*
X1090500Y821000D02*
D03*
X932250Y817500D02*
D03*
X949250D02*
D03*
X931750Y800500D02*
D03*
X948750D02*
D03*
X1089750Y896000D02*
D03*
X1114250Y931500D02*
D03*
X1131750Y1179250D02*
D03*
X789000Y1176750D02*
D03*
X964000Y218500D02*
D03*
X1030250Y155500D02*
D03*
X1013250D02*
D03*
X1037250Y137000D02*
D03*
X1005500Y136750D02*
D03*
X114000Y1073500D02*
D03*
X97000D02*
D03*
X96000Y1097500D02*
D03*
X113000D02*
D03*
X1477897Y553515D02*
D03*
X1494647Y534515D02*
D03*
X1477647D02*
D03*
X1492000Y367750D02*
D03*
X1475000D02*
D03*
D73*
X1383250Y1114000D02*
D03*
X1157750Y1195500D02*
D03*
X967000Y1190000D02*
D03*
X811000Y1187250D02*
D03*
X603250Y640250D02*
D03*
X507500Y648000D02*
D03*
X375500Y732750D02*
D03*
X316500Y734000D02*
D03*
X397250Y633500D02*
D03*
X1157750Y1202000D02*
D03*
X967000Y1196500D02*
D03*
X811000Y1193750D02*
D03*
X394500Y732750D02*
D03*
X622250Y640250D02*
D03*
X526500Y648000D02*
D03*
X416250Y633500D02*
D03*
X967000Y1183500D02*
D03*
X986000Y1196500D02*
D03*
X416250Y627000D02*
D03*
Y640000D02*
D03*
X1364250Y1114000D02*
D03*
Y1120500D02*
D03*
Y1127000D02*
D03*
X1383250D02*
D03*
Y1120500D02*
D03*
X394500Y726250D02*
D03*
Y739250D02*
D03*
X375500Y726250D02*
D03*
Y739250D02*
D03*
X316500Y727500D02*
D03*
Y721000D02*
D03*
X335500D02*
D03*
Y727500D02*
D03*
Y734000D02*
D03*
X1176750Y1202000D02*
D03*
Y1195500D02*
D03*
Y1189000D02*
D03*
X1157750D02*
D03*
X830000Y1193750D02*
D03*
Y1187250D02*
D03*
Y1180750D02*
D03*
X811000D02*
D03*
X397250Y640000D02*
D03*
Y627000D02*
D03*
X603250Y646750D02*
D03*
Y633750D02*
D03*
X622250D02*
D03*
Y646750D02*
D03*
X507500Y654500D02*
D03*
Y641500D02*
D03*
X526500D02*
D03*
Y654500D02*
D03*
X986000Y1183500D02*
D03*
Y1190000D02*
D03*
D74*
X1489750Y910000D02*
D03*
Y899000D02*
D03*
Y943000D02*
D03*
Y932000D02*
D03*
Y844000D02*
D03*
Y833000D02*
D03*
Y877000D02*
D03*
Y866000D02*
D03*
X1250750Y855000D02*
D03*
Y833000D02*
D03*
Y943000D02*
D03*
Y866000D02*
D03*
Y877000D02*
D03*
Y932000D02*
D03*
Y921000D02*
D03*
Y910000D02*
D03*
Y899000D02*
D03*
Y888000D02*
D03*
Y844000D02*
D03*
X1489750Y855000D02*
D03*
Y888000D02*
D03*
Y921000D02*
D03*
D75*
X1472750Y940500D02*
D03*
X1303750Y877500D02*
D03*
Y898500D02*
D03*
X1436750Y877500D02*
D03*
Y898500D02*
D03*
X1267750Y835500D02*
D03*
Y856500D02*
D03*
Y877500D02*
D03*
Y898500D02*
D03*
Y919500D02*
D03*
Y940500D02*
D03*
X1285750Y835500D02*
D03*
Y856500D02*
D03*
Y877500D02*
D03*
Y898500D02*
D03*
Y919500D02*
D03*
Y940500D02*
D03*
X1303750Y835500D02*
D03*
Y940500D02*
D03*
X1339750Y835500D02*
D03*
Y940500D02*
D03*
X1400750Y835500D02*
D03*
Y940500D02*
D03*
X1436750Y835500D02*
D03*
Y940500D02*
D03*
X1454750Y835500D02*
D03*
Y856500D02*
D03*
Y877500D02*
D03*
Y898500D02*
D03*
Y919500D02*
D03*
Y940500D02*
D03*
X1472750Y835500D02*
D03*
Y856500D02*
D03*
Y877500D02*
D03*
Y898500D02*
D03*
Y919500D02*
D03*
D76*
X1475630Y755520D02*
D03*
X1475430Y743980D02*
D03*
X1172550Y166000D02*
D03*
X1136250Y166250D02*
D03*
X1123450Y166000D02*
D03*
X1108900D02*
D03*
X1481030Y743980D02*
D03*
X1481230Y755520D02*
D03*
X1114500Y166000D02*
D03*
X1166950D02*
D03*
X1129050D02*
D03*
X1141850Y166250D02*
D03*
D77*
X1465500Y685750D02*
D03*
X1465251Y729000D02*
D03*
X1465250Y708500D02*
D03*
X1174250Y1222000D02*
D03*
X1116750Y1224000D02*
D03*
X930500Y1196500D02*
D03*
X1129750Y879250D02*
D03*
X1107000Y857250D02*
D03*
X917249Y914001D02*
D03*
X1106750Y838500D02*
D03*
X933249Y837500D02*
D03*
X1107250Y803000D02*
D03*
X1494147Y510015D02*
D03*
X1494647Y490765D02*
D03*
X1496250Y340500D02*
D03*
X1353250Y362500D02*
D03*
X1496500Y321000D02*
D03*
X1348397Y522765D02*
D03*
X1329250Y99750D02*
D03*
X772750Y1194000D02*
D03*
X455000Y633750D02*
D03*
X429997Y732748D02*
D03*
X314250Y214750D02*
D03*
X136000Y694500D02*
D03*
X57250Y708250D02*
D03*
X56000Y629000D02*
D03*
X1158250Y1222000D02*
D03*
X1113750Y879250D02*
D03*
X1091000Y857250D02*
D03*
X1091250Y803000D02*
D03*
X946500Y1196500D02*
D03*
X788750Y1194000D02*
D03*
X413997Y732748D02*
D03*
X439000Y633750D02*
D03*
X298250Y214750D02*
D03*
X73250Y708250D02*
D03*
X72000Y629000D02*
D03*
X152000Y694500D02*
D03*
X1481500Y685750D02*
D03*
X1481250Y708500D02*
D03*
X1481250Y729000D02*
D03*
X1313250Y99750D02*
D03*
X1090750Y838500D02*
D03*
X933249Y914001D02*
D03*
X949249Y837500D02*
D03*
X1132750Y1224000D02*
D03*
X1478647Y490765D02*
D03*
X1478147Y510015D02*
D03*
X1364397Y522765D02*
D03*
X1480500Y321000D02*
D03*
X1480250Y340500D02*
D03*
X1369250Y362500D02*
D03*
D78*
X1305500Y1146500D02*
D03*
X1260500Y733250D02*
D03*
X1291897Y557515D02*
D03*
X1301000Y413000D02*
D03*
X831750Y874000D02*
D03*
X789500Y749000D02*
D03*
X516500Y895250D02*
D03*
X967250Y745250D02*
D03*
X985000Y745500D02*
D03*
X1049000Y911250D02*
D03*
X990750Y911500D02*
D03*
X1209500Y243250D02*
D03*
X1189500Y243250D02*
D03*
X579250Y590250D02*
D03*
X616750Y589750D02*
D03*
X539750Y591000D02*
D03*
X505000Y591500D02*
D03*
X415500Y674750D02*
D03*
X434500Y593000D02*
D03*
X1189500Y226250D02*
D03*
X376750Y1092250D02*
D03*
X356500Y1093500D02*
D03*
X1093000Y745250D02*
D03*
Y762250D02*
D03*
X1075500Y745250D02*
D03*
Y762250D02*
D03*
X852500Y192500D02*
D03*
X1451500Y405750D02*
D03*
X1249250Y325000D02*
D03*
X870500Y192250D02*
D03*
X852500Y175500D02*
D03*
X870500Y175250D02*
D03*
X831750Y857000D02*
D03*
X842500Y766000D02*
D03*
Y749000D02*
D03*
X825000Y766000D02*
D03*
Y749000D02*
D03*
X807000Y765750D02*
D03*
Y748750D02*
D03*
X814000Y857000D02*
D03*
Y874000D02*
D03*
X796500Y857500D02*
D03*
Y874500D02*
D03*
X779000Y857250D02*
D03*
Y874250D02*
D03*
X789500Y766000D02*
D03*
X824250Y973250D02*
D03*
X787000Y973500D02*
D03*
X805250D02*
D03*
X768500Y974000D02*
D03*
X86250Y824250D02*
D03*
X1005750Y1200000D02*
D03*
X434500Y610000D02*
D03*
X415500Y657750D02*
D03*
X1305250Y1042500D02*
D03*
Y1025500D02*
D03*
X1260500Y750250D02*
D03*
X1287500Y1146250D02*
D03*
Y1129250D02*
D03*
X1305500Y1129500D02*
D03*
X336250Y751250D02*
D03*
Y768250D02*
D03*
X86250Y841250D02*
D03*
X51250Y824000D02*
D03*
Y841000D02*
D03*
X68750Y824000D02*
D03*
Y841000D02*
D03*
X1451500Y388750D02*
D03*
X464500Y1092250D02*
D03*
X505000Y574500D02*
D03*
X539750Y574000D02*
D03*
X579250Y573250D02*
D03*
X616750Y572750D02*
D03*
X861250Y973500D02*
D03*
X842500Y973250D02*
D03*
X1057250Y762500D02*
D03*
Y745500D02*
D03*
X1021750Y762250D02*
D03*
Y745250D02*
D03*
X1039500Y762500D02*
D03*
Y745500D02*
D03*
X1003500Y762500D02*
D03*
Y745500D02*
D03*
X967250Y762250D02*
D03*
X985000Y762500D02*
D03*
X990750Y894500D02*
D03*
X1049000Y894250D02*
D03*
X903499Y867500D02*
D03*
Y884501D02*
D03*
X1196250Y1205000D02*
D03*
Y1188000D02*
D03*
X853750Y1197500D02*
D03*
X787000Y990500D02*
D03*
X768500Y991000D02*
D03*
X824250Y990250D02*
D03*
X861250Y990500D02*
D03*
X842500Y990250D02*
D03*
X805250Y990500D02*
D03*
X1005750Y1183000D02*
D03*
X853750Y1180500D02*
D03*
X1010750Y175500D02*
D03*
Y192500D02*
D03*
X1031500Y175250D02*
D03*
Y192250D02*
D03*
X516500Y878250D02*
D03*
X464500Y1109250D02*
D03*
X356500Y1110500D02*
D03*
X376750Y1109250D02*
D03*
X1209500Y226250D02*
D03*
X1445147Y555515D02*
D03*
Y572515D02*
D03*
X1250000Y539500D02*
D03*
Y522500D02*
D03*
X1291897Y540515D02*
D03*
X1310147Y539765D02*
D03*
Y522765D02*
D03*
X1301000Y396000D02*
D03*
X1249250Y342000D02*
D03*
X1301000Y377500D02*
D03*
Y360500D02*
D03*
D79*
X1215750Y1188750D02*
D03*
X1024500Y1183250D02*
D03*
X871750Y1181000D02*
D03*
X1029250Y911000D02*
D03*
X1009250Y910500D02*
D03*
X1291647Y507015D02*
D03*
X1272397Y506765D02*
D03*
X1270500Y325000D02*
D03*
X1250000Y228750D02*
D03*
X1079000Y232500D02*
D03*
X923750Y232750D02*
D03*
X1251500Y191500D02*
D03*
X1230750Y191750D02*
D03*
X1209500D02*
D03*
X1166750Y199000D02*
D03*
X441500Y1223000D02*
D03*
X423000Y1223250D02*
D03*
X385500Y1223000D02*
D03*
X404500Y1222750D02*
D03*
X366750Y1223000D02*
D03*
X347750D02*
D03*
X849250Y873750D02*
D03*
X646088Y622953D02*
D03*
X548500Y631500D02*
D03*
X1029250Y895000D02*
D03*
X849250Y857750D02*
D03*
X548500Y647500D02*
D03*
X646088Y638953D02*
D03*
X1250000Y244750D02*
D03*
X1079000Y248500D02*
D03*
X923750Y248750D02*
D03*
X441500Y1207000D02*
D03*
X423000Y1207250D02*
D03*
X385500Y1207000D02*
D03*
X404500Y1206750D02*
D03*
X366750Y1207000D02*
D03*
X347750D02*
D03*
X1024500Y1199250D02*
D03*
X1166750Y183000D02*
D03*
X1009250Y894500D02*
D03*
X1215750Y1204750D02*
D03*
X871750Y1197000D02*
D03*
X1209500Y207750D02*
D03*
X1230750D02*
D03*
X1251500Y207500D02*
D03*
X1272397Y522765D02*
D03*
X1291647Y523015D02*
D03*
X1328897Y539015D02*
D03*
Y523015D02*
D03*
X1364147Y503515D02*
D03*
Y487515D02*
D03*
X1270500Y341000D02*
D03*
X1318500Y378000D02*
D03*
Y362000D02*
D03*
X1369250Y345250D02*
D03*
Y329250D02*
D03*
D80*
X1222450Y1123500D02*
D03*
Y1040500D02*
D03*
X1084950Y1123500D02*
D03*
X1053500Y1123500D02*
D03*
X916000D02*
D03*
X884450Y1123000D02*
D03*
X1084950Y1040500D02*
D03*
X1053500D02*
D03*
X916000D02*
D03*
X884450Y1040000D02*
D03*
X746950Y1123000D02*
D03*
Y1040000D02*
D03*
D81*
X1295932Y1103249D02*
D03*
Y1084249D02*
D03*
X1289432D02*
D03*
X1282932D02*
D03*
Y1103249D02*
D03*
X1289432D02*
D03*
D82*
X1115750Y1194750D02*
D03*
Y1207750D02*
D03*
Y1201250D02*
D03*
X1132750Y1207750D02*
D03*
Y1194750D02*
D03*
D83*
X1130750Y1066500D02*
D03*
X961800D02*
D03*
X792750Y1066000D02*
D03*
X994800Y1066500D02*
D03*
X1005800D02*
D03*
X1108750D02*
D03*
X983800D02*
D03*
X1016800D02*
D03*
X972800D02*
D03*
X939800D02*
D03*
X950800D02*
D03*
X1185750D02*
D03*
X1163750D02*
D03*
X1174750D02*
D03*
X1119750D02*
D03*
X1141750D02*
D03*
X1152750D02*
D03*
X814750Y1066000D02*
D03*
X770750D02*
D03*
X781750D02*
D03*
X803750D02*
D03*
X825750D02*
D03*
X836750D02*
D03*
X847750D02*
D03*
D84*
X1172880Y915500D02*
D03*
X1114120Y902500D02*
D03*
Y896000D02*
D03*
X1172880D02*
D03*
Y902500D02*
D03*
Y909000D02*
D03*
X1114120Y915500D02*
D03*
Y909000D02*
D03*
D85*
X949500Y886500D02*
D03*
X933498Y865500D02*
D03*
X949500D02*
D03*
X933498Y886500D02*
D03*
D86*
X1029250Y838750D02*
D03*
D87*
X1455550Y654000D02*
D03*
X1481950D02*
D03*
D88*
X1445147Y497915D02*
D03*
X1451240Y331150D02*
D03*
Y369250D02*
D03*
X1445147Y510615D02*
D03*
Y523315D02*
D03*
Y536015D02*
D03*
X1390907D02*
D03*
Y523315D02*
D03*
Y510615D02*
D03*
Y497915D02*
D03*
X1451240Y343850D02*
D03*
Y356550D02*
D03*
X1397000Y369250D02*
D03*
Y356550D02*
D03*
Y343850D02*
D03*
Y331150D02*
D03*
D89*
X1418027Y516965D02*
D03*
X1424120Y350200D02*
D03*
D90*
X1546000Y236749D02*
D03*
Y258751D02*
D03*
D91*
X1272000Y387950D02*
D03*
X469750Y1234450D02*
D03*
Y1208050D02*
D03*
X1272000Y361550D02*
D03*
D92*
X1278750Y268000D02*
D03*
Y245000D02*
D03*
Y222000D02*
D03*
D93*
X1160750Y589314D02*
D03*
X1177000Y572064D02*
D03*
X1038437Y433500D02*
D03*
X874093Y315843D02*
D03*
X760000Y433250D02*
D03*
X784907Y407407D02*
D03*
X772157Y420157D02*
D03*
X797657Y395157D02*
D03*
X501407Y400970D02*
D03*
X488157Y413721D02*
D03*
X656843Y285343D02*
D03*
X525750Y374813D02*
D03*
X513657Y387721D02*
D03*
X671686Y270936D02*
D03*
X390436Y268500D02*
D03*
X401750Y279814D02*
D03*
X514436Y363500D02*
D03*
X502343Y376407D02*
D03*
X490093Y389657D02*
D03*
X476843Y402407D02*
D03*
X1149436Y578000D02*
D03*
X668157Y296657D02*
D03*
X683000Y282250D02*
D03*
X760843Y408843D02*
D03*
X773593Y396093D02*
D03*
X786343Y383843D02*
D03*
X748687Y421936D02*
D03*
X885407Y327157D02*
D03*
X1165686Y560750D02*
D03*
X1049750Y444814D02*
D03*
D94*
X1053686Y609666D02*
D03*
X1041186Y597314D02*
D03*
X892909Y661159D02*
D03*
X1028030Y584720D02*
D03*
X1000779Y557470D02*
D03*
X1188750Y468500D02*
D03*
X1149250Y429250D02*
D03*
X1034343Y388972D02*
D03*
X1009250Y413250D02*
D03*
X996500Y400500D02*
D03*
X1021250Y375816D02*
D03*
X689343Y442407D02*
D03*
X687563Y418936D02*
D03*
X417529Y418970D02*
D03*
X416500Y394500D02*
D03*
X637093Y390657D02*
D03*
X798407Y300593D02*
D03*
X785407Y287593D02*
D03*
X537907Y283343D02*
D03*
X360029Y359721D02*
D03*
X773500Y275250D02*
D03*
X628750Y274000D02*
D03*
X525343Y270157D02*
D03*
X512750Y257500D02*
D03*
X499907Y245093D02*
D03*
X526593Y294657D02*
D03*
X514030Y281471D02*
D03*
X501436Y268814D02*
D03*
X488593Y256407D02*
D03*
X371343Y348407D02*
D03*
X428843Y407657D02*
D03*
X617436Y285313D02*
D03*
X405186Y405814D02*
D03*
X904222Y649845D02*
D03*
X1052500Y586000D02*
D03*
X1039343Y573407D02*
D03*
X1177437Y479813D02*
D03*
X1137936Y440564D02*
D03*
X787093Y311907D02*
D03*
X774093Y298907D02*
D03*
X762186Y286564D02*
D03*
X676250Y430250D02*
D03*
X648407Y379343D02*
D03*
X700657Y431093D02*
D03*
X997936Y424564D02*
D03*
X985186Y411814D02*
D03*
X1023029Y400286D02*
D03*
X1009936Y387129D02*
D03*
X1012093Y546157D02*
D03*
X1065000Y598352D02*
D03*
D95*
X946222Y662719D02*
D03*
X919281Y635778D02*
D03*
X928261Y644759D02*
D03*
X937241Y653739D02*
D03*
X984406Y624536D02*
D03*
X975425Y615555D02*
D03*
X966445Y606575D02*
D03*
X957465Y597595D02*
D03*
D96*
X1154210Y534485D02*
D03*
X1111784Y576912D02*
D03*
X1029405Y501605D02*
D03*
X1078903Y452107D02*
D03*
X1064761Y466249D02*
D03*
X1061225Y469785D02*
D03*
X1071832Y459178D02*
D03*
X1043548Y487462D02*
D03*
X1129461Y559234D02*
D03*
X1082438Y448572D02*
D03*
X1108248Y580447D02*
D03*
X1115319Y573376D02*
D03*
X1118854Y569840D02*
D03*
X1122390Y566305D02*
D03*
X1125926Y562769D02*
D03*
X1132997Y555698D02*
D03*
X1136532Y552163D02*
D03*
X1140068Y548627D02*
D03*
X1143603Y545092D02*
D03*
X1147139Y541556D02*
D03*
X1150675Y538021D02*
D03*
X1157745Y530949D02*
D03*
X1161281Y527414D02*
D03*
X1075368Y455642D02*
D03*
X1068296Y462714D02*
D03*
X1057690Y473320D02*
D03*
X1054154Y476856D02*
D03*
X1050619Y480391D02*
D03*
X1047083Y483927D02*
D03*
X1040012Y490998D02*
D03*
X1036477Y494533D02*
D03*
X1032941Y498069D02*
D03*
D97*
X1075368Y573376D02*
D03*
X1136532Y476856D02*
D03*
X1078903Y576911D02*
D03*
X1157745Y498069D02*
D03*
X1057690Y555698D02*
D03*
X1118854Y459178D02*
D03*
X1140068Y480391D02*
D03*
X1108248Y448572D02*
D03*
X1029405Y527414D02*
D03*
X1032941Y530949D02*
D03*
X1036477Y534485D02*
D03*
X1040012Y538021D02*
D03*
X1043548Y541556D02*
D03*
X1047083Y545092D02*
D03*
X1050619Y548627D02*
D03*
X1054154Y552163D02*
D03*
X1061225Y559234D02*
D03*
X1064761Y562769D02*
D03*
X1068296Y566305D02*
D03*
X1071832Y569840D02*
D03*
X1082438Y580447D02*
D03*
X1161281Y501605D02*
D03*
X1154210Y494533D02*
D03*
X1150675Y490998D02*
D03*
X1147139Y487462D02*
D03*
X1143603Y483927D02*
D03*
X1132997Y473320D02*
D03*
X1129461Y469785D02*
D03*
X1125926Y466249D02*
D03*
X1122390Y462714D02*
D03*
X1115319Y455642D02*
D03*
X1111784Y452107D02*
D03*
D98*
X1073833Y404417D02*
D03*
X664207Y392358D02*
D03*
X391800Y364765D02*
D03*
X376951Y379614D02*
D03*
X405235Y378200D02*
D03*
X390386Y393049D02*
D03*
X603604Y298896D02*
D03*
X591583Y310917D02*
D03*
X662793Y420642D02*
D03*
X677642Y405793D02*
D03*
X649358Y407207D02*
D03*
X1085854Y392396D02*
D03*
X1071854Y378646D02*
D03*
X1059833Y390667D02*
D03*
D99*
X1007507Y462657D02*
D03*
X980637Y458414D02*
D03*
X996194Y473970D02*
D03*
X991951Y447100D02*
D03*
D100*
X888250Y211200D02*
D03*
X1048000Y210450D02*
D03*
X888250Y236600D02*
D03*
X834250Y211200D02*
D03*
X1048000Y248550D02*
D03*
X888250Y249300D02*
D03*
Y223900D02*
D03*
X834250Y236600D02*
D03*
Y223900D02*
D03*
Y249300D02*
D03*
X1048000Y235850D02*
D03*
Y223150D02*
D03*
X994000Y210450D02*
D03*
Y223150D02*
D03*
Y235850D02*
D03*
Y248550D02*
D03*
D101*
X1179746Y148460D02*
D03*
X1116246D02*
D03*
X1167046D02*
D03*
X1128946D02*
D03*
X1141646D02*
D03*
X1189247D02*
D03*
X1154346D02*
D03*
D102*
X1062251Y115750D02*
D03*
X981749Y114500D02*
D03*
X912501D02*
D03*
X829998Y115000D02*
D03*
X852000D02*
D03*
X890500Y114500D02*
D03*
X1003750D02*
D03*
X1040249Y115750D02*
D03*
D103*
X929500Y52750D02*
D03*
X852250Y95500D02*
D03*
Y86500D02*
D03*
X890250Y87000D02*
D03*
Y96000D02*
D03*
X1040000Y96750D02*
D03*
Y87750D02*
D03*
X929500Y61750D02*
D03*
X1004500Y96500D02*
D03*
Y87500D02*
D03*
D104*
X472193Y1177458D02*
D03*
X432193D02*
D03*
X452193D02*
D03*
X504193D02*
D03*
X492193D02*
D03*
X516193D02*
D03*
X456193Y1146658D02*
D03*
X476193D02*
D03*
X388193Y1177458D02*
D03*
X376193D02*
D03*
X412193D02*
D03*
X400193Y1146658D02*
D03*
X416193D02*
D03*
X400193Y1177458D02*
D03*
X372193Y1146658D02*
D03*
X388193D02*
D03*
X516193D02*
D03*
X504193D02*
D03*
X492193D02*
D03*
X436193D02*
D03*
X504193Y838259D02*
D03*
X492193D02*
D03*
X372193D02*
D03*
X336193D02*
D03*
X348193D02*
D03*
X480193D02*
D03*
X468193D02*
D03*
X456193D02*
D03*
X444193D02*
D03*
X432193Y807459D02*
D03*
X492193D02*
D03*
X480193D02*
D03*
X504193D02*
D03*
X456193D02*
D03*
X444193D02*
D03*
X468193D02*
D03*
X396193Y838259D02*
D03*
X384193D02*
D03*
X408193D02*
D03*
X360193D02*
D03*
X336193Y807459D02*
D03*
X348193D02*
D03*
X408193D02*
D03*
X396193D02*
D03*
X420193D02*
D03*
X372193D02*
D03*
X360193D02*
D03*
X384193D02*
D03*
X324193Y1146658D02*
D03*
Y838259D02*
D03*
Y807459D02*
D03*
X352193Y1146658D02*
D03*
X348193D02*
D03*
X364193D02*
D03*
X352193Y1177458D02*
D03*
X356193D02*
D03*
X344193D02*
D03*
X348193D02*
D03*
X364193D02*
D03*
X360193D02*
D03*
X396193Y1146658D02*
D03*
X392193Y1177458D02*
D03*
X404193D02*
D03*
X384193D02*
D03*
X380193D02*
D03*
X396193D02*
D03*
X320193Y1146658D02*
D03*
X408193Y1177458D02*
D03*
X412193Y1146658D02*
D03*
X344193D02*
D03*
X340193D02*
D03*
X328193Y1177458D02*
D03*
X432193Y1146658D02*
D03*
X320193Y807459D02*
D03*
Y838259D02*
D03*
X328193Y807459D02*
D03*
Y838259D02*
D03*
X332193Y807459D02*
D03*
Y838259D02*
D03*
X340193Y807459D02*
D03*
Y838259D02*
D03*
X344193Y807459D02*
D03*
Y838259D02*
D03*
X352193Y807459D02*
D03*
Y838259D02*
D03*
X356193Y807459D02*
D03*
Y838259D02*
D03*
X364193Y807459D02*
D03*
Y838259D02*
D03*
X368193Y807459D02*
D03*
Y838259D02*
D03*
X376193Y807459D02*
D03*
Y838259D02*
D03*
X380193Y807459D02*
D03*
Y838259D02*
D03*
X388193Y807459D02*
D03*
Y838259D02*
D03*
X392193Y807459D02*
D03*
Y838259D02*
D03*
X400193Y807459D02*
D03*
Y838259D02*
D03*
X404193Y807459D02*
D03*
Y838259D02*
D03*
X412193Y807459D02*
D03*
Y838259D02*
D03*
X416193Y807459D02*
D03*
Y838259D02*
D03*
X420193D02*
D03*
X424193Y807459D02*
D03*
Y838259D02*
D03*
X428193Y807459D02*
D03*
Y838259D02*
D03*
X432193D02*
D03*
X436193Y807459D02*
D03*
Y838259D02*
D03*
X440193Y807459D02*
D03*
Y838259D02*
D03*
X448193Y807459D02*
D03*
Y838259D02*
D03*
X452193Y807459D02*
D03*
Y838259D02*
D03*
X460193Y807459D02*
D03*
Y838259D02*
D03*
X464193Y807459D02*
D03*
Y838259D02*
D03*
X472193Y807459D02*
D03*
Y838259D02*
D03*
X476193Y807459D02*
D03*
Y838259D02*
D03*
X484193Y807459D02*
D03*
Y838259D02*
D03*
X488193Y807459D02*
D03*
Y838259D02*
D03*
X496193Y807459D02*
D03*
Y838259D02*
D03*
X500193Y807459D02*
D03*
Y838259D02*
D03*
X508193Y807459D02*
D03*
Y838259D02*
D03*
X512193Y807459D02*
D03*
Y838259D02*
D03*
X516193Y807459D02*
D03*
Y838259D02*
D03*
X320193Y1177458D02*
D03*
X324193D02*
D03*
X328193Y1146658D02*
D03*
X332193D02*
D03*
Y1177458D02*
D03*
X336193Y1146658D02*
D03*
Y1177458D02*
D03*
X340193D02*
D03*
X356193Y1146658D02*
D03*
X360193D02*
D03*
X368193D02*
D03*
Y1177458D02*
D03*
X372193D02*
D03*
X376193Y1146658D02*
D03*
X380193D02*
D03*
X384193D02*
D03*
X392193D02*
D03*
X404193D02*
D03*
X408193D02*
D03*
X416193Y1177458D02*
D03*
X420193Y1146658D02*
D03*
Y1177458D02*
D03*
X424193Y1146658D02*
D03*
Y1177458D02*
D03*
X428193Y1146658D02*
D03*
Y1177458D02*
D03*
X436193D02*
D03*
X440193Y1146658D02*
D03*
Y1177458D02*
D03*
X444193Y1146658D02*
D03*
Y1177458D02*
D03*
X448193Y1146658D02*
D03*
Y1177458D02*
D03*
X452193Y1146658D02*
D03*
X456193Y1177458D02*
D03*
X460193Y1146658D02*
D03*
Y1177458D02*
D03*
X464193Y1146658D02*
D03*
Y1177458D02*
D03*
X468193Y1146658D02*
D03*
Y1177458D02*
D03*
X472193Y1146658D02*
D03*
X476193Y1177458D02*
D03*
X480193Y1146658D02*
D03*
Y1177458D02*
D03*
X484193Y1146658D02*
D03*
Y1177458D02*
D03*
X488193Y1146658D02*
D03*
Y1177458D02*
D03*
X496193Y1146658D02*
D03*
Y1177458D02*
D03*
X500193Y1146658D02*
D03*
Y1177458D02*
D03*
X508193Y1146658D02*
D03*
Y1177458D02*
D03*
X512193Y1146658D02*
D03*
Y1177458D02*
D03*
D105*
X813500Y810750D02*
D03*
D106*
X823500Y828276D02*
D03*
X819500D02*
D03*
X803500D02*
D03*
X807500D02*
D03*
X811500D02*
D03*
X815500D02*
D03*
X823500Y793224D02*
D03*
X819500D02*
D03*
X815500D02*
D03*
X811500D02*
D03*
X807500D02*
D03*
X803500D02*
D03*
D107*
X118500Y952000D02*
D03*
X105500Y881000D02*
D03*
X112000Y952000D02*
D03*
X66500Y881000D02*
D03*
X73000D02*
D03*
X86000D02*
D03*
X125000Y952000D02*
D03*
X60000Y881000D02*
D03*
X79500D02*
D03*
X92500D02*
D03*
X99000D02*
D03*
X112000D02*
D03*
X118500D02*
D03*
X125000D02*
D03*
X131500D02*
D03*
X138000D02*
D03*
X144500D02*
D03*
Y952000D02*
D03*
X138000D02*
D03*
X131500D02*
D03*
X105500D02*
D03*
X99000D02*
D03*
X92500D02*
D03*
X86000D02*
D03*
X79500D02*
D03*
X73000D02*
D03*
X66500D02*
D03*
X60000D02*
D03*
D108*
X725485Y389376D02*
D03*
X680230Y322908D02*
D03*
X683766Y319373D02*
D03*
X460828Y373033D02*
D03*
X419109Y303029D02*
D03*
X415574Y306565D02*
D03*
X489113Y344748D02*
D03*
X485577Y348284D02*
D03*
X503255Y330607D02*
D03*
X499719Y334142D02*
D03*
X496184Y337678D02*
D03*
X492648Y341213D02*
D03*
X464364Y369497D02*
D03*
X467900Y365962D02*
D03*
X457293Y376569D02*
D03*
X478506Y355355D02*
D03*
X474971Y358891D02*
D03*
X482042Y351820D02*
D03*
X471435Y362426D02*
D03*
X503255Y320707D02*
D03*
X499719Y317172D02*
D03*
X496184Y313636D02*
D03*
X492648Y310100D02*
D03*
X489113Y306565D02*
D03*
X485577Y303029D02*
D03*
X482042Y299494D02*
D03*
X478506Y295958D02*
D03*
X474971Y292423D02*
D03*
X471435Y288887D02*
D03*
X467900Y285352D02*
D03*
X464364Y281816D02*
D03*
X460828Y278281D02*
D03*
X457293Y274745D02*
D03*
X447393Y376569D02*
D03*
X443858Y373033D02*
D03*
X440322Y369497D02*
D03*
X436787Y365962D02*
D03*
X433251Y362426D02*
D03*
X429716Y358891D02*
D03*
X426180Y355355D02*
D03*
X422645Y351820D02*
D03*
X419109Y348284D02*
D03*
X415574Y344748D02*
D03*
X412038Y341213D02*
D03*
X408503Y337678D02*
D03*
X404967Y334142D02*
D03*
X401431Y330607D02*
D03*
Y320707D02*
D03*
X429716Y292423D02*
D03*
X433251Y288887D02*
D03*
X443858Y278281D02*
D03*
X447393Y274745D02*
D03*
X436787Y285352D02*
D03*
X440322Y281816D02*
D03*
X412038Y310100D02*
D03*
X408503Y313636D02*
D03*
X404967Y317172D02*
D03*
X422645Y299494D02*
D03*
X426180Y295958D02*
D03*
X753770Y322908D02*
D03*
X750234Y319373D02*
D03*
X743163Y312302D02*
D03*
X739627Y308766D02*
D03*
X697908Y305231D02*
D03*
X704979Y298159D02*
D03*
X701443Y301695D02*
D03*
X687301Y315837D02*
D03*
X676695Y357556D02*
D03*
X690837Y312302D02*
D03*
X736092Y378770D02*
D03*
X739627Y375234D02*
D03*
X746699Y368163D02*
D03*
X757305Y357556D02*
D03*
X712050Y392912D02*
D03*
X704979Y385841D02*
D03*
X690837Y371698D02*
D03*
X746699Y315837D02*
D03*
X767912Y337050D02*
D03*
X764376Y333515D02*
D03*
X760840Y329979D02*
D03*
X757305Y326444D02*
D03*
X736092Y305231D02*
D03*
X732557Y301695D02*
D03*
X729021Y298159D02*
D03*
X725485Y294624D02*
D03*
X721950Y291088D02*
D03*
X712050D02*
D03*
X708515Y294624D02*
D03*
X694373Y308766D02*
D03*
X676695Y326444D02*
D03*
X673160Y329979D02*
D03*
X669624Y333515D02*
D03*
X666088Y337050D02*
D03*
Y346950D02*
D03*
X669624Y350485D02*
D03*
X673160Y354021D02*
D03*
X680230Y361092D02*
D03*
X683766Y364627D02*
D03*
X687301Y368163D02*
D03*
X694373Y375234D02*
D03*
X697908Y378770D02*
D03*
X701443Y382305D02*
D03*
X708515Y389376D02*
D03*
X721950Y392912D02*
D03*
X729021Y385841D02*
D03*
X732557Y382305D02*
D03*
X743163Y371698D02*
D03*
X750234Y364627D02*
D03*
X753770Y361092D02*
D03*
X760840Y354021D02*
D03*
X764376Y350485D02*
D03*
X767912Y346950D02*
D03*
D109*
X717000Y342000D02*
D03*
X452343Y325657D02*
D03*
D110*
X643740Y297490D02*
D03*
X375833Y283146D02*
D03*
X364833Y394646D02*
D03*
X376853Y406667D02*
D03*
X387854Y295167D02*
D03*
X552614Y348678D02*
D03*
X540593Y336657D02*
D03*
X540114Y361428D02*
D03*
X528093Y349407D02*
D03*
X565114Y336678D02*
D03*
X553093Y324657D02*
D03*
X577614Y323928D02*
D03*
X565593Y311907D02*
D03*
X651010Y432510D02*
D03*
X822511Y365261D02*
D03*
X835010Y352761D02*
D03*
X810021Y378271D02*
D03*
X860740Y327740D02*
D03*
X847250Y340250D02*
D03*
X872760Y339760D02*
D03*
X798000Y366250D02*
D03*
X810490Y353240D02*
D03*
X822990Y340740D02*
D03*
X835229Y328229D02*
D03*
X655761Y309510D02*
D03*
X638989Y420490D02*
D03*
X1006326Y608012D02*
D03*
X994305Y595992D02*
D03*
D111*
X770500Y62500D02*
D03*
X779500D02*
D03*
D112*
X108000Y656250D02*
D03*
X152000Y675750D02*
D03*
Y669250D02*
D03*
Y662750D02*
D03*
Y656250D02*
D03*
X108000Y662750D02*
D03*
Y669250D02*
D03*
Y675750D02*
D03*
D113*
X117250Y290250D02*
D03*
Y584250D02*
D03*
D114*
X464821Y416135D02*
D03*
X474366Y425679D02*
D03*
X744272Y444772D02*
D03*
X734728Y435228D02*
D03*
D115*
X440865Y420885D02*
D03*
X431321Y430429D02*
D03*
X1006137Y364928D02*
D03*
X982115Y389647D02*
D03*
X712750Y443750D02*
D03*
X703206Y453294D02*
D03*
X996593Y374473D02*
D03*
X972571Y399192D02*
D03*
D116*
X1057250Y828750D02*
D03*
Y843750D02*
D03*
Y818750D02*
D03*
X1001250Y853750D02*
D03*
Y818750D02*
D03*
Y823750D02*
D03*
Y828750D02*
D03*
Y833750D02*
D03*
Y838750D02*
D03*
Y843750D02*
D03*
Y848750D02*
D03*
Y858750D02*
D03*
X1057250D02*
D03*
Y853750D02*
D03*
Y848750D02*
D03*
Y838750D02*
D03*
Y833750D02*
D03*
Y823750D02*
D03*
D117*
X1029250Y866750D02*
D03*
Y810750D02*
D03*
X1009250Y866750D02*
D03*
X1044250Y810750D02*
D03*
X1049250D02*
D03*
X1014250Y866750D02*
D03*
X1019250D02*
D03*
X1024250D02*
D03*
X1034250D02*
D03*
X1039250D02*
D03*
X1044250D02*
D03*
X1049250D02*
D03*
X1039250Y810750D02*
D03*
X1034250D02*
D03*
X1024250D02*
D03*
X1019250D02*
D03*
X1014250D02*
D03*
X1009250D02*
D03*
D118*
X1167750Y246500D02*
D03*
X1168250Y226500D02*
D03*
X812250Y197250D02*
D03*
X1229750Y325000D02*
D03*
X799250Y243500D02*
D03*
X834250Y269250D02*
D03*
X947000Y1177500D02*
D03*
X1024750Y1219000D02*
D03*
X179750Y690750D02*
D03*
X180000Y669000D02*
D03*
Y643750D02*
D03*
X1445500Y1034750D02*
D03*
X1312500Y1083250D02*
D03*
X1407750Y1032750D02*
D03*
X1265250Y1034000D02*
D03*
X1356500Y1054500D02*
D03*
X1216250Y901750D02*
D03*
X1466750Y1055250D02*
D03*
X1326250Y1033250D02*
D03*
X1364250Y1098000D02*
D03*
X1368750Y1033000D02*
D03*
X1485750Y1033750D02*
D03*
X1216000Y921000D02*
D03*
X1359500Y750500D02*
D03*
X1216000Y942000D02*
D03*
X1389000Y1053500D02*
D03*
X1429250Y1054000D02*
D03*
X1506250Y1056250D02*
D03*
X1216250Y1224000D02*
D03*
X872000Y1215500D02*
D03*
X116500Y997500D02*
D03*
X507273Y626557D02*
D03*
X484524Y653808D02*
D03*
X603500Y618000D02*
D03*
X1465657Y571815D02*
D03*
X1498500Y210750D02*
D03*
X984843Y517157D02*
D03*
X994500Y281500D02*
D03*
X969500Y194000D02*
D03*
X964500Y238250D02*
D03*
X376500Y640000D02*
D03*
X397500Y610500D02*
D03*
X1438750Y1119750D02*
D03*
X1286750Y1165000D02*
D03*
X137750Y998000D02*
D03*
X396247Y753748D02*
D03*
X414247Y712998D02*
D03*
X257250Y726750D02*
D03*
X583500Y646000D02*
D03*
D119*
X795974Y800750D02*
D03*
Y804750D02*
D03*
Y808750D02*
D03*
Y812750D02*
D03*
Y816750D02*
D03*
Y820750D02*
D03*
X831026D02*
D03*
Y816750D02*
D03*
Y812750D02*
D03*
Y808750D02*
D03*
Y804750D02*
D03*
Y800750D02*
D03*
D120*
X72750Y656001D02*
D03*
Y680999D02*
D03*
D121*
X1010468Y481237D02*
D03*
X1014427Y485197D02*
D03*
X1015561Y476394D02*
D03*
X1019521Y480354D02*
D03*
D122*
X372456Y499921D02*
D03*
X452455D02*
D03*
X627456D02*
D03*
X612456D02*
D03*
X547456D02*
D03*
X532456D02*
D03*
X467456D02*
D03*
X387456D02*
D03*
D123*
X1336750Y245000D02*
D03*
D124*
X1229547Y13660D02*
D03*
X1099546D02*
D03*
Y133660D02*
D03*
X1229547D02*
D03*
D125*
X1320400Y328500D02*
D03*
X1344100D02*
D03*
D126*
X1413002Y258250D02*
D03*
X1498000D02*
D03*
D127*
X33250Y1227750D02*
D03*
X1550250Y1221500D02*
D03*
X47750Y49000D02*
D03*
D128*
X1329147Y476165D02*
D03*
Y499865D02*
D03*
D129*
X1528906Y880670D02*
D03*
X1579706D02*
D03*
Y829870D02*
D03*
X1528906D02*
D03*
D130*
X1382750Y212000D02*
D03*
X1433750Y129500D02*
D03*
X1382750D02*
D03*
D131*
X1351878Y39319D02*
D03*
X1306878D02*
D03*
D132*
X52500Y1047100D02*
D03*
Y1072500D02*
D03*
D133*
X82600Y757500D02*
D03*
X57200D02*
D03*
X108000D02*
D03*
X133400D02*
D03*
X158800D02*
D03*
D134*
X290000Y560250D02*
D03*
Y585650D02*
D03*
Y611050D02*
D03*
Y636450D02*
D03*
X1294328Y64219D02*
D03*
X1364428D02*
D03*
D135*
X557540Y193928D02*
D03*
X712190Y121528D02*
D03*
X402890D02*
D03*
X330765Y121427D02*
D03*
X175865D02*
D03*
D136*
X532140Y179928D02*
D03*
X671840D02*
D03*
X310465Y154427D02*
D03*
X468640Y154528D02*
D03*
X481340Y179928D02*
D03*
X494040Y154528D02*
D03*
X455940Y179928D02*
D03*
X506740D02*
D03*
X297765Y179827D02*
D03*
X285065Y154427D02*
D03*
X259665D02*
D03*
X234265D02*
D03*
X208865D02*
D03*
X272365Y179827D02*
D03*
X246965D02*
D03*
X221565D02*
D03*
X646440Y179928D02*
D03*
X621040D02*
D03*
X595640D02*
D03*
X519440Y154528D02*
D03*
X659140D02*
D03*
X633740D02*
D03*
X608340D02*
D03*
D137*
X552440Y50427D02*
D03*
X448240D02*
D03*
X187015Y50127D02*
D03*
X294215D02*
D03*
X319615D02*
D03*
X212415D02*
D03*
X666840Y50427D02*
D03*
X692240D02*
D03*
X422840D02*
D03*
X527040D02*
D03*
X588040Y68128D02*
D03*
X562640D02*
D03*
D138*
X443240Y154528D02*
D03*
X196165Y179827D02*
D03*
X582940Y154528D02*
D03*
D139*
X852126Y62143D02*
D03*
X814026D02*
D03*
X1001986D02*
D03*
X963886D02*
D03*
D140*
X890227D02*
D03*
X1040087D02*
D03*
D141*
X1554306Y855270D02*
D03*
X1434558Y79556D02*
D03*
X1484557D02*
D03*
D142*
X52500Y1097900D02*
D03*
D143*
X310465Y90927D02*
D03*
X196165D02*
D03*
X684540Y91028D02*
D03*
X430540D02*
D03*
D144*
X1114547Y26160D02*
D03*
X1199547D02*
D03*
D145*
X1433750Y212000D02*
D03*
D146*
X1499957Y154320D02*
D03*
Y1154320D02*
D03*
X683193Y1157458D02*
D03*
X203193Y827459D02*
D03*
X683193D02*
D03*
X203193Y1157458D02*
D03*
X99956Y154320D02*
D03*
Y1154320D02*
D03*
D147*
X31800Y757500D02*
D03*
D148*
X1268687Y1222722D02*
D03*
X1319487Y1171922D02*
D03*
X1357587Y1146522D02*
D03*
X1294086Y1222722D02*
D03*
X1344886Y1171922D02*
D03*
X1382986Y1146522D02*
D03*
X862287Y3522D02*
D03*
X887686D02*
D03*
X582887D02*
D03*
X214587Y282910D02*
D03*
X201887Y308322D02*
D03*
X214587Y232122D02*
D03*
X138386Y333722D02*
D03*
X189186Y282922D02*
D03*
X74886Y511522D02*
D03*
X125687Y460722D02*
D03*
X74886Y968722D02*
D03*
X36786Y943322D02*
D03*
X49486Y917922D02*
D03*
X62186Y892522D02*
D03*
X36786D02*
D03*
X49486Y867122D02*
D03*
X62186Y841722D02*
D03*
X328886Y1222722D02*
D03*
X1464286Y552496D02*
D03*
X1240500Y609000D02*
D03*
X786087Y257522D02*
D03*
X316187Y333722D02*
D03*
X467595Y379365D02*
D03*
X472165Y383792D02*
D03*
X465915Y386042D02*
D03*
X349250Y1240000D02*
D03*
X386250Y1253250D02*
D03*
X1573486Y1222722D02*
D03*
Y1171922D02*
D03*
X1586187Y1146522D02*
D03*
X1573486Y1121122D02*
D03*
Y1070322D02*
D03*
X1586187Y1044922D02*
D03*
X1573486Y1019522D02*
D03*
X1586187Y994122D02*
D03*
X1573486Y968722D02*
D03*
Y917922D02*
D03*
X1586187Y790922D02*
D03*
X1573486Y765522D02*
D03*
X1586187Y740122D02*
D03*
X1573486Y714722D02*
D03*
X1586187Y689322D02*
D03*
Y638522D02*
D03*
X1573486Y613122D02*
D03*
X1586187Y587722D02*
D03*
X1573486Y511522D02*
D03*
X1586187Y486122D02*
D03*
Y435322D02*
D03*
Y384522D02*
D03*
Y333722D02*
D03*
X1573486Y308322D02*
D03*
X1586187Y282922D02*
D03*
X1573486Y257522D02*
D03*
X1586187Y232122D02*
D03*
X1573486Y105122D02*
D03*
X1586187Y79722D02*
D03*
X1573486Y54322D02*
D03*
Y3522D02*
D03*
X1548087Y1171922D02*
D03*
Y1121122D02*
D03*
X1560786Y1095722D02*
D03*
X1548087Y1019522D02*
D03*
Y968722D02*
D03*
Y917922D02*
D03*
X1560786Y841722D02*
D03*
Y740122D02*
D03*
X1548087Y714722D02*
D03*
Y663922D02*
D03*
Y613122D02*
D03*
X1560786Y587722D02*
D03*
X1548087Y562322D02*
D03*
X1560786Y536922D02*
D03*
X1548087Y511522D02*
D03*
Y460722D02*
D03*
Y409922D02*
D03*
X1560786Y384522D02*
D03*
X1548087Y359122D02*
D03*
X1560786Y333722D02*
D03*
X1548087Y308322D02*
D03*
X1560786Y282922D02*
D03*
Y232122D02*
D03*
X1548087Y206722D02*
D03*
Y155922D02*
D03*
Y105122D02*
D03*
X1560786Y79722D02*
D03*
X1548087Y54322D02*
D03*
Y3522D02*
D03*
X1522686Y1222722D02*
D03*
X1535387Y1197322D02*
D03*
X1522686Y1171922D02*
D03*
X1535387Y1146522D02*
D03*
X1522686Y1121122D02*
D03*
X1535387Y1044922D02*
D03*
X1522686Y1019522D02*
D03*
X1535387Y994122D02*
D03*
X1522686Y968722D02*
D03*
X1535387Y943322D02*
D03*
X1522686Y917922D02*
D03*
Y765522D02*
D03*
X1535387Y740122D02*
D03*
X1522686Y714722D02*
D03*
X1535387Y689322D02*
D03*
Y638522D02*
D03*
Y587722D02*
D03*
X1522686Y562322D02*
D03*
X1535387Y536922D02*
D03*
X1522686Y460722D02*
D03*
Y409922D02*
D03*
X1535387Y384522D02*
D03*
Y333722D02*
D03*
X1522686Y308322D02*
D03*
X1535387Y232122D02*
D03*
X1522686Y206722D02*
D03*
X1535387Y181322D02*
D03*
X1522686Y155922D02*
D03*
Y105122D02*
D03*
X1535387Y79722D02*
D03*
X1522686Y54322D02*
D03*
X1535387Y28922D02*
D03*
X1522686Y3522D02*
D03*
X1509987Y1197322D02*
D03*
X1497287Y1171922D02*
D03*
X1509987Y1044922D02*
D03*
X1497287Y968722D02*
D03*
X1509987Y892522D02*
D03*
Y790922D02*
D03*
Y740122D02*
D03*
X1497287Y562322D02*
D03*
Y460722D02*
D03*
Y409922D02*
D03*
Y308322D02*
D03*
X1509987Y232122D02*
D03*
Y181322D02*
D03*
Y130522D02*
D03*
X1497287Y54322D02*
D03*
Y3522D02*
D03*
X1484586Y1146522D02*
D03*
Y1044922D02*
D03*
Y994122D02*
D03*
X1471886Y968722D02*
D03*
Y867122D02*
D03*
Y663922D02*
D03*
X1484586Y536922D02*
D03*
X1471886Y460722D02*
D03*
Y409922D02*
D03*
Y308322D02*
D03*
Y206722D02*
D03*
X1484586Y181322D02*
D03*
Y130522D02*
D03*
X1471886Y54322D02*
D03*
Y3522D02*
D03*
X1446487Y1222722D02*
D03*
X1459187Y1197322D02*
D03*
X1446487Y1121122D02*
D03*
X1459187Y1095722D02*
D03*
X1446487Y1070322D02*
D03*
X1459187Y1044922D02*
D03*
X1446487Y917922D02*
D03*
X1459187Y790922D02*
D03*
X1446487Y765522D02*
D03*
X1459187Y740122D02*
D03*
Y536922D02*
D03*
Y384522D02*
D03*
X1446487Y308322D02*
D03*
Y257522D02*
D03*
X1459187Y232122D02*
D03*
X1446487Y206722D02*
D03*
Y155922D02*
D03*
X1459187Y79722D02*
D03*
X1446487Y54322D02*
D03*
X1459187Y28922D02*
D03*
X1421086Y1222722D02*
D03*
Y1171922D02*
D03*
X1433786Y1095722D02*
D03*
X1421086Y1070322D02*
D03*
Y1019522D02*
D03*
Y968722D02*
D03*
Y867122D02*
D03*
X1433786Y740122D02*
D03*
X1421086Y714722D02*
D03*
Y663922D02*
D03*
X1433786Y638522D02*
D03*
X1421086Y562322D02*
D03*
X1433786Y536922D02*
D03*
Y486122D02*
D03*
X1421086Y460722D02*
D03*
X1433786Y435322D02*
D03*
X1421086Y409922D02*
D03*
X1433786Y384522D02*
D03*
X1421086Y308322D02*
D03*
X1433786Y282922D02*
D03*
Y232122D02*
D03*
Y181322D02*
D03*
X1421086Y105122D02*
D03*
Y54322D02*
D03*
X1433786Y28922D02*
D03*
X1421086Y3522D02*
D03*
X1395686Y1222722D02*
D03*
Y1171922D02*
D03*
X1408387Y1146522D02*
D03*
X1395686Y1070322D02*
D03*
X1408387Y1044922D02*
D03*
X1395686Y1019522D02*
D03*
Y968722D02*
D03*
X1408387Y943322D02*
D03*
Y892522D02*
D03*
X1395686Y867122D02*
D03*
X1408387Y841722D02*
D03*
X1395686Y765522D02*
D03*
X1408387Y740122D02*
D03*
X1395686Y714722D02*
D03*
X1408387Y689322D02*
D03*
Y638522D02*
D03*
X1395686Y562322D02*
D03*
Y460722D02*
D03*
X1408387Y435322D02*
D03*
X1395686Y409922D02*
D03*
Y206722D02*
D03*
X1408387Y130522D02*
D03*
X1395686Y54322D02*
D03*
X1382986Y1197322D02*
D03*
X1370287Y1171922D02*
D03*
Y1070322D02*
D03*
X1382986Y943322D02*
D03*
X1370287Y917922D02*
D03*
X1382986Y892522D02*
D03*
X1370287Y867122D02*
D03*
X1382986Y841722D02*
D03*
Y740122D02*
D03*
Y689322D02*
D03*
Y638522D02*
D03*
Y587722D02*
D03*
X1370287Y562322D02*
D03*
Y409922D02*
D03*
X1382986Y282922D02*
D03*
X1370287Y257522D02*
D03*
X1382986Y232122D02*
D03*
X1370287Y206722D02*
D03*
X1382986Y181322D02*
D03*
X1370287Y155922D02*
D03*
Y105122D02*
D03*
X1382986Y79722D02*
D03*
X1370287Y54322D02*
D03*
X1382986Y28922D02*
D03*
X1370287Y3522D02*
D03*
X1344886Y1222722D02*
D03*
X1357587Y1197322D02*
D03*
X1344886Y1121122D02*
D03*
X1357587Y1095722D02*
D03*
X1344886Y1019522D02*
D03*
Y968722D02*
D03*
X1357587Y943322D02*
D03*
Y892522D02*
D03*
X1344886Y867122D02*
D03*
Y765522D02*
D03*
X1357587Y740122D02*
D03*
X1344886Y714722D02*
D03*
X1357587Y689322D02*
D03*
X1344886Y663922D02*
D03*
X1357587Y638522D02*
D03*
Y587722D02*
D03*
X1344886Y409922D02*
D03*
X1357587Y384522D02*
D03*
X1344886Y206722D02*
D03*
X1357587Y181322D02*
D03*
Y130522D02*
D03*
X1344886Y105122D02*
D03*
X1357587Y28922D02*
D03*
X1344886Y3522D02*
D03*
X1319487Y1222722D02*
D03*
X1332186Y1197322D02*
D03*
X1319487Y1121122D02*
D03*
Y1070322D02*
D03*
X1332186Y1044922D02*
D03*
X1319487Y1019522D02*
D03*
X1332186Y994122D02*
D03*
Y943322D02*
D03*
X1319487Y917922D02*
D03*
X1332186Y892522D02*
D03*
Y841722D02*
D03*
Y740122D02*
D03*
X1319487Y714722D02*
D03*
X1332186Y689322D02*
D03*
X1319487Y663922D02*
D03*
X1332186Y587722D02*
D03*
X1319487Y409922D02*
D03*
X1332186Y384522D02*
D03*
Y282922D02*
D03*
X1319487Y206722D02*
D03*
X1332186Y79722D02*
D03*
X1319487Y54322D02*
D03*
X1332186Y28922D02*
D03*
X1294086Y1171922D02*
D03*
Y1121122D02*
D03*
Y917922D02*
D03*
Y714722D02*
D03*
Y663922D02*
D03*
X1306786Y638522D02*
D03*
Y587722D02*
D03*
Y384522D02*
D03*
X1294086Y308322D02*
D03*
X1306786Y282922D02*
D03*
Y232122D02*
D03*
Y28922D02*
D03*
X1281387Y1197322D02*
D03*
X1268687Y1171922D02*
D03*
Y1121122D02*
D03*
Y1070322D02*
D03*
X1281387Y994122D02*
D03*
X1268687Y867122D02*
D03*
X1281387Y790922D02*
D03*
X1268687Y765522D02*
D03*
X1281387Y740122D02*
D03*
X1268687Y663922D02*
D03*
Y562322D02*
D03*
X1281387Y536922D02*
D03*
X1268687Y409922D02*
D03*
X1281387Y282922D02*
D03*
X1268687Y3522D02*
D03*
X1255986Y1197322D02*
D03*
X1243287Y1171922D02*
D03*
X1255986Y1146522D02*
D03*
X1243287Y1121122D02*
D03*
X1255986Y1095722D02*
D03*
X1243287Y1070322D02*
D03*
X1255986Y1044922D02*
D03*
X1243287Y1019522D02*
D03*
X1255986Y994122D02*
D03*
X1243287Y816322D02*
D03*
X1255986Y790922D02*
D03*
X1243287Y714722D02*
D03*
X1255986Y689322D02*
D03*
X1243287Y663922D02*
D03*
X1255986Y638522D02*
D03*
X1243287Y613122D02*
D03*
Y511522D02*
D03*
X1255986Y486122D02*
D03*
Y435322D02*
D03*
Y28922D02*
D03*
X1243287Y3522D02*
D03*
X1217887Y1171922D02*
D03*
X1230586Y1095722D02*
D03*
Y892522D02*
D03*
X1217887Y867122D02*
D03*
X1230586Y790922D02*
D03*
Y740122D02*
D03*
Y689322D02*
D03*
X1217887Y663922D02*
D03*
Y613122D02*
D03*
X1230586Y486122D02*
D03*
Y435322D02*
D03*
X1217887Y155922D02*
D03*
Y105122D02*
D03*
X1230586Y79722D02*
D03*
Y28922D02*
D03*
X1205186Y1146522D02*
D03*
Y1095722D02*
D03*
Y1044922D02*
D03*
Y994122D02*
D03*
X1192486Y968722D02*
D03*
X1205186Y943322D02*
D03*
Y841722D02*
D03*
Y740122D02*
D03*
Y689322D02*
D03*
X1192486Y663922D02*
D03*
Y613122D02*
D03*
X1205186Y587722D02*
D03*
X1192486Y105122D02*
D03*
X1205186Y79722D02*
D03*
X1192486Y54322D02*
D03*
X1205186Y28922D02*
D03*
X1179787Y1044922D02*
D03*
Y994122D02*
D03*
Y790922D02*
D03*
X1167086Y765522D02*
D03*
X1179787Y740122D02*
D03*
X1167086Y714722D02*
D03*
X1179787Y689322D02*
D03*
Y638522D02*
D03*
Y181322D02*
D03*
X1167086Y105122D02*
D03*
Y54322D02*
D03*
X1154387Y1044922D02*
D03*
X1141686Y765522D02*
D03*
X1154387Y740122D02*
D03*
Y689322D02*
D03*
X1141686Y663922D02*
D03*
X1116286Y1121122D02*
D03*
Y1019522D02*
D03*
X1128987Y994122D02*
D03*
Y740122D02*
D03*
X1116286Y714722D02*
D03*
X1128987Y689322D02*
D03*
X1103587Y994122D02*
D03*
X1090887Y968722D02*
D03*
X1103587Y232122D02*
D03*
X1090887Y206722D02*
D03*
X1103587Y181322D02*
D03*
X1090887Y155922D02*
D03*
Y54322D02*
D03*
X1103587Y28922D02*
D03*
X1065487Y1070322D02*
D03*
Y1019522D02*
D03*
X1078186Y994122D02*
D03*
X1065487Y968722D02*
D03*
X1040087Y1121122D02*
D03*
X1052786Y1095722D02*
D03*
X1040087Y1019522D02*
D03*
X1052786Y994122D02*
D03*
X1040087Y968722D02*
D03*
Y3522D02*
D03*
X1027386Y994122D02*
D03*
X1014687Y968722D02*
D03*
X1027386Y28922D02*
D03*
X1001986Y994122D02*
D03*
X963886Y1121122D02*
D03*
Y1019522D02*
D03*
X938486D02*
D03*
Y54322D02*
D03*
X925787Y1095722D02*
D03*
X913086Y1019522D02*
D03*
X925787Y994122D02*
D03*
X913086Y54322D02*
D03*
X874986Y1095722D02*
D03*
X862287Y1070322D02*
D03*
Y257522D02*
D03*
Y206722D02*
D03*
X874986Y130522D02*
D03*
Y28922D02*
D03*
X836887Y257522D02*
D03*
X849586Y181322D02*
D03*
Y130522D02*
D03*
Y28922D02*
D03*
X811487Y257522D02*
D03*
X824186Y232122D02*
D03*
Y181322D02*
D03*
X811487Y155922D02*
D03*
X824186Y28922D02*
D03*
X786087Y206722D02*
D03*
X798786Y181322D02*
D03*
X786087Y105122D02*
D03*
X798786Y79722D02*
D03*
X786087Y54322D02*
D03*
X798786Y28922D02*
D03*
X786087Y3522D02*
D03*
X760686Y1222722D02*
D03*
Y1171922D02*
D03*
Y1121122D02*
D03*
Y1070322D02*
D03*
Y1019522D02*
D03*
Y968722D02*
D03*
X773387Y943322D02*
D03*
X760686Y917922D02*
D03*
Y54322D02*
D03*
X773387Y28922D02*
D03*
X760686Y3522D02*
D03*
X735286Y1222722D02*
D03*
Y1171922D02*
D03*
X747987Y1095722D02*
D03*
Y232122D02*
D03*
X735286Y155922D02*
D03*
X747987Y130522D02*
D03*
X735286Y105122D02*
D03*
X747987Y79722D02*
D03*
X735286Y54322D02*
D03*
X747987Y28922D02*
D03*
X735286Y3522D02*
D03*
X709886Y1171922D02*
D03*
Y155922D02*
D03*
X722587Y79722D02*
D03*
X709886Y54322D02*
D03*
X722587Y28922D02*
D03*
X684486Y1222722D02*
D03*
X697187Y1197322D02*
D03*
Y1146522D02*
D03*
Y181322D02*
D03*
Y130522D02*
D03*
X671786Y1197322D02*
D03*
X659087Y1019522D02*
D03*
X671786Y994122D02*
D03*
Y943322D02*
D03*
X659087Y917922D02*
D03*
X671786Y892522D02*
D03*
X659087Y867122D02*
D03*
X671786Y841722D02*
D03*
X646386Y1197322D02*
D03*
X633686Y1019522D02*
D03*
X646386Y994122D02*
D03*
Y943322D02*
D03*
Y892522D02*
D03*
X633686Y867122D02*
D03*
X646386Y841722D02*
D03*
X633686Y3522D02*
D03*
X620987Y1044922D02*
D03*
Y994122D02*
D03*
Y943322D02*
D03*
X608287Y917922D02*
D03*
X620987Y841722D02*
D03*
X608287Y816322D02*
D03*
Y3522D02*
D03*
X595587Y1044922D02*
D03*
Y994122D02*
D03*
Y943322D02*
D03*
Y841722D02*
D03*
X570187Y1095722D02*
D03*
Y1044922D02*
D03*
Y994122D02*
D03*
Y943322D02*
D03*
Y841722D02*
D03*
X557486Y3522D02*
D03*
X544786Y1095722D02*
D03*
X532086Y1070322D02*
D03*
X544786Y994122D02*
D03*
Y943322D02*
D03*
Y841722D02*
D03*
X532086Y3522D02*
D03*
X519386Y1044922D02*
D03*
Y994122D02*
D03*
Y943322D02*
D03*
X506687Y3522D02*
D03*
X481287Y1222722D02*
D03*
X493987Y1095722D02*
D03*
X481287Y1070322D02*
D03*
X493987Y1044922D02*
D03*
X481287Y1019522D02*
D03*
X493987Y994122D02*
D03*
Y943322D02*
D03*
X481287Y917922D02*
D03*
Y816322D02*
D03*
Y3522D02*
D03*
X455886Y1222722D02*
D03*
Y1070322D02*
D03*
Y1019522D02*
D03*
X468587Y994122D02*
D03*
X455886Y968722D02*
D03*
X468587Y943322D02*
D03*
X455886Y917922D02*
D03*
X468587Y892522D02*
D03*
X455886Y816322D02*
D03*
Y3522D02*
D03*
X443186Y1044922D02*
D03*
Y994122D02*
D03*
Y943322D02*
D03*
X430486Y3522D02*
D03*
X405087D02*
D03*
X379687D02*
D03*
X354286D02*
D03*
X341586Y1095722D02*
D03*
X328886Y917922D02*
D03*
Y816322D02*
D03*
Y460722D02*
D03*
Y409922D02*
D03*
Y3522D02*
D03*
X316187Y1197322D02*
D03*
X303486Y1171922D02*
D03*
X316187Y1146522D02*
D03*
X303486Y1121122D02*
D03*
X316187Y1095722D02*
D03*
X303486Y1070322D02*
D03*
X316187Y1044922D02*
D03*
X303486Y1019522D02*
D03*
X316187Y994122D02*
D03*
X303486Y968722D02*
D03*
Y917922D02*
D03*
X316187Y841722D02*
D03*
X303486Y816322D02*
D03*
X316187Y790922D02*
D03*
X303486Y765522D02*
D03*
X316187Y486122D02*
D03*
Y435322D02*
D03*
X303486Y409922D02*
D03*
X316187Y384522D02*
D03*
X303486Y3522D02*
D03*
X278086Y1222722D02*
D03*
X290786Y1197322D02*
D03*
X278086Y1171922D02*
D03*
X290786Y1095722D02*
D03*
X278086Y1070322D02*
D03*
X290786Y1044922D02*
D03*
Y994122D02*
D03*
Y943322D02*
D03*
Y892522D02*
D03*
X278086Y867122D02*
D03*
X290786Y841722D02*
D03*
Y790922D02*
D03*
X278086Y511522D02*
D03*
X290786Y486122D02*
D03*
Y384522D02*
D03*
Y333722D02*
D03*
Y282922D02*
D03*
X278086Y3522D02*
D03*
X252687Y1222722D02*
D03*
Y1171922D02*
D03*
X265387Y1146522D02*
D03*
X252687Y1070322D02*
D03*
X265387Y1044922D02*
D03*
Y994122D02*
D03*
X252687Y968722D02*
D03*
X265387Y943322D02*
D03*
X252687Y917922D02*
D03*
X265387Y892522D02*
D03*
X252687Y867122D02*
D03*
Y816322D02*
D03*
X265387Y790922D02*
D03*
X252687Y765522D02*
D03*
X265387Y740122D02*
D03*
X252687Y714722D02*
D03*
X265387Y536922D02*
D03*
Y486122D02*
D03*
X252687Y460722D02*
D03*
X265387Y435322D02*
D03*
X252687Y359122D02*
D03*
X265387Y333722D02*
D03*
X252687Y308322D02*
D03*
X265387Y282922D02*
D03*
X252687Y257522D02*
D03*
Y3522D02*
D03*
X227286Y1222722D02*
D03*
X239986Y1197322D02*
D03*
X227286Y1171922D02*
D03*
X239986Y1095722D02*
D03*
X227286Y1070322D02*
D03*
Y1019522D02*
D03*
X239986Y994122D02*
D03*
Y943322D02*
D03*
X227286Y917922D02*
D03*
X239986Y892522D02*
D03*
Y790922D02*
D03*
X227286Y714722D02*
D03*
Y562322D02*
D03*
X239986Y536922D02*
D03*
Y486122D02*
D03*
X227286Y460722D02*
D03*
X239986Y333722D02*
D03*
Y282922D02*
D03*
X227286Y3522D02*
D03*
X201887Y1222722D02*
D03*
Y1121122D02*
D03*
Y1070322D02*
D03*
X214587Y1044922D02*
D03*
Y994122D02*
D03*
X201887Y917922D02*
D03*
X214587Y790922D02*
D03*
X201887Y765522D02*
D03*
Y714722D02*
D03*
X214587Y638522D02*
D03*
X201887Y613122D02*
D03*
Y562322D02*
D03*
Y511522D02*
D03*
Y460722D02*
D03*
Y409922D02*
D03*
X214587Y384522D02*
D03*
X201887Y359122D02*
D03*
X214587Y333722D02*
D03*
X201887Y257522D02*
D03*
Y206722D02*
D03*
Y3522D02*
D03*
X176486Y1171922D02*
D03*
X189186Y1146522D02*
D03*
Y1095722D02*
D03*
Y1044922D02*
D03*
Y994122D02*
D03*
X176486Y917922D02*
D03*
X189186Y892522D02*
D03*
X176486Y816322D02*
D03*
X189186Y790922D02*
D03*
Y740122D02*
D03*
Y638522D02*
D03*
X176486Y613122D02*
D03*
X189186Y587722D02*
D03*
X176486Y511522D02*
D03*
X189186Y435322D02*
D03*
X176486Y409922D02*
D03*
X189186Y384522D02*
D03*
X176486Y359122D02*
D03*
Y155922D02*
D03*
X151087Y1222722D02*
D03*
X163787Y1197322D02*
D03*
X151087Y1171922D02*
D03*
X163787Y1146522D02*
D03*
X151087Y1070322D02*
D03*
X163787Y1044922D02*
D03*
Y994122D02*
D03*
X151087Y968722D02*
D03*
Y917922D02*
D03*
Y867122D02*
D03*
Y816322D02*
D03*
Y765522D02*
D03*
Y714722D02*
D03*
Y613122D02*
D03*
X163787Y587722D02*
D03*
X151087Y562322D02*
D03*
X163787Y486122D02*
D03*
X151087Y460722D02*
D03*
X163787Y435322D02*
D03*
X151087Y409922D02*
D03*
X163787Y384522D02*
D03*
X151087Y308322D02*
D03*
X163787Y282922D02*
D03*
X151087Y257522D02*
D03*
X163787Y181322D02*
D03*
X151087Y155922D02*
D03*
Y3522D02*
D03*
X125687Y1222722D02*
D03*
Y1171922D02*
D03*
Y1121122D02*
D03*
Y1070322D02*
D03*
X138386Y1044922D02*
D03*
X125687Y917922D02*
D03*
X138386Y892522D02*
D03*
Y790922D02*
D03*
Y740122D02*
D03*
Y638522D02*
D03*
X125687Y613122D02*
D03*
X138386Y587722D02*
D03*
X125687Y511522D02*
D03*
X138386Y435322D02*
D03*
Y384522D02*
D03*
X125687Y308322D02*
D03*
X138386Y282922D02*
D03*
X125687Y206722D02*
D03*
X138386Y181322D02*
D03*
X125687Y155922D02*
D03*
X138386Y130522D02*
D03*
X125687Y105122D02*
D03*
Y3522D02*
D03*
X100287Y1222722D02*
D03*
X112986Y1197322D02*
D03*
X100287Y1171922D02*
D03*
Y765522D02*
D03*
X112986Y638522D02*
D03*
X100287Y613122D02*
D03*
Y562322D02*
D03*
X112986Y536922D02*
D03*
X100287Y511522D02*
D03*
Y460722D02*
D03*
X112986Y435322D02*
D03*
Y384522D02*
D03*
Y333722D02*
D03*
Y232122D02*
D03*
Y181322D02*
D03*
X100287Y105122D02*
D03*
Y3522D02*
D03*
X74886Y1222722D02*
D03*
X87586Y1197322D02*
D03*
X74886Y1171922D02*
D03*
Y1070322D02*
D03*
X87586Y1044922D02*
D03*
X74886Y1019522D02*
D03*
X87586Y994122D02*
D03*
X74886Y613122D02*
D03*
X87586Y587722D02*
D03*
Y486122D02*
D03*
X74886Y460722D02*
D03*
X87586Y384522D02*
D03*
X74886Y359122D02*
D03*
X87586Y333722D02*
D03*
Y282922D02*
D03*
X74886Y257522D02*
D03*
X87586Y181322D02*
D03*
Y130522D02*
D03*
Y79722D02*
D03*
Y28922D02*
D03*
X49486Y1222722D02*
D03*
Y1171922D02*
D03*
X62186Y1146522D02*
D03*
X49486Y1121122D02*
D03*
X62186Y994122D02*
D03*
Y689322D02*
D03*
X49486Y663922D02*
D03*
X62186Y638522D02*
D03*
X49486Y613122D02*
D03*
X62186Y587722D02*
D03*
X49486Y562322D02*
D03*
Y511522D02*
D03*
X62186Y486122D02*
D03*
X49486Y460722D02*
D03*
X62186Y435322D02*
D03*
Y384522D02*
D03*
X49486Y359122D02*
D03*
X62186Y333722D02*
D03*
X49486Y308322D02*
D03*
X62186Y282922D02*
D03*
X49486Y257522D02*
D03*
Y206722D02*
D03*
X62186Y181322D02*
D03*
X49486Y105122D02*
D03*
X62186Y79722D02*
D03*
X49486Y3522D02*
D03*
X24086Y1171922D02*
D03*
X36786Y1146522D02*
D03*
X24086Y1121122D02*
D03*
Y1070322D02*
D03*
X36786Y1044922D02*
D03*
Y994122D02*
D03*
X24086Y917922D02*
D03*
Y867122D02*
D03*
Y816322D02*
D03*
X36786Y790922D02*
D03*
X24086Y714722D02*
D03*
Y663922D02*
D03*
X36786Y638522D02*
D03*
X24086Y613122D02*
D03*
Y562322D02*
D03*
Y511522D02*
D03*
Y460722D02*
D03*
X36786Y435322D02*
D03*
X24086Y359122D02*
D03*
Y308322D02*
D03*
X36786Y282922D02*
D03*
X24086Y257522D02*
D03*
Y206722D02*
D03*
Y155922D02*
D03*
Y105122D02*
D03*
Y54322D02*
D03*
Y3522D02*
D03*
X1419000Y1138654D02*
D03*
X440250Y1187750D02*
D03*
X1269250Y1189250D02*
D03*
X449500Y1187750D02*
D03*
M02*
